<?xml version="1.0" standalone="no"?>
<!DOCTYPE svg PUBLIC "-//W3C//DTD SVG 20010904//EN"
 "http://www.w3.org/TR/2001/REC-SVG-20010904/DTD/svg10.dtd">
<svg version="1.0" xmlns="http://www.w3.org/2000/svg"
 width="1200.000000pt" height="1600.000000pt" viewBox="0 0 1200.000000 1600.000000"
 preserveAspectRatio="xMidYMid meet">
<metadata>
Created by potrace 1.16, written by Peter Selinger 2001-2019
</metadata>
<g transform="translate(0.000000,1600.000000) scale(0.100000,-0.100000)"
fill="#000000" stroke="none">
<path d="M7 15713 c-2 -4 -5 -30 -6 -57 -2 -43 2 -53 25 -73 33 -28 54 -30 29
-3 -17 18 -17 20 -2 14 16 -6 21 -16 18 -41 -1 -6 7 -9 18 -6 14 4 24 -3 35
-26 9 -17 21 -31 26 -31 6 0 29 -9 53 -19 81 -37 222 -84 255 -85 24 -1 31 -5
27 -16 -5 -11 -3 -12 5 -4 9 9 9 17 0 33 -6 12 -8 26 -5 31 3 5 0 12 -6 16 -7
4 -9 3 -6 -3 4 -6 0 -14 -9 -17 -12 -4 -15 -2 -11 9 5 11 -1 14 -26 11 -29 -4
-30 -3 -12 10 17 12 14 18 -7 15 -4 0 -5 6 -1 15 5 13 8 13 28 -3 12 -10 -1 4
-29 30 -53 51 -98 80 -129 82 -10 1 -23 8 -30 15 -10 10 -7 10 13 0 18 -9 22
-9 14 -1 -6 7 -26 14 -45 16 -26 4 -31 2 -19 -6 12 -9 12 -10 -3 -5 -10 3 -21
6 -23 6 -3 0 -3 4 0 9 3 5 -1 12 -10 15 -10 4 -13 2 -8 -7 4 -6 -2 -4 -13 6
-11 9 -32 17 -46 17 -28 0 -37 14 -14 23 6 3 -2 3 -19 0 -17 -3 -34 0 -38 5
-4 6 3 8 16 5 16 -4 20 -2 13 5 -14 14 -53 24 -58 15z"/>
<path d="M0 15186 l0 -310 31 30 c51 47 89 114 89 154 0 20 5 41 12 48 7 7 8
12 4 12 -5 0 -3 7 4 15 9 11 10 34 5 80 -8 75 -54 176 -110 240 l-35 40 0
-309z"/>
<path d="M9316 13540 c13 -725 17 -846 24 -864 7 -18 9 -15 15 17 4 21 5 50 2
66 -8 37 2 71 19 71 8 0 14 5 14 10 0 6 -7 10 -15 10 -8 0 -15 7 -15 15 0 8 7
15 15 15 11 0 15 11 15 40 0 22 5 40 11 40 6 0 9 18 8 46 -3 36 1 49 16 60 19
14 19 14 -1 28 -15 11 -19 23 -16 60 3 31 9 46 18 46 11 0 14 16 14 65 0 36
-4 65 -9 65 -17 0 -23 -20 -11 -35 9 -11 9 -15 1 -15 -6 0 -11 -17 -11 -40 0
-22 -4 -40 -10 -40 -5 0 -10 18 -10 40 0 22 -4 40 -10 40 -5 0 -7 7 -4 15 4 8
1 15 -5 15 -6 0 -11 7 -11 15 0 8 6 15 14 15 7 0 27 7 42 15 l29 15 -42 0
c-41 0 -43 2 -43 29 0 23 5 30 22 33 24 3 38 28 15 28 -8 0 -19 10 -24 23 -9
19 -12 10 -21 -53 l-10 -75 5 98 c4 69 2 97 -6 97 -6 0 -11 16 -11 37 0 38 14
36 23 -2 4 -15 5 -13 6 8 1 28 25 38 34 15 3 -7 6 5 6 27 0 32 -2 36 -10 23
-22 -39 -54 -8 -70 69 -4 21 -6 -63 -3 -187z"/>
<path d="M9176 13364 c-10 -25 -7 -84 4 -84 6 0 10 -7 10 -15 0 -8 -6 -15 -14
-15 -10 0 -15 -27 -20 -104 -7 -119 -2 -237 20 -451 24 -225 32 -244 33 -77 1
117 -2 144 -14 148 -13 5 -13 8 0 21 15 15 15 104 0 323 -3 41 -1 100 4 131
14 85 -3 176 -23 123z"/>
<path d="M339 13295 c-1 -5 -2 -17 -3 -25 -1 -10 -17 -17 -47 -21 -77 -11
-132 -49 -165 -112 -17 -32 -36 -125 -28 -138 3 -5 24 2 48 16 24 14 51 25 62
25 20 0 81 20 102 33 7 5 12 4 12 -2 0 -5 -5 -13 -10 -16 -6 -4 -8 -11 -5 -16
4 -5 1 -9 -4 -9 -6 0 -11 -7 -11 -16 0 -11 -6 -14 -21 -9 -15 5 -19 4 -15 -4
4 -6 24 -11 45 -11 30 0 42 -6 56 -26 13 -20 19 -23 30 -14 8 7 19 9 26 5 6
-4 38 -11 70 -14 55 -7 59 -6 59 13 0 17 9 11 44 -29 25 -27 47 -47 51 -43 4
3 7 35 7 70 0 106 -44 184 -141 246 -31 19 -62 43 -69 53 -6 10 -27 21 -45 24
-17 4 -35 13 -39 19 -5 6 -8 7 -9 1z m75 -63 c4 -10 23 -24 43 -31 45 -17 132
-102 157 -154 24 -52 15 -56 -18 -7 -15 22 -49 53 -79 70 -51 29 -94 40 -82
20 3 -5 1 -10 -5 -10 -8 0 -10 -9 -6 -25 7 -27 0 -30 -41 -19 -13 4 -20 11
-16 17 4 6 0 8 -10 4 -14 -5 -17 0 -17 28 0 42 17 47 23 8 4 -26 4 -26 6 5 l1
32 -58 0 c-71 0 -147 -24 -167 -53 -22 -31 -18 -8 4 29 34 55 158 103 188 73
8 -8 13 -5 18 10 8 27 51 29 59 3z"/>
<path d="M9511 13238 c-1 -20 3 -39 9 -43 5 -3 9 -18 9 -33 0 -15 5 -63 11
-107 6 -44 13 -105 16 -135 3 -30 7 -73 10 -95 2 -22 11 -107 20 -190 8 -82
20 -166 24 -185 5 -19 12 -57 16 -85 5 -40 8 -46 16 -31 15 26 1 143 -18 150
-9 3 -12 11 -8 18 4 6 10 42 14 80 5 61 4 68 -12 68 -10 0 -18 5 -18 10 0 6 9
10 20 10 11 0 20 5 20 10 0 6 -9 10 -20 10 -27 0 -25 18 3 22 19 3 22 10 25
51 2 37 0 47 -12 47 -9 0 -16 6 -16 14 0 8 -6 16 -12 19 -8 2 -9 8 -4 13 5 5
11 4 13 -3 6 -16 33 -17 33 -3 0 6 -7 13 -16 17 -14 5 -15 18 -9 92 6 73 4 89
-9 100 -10 9 -16 29 -16 58 0 36 -3 43 -17 41 -13 -2 -18 3 -17 20 0 17 -5 22
-23 22 -14 0 -23 6 -23 15 0 11 11 15 40 15 22 0 40 5 40 10 0 6 -18 10 -39
10 -22 0 -42 5 -44 13 -3 6 -6 -5 -6 -25z"/>
<path d="M730 12820 c-8 -5 -12 -11 -10 -13 3 -2 20 -14 38 -26 28 -20 59 -54
149 -164 32 -41 53 -83 53 -109 0 -21 5 -28 20 -28 11 0 20 -7 20 -15 0 -8 9
-34 19 -58 30 -68 54 -203 46 -261 -3 -28 -7 -58 -7 -66 0 -29 -32 -115 -50
-135 -13 -14 -18 -15 -18 -6 0 8 7 22 15 31 18 20 22 138 7 230 -6 36 -14 84
-18 108 -5 32 -13 46 -29 52 -12 5 -28 14 -36 22 -23 21 -79 48 -79 38 0 -5 9
-12 20 -15 11 -4 33 -18 48 -32 15 -13 33 -28 41 -33 11 -6 16 -32 19 -91 12
-273 -12 -416 -77 -457 -14 -9 -29 -20 -32 -25 -6 -9 -119 96 -119 111 0 6 7
12 15 16 20 7 19 32 -1 40 -21 8 -24 8 -24 -5 0 -6 -7 -17 -15 -25 -12 -13
-27 -11 -117 12 -57 14 -128 32 -158 39 -155 37 -236 59 -244 66 -5 4 -10 34
-12 66 -3 66 -9 124 -19 177 l-7 37 43 -6 44 -5 -50 15 c-27 8 -85 18 -127 21
l-78 7 0 -35 c0 -43 34 -64 76 -48 32 13 37 12 29 0 -3 -5 -1 -10 4 -10 6 0
11 -4 11 -10 0 -6 -23 -7 -60 -3 -42 4 -60 2 -60 -6 0 -6 11 -11 24 -11 27 0
43 -15 27 -24 -5 -4 -12 -2 -16 4 -9 15 -35 12 -35 -4 0 -20 17 -29 70 -37
l45 -6 -57 -2 c-43 -1 -58 -5 -58 -15 0 -8 8 -17 17 -19 17 -4 17 -5 1 -6 -13
-1 -18 -10 -18 -32 l0 -32 58 6 c34 3 49 2 37 -3 -11 -5 -36 -9 -56 -9 -36 -1
-37 -2 -37 -37 0 -32 2 -35 27 -33 46 4 71 -1 71 -12 0 -7 -18 -9 -47 -7 -45
3 -47 2 -49 -23 -2 -23 2 -28 39 -37 l42 -10 -42 -1 c-24 0 -43 -4 -43 -7 0
-15 31 -33 47 -28 15 5 15 4 3 -5 -8 -6 -13 -11 -10 -12 3 0 18 -2 34 -4 26
-4 27 -3 10 10 -18 13 -18 14 1 10 11 -2 23 -4 26 -4 11 -2 6 -31 -5 -32 -6 0
-29 -3 -50 -5 -26 -3 -42 0 -47 8 -7 10 -9 8 -9 -4 0 -10 6 -18 13 -18 7 0 28
-12 46 -28 29 -24 34 -34 37 -86 3 -33 9 -65 15 -72 6 -7 34 -19 62 -28 95
-28 347 -48 347 -27 0 5 9 11 20 14 17 4 20 14 20 61 l0 56 48 0 c34 0 53 5
64 18 27 31 27 38 6 56 -22 19 -22 21 -2 -29 8 -21 -9 -19 -34 4 -27 23 -27
26 -2 51 l20 20 35 -27 c31 -25 50 -53 25 -38 -5 3 -10 -1 -10 -9 0 -19 38
-15 70 7 14 9 30 17 37 17 7 0 14 6 15 13 1 6 5 -93 8 -222 l5 -234 25 -3 c91
-12 364 -61 555 -99 66 -14 199 -38 295 -55 184 -31 297 -52 570 -102 91 -16
194 -33 230 -38 36 -4 88 -11 116 -15 l51 -7 12 47 c7 26 10 50 7 53 -7 7 13
42 24 42 5 0 10 -15 12 -32 3 -28 5 -30 13 -14 5 11 4 30 -2 47 -12 32 -5 128
8 107 6 -9 9 -2 9 20 0 53 25 39 26 -15 5 -155 9 -188 24 -191 11 -2 15 7 16
35 1 21 5 62 9 92 11 72 26 44 26 -49 0 -39 4 -68 8 -66 4 3 8 114 10 248 1
134 4 261 7 283 2 22 5 73 4 114 0 59 4 76 18 87 22 16 32 2 32 -46 0 -23 3
-31 9 -21 5 8 11 9 15 3 3 -6 2 -13 -4 -17 -5 -3 -7 -17 -4 -30 3 -12 1 -26
-5 -29 -16 -10 -13 -46 3 -46 8 0 21 18 30 40 12 30 21 40 38 40 17 0 19 -3
10 -12 -7 -7 -12 -26 -12 -42 0 -30 0 -30 15 -9 12 17 15 67 15 266 1 135 3
247 6 250 3 3 18 -2 35 -10 l29 -14 0 -333 0 -333 29 -1 c46 -1 68 -18 92 -70
52 -116 93 -263 85 -304 -6 -31 8 -38 19 -10 4 9 8 37 9 62 3 50 28 158 46
205 16 39 21 225 6 226 -6 1 14 5 44 10 70 10 211 -6 267 -31 24 -10 43 -21
43 -23 0 -3 -14 -31 -31 -63 -27 -52 -30 -65 -25 -114 3 -30 22 -102 41 -159
19 -58 35 -107 35 -109 0 -2 -19 0 -42 4 -59 10 -79 12 -184 20 -101 7 -154
-8 -154 -46 0 -10 -5 -22 -11 -26 -6 -3 -9 -20 -7 -36 3 -16 1 -31 -4 -34 -4
-3 -8 -1 -8 5 0 10 -25 9 -36 -2 -4 -4 -13 -2 -21 4 -10 9 -13 8 -14 -2 0 -8
-4 -5 -9 6 -7 17 -9 15 -9 -12 -1 -27 -5 -33 -22 -33 -18 0 -19 2 -9 15 10 12
9 15 -5 15 -19 0 -54 38 -55 59 0 7 -6 11 -15 7 -9 -3 -15 0 -15 9 0 8 7 15
15 15 9 0 15 9 15 24 0 15 12 35 32 51 29 25 32 25 42 8 17 -32 46 -58 46 -43
0 16 -42 80 -52 80 -5 0 -8 7 -8 15 0 8 -8 15 -18 15 -23 0 -55 54 -47 80 6
17 2 20 -29 20 -20 0 -36 -3 -36 -7 -1 -5 -1 -91 -1 -193 l-1 -185 84 -5 c45
-3 94 -12 108 -20 28 -15 132 -39 170 -39 23 0 24 1 7 13 -16 13 -16 14 9 19
38 7 233 -10 272 -24 l33 -11 -27 -14 c-33 -18 -34 -18 -34 3 0 15 -2 14 -15
-3 -12 -15 -16 -16 -24 -5 -5 7 -14 10 -20 7 -20 -13 -12 -23 22 -29 17 -3 84
-15 147 -26 63 -11 135 -24 159 -30 37 -8 47 -7 56 6 9 12 19 14 41 8 l29 -9
-35 -5 c-28 -5 -6 -12 113 -35 119 -23 150 -26 162 -16 8 7 15 18 15 24 0 6
-5 4 -10 -4 -8 -12 -10 -11 -10 6 0 11 5 25 12 32 9 9 9 12 -3 12 -9 0 -87 5
-173 11 -116 8 -160 8 -171 -1 -10 -8 -15 -8 -20 0 -4 7 -16 9 -27 7 -20 -6
-56 9 -70 28 -10 13 1 68 15 76 5 4 28 5 49 3 52 -5 66 5 33 22 -17 8 -42 11
-68 8 -34 -5 -45 -2 -61 15 -11 12 -16 29 -13 41 3 11 1 20 -4 20 -5 0 -11
-11 -15 -25 -8 -31 -26 -33 -21 -2 2 12 2 17 0 11 -2 -7 -26 -5 -71 7 -37 9
-98 18 -137 20 -65 4 -70 6 -76 29 l-7 25 -1 -25 c-1 -24 -4 -25 -63 -24 -65
0 -77 9 -58 43 10 19 20 21 123 21 128 0 231 -20 264 -52 13 -12 24 -20 25
-17 2 2 9 15 17 29 13 23 13 24 -2 11 -15 -11 -17 -11 -17 2 0 8 -7 20 -15 27
-25 21 -17 30 24 30 22 0 43 5 46 10 8 13 265 2 279 -11 6 -6 1 -17 -12 -29
-25 -24 -26 -28 -11 -67 18 -46 21 -81 7 -89 -6 -4 -30 -7 -53 -6 -63 2 -14
-14 84 -27 46 -6 86 -13 89 -15 2 -3 -28 -4 -67 -2 -39 1 -76 -2 -83 -6 -8 -5
33 -8 97 -7 61 1 122 -1 136 -3 22 -4 27 -1 27 19 0 12 -5 23 -10 23 -6 0 -5
6 2 15 6 8 9 23 5 36 -5 13 -3 19 3 15 5 -3 10 4 11 17 1 48 13 163 17 176 8
24 24 -2 29 -45 2 -21 9 -81 15 -133 6 -51 8 -103 4 -114 -6 -18 -3 -19 22
-12 38 9 263 17 292 10 14 -3 20 -10 16 -17 -4 -6 -8 -30 -8 -52 l-1 -41 -140
3 c-77 1 -154 5 -171 7 -22 3 -36 -1 -45 -13 -12 -15 -12 -16 2 -5 9 7 19 10
22 6 11 -10 8 -48 -4 -60 -13 -13 -2 -17 91 -33 36 -6 88 -15 115 -20 104 -18
145 -21 145 -11 0 6 -6 11 -12 11 -10 0 -10 2 0 9 19 11 -11 23 -35 14 -17 -6
-17 -6 -1 10 18 18 43 24 33 7 -3 -5 -2 -10 3 -10 5 0 10 11 10 24 0 18 -5 23
-17 19 -11 -4 -10 -1 4 10 19 14 20 28 21 239 1 123 5 341 8 486 6 251 6 262
-12 262 -23 0 -113 23 -352 90 -102 29 -246 68 -320 87 -74 19 -205 54 -290
77 -250 70 -337 93 -485 131 -77 19 -151 40 -165 45 -14 5 -34 10 -45 12 -11
2 -23 6 -26 11 -3 4 -30 11 -60 16 -30 5 -115 26 -189 46 -74 19 -169 45 -210
55 -91 24 -104 29 -98 35 6 6 109 -17 151 -34 16 -6 67 -14 115 -18 55 -4 78
-9 62 -13 -24 -6 -23 -7 10 -14 19 -4 59 -10 88 -12 30 -2 62 -9 72 -14 10 -6
28 -10 39 -10 12 0 21 -5 21 -11 0 -7 10 -9 26 -5 18 5 24 3 18 -5 -4 -7 -2
-10 7 -7 8 3 27 -1 42 -9 15 -8 45 -16 65 -19 20 -2 54 -14 76 -25 27 -14 41
-17 46 -9 4 6 14 8 23 4 9 -3 14 -10 11 -15 -3 -5 2 -6 11 -3 8 4 21 2 28 -4
6 -6 29 -10 50 -10 21 0 43 -5 50 -11 7 -5 22 -10 32 -9 27 0 121 -19 175 -37
l45 -15 -45 5 c-40 4 -42 3 -15 -5 32 -11 84 -4 69 9 -5 4 -79 27 -164 50 -85
23 -188 51 -227 62 -40 11 -77 18 -82 15 -5 -4 -11 -2 -13 2 -2 7 -238 74
-568 161 -41 11 -160 43 -265 71 -104 28 -248 67 -320 86 -71 19 -179 48 -240
64 -60 17 -200 53 -310 81 -110 28 -222 57 -250 65 -71 22 -391 105 -445 115
-24 5 -49 14 -54 19 -15 15 -23 12 -50 -17 -21 -22 -27 -24 -40 -14 -9 7 -14
17 -11 21 3 5 0 12 -6 16 -8 5 -9 3 -4 -6 5 -8 3 -11 -6 -8 -8 3 -14 15 -13
27 1 22 -12 27 -36 11z m-377 -859 c59 -17 114 -31 122 -31 8 0 34 -6 57 -14
24 -7 69 -19 101 -25 31 -7 57 -17 57 -22 0 -5 -5 -9 -11 -9 -7 0 -17 -8 -24
-17 -11 -15 -26 -13 -191 26 -99 24 -190 45 -204 48 -24 4 -24 4 -6 -11 11 -9
26 -16 34 -16 8 0 51 -9 96 -19 44 -11 116 -27 159 -36 42 -9 77 -20 77 -24 0
-3 -11 -14 -24 -23 -25 -18 -18 -19 -275 40 l-74 17 -14 45 c-8 25 -17 60 -20
79 -4 29 -3 33 13 28 11 -3 67 -19 127 -36z m-68 -140 c3 -6 27 -13 53 -16 40
-5 129 -24 195 -42 23 -6 22 -21 -3 -25 -30 -4 -29 -20 2 -29 19 -5 25 -3 22
5 -3 7 4 11 18 11 30 -2 55 -14 61 -29 7 -18 -82 -13 -126 7 -20 10 -76 23
-124 29 -108 13 -122 16 -105 27 10 6 8 14 -8 33 -11 15 -20 29 -20 32 0 10
28 7 35 -3z m1335 -21 c0 -6 -13 -13 -30 -16 -26 -6 -30 -11 -30 -40 0 -19 5
-34 10 -34 17 0 12 -97 -5 -104 -8 -3 -14 -11 -13 -18 2 -10 -17 -13 -76 -12
-70 1 -82 5 -98 24 -10 12 -16 26 -13 30 3 4 -2 13 -10 20 -8 7 -15 26 -15 43
0 33 8 32 15 -2 6 -34 14 -41 45 -41 29 0 30 1 25 46 -2 25 -7 49 -10 55 -4 5
6 14 21 19 42 16 53 0 47 -70 -4 -43 -2 -60 6 -60 8 0 10 8 6 20 -4 14 -2 20
9 20 10 0 17 15 22 48 8 56 20 75 45 67 9 -3 20 -1 24 5 8 13 25 13 25 0z
m523 -167 c5 -3 1 -13 -11 -22 -23 -18 -41 -71 -23 -71 6 0 10 -8 9 -17 -4
-48 3 -123 11 -123 5 0 12 17 16 38 11 66 21 64 20 -5 -1 -74 -11 -85 -52 -58
-26 18 -32 19 -146 31 -58 6 -70 10 -85 33 -20 29 -29 121 -12 121 5 0 10 -16
10 -35 0 -33 2 -35 33 -35 24 0 33 5 34 18 1 9 4 29 7 45 4 16 2 27 -4 27 -9
0 -14 -14 -11 -32 0 -5 -6 -8 -15 -8 -10 0 -14 -6 -10 -15 3 -8 2 -15 -3 -15
-5 0 -11 15 -13 34 -2 19 0 32 4 30 4 -3 8 2 8 10 0 9 5 16 10 16 6 0 10 7 10
15 0 8 7 15 15 15 8 0 15 -9 15 -20 0 -17 3 -18 26 -10 39 15 47 12 42 -15 -4
-19 -1 -25 11 -23 13 2 16 -6 15 -44 0 -27 3 -48 8 -48 4 0 8 14 8 32 0 36 20
98 32 98 14 0 8 30 -7 36 -8 4 -15 10 -15 15 0 8 39 -3 63 -18z m1437 -663 c0
-5 24 -10 54 -10 60 0 147 -14 189 -31 23 -10 28 -17 25 -43 -2 -22 -8 -30
-18 -27 -46 11 -200 31 -230 30 -107 -3 -139 1 -160 23 -34 36 -25 45 53 56
39 5 75 10 80 11 4 0 7 -3 7 -9z"/>
<path d="M225 12190 c34 -10 201 -53 380 -99 66 -18 135 -36 153 -42 34 -11
41 -32 19 -61 -16 -20 -16 -20 -313 56 -202 51 -265 64 -253 51 5 -5 366 -99
466 -121 35 -7 80 -24 100 -38 35 -22 110 -96 98 -96 -3 0 0 -6 7 -14 9 -9 17
-11 25 -4 9 7 -4 26 -47 71 -59 61 -69 80 -50 92 5 3 6 13 3 21 -5 14 -2 14
26 -1 18 -9 50 -32 72 -52 21 -19 39 -31 39 -27 -1 16 -44 61 -91 97 -45 34
-68 42 -262 87 -42 10 -84 21 -93 24 -29 11 -275 66 -292 65 -9 -1 -3 -5 13
-9z"/>
<path d="M11585 11335 c-313 -45 -886 -125 -1017 -142 l-38 -5 0 -73 c0 -41 3
-76 8 -78 4 -2 79 6 167 19 143 20 211 22 160 4 -11 -4 -22 -18 -25 -31 -6
-22 -13 -24 -150 -41 -79 -10 -145 -20 -147 -22 -2 -2 2 -72 8 -156 l13 -152
60 6 c34 3 85 9 114 12 l54 7 -4 -29 c-3 -28 -5 -29 -88 -42 -47 -6 -93 -10
-102 -8 -12 3 -18 -2 -18 -13 0 -16 7 -17 63 -10 137 17 158 17 163 4 9 -24
-25 -75 -49 -75 -13 0 -28 -5 -34 -11 -7 -7 -35 -10 -72 -7 -40 3 -61 1 -61
-7 0 -7 32 -9 101 -7 l102 4 -6 -23 c-4 -13 -7 -27 -7 -31 0 -4 -15 -12 -32
-17 -32 -9 -32 -9 15 -10 l47 -1 0 -39 c0 -34 -4 -41 -27 -49 -25 -9 -26 -11
-9 -17 11 -5 21 -3 27 6 6 9 9 -8 9 -47 0 -74 -9 -126 -21 -118 -5 3 -9 1 -9
-4 0 -6 -36 -13 -80 -17 -99 -9 -107 -27 -10 -24 39 1 73 -1 76 -4 4 -3 4 -18
0 -32 -5 -20 -12 -25 -40 -25 -48 0 -96 -11 -96 -22 0 -6 33 -7 85 -3 l85 7 0
-36 c0 -45 -19 -56 -99 -56 -37 0 -61 -4 -61 -11 0 -6 19 -10 48 -9 74 3 74 3
70 -32 -3 -33 -4 -33 -60 -36 -32 -2 -58 -8 -58 -14 0 -6 28 -9 78 -7 l77 4
-3 -30 c-5 -44 -19 -55 -73 -55 -26 0 -51 -4 -54 -10 -4 -6 12 -10 39 -10 l46
0 0 -45 c0 -45 6 -51 48 -46 10 2 11 -2 2 -18 -16 -31 -5 -26 38 17 45 46 132
116 132 107 0 -8 -94 -99 -138 -132 -18 -14 -31 -27 -29 -29 5 -5 89 28 107
42 28 22 79 44 102 44 22 0 22 -1 -6 -24 l-30 -23 32 5 c18 2 34 7 36 11 2 3
10 123 16 266 7 143 18 366 25 495 l13 235 -4 -240 c-3 -132 -7 -260 -9 -285
-5 -54 -18 -453 -16 -460 1 -3 13 -4 27 -3 13 1 24 -2 24 -7 0 -5 8 -10 18
-13 9 -2 -2 -2 -25 1 -37 4 -43 1 -44 -14 -1 -11 -3 -32 -5 -49 -6 -46 4 -75
26 -75 10 0 22 -5 26 -11 5 -8 -1 -10 -19 -7 -15 3 -24 1 -21 -3 3 -5 11 -9
19 -9 22 0 25 -14 10 -42 -11 -22 -11 -30 2 -47 16 -24 11 -26 -17 -9 -26 17
-32 7 -36 -56 -3 -53 -2 -54 52 -109 30 -31 60 -54 67 -52 9 4 11 -13 9 -70
-2 -45 1 -81 7 -89 6 -7 8 -16 4 -20 -4 -3 -7 -21 -7 -38 -1 -17 -6 -33 -13
-35 -8 -3 -10 6 -8 25 3 27 0 30 -26 34 -26 4 -29 2 -29 -24 0 -15 4 -28 10
-28 5 0 7 7 4 15 -4 9 0 15 10 15 9 0 16 -8 16 -17 0 -26 18 -50 28 -38 4 6
26 16 48 23 39 11 42 14 48 58 3 26 6 68 7 93 1 25 4 57 9 71 7 24 7 23 15
-12 4 -20 4 -41 1 -47 -4 -5 -2 -12 4 -16 6 -4 10 7 11 27 1 35 15 90 19 73 1
-5 8 13 15 40 12 47 13 42 14 -104 1 -85 4 -152 7 -149 3 4 9 46 13 95 l8 88
2 -109 1 -109 53 7 c28 3 68 6 87 6 24 0 31 3 21 9 -8 5 -11 16 -7 26 5 14 14
16 46 11 41 -6 59 4 37 22 -8 7 -18 7 -27 2 -8 -6 -23 -10 -33 -10 -16 0 -18
8 -14 71 2 39 9 74 14 78 5 3 13 15 17 26 l7 20 15 -20 c15 -20 15 -20 30 -1
8 11 11 28 8 39 -3 10 -1 39 5 65 6 26 12 61 14 77 2 20 12 34 28 42 24 13 24
13 2 13 -19 0 -23 6 -23 29 0 27 -5 31 -57 50 l-58 21 57 -6 c63 -6 85 0 69
20 -6 7 -7 24 -2 42 5 21 15 31 37 35 l29 6 -30 4 c-27 4 -30 8 -32 44 -2 24
4 46 13 56 10 11 12 19 5 24 -6 3 -11 19 -11 35 0 26 4 30 43 38 l42 8 -37 8
c-36 7 -38 9 -38 47 0 36 3 40 30 46 17 3 30 9 30 14 0 5 -6 6 -14 3 -7 -3
-21 2 -29 11 -22 21 -7 59 24 63 36 5 48 22 16 22 -15 0 -44 9 -64 20 -21 11
-45 20 -54 20 -8 0 -19 3 -23 7 -6 7 -50 24 -111 44 -16 5 -46 12 -65 15 -19
2 -80 17 -135 32 -72 19 -100 31 -99 42 0 8 2 25 2 38 1 12 8 22 15 22 9 0 12
-11 9 -35 -3 -27 0 -35 11 -35 8 0 24 -3 34 -6 16 -6 16 -5 -2 9 -19 15 -19
15 8 10 27 -5 27 -5 27 46 0 40 -3 51 -16 51 -11 0 -14 -6 -9 -22 5 -18 4 -20
-4 -8 -14 19 -14 53 -1 45 6 -3 16 -3 22 1 19 12 -33 23 -54 12 -20 -10 -70
10 -65 26 7 19 178 -1 292 -34 96 -28 212 -24 223 8 2 8 -10 12 -38 12 -22 0
-47 6 -54 12 -22 21 21 44 114 59 77 12 81 14 45 19 -37 5 -40 8 -42 38 -1 21
4 35 15 41 20 9 112 27 195 37 67 7 78 28 12 22 -46 -3 -56 4 -51 38 2 14 16
22 49 28 36 7 47 14 47 28 0 13 -7 18 -26 18 -17 0 -28 6 -31 20 -5 18 -11 19
-81 13 -84 -7 -96 10 -15 21 74 11 153 30 153 37 0 4 -18 10 -39 14 -27 4 -41
13 -44 26 -6 22 -4 24 46 33 33 6 37 10 37 38 0 27 -2 30 -25 24 -18 -5 -25
-2 -25 9 0 8 -6 15 -12 15 -20 1 24 30 44 30 17 0 18 15 18 235 l0 235 -22 -1
c-13 -1 -189 -25 -393 -54z"/>
<path d="M844 11104 c12 -227 18 -299 26 -308 5 -5 43 -10 85 -11 42 -1 71 1
65 5 -8 5 -2 10 17 14 30 7 157 -9 177 -22 6 -3 21 -5 33 -3 20 2 22 -1 17
-27 -6 -29 -5 -29 47 -36 l54 -7 -24 -18 c-13 -10 -21 -24 -18 -32 4 -11 6
-11 6 1 1 20 35 40 91 55 48 12 115 6 92 -8 -7 -5 -10 -12 -7 -17 3 -4 1 -19
-4 -32 -9 -21 -10 -20 -10 12 -1 20 -5 30 -10 25 -5 -6 -5 -30 -1 -55 4 -25 8
-39 9 -32 2 25 21 1 20 -26 0 -20 -2 -23 -7 -10 -4 10 -7 -26 -6 -80 1 -53 2
-216 4 -362 2 -224 4 -260 14 -230 7 19 15 29 17 22 2 -7 28 -16 57 -21 l52
-8 0 121 c1 67 1 239 0 384 l-1 262 23 0 c13 0 34 -3 46 -7 21 -5 23 -11 20
-55 -2 -33 1 -47 9 -44 6 3 35 -2 65 -9 29 -8 79 -16 110 -17 l58 -3 0 -43 0
-43 -57 6 c-32 4 -66 9 -75 11 -14 4 -17 -1 -13 -33 2 -25 8 -37 16 -35 8 2
39 0 71 -3 l58 -7 0 -239 c0 -198 2 -237 14 -233 7 3 16 -2 19 -11 8 -20 87
-17 87 3 0 8 -7 11 -17 8 -10 -2 -29 -8 -43 -11 -14 -4 -22 -4 -18 0 3 3 -2
15 -13 26 -17 17 -18 35 -15 310 3 160 8 294 13 298 4 4 32 3 61 -2 42 -7 52
-12 52 -28 0 -13 7 -19 24 -19 14 0 37 -5 53 -11 15 -5 48 -11 73 -12 l45 -2
3 -173 c2 -141 5 -172 17 -172 11 0 15 18 18 78 1 42 5 -4 7 -103 3 -169 4
-175 11 -95 5 47 9 100 9 118 -1 20 4 32 13 32 8 0 14 7 14 14 0 8 -5 14 -11
13 -17 -3 -20 104 -4 114 10 7 10 9 1 9 -8 0 -13 15 -13 39 0 37 1 39 38 44
20 3 63 -2 95 -11 51 -15 57 -19 51 -37 -3 -11 -8 -42 -11 -70 -5 -69 -12 -95
-23 -95 -6 0 -8 10 -5 23 3 12 9 52 13 90 7 52 6 67 -5 67 -18 0 -21 -24 -26
-205 -3 -88 -3 -153 -2 -145 2 8 6 32 10 53 4 23 11 37 20 37 17 0 18 -10 6
-62 -6 -27 -5 -38 4 -42 10 -3 15 29 21 142 4 81 6 157 5 170 -2 18 3 22 23
22 18 0 26 -6 27 -17 2 -22 2 -6 -6 -144 l-7 -117 23 5 c23 4 24 7 27 126 2
67 5 123 5 123 1 1 17 5 35 9 27 6 32 4 32 -13 0 -12 9 -22 23 -26 18 -5 20
-8 7 -16 -10 -6 -11 -10 -2 -10 17 0 15 -47 -3 -54 -13 -5 -12 -10 5 -38 39
-64 15 -203 -35 -203 -11 0 -20 -7 -20 -15 0 -11 10 -15 37 -14 33 1 35 -1 25
-18 -9 -13 -9 -23 -1 -36 6 -10 8 -26 4 -38 -5 -11 -4 -40 0 -65 5 -24 6 -46
4 -48 -2 -2 -4 1 -4 8 0 7 -9 3 -19 -10 -12 -15 -16 -29 -11 -38 9 -16 11 -17
114 -26 l74 -7 6 183 c3 101 8 334 11 518 4 318 6 335 25 356 11 12 20 27 20
33 0 7 5 12 10 12 6 0 10 5 10 11 0 6 14 29 31 50 22 27 27 40 17 43 -7 2 -67
14 -133 26 -66 12 -156 28 -200 36 -44 8 -271 46 -505 85 -460 76 -1228 205
-1338 226 l-33 6 5 -109z"/>
<path d="M3129 10823 c-8 -129 -6 -133 50 -133 15 0 54 -9 87 -19 32 -11 115
-24 184 -31 68 -6 127 -13 130 -15 15 -9 390 -83 429 -85 12 0 13 -74 8 -510
-5 -418 -4 -510 7 -510 10 0 14 63 19 308 4 169 7 370 7 448 0 235 12 295 50
249 9 -11 17 -12 32 -4 33 17 43 -4 41 -84 -1 -40 1 -64 3 -54 6 18 19 23 27
10 2 -5 1 -1 -1 7 -3 8 -6 31 -6 50 -1 34 0 35 34 34 19 0 56 -4 83 -8 l47 -7
-1 -75 c-1 -41 2 -78 5 -81 3 -4 6 10 6 30 0 20 5 37 10 37 6 0 10 -4 10 -10
0 -5 5 -10 10 -10 6 0 10 14 10 30 0 17 -4 30 -10 30 -15 0 -12 25 7 65 15 32
21 36 53 33 l35 -3 3 -63 c2 -52 6 -63 20 -61 53 5 51 22 45 -282 l-6 -281 30
6 c16 4 55 8 87 10 31 2 59 6 62 8 3 3 7 128 9 277 2 149 7 276 10 282 9 14
25 1 19 -16 -3 -7 -1 -22 5 -32 9 -15 10 -12 11 17 0 20 -5 41 -12 48 -9 9 -8
12 5 12 20 0 21 4 6 32 -6 12 -7 18 -1 14 6 -3 9 4 8 18 -1 26 22 21 -416 96
-129 22 -271 47 -315 55 -132 25 -306 56 -365 65 -167 26 -549 98 -561 106 -5
3 -9 2 -10 -3z"/>
<path d="M8161 10490 c-1 -74 -8 -270 -16 -435 -17 -330 -26 -600 -19 -545 34
274 47 425 54 630 4 135 5 263 3 285 -3 22 -8 76 -12 120 -8 78 -8 76 -10 -55z"/>
<path d="M9665 10073 c-269 -9 -622 -63 -728 -112 -40 -18 -40 -19 -12 -18 24
2 29 -2 27 -17 -5 -30 7 -66 23 -66 19 0 19 4 0 40 -12 23 -13 30 -3 30 10 0
10 2 0 9 -11 6 -10 10 4 15 12 4 23 1 30 -8 7 -11 31 -17 72 -18 42 -2 62 -7
62 -15 0 -7 7 -13 15 -13 8 0 15 -3 16 -7 0 -5 2 -25 4 -45 3 -31 -1 -41 -22
-58 -14 -11 -30 -17 -37 -13 -6 3 -8 3 -4 -2 4 -4 1 -14 -7 -21 -16 -16 -45
-19 -45 -4 0 6 -7 10 -15 10 -10 0 -15 -11 -15 -35 0 -19 -4 -35 -9 -35 -5 0
-12 -11 -15 -25 -5 -20 -15 -26 -47 -31 -30 -5 -52 -18 -83 -49 -47 -50 -228
-145 -273 -145 -33 0 -53 -16 -53 -43 0 -10 -4 -15 -10 -12 -14 9 -12 43 2 47
10 4 10 10 2 29 -11 23 -12 23 -33 -23 -11 -26 -21 -57 -21 -70 0 -28 -19 -63
-20 -38 -1 8 -8 -7 -17 -35 -25 -81 -26 -82 -33 -50 l-6 30 -8 -25 c-5 -14
-17 -43 -26 -65 -29 -64 -33 -82 -19 -67 7 6 16 12 20 12 14 0 40 -65 55 -135
20 -92 35 -115 79 -115 31 0 35 3 35 25 0 15 -7 40 -16 57 -9 17 -18 48 -20
69 -4 38 -3 38 28 32 29 -6 31 -5 24 18 -4 13 -8 33 -7 44 0 11 -5 23 -12 28
-8 6 -9 10 -1 13 7 3 10 37 8 94 -1 50 2 90 7 90 12 0 31 -39 24 -50 -3 -6 0
-10 8 -10 20 0 31 31 15 42 -11 6 -11 8 0 8 7 0 16 -8 19 -17 4 -10 13 -24 20
-31 7 -7 13 -22 13 -32 0 -34 48 -149 81 -195 38 -52 92 -92 157 -115 51 -18
65 -38 31 -47 -16 -4 -17 -8 -7 -14 10 -7 9 -9 -4 -9 -10 0 -18 -5 -18 -12 0
-6 -19 -28 -42 -50 l-42 -39 12 -97 c15 -117 15 -152 2 -152 -5 0 -7 7 -4 15
4 8 2 15 -4 15 -5 0 -12 -10 -16 -22 -8 -33 -7 -38 7 -36 9 2 11 -11 8 -46 -1
-27 1 -51 5 -55 17 -12 33 -73 25 -90 -11 -20 26 -81 68 -111 29 -20 43 -16
21 6 -8 8 -7 19 1 38 9 19 15 23 21 14 5 -8 8 -9 8 -2 0 7 9 14 20 17 26 7 26
43 0 99 -38 83 -104 254 -125 326 -3 12 -2 22 3 22 10 0 23 -29 71 -152 16
-42 42 -96 57 -120 15 -24 27 -44 25 -46 -1 -1 12 -17 28 -34 16 -18 35 -43
42 -57 6 -15 15 -33 19 -41 4 -8 20 -17 36 -19 26 -3 27 -4 9 -11 -19 -8 -19
-9 -1 -9 11 -1 28 -8 38 -18 22 -19 36 -10 18 12 -7 9 -13 29 -12 45 0 21 -3
27 -14 23 -10 -4 -14 2 -14 20 0 53 23 76 36 35 3 -12 12 -27 18 -34 55 -57
69 -88 44 -96 -8 -3 0 -21 22 -53 28 -38 47 -52 91 -69 55 -21 89 -42 89 -55
0 -16 -64 -70 -104 -90 -25 -11 -47 -25 -51 -31 -3 -5 -14 -10 -24 -10 -9 0
-26 -7 -37 -15 -19 -15 -18 -15 6 -35 86 -68 100 -84 110 -121 6 -21 15 -39
20 -39 6 0 10 -6 10 -14 0 -8 7 -16 15 -20 36 -13 11 -94 -47 -151 -43 -41
-43 -44 -47 -160 -1 -19 -11 -46 -32 -87 -5 -10 -9 -24 -9 -32 0 -8 -9 -18
-20 -21 -11 -3 -20 -13 -20 -22 0 -11 -6 -14 -21 -10 -19 5 -21 3 -16 -27 3
-20 0 -39 -6 -45 -9 -9 -8 -10 7 -5 13 5 17 4 12 -4 -4 -7 -2 -12 4 -12 6 0 9
-4 6 -9 -7 -10 41 -24 159 -48 114 -22 453 -25 560 -4 200 38 439 118 548 183
26 15 55 28 64 28 12 0 14 7 9 28 -3 15 -10 48 -15 73 -6 26 -17 62 -26 80
-11 25 -14 27 -10 9 3 -14 9 -52 12 -84 5 -50 3 -61 -12 -73 -27 -19 -37 -16
-30 7 4 11 2 20 -4 20 -6 0 -11 -6 -11 -14 0 -8 -5 -18 -10 -21 -14 -9 -52 4
-45 16 6 9 -34 69 -46 69 -4 0 -10 -12 -13 -26 -5 -17 -12 -24 -21 -20 -8 3
-15 0 -16 -7 -2 -30 -17 43 -18 91 -1 28 -5 52 -11 52 -14 0 -13 65 2 93 26
50 28 58 23 67 -4 6 2 7 12 3 13 -4 10 3 -10 24 -16 17 -24 33 -19 37 15 9 2
58 -14 52 -8 -3 -14 1 -14 10 0 8 5 12 10 9 6 -3 10 1 10 9 0 9 -4 16 -10 16
-16 0 -12 37 5 44 17 6 21 36 5 36 -7 0 -11 20 -10 48 1 26 -4 67 -11 92 -6
25 -11 57 -10 73 1 15 -2 27 -6 27 -5 0 -7 23 -7 51 1 43 -2 52 -17 56 -24 7
-24 9 6 58 14 22 25 48 25 58 0 9 4 17 9 17 5 0 11 18 13 40 2 22 0 40 -5 40
-4 0 -3 9 3 19 5 11 7 27 4 36 -4 9 -2 20 3 24 6 3 13 58 17 121 4 80 12 125
24 150 22 43 40 109 46 170 3 25 5 46 6 48 2 1 3 7 4 12 0 6 7 15 15 19 8 5
12 18 9 28 -3 11 1 28 8 38 8 10 14 27 14 37 0 13 8 18 25 18 28 0 35 -27 10
-36 -10 -4 -13 -13 -10 -25 4 -13 1 -19 -9 -19 -10 0 -13 -6 -10 -15 4 -8 10
-15 15 -15 5 0 9 7 9 15 0 8 7 15 15 15 9 0 15 10 15 26 0 14 4 23 10 19 6 -3
10 -15 10 -26 0 -11 7 -19 17 -19 13 0 14 -3 5 -12 -19 -19 -15 -76 6 -87 9
-5 38 -7 64 -4 70 8 88 33 95 130 6 85 7 88 30 88 9 0 21 13 26 30 13 41 56
97 69 89 6 -4 14 -1 18 6 6 9 12 9 30 0 18 -10 24 -9 37 7 8 10 12 12 8 6 -8
-16 11 -17 20 -2 4 6 -2 17 -14 26 -36 25 -71 60 -71 70 0 6 29 11 68 11 93 0
104 1 98 11 -8 13 -122 34 -137 26 -7 -5 -10 -4 -5 3 4 7 -10 13 -39 17 -25 4
-45 11 -45 15 0 5 -29 8 -64 8 -36 -1 -71 3 -78 9 -7 6 -17 12 -23 13 -5 2
-19 6 -30 11 -36 14 24 10 84 -6 44 -11 59 -12 84 -1 l31 12 -32 23 c-45 31
-122 135 -122 163 0 59 -169 221 -295 283 -174 86 -296 102 -680 88z m-201
-779 c3 -9 6 -32 6 -53 0 -20 7 -47 16 -59 21 -30 16 -151 -8 -202 -9 -19 -18
-44 -20 -55 -2 -12 -12 -20 -24 -21 -11 -1 -35 -8 -54 -17 -19 -8 -52 -17 -72
-20 -51 -8 -56 14 -18 75 18 30 30 63 30 83 0 20 14 61 34 97 19 35 39 87 46
115 7 29 16 51 20 48 4 -3 10 2 14 10 7 20 22 19 30 -1z m-631 -8 c26 -20 22
-23 -33 -31 -69 -9 -73 -25 -5 -18 58 6 71 -1 30 -17 -14 -5 -30 -21 -35 -36
-11 -29 -4 -39 44 -64 16 -8 35 -25 44 -37 14 -23 72 -34 72 -14 0 5 12 13 28
19 35 13 152 24 152 14 0 -4 -20 -18 -46 -30 -25 -12 -43 -26 -40 -31 4 -5 -2
-7 -13 -4 -13 3 -20 -2 -24 -19 -4 -12 -2 -27 3 -32 18 -18 10 -26 -25 -26
-47 0 -126 31 -173 68 -54 43 -102 138 -108 210 -2 31 -1 51 2 44 4 -8 10 -10
17 -3 27 21 85 25 110 7z"/>
<path d="M5787 9940 c-55 -7 -90 -20 -54 -20 35 0 15 -19 -30 -29 -187 -44
-269 -75 -267 -104 1 -8 -4 -13 -10 -11 -6 2 -17 -5 -24 -16 -18 -29 -2 -25
41 11 37 31 38 31 35 8 -2 -13 -7 -30 -11 -36 -11 -17 -2 -16 33 2 17 9 30 13
30 11 0 -12 -60 -35 -74 -30 -9 4 -29 -5 -48 -21 l-33 -28 -6 24 c-4 13 -7 18
-8 12 -1 -8 -15 -13 -37 -13 -21 0 -33 -4 -29 -10 3 -6 -5 -10 -19 -10 -14 0
-28 -4 -31 -10 -3 -5 -11 -10 -16 -10 -6 0 -8 4 -5 9 9 14 -28 47 -48 43 -11
-2 -24 2 -30 10 -6 8 -18 17 -26 20 -8 2 -15 13 -15 24 0 15 -7 19 -32 19 -17
0 -29 -4 -26 -9 3 -4 -10 -5 -28 -1 -26 5 -31 4 -19 -5 12 -9 11 -10 -6 -5
-12 3 -33 0 -47 -6 -24 -11 -30 -8 -68 29 -47 45 -86 56 -139 42 -101 -27
-129 -36 -144 -49 -25 -21 -12 -25 23 -7 16 9 43 16 58 15 l28 -1 -27 -11
c-16 -6 -28 -16 -28 -23 0 -14 -58 -37 -71 -28 -5 3 -9 -2 -9 -10 0 -9 -6 -16
-14 -16 -7 0 -19 -7 -27 -16 -10 -13 -10 -17 2 -25 18 -12 45 -6 42 9 -2 7 4
12 13 12 12 0 14 -7 9 -32 -9 -42 -13 -48 -31 -48 -8 0 -14 9 -14 20 0 21 -10
24 -46 14 -21 -6 -21 -7 -6 -45 10 -27 19 -36 26 -29 14 14 36 12 36 -4 0 -7
-6 -19 -14 -25 -8 -7 -14 -27 -13 -46 1 -27 -7 -41 -36 -69 -48 -45 -66 -113
-48 -178 16 -58 59 -83 142 -82 36 0 56 -3 50 -9 -21 -21 12 -77 70 -117 4 -3
-17 -54 -46 -115 -30 -60 -51 -113 -49 -117 3 -4 0 -8 -5 -8 -6 0 -11 -9 -11
-20 0 -17 7 -20 45 -20 25 0 45 -4 45 -10 0 -5 -13 -7 -30 -4 -22 5 -31 2 -36
-10 -8 -21 -24 -20 -25 2 -1 17 -16 -20 -18 -45 -2 -20 17 -15 21 5 2 10 6 13
10 6 4 -6 -2 -21 -13 -32 -18 -20 -17 -27 4 -23 7 1 -1 -68 -9 -78 -1 -2 -8
12 -13 30 -10 32 -11 31 -5 -11 3 -25 6 -51 7 -57 0 -7 5 -13 10 -13 5 0 7 -9
4 -20 -7 -28 13 -91 38 -120 12 -14 25 -40 29 -58 l6 -33 -748 3 c-411 1 -759
4 -774 6 l-28 4 5 122 c11 300 15 1176 5 1176 -7 0 -10 -106 -10 -322 l0 -321
-182 7 c-101 3 -349 13 -553 21 -392 16 -1130 42 -1405 50 -112 3 -151 2 -120
-5 25 -4 196 -13 381 -19 185 -6 451 -16 590 -21 348 -13 1170 -40 1238 -40
l54 0 -6 -292 c-4 -161 -7 -309 -7 -329 l0 -36 -167 -2 c-93 0 -593 -6 -1113
-12 -520 -6 -966 -10 -993 -8 -26 2 -47 2 -47 -1 0 -11 40 -64 41 -55 1 6 5
-12 9 -40 4 -27 5 -167 2 -309 -5 -251 -4 -259 14 -252 48 20 91 26 259 35
199 11 890 45 1492 72 l262 12 6 29 c7 29 29 81 46 108 5 8 16 29 24 45 14 29
14 26 16 -60 1 -49 4 -79 6 -65 3 14 11 28 18 33 9 4 16 37 21 88 5 62 10 79
20 75 11 -4 14 14 14 95 0 73 5 111 16 136 12 25 19 31 25 21 6 -10 9 -8 9 7
1 19 2 19 10 -2 11 -27 13 -227 4 -400 l-6 -132 63 15 c35 8 71 17 79 20 14 5
138 18 300 30 36 2 119 6 185 9 66 2 148 6 183 8 34 3 62 1 62 -3 0 -5 10 -7
23 -4 12 3 156 8 320 11 237 5 295 8 287 18 -8 9 -6 17 5 28 11 12 12 17 2 21
-8 3 -7 8 6 16 9 6 17 22 17 35 0 14 3 25 8 25 4 0 14 15 21 32 l15 33 11 -29
12 -29 5 31 c2 18 2 32 -2 32 -3 0 -7 16 -8 35 -2 19 2 35 7 35 6 0 8 -6 5
-13 -7 -18 24 -87 39 -87 8 0 7 -4 -3 -10 -13 -9 -13 -11 0 -19 10 -7 17 -6
23 2 6 8 7 7 4 -5 -3 -9 5 -28 18 -44 19 -23 23 -24 22 -8 -1 10 -6 22 -12 26
-6 5 -5 8 3 8 19 0 72 -42 72 -57 0 -7 3 -12 8 -11 11 3 102 -45 102 -54 0 -4
15 -15 33 -23 l32 -16 -27 21 c-35 27 -35 34 -2 48 14 7 23 8 19 2 -4 -6 8
-10 29 -10 42 0 61 -34 30 -57 -17 -12 -17 -13 2 -14 10 -1 22 -1 27 0 4 0 7
-11 7 -25 0 -14 4 -23 10 -19 6 3 10 3 11 -2 0 -4 2 -20 3 -35 1 -15 8 -33 15
-40 11 -11 13 -9 8 12 -4 14 -2 32 3 40 5 8 10 11 11 5 6 -42 21 -105 27 -105
2 0 11 8 18 18 12 16 13 15 14 -5 0 -29 16 -30 23 -2 3 12 10 18 16 14 7 -3
11 2 11 14 0 12 -4 21 -10 21 -5 0 -10 9 -10 20 0 28 24 25 44 -5 9 -14 25
-25 36 -25 11 0 20 -5 20 -11 0 -5 13 -24 30 -42 16 -18 30 -35 30 -39 0 -5 7
-8 15 -8 10 0 15 -10 15 -34 0 -18 2 -46 4 -62 2 -16 1 -21 -1 -11 -5 18 -23
24 -23 7 0 -6 6 -29 13 -51 10 -34 16 -40 34 -36 28 5 39 -20 18 -43 -17 -19
-20 -40 -5 -40 15 0 12 -48 -2 -53 -10 -3 -10 -8 1 -21 11 -13 11 -20 3 -28
-15 -15 -16 -48 -2 -48 6 0 10 9 10 19 0 10 7 22 15 25 13 5 15 -1 10 -37 -4
-23 -11 -43 -16 -45 -12 -5 -12 -139 1 -147 6 -3 10 -15 10 -26 0 -11 -4 -18
-9 -14 -6 3 -6 -7 -1 -26 5 -18 7 -37 3 -42 -4 -6 -7 -36 -8 -66 -1 -41 4 -62
17 -77 17 -19 17 -24 4 -67 -8 -26 -11 -47 -7 -47 8 0 -1 -90 -11 -106 -4 -6
-8 -28 -10 -48 -2 -37 -3 -38 -35 -33 -58 10 -345 157 -383 197 -3 3 -31 24
-63 48 -108 81 -245 234 -268 301 -14 41 -4 54 75 92 l61 29 -70 -6 c-71 -6
-94 -17 -99 -48 -1 -9 -5 -16 -9 -16 -4 0 -9 0 -12 0 -3 0 -1 10 6 22 l11 21
-30 -21 c-16 -12 -35 -22 -41 -22 -6 0 -11 -4 -11 -10 0 -5 -7 -10 -16 -10 -8
0 -13 -4 -9 -9 3 -5 0 -13 -6 -17 -8 -4 -9 -3 -5 4 19 31 -53 2 -93 -37 -33
-32 -39 -65 -17 -94 16 -20 8 -68 -12 -75 -16 -5 -16 20 0 36 9 9 9 15 -1 25
-8 7 -11 7 -8 1 4 -7 -1 -18 -10 -25 -15 -12 -16 -12 -9 6 16 39 18 55 8 55
-5 0 -12 -9 -15 -20 -6 -25 -24 -26 -30 -2 -4 16 -5 16 -6 0 0 -10 -6 -18 -12
-18 -5 0 -8 -4 -5 -9 3 -5 -1 -11 -9 -15 -16 -6 -21 9 -5 19 14 9 7 63 -7 58
-7 -3 -13 -11 -13 -19 0 -23 -38 -54 -57 -48 -17 5 -17 5 0 -6 18 -11 24 -50
8 -50 -5 0 -7 10 -3 22 3 13 1 19 -5 15 -6 -4 -25 -2 -42 4 -25 9 -29 14 -20
25 13 16 5 18 -21 4 -10 -5 -21 -24 -25 -41 -4 -17 -10 -28 -13 -24 -3 3 -12
-5 -19 -17 -12 -23 -12 -23 -13 7 -1 44 -14 62 -34 46 -9 -7 -14 -16 -12 -20
3 -4 1 -22 -4 -41 l-8 -35 -2 35 -3 35 -7 -35 c-7 -36 -13 -31 -25 23 -8 37
-28 29 -36 -14 -4 -19 -7 -27 -8 -19 -2 32 -116 54 -127 25 -4 -8 -12 -15 -19
-15 -10 0 -12 -11 -9 -37 l4 -38 -13 40 c-7 22 -16 39 -20 38 -4 -2 -12 -3
-18 -3 -7 0 -9 -15 -5 -42 5 -41 5 -42 -9 -18 -13 22 -14 23 -15 5 -1 -17 -3
-16 -16 8 -8 15 -23 27 -34 27 -18 0 -19 -3 -8 -20 7 -10 8 -23 4 -27 -5 -4
-11 -2 -13 5 -3 6 -9 12 -14 12 -12 0 -12 -30 1 -31 6 -1 15 -2 22 -3 6 0 13
-7 16 -14 3 -10 -7 -12 -41 -9 -71 7 -89 27 -39 46 l27 10 -34 -2 c-20 -1 -38
-9 -45 -20 -9 -15 -6 -21 14 -37 14 -10 21 -22 17 -27 -5 -4 -14 -1 -20 8 -15
20 -74 32 -83 17 -4 -7 7 -25 27 -42 19 -17 45 -45 57 -63 22 -31 22 -31 1
-26 -12 4 -18 11 -15 20 3 8 2 11 -3 8 -6 -3 -14 3 -20 12 -9 16 -12 16 -21 3
-5 -8 -11 -19 -13 -23 -4 -13 -36 4 -42 23 -3 10 -15 18 -28 18 -12 0 -33 3
-47 8 -23 7 -24 6 -11 -9 12 -15 11 -17 -2 -17 -9 0 -24 -13 -34 -30 -9 -16
-21 -30 -26 -30 -5 0 -7 -7 -3 -15 3 -8 0 -14 -7 -12 -7 1 -11 -4 -10 -10 2
-7 -5 -22 -15 -33 -9 -11 -15 -22 -13 -23 2 -1 -11 -26 -28 -55 -17 -29 -31
-57 -31 -63 0 -5 -7 -20 -15 -33 -17 -26 -95 -259 -115 -344 -9 -39 -16 -52
-28 -50 -14 3 -16 24 -14 158 1 85 5 225 8 311 l7 156 130 16 c72 9 135 21
141 27 7 7 6 10 -3 10 -12 0 -172 -23 -245 -35 l-28 -5 3 305 c2 168 1 305 -2
305 -3 0 -9 -136 -12 -302 -4 -166 -9 -304 -12 -306 -3 -3 -42 -11 -87 -18
-256 -39 -971 -141 -1258 -180 -63 -8 -160 -22 -215 -30 -55 -8 -183 -26 -285
-40 -102 -14 -227 -32 -278 -40 -110 -17 -166 -16 -150 3 7 9 7 13 -1 13 -7 0
-10 4 -7 9 9 14 16 302 8 297 -8 -5 -5 158 3 182 2 6 0 12 -5 12 -6 0 -10 18
-10 40 0 23 4 39 11 37 6 -1 11 19 12 51 2 48 1 52 -20 52 l-22 0 0 -365 -1
-365 39 0 c22 0 214 25 428 55 213 31 514 73 668 95 218 31 935 136 1143 167
l34 5 -8 -308 c-3 -170 -8 -310 -9 -312 -1 -1 -62 -14 -136 -27 -74 -14 -192
-36 -264 -50 -156 -29 -547 -102 -810 -150 -104 -20 -264 -49 -355 -66 -91
-16 -268 -50 -395 -74 -126 -24 -246 -47 -266 -50 l-35 -7 1 84 c6 274 5 534
-1 573 -4 29 -13 49 -25 55 -22 12 -32 13 -25 1 8 -13 10 -747 2 -759 -3 -6
-15 -8 -25 -5 -24 6 -38 -15 -16 -23 12 -5 13 -9 5 -14 -18 -11 -39 -187 -28
-228 11 -38 8 -45 -14 -37 -19 8 -24 175 -7 218 9 21 9 34 1 50 -7 12 -11 31
-11 42 6 132 -4 834 -12 845 -9 13 -10 13 -7 0 3 -17 -21 -82 -34 -91 -5 -3
-9 -76 -9 -162 0 -86 -3 -157 -8 -157 -5 0 -12 -11 -15 -25 -4 -14 -10 -23
-15 -21 -5 3 -14 -23 -21 -59 -7 -36 -16 -62 -21 -59 -5 3 -9 249 -9 565 0
366 -3 559 -10 559 -6 0 -10 -29 -10 -66 0 -42 -4 -63 -10 -59 -6 4 -9 28 -6
56 2 27 0 52 -5 55 -5 3 -10 15 -10 27 -1 12 -6 -7 -10 -43 -5 -36 -7 -80 -4
-97 4 -24 2 -33 -8 -33 -10 0 -12 -13 -6 -57 8 -75 -1 -263 -13 -263 -5 0 -9
24 -8 53 1 28 1 77 0 107 -2 47 -3 51 -10 25 -5 -19 -8 11 -9 87 0 64 -5 119
-10 122 -9 6 -22 -312 -24 -616 -1 -98 -5 -178 -9 -178 -5 0 -8 17 -9 38 -1
20 -4 48 -9 62 -6 22 -8 23 -15 7 -4 -10 -5 -21 -1 -24 3 -3 1 -13 -6 -20 -8
-10 -8 -17 -1 -21 5 -4 13 -29 16 -57 6 -46 5 -49 -9 -30 -8 11 -13 28 -10 38
2 9 0 15 -4 12 -4 -3 -13 9 -19 26 -10 28 -12 29 -26 15 -9 -8 -15 -21 -14
-28 1 -7 0 -33 -2 -58 -2 -33 -4 -22 -9 40 -5 72 -6 62 -7 -70 -1 -85 2 -179
6 -208 7 -51 -3 -62 -12 -12 -4 22 -8 -126 -7 -278 0 -30 -4 -51 -9 -48 -9 6
-21 -800 -25 -1804 l-3 -625 -87 -28 -86 -28 0 -306 c0 -274 2 -305 16 -299 9
3 34 7 57 7 34 2 36 3 12 6 -41 6 -56 22 -27 29 12 4 22 13 22 20 0 8 6 14 13
14 9 0 9 2 -1 8 -18 12 12 69 41 78 11 4 27 13 35 21 8 7 23 11 33 8 11 -4 19
-2 19 4 0 21 46 10 71 -16 14 -16 39 -41 56 -56 l30 -28 34 19 c19 10 63 26
99 35 55 14 67 15 78 3 12 -12 22 -12 65 0 74 20 74 19 25 -34 -107 -114 -167
-275 -175 -467 l-5 -120 32 -47 c18 -27 35 -48 40 -48 9 0 59 -40 191 -155 58
-49 130 -112 162 -138 106 -90 139 -128 132 -157 -9 -35 -29 -53 -23 -19 4 25
4 25 -36 16 -23 -5 -54 -15 -71 -21 -35 -13 -37 -13 -72 -15 l-28 -2 30 -14
c19 -9 24 -14 13 -14 -34 -2 -97 -35 -102 -55 -8 -29 1 -36 45 -36 27 0 39 -4
39 -14 0 -8 -4 -18 -10 -21 -17 -10 -12 -20 20 -38 35 -21 40 -38 9 -30 -20 6
-21 3 -14 -36 5 -33 4 -41 -9 -41 -13 0 -13 -4 -2 -32 12 -28 12 -34 -3 -45
-14 -10 -13 -11 9 -6 14 3 28 10 31 16 4 5 15 5 28 -2 17 -9 21 -9 21 3 0 20
27 28 34 10 3 -9 6 -26 6 -38 0 -35 60 -92 110 -106 25 -6 60 -18 78 -26 18
-8 46 -14 63 -14 18 0 28 -4 24 -10 -3 -6 4 -10 17 -10 19 0 20 -2 8 -11 -11
-8 -8 -9 17 -5 17 3 33 1 35 -4 2 -6 29 -11 61 -13 45 -1 56 -5 52 -16 -4 -11
-1 -10 13 2 10 9 24 17 30 17 6 0 18 7 27 16 13 13 18 14 31 3 12 -10 20 -9
39 1 25 14 33 30 15 30 -5 0 -10 7 -10 16 0 13 7 15 30 10 22 -4 32 -1 37 10
5 13 8 13 25 -3 16 -14 18 -14 13 -1 -4 9 0 18 9 21 9 4 16 13 16 22 0 19 42
37 52 22 6 -10 38 13 38 28 0 3 20 26 45 51 41 40 56 49 69 42 3 -2 15 7 28
19 13 12 40 29 59 37 20 8 39 22 42 31 4 8 16 15 27 15 12 0 28 7 36 15 9 8
24 15 35 15 27 0 24 17 -6 24 -16 4 -22 11 -19 21 4 10 0 15 -15 15 -12 0 -21
5 -21 10 0 6 6 10 14 10 7 0 26 6 40 14 23 12 24 14 9 20 -38 14 -73 38 -72
49 0 9 2 9 6 0 5 -15 33 -18 33 -3 0 5 -8 13 -17 18 -14 8 -10 13 23 31 34 18
36 21 14 20 -50 -2 -55 1 -25 20 21 13 35 16 47 9 15 -7 17 -5 9 16 -6 13 -8
32 -7 42 2 11 1 13 -1 6 -3 -8 -11 -11 -19 -8 -7 3 -16 1 -19 -3 -3 -5 -13 -7
-23 -4 -10 2 -42 -5 -72 -17 -45 -18 -58 -19 -82 -9 -23 9 -27 16 -22 35 6 24
-9 34 -21 14 -9 -15 -45 -12 -45 4 0 8 -4 18 -10 21 -6 3 -7 -1 -4 -10 5 -11
2 -14 -12 -9 -18 5 -18 5 -1 -9 16 -13 13 -14 -28 -12 -25 2 -43 0 -40 -5 3
-4 -4 -6 -14 -3 -10 3 -18 11 -17 18 1 8 96 77 212 153 115 77 216 148 225
158 9 10 26 43 38 73 19 45 22 68 19 133 -2 43 0 78 3 78 12 0 143 -104 195
-154 61 -59 154 -187 194 -266 144 -286 127 -638 -49 -1005 -55 -116 -143
-261 -202 -336 -16 -20 -29 -40 -29 -43 0 -3 138 -6 306 -6 201 0 303 3 299
10 -3 6 -1 10 4 10 6 0 11 -4 11 -10 0 -6 53 -10 140 -10 135 0 141 1 149 22
l8 21 21 -21 c20 -20 33 -22 120 -22 l99 0 0 30 c0 17 2 33 6 36 12 12 27 -8
27 -37 0 -28 2 -29 44 -29 l45 0 -10 32 c-25 89 3 171 89 260 36 37 69 68 73
68 4 0 10 -8 13 -17 4 -10 4 -14 0 -10 -4 4 -17 -7 -29 -23 -12 -16 -25 -27
-28 -24 -3 3 -3 -3 -1 -13 3 -11 -3 -26 -15 -37 -21 -19 -28 -46 -13 -46 15 0
94 70 115 101 12 18 33 36 47 39 17 4 26 15 31 38 4 21 3 32 -5 32 -6 0 -23 6
-38 14 -15 8 -36 12 -48 9 -12 -3 -29 2 -41 13 -16 14 -38 19 -87 21 -53 1
-67 5 -72 19 -6 15 -7 16 -13 2 -4 -13 -15 -15 -46 -11 -32 4 -42 2 -47 -11
-3 -9 -12 -16 -20 -16 -8 0 -14 -4 -14 -9 0 -4 -25 -9 -55 -9 -50 0 -57 3 -85
34 -38 43 -40 96 -7 145 18 27 35 37 84 51 34 9 97 19 140 22 213 17 452 38
573 50 91 9 158 11 205 5 166 -21 227 -43 304 -110 31 -28 53 -39 75 -39 83 0
196 -198 200 -350 1 -41 0 -65 -2 -53 -5 32 -31 37 -42 8 -5 -14 -16 -25 -25
-25 -8 0 -15 -4 -15 -10 0 -17 -39 -50 -60 -50 -11 0 -38 -19 -60 -41 -22 -23
-40 -38 -40 -34 0 4 -7 2 -15 -5 -11 -9 -18 -10 -29 -1 -10 9 -16 8 -26 -4
-11 -13 164 -15 1617 -15 l1630 0 -4 27 c-4 22 -2 25 6 13 9 -13 11 -13 11 3
0 10 10 21 22 26 18 6 19 9 5 14 -10 4 -17 14 -17 22 0 9 5 13 10 10 12 -7 26
22 16 33 -4 3 -11 0 -16 -8 -7 -11 -10 -5 -10 20 0 38 32 90 44 72 4 -6 14 -8
22 -5 9 3 12 8 5 12 -12 8 -18 98 -7 129 4 13 3 22 -3 22 -5 0 -12 -8 -14 -17
-4 -17 -5 -17 -6 0 0 10 6 25 14 33 12 12 15 12 16 2 0 -7 5 -1 11 15 5 15 13
25 17 23 4 -3 6 9 4 27 l-4 32 16 -27 c13 -24 14 -38 4 -93 -6 -36 -15 -65
-21 -65 -5 0 -6 -5 -3 -11 6 -10 -16 -147 -35 -214 -4 -16 -11 -45 -14 -62
l-5 -33 170 0 171 0 -7 32 c-11 47 -22 75 -34 83 -13 8 -15 45 -2 45 5 0 11
-5 13 -12 3 -7 7 -6 11 5 5 12 1 17 -13 17 -19 0 -40 44 -27 56 3 4 2 16 -2
28 -8 20 -1 88 13 146 4 14 11 49 17 79 6 30 26 100 46 155 19 56 43 137 54
181 10 44 23 99 29 123 5 23 10 62 10 87 0 24 5 47 11 50 10 7 7 -84 -4 -115
-3 -8 -8 -36 -11 -63 -3 -26 -8 -53 -12 -60 -5 -8 -2 -7 9 2 12 9 17 28 17 60
0 26 5 52 10 57 9 9 15 121 10 194 -2 25 -2 25 -15 -5 -11 -23 -14 -25 -14
-10 -1 34 11 65 21 58 6 -3 1 7 -11 23 -19 26 -22 44 -23 139 -1 98 5 144 38
302 2 12 10 21 17 19 6 -1 9 -1 5 1 -12 7 -9 51 3 58 6 4 8 13 5 21 -8 21 7
17 21 -5 10 -15 10 -20 0 -24 -9 -3 -8 -8 3 -19 8 -8 20 -13 27 -11 6 2 10 -4
8 -14 -2 -10 -6 -47 -10 -83 -4 -36 -14 -90 -23 -120 -11 -38 -16 -101 -16
-207 -1 -83 -4 -149 -7 -147 -4 2 -3 -13 2 -34 5 -24 3 -83 -7 -162 -8 -69
-17 -148 -19 -177 -2 -28 -22 -106 -44 -172 -42 -126 -75 -249 -86 -314 -3
-21 -10 -35 -16 -32 -5 4 -9 1 -9 -4 0 -6 4 -11 9 -11 5 0 11 -17 14 -38 3
-20 9 -53 14 -72 6 -20 6 -46 2 -58 -6 -17 -5 -22 7 -22 8 0 17 -7 20 -15 4
-8 17 -15 31 -15 19 0 23 4 19 18 -12 40 -24 108 -22 127 15 114 42 211 89
315 48 107 70 293 72 625 2 157 7 244 19 304 9 46 16 109 16 140 1 31 6 69 13
85 l12 29 39 -47 c43 -53 43 -35 -5 -196 -21 -69 -23 -96 -25 -350 -1 -151 -7
-304 -13 -340 -6 -36 -11 -94 -11 -130 0 -67 -14 -121 -69 -270 -48 -128 -75
-270 -57 -298 4 -7 27 -12 52 -12 l44 0 0 46 c0 26 15 92 34 148 97 294 98
304 98 641 -1 218 2 311 14 373 14 78 58 217 74 235 5 5 26 -8 48 -28 l41 -36
-24 -67 c-66 -185 -90 -359 -82 -599 6 -166 4 -188 -14 -240 -38 -112 -68
-229 -83 -336 -22 -147 -24 -137 32 -137 l48 0 16 73 c9 39 33 137 53 217 34
135 36 151 30 240 -10 135 -8 174 26 365 49 280 72 380 90 391 12 7 89 -44 96
-64 3 -7 -2 -32 -10 -55 -9 -23 -21 -76 -27 -117 -6 -41 -22 -131 -35 -200
-29 -153 -60 -398 -74 -585 -6 -78 -18 -167 -26 -198 -8 -32 -15 -60 -15 -62
0 -3 29 -5 64 -5 l64 0 10 63 c6 34 16 114 22 177 6 63 14 153 19 200 9 89
110 692 117 699 2 2 20 -4 39 -15 l35 -19 0 -145 c0 -105 -5 -171 -19 -235
-23 -108 -43 -247 -71 -490 -12 -99 -24 -192 -26 -208 l-6 -27 60 0 60 0 11
44 c10 41 51 357 66 506 3 36 12 101 20 145 9 54 12 121 8 206 -4 77 -2 128 4
132 5 3 33 -8 61 -26 l52 -32 0 -90 c0 -90 -21 -368 -39 -515 -6 -41 -13 -106
-16 -145 -4 -38 -13 -101 -21 -138 -8 -38 -14 -73 -14 -78 0 -5 27 -9 59 -9
l59 0 12 52 c10 47 20 120 50 353 23 179 29 255 31 360 2 61 4 115 7 122 4 14
42 4 90 -23 l33 -19 -5 -75 c-3 -41 -8 -120 -12 -175 -5 -99 -47 -360 -90
-562 l-6 -33 44 0 45 0 6 62 c3 35 20 117 36 183 32 126 37 174 21 240 -5 24
-5 56 0 80 5 22 14 77 19 123 6 46 13 87 16 92 9 14 34 0 34 -18 1 -9 4 -55 9
-102 6 -68 8 -78 13 -50 4 19 3 73 -1 120 -5 52 -4 90 2 97 6 8 5 19 -2 33 -8
16 -9 40 -1 90 6 38 11 71 11 74 0 3 -14 13 -31 22 l-32 16 7 165 c4 91 14
200 23 242 11 56 13 83 5 106 -13 36 -20 139 -27 387 -6 181 -7 194 -51 365
-25 98 -63 248 -85 333 -58 227 -72 375 -72 750 -1 596 3 719 23 795 37 143
61 295 74 475 12 162 12 197 -1 285 -16 106 -14 125 32 395 10 58 15 156 15
305 -1 121 4 254 9 295 18 138 34 325 30 350 -4 22 -10 25 -51 28 l-48 3 0
-41 c0 -22 -6 -73 -14 -113 -8 -40 -17 -162 -21 -271 -4 -110 -11 -210 -15
-222 -5 -13 -10 -99 -10 -191 -1 -92 -5 -190 -10 -218 -33 -201 -33 -206 -21
-299 10 -70 10 -110 2 -162 -6 -39 -15 -119 -20 -180 -6 -60 -23 -174 -38
-254 -27 -141 -32 -218 -22 -370 2 -36 -2 -164 -9 -285 -15 -268 -16 -647 -2
-733 11 -64 25 -110 98 -322 59 -172 90 -390 93 -655 1 -56 7 -168 15 -250 7
-83 17 -261 20 -397 l7 -247 -21 6 c-12 3 -27 11 -33 19 -6 8 -17 14 -24 14
-6 0 -20 8 -29 19 -14 16 -18 49 -21 222 -3 112 -8 236 -11 274 -20 215 -33
469 -25 477 4 5 4 42 0 84 -4 42 -10 149 -14 238 -11 269 -24 328 -119 543
-20 45 -43 112 -51 150 -22 101 -18 307 10 646 14 165 23 303 20 307 -12 20
-6 247 8 300 8 30 18 87 21 125 12 132 27 240 43 303 10 42 13 83 9 125 -3 34
-9 91 -12 127 -4 38 0 118 10 195 9 72 16 171 16 219 0 64 6 109 22 160 21 65
22 88 20 276 -1 123 3 239 10 290 7 47 13 89 13 94 0 4 -21 10 -47 12 -44 4
-47 3 -53 -25 -3 -16 -1 -49 6 -73 6 -23 11 -85 12 -135 0 -91 0 -93 23 -93
13 0 24 -4 24 -9 0 -5 -12 -7 -28 -5 l-27 4 -1 -92 c0 -59 -8 -126 -21 -183
-12 -49 -27 -151 -33 -225 -6 -74 -16 -169 -22 -210 -5 -41 -11 -149 -13 -240
-2 -154 -10 -212 -43 -335 -17 -60 -32 -235 -42 -465 -5 -113 -18 -293 -30
-400 -26 -241 -28 -408 -5 -485 9 -31 34 -97 56 -147 59 -133 77 -191 88 -277
10 -74 26 -556 24 -716 -4 -261 4 -375 33 -494 12 -46 14 -85 10 -145 -11
-127 -10 -337 1 -345 27 -18 207 -158 268 -209 38 -32 72 -66 73 -77 5 -22
-11 -11 -170 115 -122 97 -197 152 -458 340 -102 73 -201 147 -220 165 -33 31
-195 153 -369 278 -45 33 -78 63 -75 68 3 5 -3 20 -13 33 -15 19 -19 38 -17
92 2 38 -4 98 -11 134 -19 90 -47 389 -44 485 1 44 -3 114 -9 155 -12 78 -5
470 8 470 3 0 11 -17 18 -37 9 -33 10 -30 4 27 -8 73 -9 299 -2 660 4 222 2
257 -19 370 -16 93 -23 175 -26 330 -3 113 -7 237 -10 277 -9 98 10 238 56
421 23 89 39 177 39 210 0 31 7 91 16 132 31 150 45 226 53 290 8 64 25 135
42 175 4 11 10 50 13 87 2 36 15 96 27 133 20 57 21 68 9 75 -12 7 -12 12 -2
22 6 6 12 29 12 49 0 23 13 62 35 103 19 37 34 70 33 74 -1 4 1 18 5 32 3 14
8 45 11 70 4 29 -14 -14 -48 -115 -75 -222 -78 -228 -101 -211 -18 13 -17 19
27 142 48 135 89 258 93 284 1 8 10 32 19 52 9 21 16 44 16 51 0 8 7 32 15 53
9 24 10 32 2 21 -6 -10 -22 -31 -35 -45 -12 -15 -25 -37 -28 -50 -4 -13 -12
-21 -19 -18 -7 2 -18 -7 -24 -20 -15 -33 -14 -39 3 -25 11 9 15 6 18 -14 3
-14 2 -25 -3 -25 -4 0 -11 -10 -14 -21 -6 -17 -9 -19 -16 -8 -5 9 -3 17 6 22
8 4 15 13 15 20 0 8 -3 8 -9 -1 -4 -8 -11 -12 -15 -10 -8 3 -66 -135 -66 -157
0 -7 -4 -15 -9 -17 -8 -3 -81 -188 -81 -205 0 -5 10 -10 23 -10 72 -6 71 -4
35 -123 -11 -36 -23 -114 -28 -175 -4 -60 -11 -121 -14 -134 -11 -49 -41 -116
-56 -128 -13 -11 -13 -12 4 -13 14 0 17 -5 12 -22 -3 -13 -6 -27 -6 -33 0 -5
-5 -3 -11 5 -8 12 -10 10 -5 -10 3 -14 -1 -50 -9 -80 -31 -123 -45 -191 -45
-224 0 -38 -22 -157 -46 -246 -9 -34 -19 -151 -26 -305 -12 -269 -4 -435 28
-570 14 -60 15 -107 9 -337 -9 -329 -8 -486 1 -523 4 -18 3 -26 -3 -22 -24 15
-31 -530 -8 -688 8 -54 12 -101 10 -103 -2 -2 -17 9 -33 26 -25 25 -30 41 -36
103 -4 41 -16 130 -27 199 -21 140 -24 287 -8 463 12 142 18 941 7 1012 -42
267 -37 546 12 780 11 50 27 146 35 215 9 69 20 139 24 155 5 17 17 66 26 110
10 44 24 92 31 108 16 31 34 138 39 241 2 38 11 102 20 143 9 41 14 81 11 89
-3 8 -1 12 4 9 5 -3 13 9 18 27 8 30 6 33 -16 36 -14 2 -29 -2 -33 -10 -20
-31 -79 -239 -85 -298 -4 -36 -11 -74 -17 -85 -6 -11 -12 -33 -14 -50 -1 -16
-14 -64 -28 -105 -43 -132 -70 -268 -106 -540 -16 -125 -37 -383 -32 -415 11
-87 23 -362 27 -610 4 -256 4 -274 -9 -210 -29 152 -43 262 -39 305 3 28 -3
80 -16 135 -34 142 -53 433 -39 605 11 129 37 297 49 321 6 10 10 39 10 66 0
26 7 68 16 93 8 24 13 52 11 62 -6 23 19 94 43 126 11 14 20 38 20 54 0 16 11
50 24 77 15 29 23 57 19 70 -3 12 1 29 9 39 8 9 15 35 15 56 1 27 -2 35 -8 25
-5 -8 -9 -23 -9 -35 0 -24 -22 -74 -33 -74 -4 0 -3 -9 3 -20 8 -15 8 -25 0
-38 -11 -16 -11 -16 -6 0 3 10 0 20 -5 24 -7 4 -9 -6 -7 -27 2 -25 -1 -33 -11
-31 -8 2 -11 -3 -8 -12 3 -8 2 -16 -2 -18 -5 -2 -12 -14 -16 -27 -4 -15 -3
-21 3 -17 6 3 5 -4 -1 -18 -8 -17 -15 -22 -22 -15 -6 6 -5 13 4 18 8 5 9 11 3
15 -15 9 -23 -23 -11 -46 6 -11 7 -18 2 -15 -20 12 -37 -15 -89 -135 -40 -95
-42 -114 -8 -73 25 29 26 29 20 5 -12 -43 -26 -132 -35 -212 -4 -43 -13 -83
-19 -91 -6 -7 -11 -33 -10 -58 1 -24 -3 -78 -9 -119 -18 -113 -17 -429 0 -449
8 -9 17 -50 20 -93 6 -63 4 -77 -9 -82 -8 -3 -12 -2 -9 4 3 6 2 10 -4 10 -15
0 -27 91 -35 265 -2 33 -6 110 -10 170 -6 90 -4 131 13 225 12 63 28 137 36
164 18 58 20 85 5 70 -10 -10 -53 -161 -71 -251 -6 -29 -15 -50 -20 -47 -5 3
-9 40 -10 82 -1 65 -2 72 -10 47 -13 -39 -18 -241 -7 -282 5 -17 10 -67 12
-110 2 -43 11 -111 20 -151 9 -40 16 -94 16 -120 l-1 -47 -15 34 c-14 34 -27
86 -58 246 -49 251 -59 464 -29 614 15 77 15 88 0 155 -31 133 -50 298 -43
374 10 117 -5 153 -91 226 -94 80 -126 103 -154 116 -13 6 -42 22 -64 35 -58
36 -124 65 -145 65 -10 0 -35 9 -55 21 -19 12 -41 19 -49 16 -7 -3 -30 5 -49
19 -43 29 -51 30 -43 7 5 -14 2 -13 -11 3 -21 26 -120 77 -133 69 -13 -8 -83
48 -171 138 -93 94 -88 102 7 11 119 -115 221 -168 299 -157 81 11 83 16 87
191 l3 152 -25 -1 c-14 0 -59 -4 -100 -8 -112 -12 -114 3 -3 23 148 27 134 15
132 112 -1 47 -4 86 -8 88 -3 2 -49 -3 -101 -10 -52 -7 -173 -21 -269 -29
-161 -15 -184 -15 -295 0 -84 12 -122 13 -124 6 -2 -6 -12 -11 -23 -11 -12 0
-19 -7 -19 -19 0 -14 5 -18 20 -14 18 5 20 0 20 -51 0 -49 3 -58 26 -73 54
-35 211 -46 444 -30 76 5 87 4 55 -4 -79 -21 -222 -37 -313 -36 -91 2 -92 2
-70 -16 74 -57 98 -80 98 -98 0 -11 -7 -22 -15 -25 -8 -4 -15 -12 -15 -20 0
-8 -3 -13 -7 -13 -21 3 -32 -2 -27 -14 3 -10 -4 -14 -26 -14 -16 0 -30 4 -30
8 0 5 -7 6 -15 3 -8 -4 -22 -1 -29 5 -10 8 -16 9 -21 1 -3 -6 -11 -7 -17 -4
-6 4 -20 8 -32 9 -11 1 -26 3 -32 4 -12 1 -15 31 -2 31 11 0 10 37 -1 45 -6 3
-15 -3 -21 -12 -10 -16 -11 -16 -7 5 3 12 2 22 -3 22 -4 0 -17 19 -28 43 -18
37 -20 60 -18 168 1 69 6 131 10 137 4 6 3 20 -2 29 -11 21 -5 46 9 37 8 -5
11 3 8 22 -2 18 30 20 109 7 103 -17 237 -12 335 13 76 19 140 69 145 114 8
78 6 160 -5 171 -7 7 -13 24 -13 37 0 14 -8 30 -17 37 -16 12 -16 16 -3 40 8
15 25 31 37 36 13 5 23 10 23 11 0 2 -7 24 -15 50 -7 26 -10 50 -6 52 14 9 21
-6 21 -44 0 -20 6 -45 14 -55 12 -17 16 -12 48 56 19 41 44 99 56 129 22 58
36 153 21 144 -5 -3 -9 -3 -9 1 0 3 11 10 25 15 14 5 25 14 25 20 0 6 -4 8
-10 5 -5 -3 -10 -1 -10 4 0 6 -5 11 -11 11 -5 0 -7 -4 -4 -10 3 -5 1 -10 -5
-10 -7 0 -10 7 -6 15 3 8 2 15 -3 15 -10 0 -25 50 -17 58 3 2 10 -8 16 -24 17
-45 50 -55 50 -16 0 15 -2 15 -10 2 -18 -28 -10 5 9 36 17 28 18 35 5 59 -8
15 -17 45 -21 67 -3 22 -12 42 -19 45 -8 3 -14 9 -14 15 0 5 4 7 9 4 5 -4 8 2
6 11 -2 10 -7 35 -10 56 -4 27 -13 40 -28 46 -17 7 -23 18 -25 44 -1 20 2 38
8 42 6 4 8 15 5 25 -3 9 5 39 18 66 22 43 34 100 41 184 2 14 6 37 10 51 9 32
-5 111 -21 116 -8 3 -7 -7 2 -34 8 -24 11 -52 6 -73 -5 -29 -12 -36 -34 -38
-37 -4 -58 14 -51 43 4 14 0 26 -8 32 -8 4 -17 16 -21 26 -3 9 -13 17 -21 17
-7 0 -16 9 -19 20 -3 11 -11 19 -18 18 -7 -2 -17 11 -23 27 -6 17 -13 32 -17
35 -3 3 -8 13 -12 23 -7 18 -27 24 -27 6 0 -19 -18 1 -22 26 -4 18 -1 25 11
26 9 0 5 6 -12 13 -30 13 -26 26 7 27 17 0 16 2 -6 11 -16 5 -28 14 -28 20 0
6 -12 8 -27 4 -16 -3 -23 -3 -17 0 8 3 8 16 0 44 -7 29 -15 40 -30 40 -18 0
-18 1 -3 18 20 22 22 39 5 45 -17 6 -9 13 22 21 17 5 21 4 11 -2 -8 -6 -9 -12
-3 -16 5 -3 12 1 16 9 7 20 36 19 36 0 0 -9 9 -15 21 -15 16 0 20 4 14 18 -5
14 -4 15 6 5 20 -20 30 -15 23 12 -18 74 35 59 84 -23 35 -59 41 -114 17 -146
-8 -11 -15 -27 -15 -35 0 -11 3 -12 8 -4 4 7 8 -4 8 -25 0 -48 27 -100 70
-135 42 -35 67 -26 27 10 -15 14 -21 22 -13 18 8 -5 -3 7 -24 26 l-39 35 9 69
c4 39 7 81 7 95 -1 14 -1 39 -2 56 -1 27 -30 77 -107 184 -14 19 -43 47 -64
61 -33 22 -36 27 -21 37 13 9 12 11 -13 11 -22 1 -26 4 -17 14 8 10 7 17 -2
26 -9 9 -9 14 3 22 11 8 9 9 -9 4 -14 -5 -21 -3 -17 3 7 12 -41 62 -60 62 -8
0 -14 5 -14 11 0 6 -10 9 -22 7 -21 -3 -78 43 -78 63 0 5 -13 9 -28 9 -16 0
-37 9 -47 20 -23 25 -50 25 -100 0 -21 -11 -33 -14 -27 -8 18 18 15 28 -9 28
-13 0 -18 4 -13 11 5 9 -1 10 -21 5 -23 -6 -26 -4 -21 9 4 11 2 15 -6 13 -7
-3 -13 -11 -13 -19 0 -20 -31 -23 -57 -5 -12 9 -37 16 -55 16 -18 0 -52 6 -75
14 -51 17 -165 37 -199 35 -13 -1 -50 -5 -82 -9z m-1687 -1842 c0 -68 -3 -160
-7 -205 l-6 -83 -40 0 -40 0 6 113 c4 61 7 149 7 195 0 74 2 82 19 82 11 0 23
5 26 10 3 6 13 10 21 10 11 0 14 -22 14 -122z m-266 62 c-4 -24 -2 -40 4 -40
6 0 13 15 15 33 2 17 5 -54 5 -159 l2 -191 -25 0 -25 0 0 107 c0 141 11 290
21 290 5 0 6 -18 3 -40z m-164 -5 c3 -19 12 -31 24 -33 15 -3 18 1 14 23 -3
14 -1 28 3 31 5 3 9 -81 9 -185 0 -121 -4 -191 -10 -191 -6 0 -11 59 -12 153
l-2 152 -3 -152 c-3 -144 -5 -153 -23 -154 -11 -1 -28 -2 -37 -3 -16 -1 -19
12 -23 109 -3 64 -8 97 -11 80 -4 -22 -6 -15 -7 25 0 30 2 49 5 43 13 -33 23
-6 23 63 0 72 1 75 23 72 16 -2 23 -11 27 -33z m-1380 -194 c1 -196 -1 -219
-16 -225 -9 -4 -19 -5 -21 -3 -4 5 -7 233 -5 360 2 79 4 87 21 87 19 0 20 -10
21 -219z m1069 156 c-2 -25 -1 -43 4 -40 4 2 7 26 7 54 0 27 5 49 10 49 6 0
10 -60 11 -157 1 -87 3 -150 6 -140 2 9 9 15 14 12 5 -4 9 18 9 49 0 30 -4 58
-10 61 -5 3 -10 17 -10 31 0 13 5 24 10 24 6 0 10 21 10 48 0 60 9 73 48 70
l32 -2 0 -63 c0 -77 -18 -93 -23 -21 -2 29 -3 -17 -3 -102 0 -85 1 -136 3
-112 6 66 23 49 23 -23 0 -55 -3 -65 -17 -66 -10 0 -40 -1 -68 -2 l-50 -2 -5
70 -4 70 -6 -70 c-4 -46 -7 -2 -8 130 -2 145 1 196 9 188 6 -6 10 -31 8 -56z
m-2052 -174 c-7 -221 -11 -263 -29 -263 -6 0 -8 78 -4 218 3 119 5 227 6 240
0 14 6 22 17 22 15 0 16 -20 10 -217z m-327 -10 c0 -122 -4 -213 -9 -213 -15
0 -20 65 -19 238 1 89 -2 165 -6 169 -4 4 -6 -86 -4 -200 2 -148 0 -208 -8
-211 -8 -3 -14 14 -17 47 -7 65 -10 364 -4 375 3 4 19 7 36 7 l31 0 0 -212z
m4631 35 c-5 -37 -4 -56 3 -55 5 1 12 -6 14 -15 2 -11 -2 -18 -12 -18 -19 0
-21 -31 -4 -48 16 -16 39 -15 37 1 -4 35 2 90 10 82 14 -15 24 -125 12 -125
-24 0 -35 -49 -37 -162 -1 -65 2 -120 7 -123 15 -10 10 -45 -5 -45 -8 0 -17 9
-21 19 -3 10 -17 22 -31 25 -14 4 -22 11 -19 16 6 10 -21 71 -35 80 -5 3 -9
44 -11 93 -3 72 0 91 14 108 15 17 21 18 33 8 12 -10 15 -7 14 17 0 16 0 40 0
54 0 14 0 36 0 50 0 21 31 102 37 96 1 -1 -2 -27 -6 -58z m-2517 -2248 c-8
-30 -14 -62 -14 -72 0 -10 -4 -18 -8 -18 -11 0 -34 -142 -26 -166 5 -16 4 -17
-6 -4 -10 13 -11 11 -7 -7 3 -13 2 -23 -3 -23 -7 0 -26 -118 -23 -147 0 -7 -3
-10 -7 -8 -5 3 -11 -16 -15 -42 -15 -120 -3 -107 -113 -127 -53 -10 -151 -32
-217 -48 -66 -16 -165 -38 -220 -49 -110 -22 -113 -23 -135 -32 -8 -4 -78 -20
-155 -37 -258 -54 -549 -119 -600 -134 -86 -26 -119 -34 -160 -41 -37 -6 -273
-58 -483 -107 -51 -11 -94 -19 -96 -17 -5 4 -8 115 -7 200 1 42 4 48 27 53 15
4 33 14 41 21 8 8 23 15 34 15 11 0 37 6 60 13 31 9 39 16 37 32 -3 17 -12 21
-57 23 -30 2 -59 -2 -64 -7 -14 -14 -27 -14 -27 -1 0 6 6 10 14 10 19 0 30 32
14 42 -20 12 -54 10 -41 -3 13 -13 -5 -59 -23 -59 -9 0 -12 43 -10 149 1 115
-2 147 -11 144 -15 -6 -27 21 -19 42 4 12 9 13 24 4 23 -14 251 23 777 125
105 21 206 41 225 46 33 9 197 42 305 61 171 31 222 42 237 50 10 5 28 9 42 9
13 0 41 7 61 16 21 8 47 13 58 10 29 -7 120 13 133 30 7 9 32 15 62 15 29 1
49 6 46 10 -5 9 31 13 69 10 9 -1 17 2 17 7 0 9 149 42 189 42 12 0 21 -6 21
-15 0 -8 5 -15 10 -15 6 0 10 7 10 15 0 8 6 15 14 15 8 0 17 7 20 16 14 36 14
6 0 -46z m-134 -647 c0 -21 -5 -65 -10 -98 -6 -33 -15 -112 -21 -175 -5 -63
-13 -131 -15 -150 -3 -19 -9 -73 -13 -120 -5 -47 -9 -77 -10 -66 -1 15 -4 16
-16 6 -8 -6 -29 -16 -47 -20 -18 -4 -73 -20 -123 -34 -49 -14 -148 -41 -220
-60 -262 -70 -633 -169 -760 -203 -182 -48 -673 -180 -775 -208 -47 -13 -102
-27 -122 -30 l-37 -7 0 142 c1 99 4 142 12 144 7 2 35 11 62 20 28 10 66 20
85 22 19 2 36 8 38 14 2 5 19 10 38 10 38 0 47 17 12 22 -13 2 -24 11 -26 22
-3 12 1 17 9 14 8 -3 21 11 31 34 9 21 21 38 26 38 5 0 8 10 8 21 -1 15 10 28
34 42 32 19 45 22 104 26 15 1 17 4 9 12 -9 9 -24 8 -60 -4 -48 -16 -70 -14
-43 3 11 7 6 10 -17 10 -18 0 -33 -4 -33 -10 0 -5 -5 -10 -11 -10 -7 0 -18 -8
-26 -17 -14 -17 -14 -17 -10 3 4 18 1 21 -17 17 -20 -5 -19 -4 4 19 14 14 32
28 40 31 8 4 0 5 -17 2 -73 -11 -93 -18 -93 -31 0 -8 3 -13 7 -13 27 4 34 -2
19 -17 -9 -8 -16 -24 -16 -34 0 -27 -41 -51 -92 -53 -24 -1 -48 -9 -55 -17
-10 -13 -12 -10 -13 16 0 29 4 32 36 39 38 7 57 -1 35 -14 -9 -6 -10 -11 -2
-15 16 -10 24 19 12 42 -13 24 -57 26 -66 3 -11 -25 -24 16 -18 59 2 19 4 43
4 53 0 9 7 17 15 17 8 0 14 -4 14 -10 0 -16 51 -12 110 10 30 11 64 20 74 20
19 0 19 1 -2 20 -24 23 -52 26 -52 7 0 -21 -51 -42 -61 -25 -7 10 -11 10 -21
0 -6 -6 -27 -12 -45 -12 -25 0 -33 4 -33 18 0 14 20 22 118 41 64 13 160 35
212 48 52 13 147 34 210 48 63 13 151 34 195 45 85 23 148 38 510 119 127 29
248 56 270 61 22 5 78 18 125 29 211 48 332 76 415 96 50 12 93 23 98 24 4 0
7 -16 7 -36z m5026 -564 c13 1 25 -50 19 -76 -3 -13 -1 -23 4 -23 14 0 22 -30
27 -103 3 -38 11 -81 18 -95 44 -88 57 -228 37 -417 -5 -44 -8 -110 -7 -147 0
-37 -2 -64 -5 -60 -3 4 -16 61 -29 127 -17 89 -25 180 -31 355 -4 129 -6 243
-3 253 3 9 1 17 -5 17 -6 0 -11 -7 -11 -16 0 -8 -4 -13 -8 -10 -5 3 -7 24 -6
48 1 24 -3 46 -9 50 -5 3 -12 32 -14 65 -3 37 -1 53 5 45 5 -8 13 -13 18 -13z
m-5109 -216 c-12 -134 -30 -169 -24 -47 1 41 -1 78 -5 80 -4 3 -8 1 -8 -4 0
-9 -48 -23 -200 -57 -36 -8 -90 -23 -120 -34 -51 -17 -115 -32 -265 -62 -33
-6 -69 -18 -80 -25 -26 -19 -55 -18 -55 2 0 12 -6 15 -22 10 -13 -4 -52 -11
-87 -17 -36 -5 -69 -13 -75 -17 -6 -5 -32 -9 -59 -10 -26 -1 -55 -6 -65 -11
-9 -5 -37 -11 -62 -15 -25 -3 -38 -3 -30 0 8 3 22 8 30 11 8 4 18 5 22 5 4 -1
25 4 45 12 21 7 65 21 98 30 192 51 325 87 357 96 21 6 40 11 43 11 2 1 55 16
117 35 62 18 123 34 135 34 12 0 23 3 25 8 2 4 48 18 103 32 55 13 120 32 145
41 25 9 46 16 47 16 0 -1 -4 -57 -10 -124z m-1177 -226 c0 -9 -25 -18 -72 -27
-40 -7 -79 -16 -88 -21 -8 -5 -42 -15 -75 -24 -33 -9 -103 -27 -155 -41 -52
-14 -99 -27 -105 -28 -5 -1 -14 -4 -20 -8 -5 -3 -32 -9 -60 -13 -27 -4 -70
-15 -95 -25 -25 -10 -72 -23 -105 -30 -33 -7 -82 -19 -109 -26 -60 -17 -56
-17 -56 1 0 11 11 15 38 15 20 0 82 14 137 31 55 17 116 35 135 39 64 14 204
50 255 66 51 16 140 41 250 69 33 8 71 19 85 24 36 13 40 13 40 -2z m1140
-405 l0 -59 -29 5 c-16 2 -32 -1 -35 -7 -4 -6 -17 -11 -29 -11 -12 0 -37 -9
-55 -20 -18 -11 -47 -20 -65 -20 -17 0 -45 -7 -61 -15 -15 -8 -41 -15 -56 -15
-16 0 -30 -5 -32 -11 -4 -13 -98 -25 -98 -13 0 5 41 22 91 38 82 26 88 29 72
43 -10 8 -13 12 -6 9 6 -4 14 -2 18 4 3 5 16 9 28 9 19 -1 19 -2 3 -6 -15 -4
-16 -7 -5 -13 7 -5 21 -4 32 2 15 7 22 7 28 -3 5 -8 9 -9 9 -3 0 6 18 14 40
18 29 5 38 10 34 21 -5 11 1 15 22 15 22 0 25 3 14 10 -8 5 -12 11 -10 13 3 2
16 11 30 21 l25 17 -40 -5 -40 -6 50 19 c28 10 53 19 58 20 4 0 7 -25 7 -57z
m-1087 -906 c15 0 27 -7 27 -13 0 -7 9 -13 20 -13 11 0 20 6 20 13 0 9 3 8 9
-2 5 -7 13 -11 19 -7 20 12 42 -6 48 -41 l7 -36 18 24 c25 34 31 20 15 -39 -7
-29 -11 -52 -10 -52 2 0 13 9 24 20 11 11 27 20 35 20 12 0 14 7 10 28 -6 26
-6 26 9 8 9 -11 16 -23 16 -28 0 -4 5 -7 11 -5 15 3 22 -193 9 -254 l-9 -44 2
50 c2 49 2 50 -30 53 -40 4 -93 -41 -135 -115 -17 -30 -32 -52 -35 -49 -2 2 1
23 7 46 6 23 14 39 17 36 3 -3 18 14 33 38 16 24 38 51 51 60 27 18 70 21 86
5 8 -8 9 3 6 38 -7 73 -22 113 -42 113 -36 0 -90 -85 -112 -175 -6 -27 -16
-54 -22 -60 -7 -7 -8 -4 -3 10 17 46 18 101 3 113 -22 19 -70 -34 -96 -105
-12 -32 -18 -44 -14 -28 7 35 7 57 -3 103 -10 50 -32 36 -61 -36 -32 -80 -43
-73 -13 7 23 64 22 98 -6 125 -23 24 -30 20 -58 -30 -30 -54 -30 -54 -11 -54
8 0 19 -9 25 -19 13 -25 13 -84 0 -76 -5 3 -10 19 -10 35 0 19 -7 33 -19 40
-17 8 -23 5 -37 -19 -22 -37 -38 -31 -18 7 16 30 18 80 5 101 -12 19 -104 5
-127 -20 -17 -19 -16 -19 12 -13 37 7 62 -12 70 -53 8 -42 -7 -42 -26 0 -18
37 -50 46 -85 23 -31 -20 -35 -20 -35 2 0 21 -18 42 -37 42 -9 0 -11 -8 -7
-26 6 -23 4 -25 -17 -22 -18 2 -23 9 -22 26 3 27 -8 28 -32 2 -10 -11 -23 -20
-28 -20 -6 0 -1 10 11 23 33 35 26 41 -13 11 -57 -43 -40 -11 28 53 62 57 167
131 167 115 0 -4 -7 -16 -15 -26 -17 -23 -19 -36 -5 -36 6 0 10 5 10 11 0 6 9
24 21 40 11 16 17 29 12 29 -4 1 4 7 18 15 30 16 83 21 119 11 24 -7 24 -6 6
8 -20 16 -20 16 0 16 11 0 25 -5 32 -12 10 -9 16 -8 30 6 13 14 26 16 57 11
22 -4 52 -8 68 -9z m-634 -342 c-13 -37 -7 -38 16 -3 12 17 29 29 43 29 31 0
28 -14 -13 -59 -26 -28 -46 -40 -76 -45 -23 -4 -61 -20 -84 -36 -53 -36 -59
-37 -53 -5 3 14 1 25 -3 25 -5 0 -10 -10 -10 -22 -1 -17 -2 -19 -6 -5 -11 40
-103 -7 -103 -54 0 -9 -4 -19 -9 -21 -4 -1 -20 -25 -35 -53 l-27 -50 7 45 c4
25 10 68 13 95 5 41 9 50 26 50 11 0 30 10 43 23 12 12 27 22 33 22 6 0 24 13
40 30 34 34 103 58 166 59 42 1 42 1 32 -25z m-85 -419 c-7 -19 1 -19 69 -1
74 19 142 10 167 -22 27 -33 25 -52 -10 -167 -16 -54 -30 -104 -30 -111 0 -9
12 -14 34 -14 30 0 34 -4 40 -31 9 -48 7 -59 -10 -59 -9 0 -27 -9 -41 -20 -33
-26 -51 -26 -28 0 18 20 18 21 0 14 -13 -5 -16 -4 -11 4 4 7 13 12 21 12 14 0
29 30 19 39 -4 3 -9 0 -11 -6 -3 -7 -10 -13 -16 -13 -7 0 -17 -10 -22 -22 -6
-12 -19 -26 -30 -32 -26 -14 -35 -27 -35 -52 0 -11 -11 -30 -24 -43 l-23 -22
-19 28 c-43 64 -47 83 -45 228 1 110 -1 146 -14 169 -19 36 -19 69 0 106 16
31 29 41 19 15z m7518 -263 c6 16 88 -39 167 -114 31 -29 74 -68 96 -85 22
-18 65 -54 95 -79 50 -42 149 -109 377 -256 45 -29 123 -85 175 -124 51 -40
109 -82 128 -94 69 -43 -12 -10 -180 74 -188 94 -316 171 -411 248 -36 29
-110 89 -164 133 -109 88 -315 283 -315 298 0 5 6 4 14 -2 11 -9 15 -9 18 1z"/>
<path d="M978 4203 c30 -11 7 -23 -43 -23 l-55 0 4 -30 c2 -16 -1 -30 -5 -30
-5 0 -9 8 -9 18 0 29 -57 26 -63 -4 -3 -20 1 -23 40 -29 24 -3 41 -10 39 -14
-3 -4 -18 -6 -34 -3 -27 3 -30 1 -34 -27 -3 -18 -1 -34 4 -37 15 -9 47 7 42
20 -7 17 26 30 40 16 7 -7 5 -10 -7 -10 -9 0 -17 -4 -17 -10 0 -5 9 -10 20
-10 11 0 20 -5 20 -11 0 -6 -10 -9 -22 -8 -13 1 -36 -3 -51 -9 -16 -7 -33 -12
-38 -12 -5 0 -9 -4 -9 -10 0 -14 33 -13 48 2 8 8 15 8 25 -1 10 -8 21 -8 38
-1 23 10 22 10 -4 5 -19 -4 -26 -2 -22 5 8 13 45 13 65 0 13 -9 13 -11 0 -20
-8 -5 -10 -10 -4 -10 6 0 17 6 23 14 9 11 9 15 -1 18 -10 4 -10 8 1 21 14 17
10 21 -21 18 -10 -1 -18 3 -18 8 0 6 7 11 15 11 8 0 15 5 15 10 0 6 -8 10 -18
10 -14 0 -18 7 -17 33 0 21 5 31 14 29 23 -5 49 8 54 28 3 13 14 20 28 20 32
0 11 19 -26 24 -17 2 -24 1 -17 -1z"/>
<path d="M2393 9925 c0 -8 5 -15 10 -15 6 0 6 -46 2 -120 l-7 -120 41 0 41 0
1 48 c1 26 3 39 6 29 3 -12 10 -16 20 -13 12 5 14 -1 11 -29 -3 -23 -1 -32 6
-25 5 5 12 46 15 90 6 72 5 80 -11 80 -10 0 -20 -1 -21 -2 -2 -2 -11 3 -19 10
-14 11 -17 6 -23 -40 -4 -29 -7 -70 -6 -91 0 -26 -3 -37 -11 -35 -11 4 -13
102 -2 120 2 3 0 9 -6 13 -5 3 -10 25 -10 49 0 38 -13 66 -30 66 -4 0 -7 -7
-7 -15z"/>
<path d="M11037 8637 c-11 -46 -18 -153 -33 -567 -8 -234 -19 -467 -23 -518
-6 -87 -5 -94 13 -104 11 -6 45 -35 75 -64 38 -37 91 -71 166 -109 61 -31 148
-76 195 -101 47 -25 132 -65 190 -90 58 -25 110 -49 115 -54 17 -14 85 -39 85
-32 0 4 -13 13 -30 19 -20 8 -30 18 -30 33 0 12 5 18 10 15 6 -3 13 1 16 9 5
13 22 15 110 10 131 -8 141 10 12 20 -51 4 -154 16 -228 26 -74 11 -136 20
-137 20 -2 0 -3 7 -3 15 0 8 6 15 14 15 8 0 17 7 20 16 5 14 22 15 117 12 99
-4 109 -2 90 10 -15 10 -21 25 -21 50 l0 35 123 -6 122 -5 -95 13 c-52 7 -122
15 -155 19 -199 22 -209 24 -194 42 6 8 8 14 5 14 -4 0 0 7 8 16 13 12 40 15
128 15 77 0 106 3 91 9 -17 7 -23 18 -23 39 0 23 4 29 15 25 8 -4 15 -1 15 5
0 9 28 10 103 6 73 -5 98 -4 87 4 -8 6 -37 11 -64 11 -47 0 -151 10 -300 30
-67 9 -89 21 -80 45 8 19 51 35 97 36 l42 1 -45 12 c-82 22 -43 76 55 76 l57
0 -4 -45 c-2 -30 1 -45 9 -45 7 0 13 18 15 43 l3 42 115 -2 115 -2 -85 9 c-47
5 -139 14 -205 21 -110 10 -195 31 -195 48 0 14 100 41 156 42 33 1 46 4 29 6
-54 8 -105 24 -105 33 0 6 4 10 8 10 5 0 19 9 32 20 16 14 37 20 71 20 l48 0
3 -42 c4 -56 25 -62 24 -6 l-1 43 85 5 c83 5 80 5 -86 17 -95 7 -178 15 -186
18 -16 6 -22 45 -7 45 6 0 8 4 4 9 -10 18 33 31 102 32 l68 1 -85 14 c-47 7
-91 13 -98 14 -23 0 -2 20 22 20 12 0 32 9 44 20 15 15 35 20 72 20 l50 0 0
-45 c0 -29 4 -45 13 -45 8 0 11 14 9 45 l-4 45 108 1 c103 2 98 2 -81 14 -104
7 -196 14 -202 14 -8 1 -13 15 -13 36 0 39 7 43 100 48 l55 3 -61 2 c-37 1
-66 7 -72 15 -18 21 0 70 29 77 21 5 22 7 6 13 -10 4 -27 7 -37 7 -10 0 -30 4
-44 10 -21 8 -24 13 -17 32 4 13 23 31 42 40 33 17 34 17 7 18 -15 0 -34 8
-44 17 -16 17 -16 18 7 24 13 4 17 8 9 9 -11 1 -9 4 5 10 14 6 -4 9 -55 9 -41
1 -92 4 -112 7 l-38 7 -1 -59 c0 -33 -4 -79 -8 -104 -7 -38 -9 -28 -11 60 -3
118 -6 115 -15 -13 -4 -49 -10 -86 -13 -82 -4 3 -5 55 -3 116 2 74 -1 109 -8
109 -7 0 -11 -24 -11 -62 0 -35 -3 -87 -6 -115 -6 -48 -9 -53 -31 -53 l-24 0
3 115 c3 130 11 118 -82 129 -30 3 -51 12 -63 27 -9 12 -19 20 -21 18 -3 -2
-9 -64 -15 -138 -6 -74 -13 -136 -16 -139 -2 -2 -1 65 2 150 4 103 2 157 -4
161 -6 4 -13 -3 -16 -16z"/>
<path d="M10992 8615 c-15 -215 -21 -334 -23 -400 -1 -44 -5 -84 -9 -90 -4 -5
-10 -19 -13 -30 -5 -19 -11 45 -8 74 2 7 -2 10 -7 7 -6 -4 -9 49 -7 142 3 145
3 145 -6 52 -15 -144 -22 -189 -26 -160 -3 21 -23 99 -39 149 -3 10 -7 11 -18
2 -17 -14 -29 0 -20 23 4 11 1 16 -11 16 -11 0 -15 5 -11 15 3 9 0 15 -9 15
-15 0 -17 7 -19 60 -1 14 -5 31 -9 38 -5 6 -6 16 -2 21 3 5 1 12 -5 16 -6 4
-10 -12 -11 -42 0 -26 -1 -68 -2 -93 l-2 -45 -130 -5 -130 -6 101 -2 c56 -1
114 -5 130 -8 l29 -5 -3 -86 -4 -86 -136 6 c-90 5 -132 3 -122 -3 8 -5 61 -10
118 -10 l102 0 0 -45 c0 -34 4 -45 16 -45 12 0 14 -10 12 -47 -2 -27 -7 -47
-13 -47 -55 8 -276 12 -260 5 11 -5 43 -10 71 -10 28 -1 78 -4 111 -7 l60 -7
-5 -43 c-3 -29 -1 -44 7 -44 6 0 11 17 11 40 0 22 4 40 9 40 6 0 9 -36 8 -82
l-2 -83 -80 3 c-44 1 -107 5 -140 8 -43 4 -56 2 -45 -5 8 -6 36 -11 61 -11 25
0 74 -3 108 -6 l62 -7 -3 -41 c-2 -32 1 -42 15 -44 13 -3 17 -13 17 -43 l0
-40 -89 3 c-49 2 -87 0 -84 -4 2 -5 16 -8 31 -8 15 0 44 -3 65 -6 31 -6 37
-11 37 -30 0 -25 15 -33 23 -11 3 7 6 5 6 -5 1 -14 10 -18 44 -18 28 0 67 -12
116 -35 110 -53 106 -57 109 98 3 136 4 178 23 657 6 157 9 308 7 335 -3 28
-5 37 -6 20z"/>
<path d="M4430 7704 c-308 -17 -985 -52 -1175 -60 l-150 -7 0 -255 c0 -141 1
-248 3 -240 3 17 31 28 70 28 16 0 21 -4 16 -12 -6 -10 -4 -10 8 0 9 7 35 16
59 20 l42 7 5 170 c2 94 6 172 8 174 2 2 4 -67 4 -154 0 -87 2 -156 5 -154 2
3 5 30 5 60 2 141 13 280 22 268 4 -8 6 -75 3 -151 -4 -90 -2 -138 5 -143 7
-4 10 48 10 164 0 102 4 172 10 176 7 4 10 -62 10 -189 0 -124 -4 -196 -10
-196 -5 0 -10 7 -10 15 0 8 -4 15 -10 15 -5 0 -10 -9 -10 -21 0 -15 -4 -19
-16 -15 -10 4 -14 1 -11 -6 2 -7 15 -12 28 -11 89 6 277 23 294 27 11 2 35 5
53 5 l32 1 0 59 0 59 89 7 c94 7 175 0 165 -16 -3 -5 0 -9 5 -9 6 0 11 14 11
31 0 30 -1 31 -37 25 -21 -3 -82 -8 -135 -12 l-97 -6 1 30 c1 30 3 31 52 35
l51 3 -50 2 -50 2 0 59 0 58 89 7 c127 9 226 7 226 -3 0 -5 -6 -12 -12 -14
-10 -4 -10 -6 0 -6 26 -2 10 -20 -20 -24 -32 -4 -32 -4 5 -5 36 -2 45 -10 30
-26 -5 -4 -8 -13 -8 -19 0 -8 -29 -14 -80 -18 l-80 -5 79 -2 c121 -3 81 -19
-74 -31 l-135 -10 141 5 c161 6 154 10 154 -81 0 -53 0 -54 -32 -59 -18 -3
-67 -11 -108 -17 -41 -7 -87 -11 -102 -10 -36 3 -68 -7 -68 -22 0 -8 3 -8 11
0 6 6 18 9 25 6 7 -3 51 0 96 6 95 12 196 18 463 26 105 4 199 9 210 11 25 6
67 105 66 152 -1 17 3 32 9 32 5 0 10 -4 10 -10 0 -5 4 -10 8 -10 5 0 9 14 10
32 0 17 8 38 16 47 15 14 16 12 16 -17 0 -18 3 -31 8 -29 4 3 13 -1 20 -9 10
-10 10 -14 1 -14 -7 0 -9 -3 -6 -6 4 -4 13 -2 20 4 8 7 17 9 20 5 4 -3 7 4 7
17 0 23 0 23 -14 4 -15 -19 -15 -19 -15 1 0 11 -3 33 -7 49 -5 21 -4 27 5 22
6 -4 11 0 11 10 0 16 -1 16 -18 1 -10 -10 -22 -17 -25 -17 -11 0 -8 28 3 32 5
2 11 18 12 37 2 23 9 36 24 43 17 8 22 19 22 49 l1 39 -42 -1 c-23 -1 -148 -8
-277 -15z m-742 -371 l-3 -97 -37 -2 c-35 -2 -38 0 -39 24 l-2 27 -4 -27 c-7
-42 -23 -33 -23 12 0 38 13 54 23 28 3 -7 6 39 7 102 3 205 17 226 21 30 l3
-175 5 167 c3 91 9 170 14 174 4 4 8 -64 9 -152 l2 -159 3 140 c3 170 17 232
21 98 1 -51 1 -136 0 -190z"/>
<path d="M2740 7619 c-198 -12 -466 -27 -865 -49 -632 -35 -1027 -59 -1030
-62 -7 -8 -9 -627 -2 -635 5 -4 14 -1 21 7 19 24 50 38 112 49 91 16 377 40
494 41 58 0 137 4 175 9 60 7 51 8 -69 7 l-140 -1 -8 39 c-5 22 -5 42 0 45 5
3 9 24 11 46 1 22 4 49 6 60 2 11 4 28 4 38 1 16 12 18 116 16 l115 -1 22 -39
22 -39 95 1 c53 0 118 4 146 7 47 7 51 9 72 54 21 44 25 47 70 54 26 4 77 8
113 8 l65 1 0 -117 0 -118 25 7 c14 3 41 6 62 7 44 1 40 13 -7 22 -46 8 -54
23 -13 22 18 0 69 5 113 12 95 15 262 18 325 7 l45 -8 33 60 c17 33 32 67 32
76 0 8 6 18 13 21 7 2 14 19 15 36 5 67 32 59 33 -10 0 -35 3 -42 9 -27 l9 20
0 -20 c1 -11 5 -25 9 -32 4 -6 8 57 9 140 1 124 5 162 22 205 l19 52 -86 -1
c-48 -1 -143 -5 -212 -10z"/>
<path d="M10526 7555 c36 -83 64 -162 84 -240 47 -180 63 -239 101 -365 22
-74 46 -153 53 -175 8 -22 55 -167 106 -322 50 -156 96 -283 101 -283 10 0 4
-462 -6 -530 -10 -66 -8 -165 5 -230 11 -53 11 -109 2 -305 -7 -132 -12 -319
-12 -416 0 -185 -14 -310 -49 -439 -11 -41 -25 -124 -31 -185 -34 -365 -41
-413 -70 -522 -11 -39 -37 -109 -59 -155 -90 -192 -117 -315 -131 -582 -22
-435 -46 -571 -139 -788 -22 -52 -55 -177 -60 -230 -1 -12 -41 -9 -41 3 0 5 5
7 11 3 7 -4 10 -1 7 7 -3 8 -10 13 -16 12 -18 -4 -23 59 -7 84 9 12 13 23 10
23 -3 0 1 16 10 36 21 50 62 255 70 344 6 76 26 297 44 490 7 75 23 149 56
255 74 243 83 275 104 385 20 104 36 225 66 495 18 155 19 163 45 252 11 33
24 87 29 120 11 59 33 735 37 1120 1 116 5 267 10 335 7 113 9 417 2 423 -2 1
-24 5 -49 8 l-46 6 -11 -112 c-18 -179 -23 -251 -27 -442 -3 -99 -7 -227 -10
-285 -3 -58 -8 -258 -11 -445 -7 -497 -28 -720 -79 -865 -9 -25 -24 -121 -35
-215 -10 -93 -28 -226 -39 -295 -11 -69 -34 -215 -51 -325 -17 -110 -52 -281
-76 -380 -35 -142 -49 -222 -64 -380 -27 -274 -62 -524 -77 -548 -2 -4 -11 -3
-19 4 -7 6 -11 15 -8 20 3 5 1 9 -4 9 -25 0 -16 -17 33 -62 33 -30 52 -55 48
-61 -9 -15 -19 -101 -33 -276 -5 -74 -21 -191 -34 -260 -13 -69 -27 -146 -31
-169 -6 -36 -12 -45 -36 -54 -15 -5 -31 -18 -34 -28 -9 -28 -35 -34 -35 -7 0
17 -2 19 -10 7 -16 -26 -22 -2 -11 52 40 203 72 418 76 513 4 77 22 265 31
306 3 17 -1 33 -12 44 -17 16 -17 25 1 164 25 201 30 240 53 366 40 223 61
353 77 485 19 148 61 420 75 485 5 23 21 130 35 238 14 108 36 238 49 290 49
187 62 330 75 797 15 529 29 907 41 1075 5 83 13 200 16 261 l7 111 -54 6
c-34 4 -56 3 -60 -4 -11 -18 -28 -175 -34 -309 -3 -69 -10 -199 -15 -290 -6
-91 -15 -334 -20 -540 -19 -727 -34 -918 -85 -1115 -24 -94 -50 -238 -86 -490
-11 -82 -30 -206 -40 -275 -11 -69 -35 -247 -54 -396 -19 -149 -39 -293 -44
-320 -5 -27 -15 -85 -21 -129 -20 -136 -41 -249 -51 -279 -7 -24 -6 -33 11
-51 16 -17 18 -27 11 -51 -4 -16 -12 -88 -16 -159 -6 -123 -29 -302 -59 -480
-8 -44 -22 -128 -31 -186 l-18 -105 -30 4 c-20 3 -28 1 -23 -7 4 -6 1 -11 -8
-11 -9 0 -16 5 -16 10 0 6 -7 10 -16 10 -14 0 -16 7 -10 48 4 26 11 85 16 132
9 80 56 399 80 536 5 34 9 88 7 120 -2 33 1 90 5 128 7 53 6 71 -3 77 -10 6
-10 30 4 121 36 241 67 462 97 683 17 127 40 286 51 355 32 208 38 243 44 290
6 48 11 72 49 245 60 269 66 325 91 855 8 173 16 360 19 415 3 55 10 215 16
355 6 140 13 266 15 280 3 14 8 86 10 160 3 74 9 195 13 268 4 74 4 136 0 138
-4 3 -30 8 -57 11 l-49 6 -6 -44 c-14 -105 -25 -283 -25 -399 -1 -69 -5 -152
-11 -185 -5 -33 -10 -96 -10 -140 0 -44 -4 -152 -10 -240 -21 -354 -30 -557
-31 -696 -1 -80 -5 -167 -10 -193 -5 -26 -16 -129 -24 -227 -19 -212 -34 -303
-102 -609 -19 -85 -45 -234 -58 -330 -59 -444 -96 -710 -106 -760 -5 -30 -16
-104 -24 -164 -8 -60 -16 -111 -18 -113 -2 -1 -9 8 -17 21 -10 20 -10 29 4 57
11 22 13 35 5 39 -7 5 -8 23 -2 56 12 63 10 99 -6 118 -7 8 -10 19 -7 25 12
19 17 231 6 231 -8 0 -10 27 -5 88 6 79 50 416 60 452 2 8 17 61 34 116 18 56
38 137 47 180 15 75 19 118 43 428 6 71 17 186 26 255 30 254 35 321 40 571 2
140 7 287 9 325 5 67 14 205 36 505 5 74 15 249 22 388 13 286 16 272 -63 272
l-46 0 -7 -77 c-3 -43 -8 -161 -11 -263 -3 -102 -8 -198 -10 -215 -12 -75 -45
-623 -45 -740 0 -71 -7 -260 -15 -420 -14 -262 -21 -330 -54 -501 -10 -54 -26
-250 -36 -464 -8 -155 -37 -312 -75 -402 -21 -48 -39 -129 -65 -278 -19 -116
-35 -225 -35 -243 0 -18 19 -114 41 -213 27 -116 42 -207 43 -258 l2 -79 40
-12 39 -11 3 -164 c2 -98 -1 -187 -8 -220 -6 -30 -13 -143 -16 -250 -2 -107
-6 -256 -8 -330 -3 -94 -1 -139 7 -149 10 -11 8 -13 -13 -7 -24 7 -24 6 -6 -8
18 -14 46 -21 69 -17 5 1 6 -3 3 -8 -3 -5 1 -11 9 -15 19 -7 21 -112 3 -120
-10 -3 -8 -8 4 -15 13 -9 16 -25 13 -86 -2 -41 -6 -79 -9 -84 -4 -5 -2 -12 3
-16 10 -6 7 -297 -3 -313 -9 -14 -99 -13 -108 1 -4 7 -8 62 -8 124 0 61 -4
114 -8 117 -4 2 -7 -95 -5 -217 1 -122 2 -248 3 -279 0 -35 4 -58 11 -58 7 0
9 44 4 146 l-7 147 38 -8 c22 -4 48 -9 59 -10 11 -1 22 -3 25 -4 3 0 5 -29 5
-64 0 -43 -5 -66 -15 -74 -12 -10 -12 -14 -2 -21 7 -5 15 -32 19 -60 4 -34 10
-52 19 -52 11 0 12 13 8 58 l-6 58 43 9 c42 10 55 33 14 26 -49 -9 -50 -8 -53
52 -3 61 10 92 35 82 8 -2 23 -1 33 5 27 14 30 -3 30 -156 0 -128 1 -134 20
-134 18 0 19 3 10 20 -6 11 -10 46 -8 78 l3 57 49 0 50 0 11 -63 c7 -34 9 -64
7 -67 -3 -3 -22 -5 -43 -5 -21 0 -41 -4 -44 -10 -4 -6 20 -10 65 -10 65 0 71
2 65 18 -17 45 -25 115 -13 129 8 10 14 11 22 3 5 -5 21 -10 34 -10 37 0 60
-17 66 -50 3 -16 9 -44 12 -60 3 -18 12 -30 21 -30 12 0 14 10 8 60 -5 47 -4
60 7 60 10 0 10 2 -2 10 -14 9 -43 130 -33 140 2 2 22 4 43 3 32 -2 40 2 39
15 0 10 -3 12 -6 5 -6 -16 -33 -17 -33 -2 0 6 -9 9 -20 6 -22 -6 -26 3 -36 87
-5 44 -3 60 7 67 11 7 11 10 -3 21 -18 14 -28 113 -14 136 9 14 112 16 121 2
3 -5 8 -39 12 -75 6 -64 6 -65 -19 -65 -14 0 -31 -6 -37 -13 -9 -11 -5 -14 20
-15 18 0 35 -4 39 -9 4 -4 10 -36 13 -70 4 -54 2 -62 -14 -66 -11 -3 -19 -12
-19 -20 0 -10 7 -13 19 -10 21 5 25 -7 36 -99 l7 -58 -33 6 c-32 6 -33 6 -14
-9 11 -8 23 -13 26 -11 10 6 31 -22 28 -38 -4 -34 2 -58 16 -58 11 0 15 12 15
50 l0 49 30 -6 c19 -3 30 -1 30 6 0 6 -15 11 -34 11 l-34 0 -7 67 c-3 38 -10
101 -15 141 -17 124 -17 124 33 122 59 -3 67 -1 67 10 0 6 -19 9 -45 6 -62 -5
-73 7 -81 86 l-7 68 34 1 c19 1 40 1 47 0 6 -1 12 3 12 9 0 11 -10 13 -50 11
-41 -2 -49 11 -56 86 l-7 71 61 1 c36 0 64 -4 70 -12 5 -6 12 -40 15 -75 4
-49 2 -65 -9 -69 -18 -7 -18 -23 0 -23 19 0 25 -22 30 -106 3 -38 7 -76 9 -84
3 -8 8 -39 12 -69 5 -44 3 -55 -12 -67 -16 -12 -16 -13 -2 -14 19 0 27 -25 35
-105 5 -55 2 -60 -33 -56 -24 3 -13 -17 12 -23 15 -4 25 -14 26 -26 1 -11 3
-24 4 -30 1 -5 3 -14 4 -20 0 -5 8 -10 17 -10 14 0 15 7 10 41 l-7 42 53 -6
c29 -4 61 -7 71 -7 13 0 17 -8 17 -35 0 -25 4 -35 16 -35 11 0 15 9 14 32 -1
18 -2 38 -1 43 1 6 28 11 61 11 59 2 60 2 60 -26 0 -36 9 -60 22 -60 7 0 8 20
3 55 -6 49 -5 55 12 55 10 0 29 7 41 16 26 18 25 19 42 -68 l11 -58 95 0 c52
0 94 4 94 9 0 15 89 18 95 4 3 -9 31 -13 90 -13 l86 0 20 48 c15 34 19 60 16
93 -5 37 -2 47 14 57 10 7 19 23 19 36 0 14 5 37 11 53 6 17 7 29 1 31 -7 2
-7 16 0 39 7 26 6 38 -2 43 -8 5 -7 9 4 13 10 4 16 19 16 42 0 19 4 35 8 35
11 0 52 35 52 44 0 4 -11 -1 -25 -10 -32 -21 -41 -14 -17 12 17 17 17 20 3 30
-13 10 -13 15 -2 27 7 9 12 24 11 34 -4 31 0 36 15 23 13 -11 15 -7 15 28 0
31 4 42 19 47 11 3 21 16 23 27 3 20 4 21 20 5 9 -10 19 -13 22 -8 4 5 1 11
-6 13 -19 7 43 108 77 127 17 9 33 20 36 25 4 4 9 2 12 -5 3 -9 6 -10 6 -2 1
6 -3 15 -9 18 -5 3 -10 13 -10 21 0 8 4 12 10 9 6 -3 7 1 4 9 -3 9 -1 16 5 16
6 0 11 9 11 20 0 11 4 20 9 20 5 0 12 11 15 25 4 14 13 25 21 25 22 0 18 43
-5 58 -23 14 -26 32 -6 32 8 0 16 8 17 18 1 9 3 322 6 694 l3 677 -22 7 c-12
3 -43 20 -69 36 l-47 28 -7 71 c-5 51 -10 67 -17 58 -7 -10 -8 -5 -4 17 3 17
-1 43 -10 59 -8 15 -13 33 -12 39 3 13 -42 156 -53 172 -5 6 -15 39 -23 75 -8
35 -24 100 -35 144 -22 90 -22 143 3 435 8 96 18 245 21 330 3 85 8 175 10
200 3 25 7 101 10 170 6 141 20 260 41 339 12 49 12 59 -8 127 -18 61 -26 75
-50 85 -15 6 -25 16 -22 21 3 5 -1 17 -9 26 -9 9 -19 30 -23 45 -3 16 -13 31
-20 34 -8 3 -11 9 -8 14 3 5 -1 9 -10 9 -11 0 -15 -25 -6 -37 3 -3 6 -16 9
-30 1 -5 6 -1 11 7 7 12 10 8 10 -14 0 -26 19 -105 27 -116 2 -2 8 2 13 10 5
8 12 11 17 7 4 -5 2 -12 -5 -16 -9 -5 -11 -34 -7 -104 3 -61 1 -97 -5 -97 -22
0 -25 2 -22 16 2 8 -3 14 -10 14 -7 0 -25 20 -40 43 -29 46 -65 83 -73 76 -7
-7 14 -78 36 -125 10 -22 19 -48 19 -57 0 -9 5 -19 10 -22 6 -3 10 -21 10 -38
l0 -32 -20 25 c-11 14 -20 40 -20 58 0 17 -5 32 -11 32 -7 0 -10 -20 -8 -52 1
-29 -2 -71 -8 -93 -33 -124 -36 -151 -23 -202 7 -27 10 -61 6 -74 -9 -28 -90
-102 -113 -102 -13 0 -15 -11 -11 -68 5 -68 -13 -136 -40 -153 -15 -9 -21 -64
-27 -246 -3 -86 -12 -181 -19 -213 -7 -31 -10 -57 -6 -57 4 0 11 11 14 25 4
14 15 39 25 55 l18 30 -2 -82 c-4 -170 -4 -171 -17 -160 -14 11 -52 0 -63 -17
-13 -22 -21 -10 -18 27 l2 37 -12 -30 c-17 -42 -79 -164 -71 -140 17 50 24
136 29 350 7 278 6 270 49 409 19 61 37 132 41 158 7 53 40 100 87 124 16 8
36 30 43 48 14 32 13 48 -4 126 -9 45 1 95 29 132 19 25 21 38 16 79 -5 33 -2
57 6 72 7 12 14 42 14 67 1 25 4 94 7 153 6 97 -3 233 -19 325 -4 19 -2 32 4
32 6 0 12 -10 14 -22 2 -13 15 -29 31 -36 43 -21 44 -7 2 30 -20 18 -43 46
-51 61 -15 28 -11 52 7 42 5 -4 9 5 9 19 0 29 -14 34 -28 10 -7 -12 -11 -1
-16 42 -8 69 -52 228 -73 264 -8 14 -12 17 -8 6 14 -47 36 -287 30 -341 -3
-33 -1 -76 5 -95 7 -25 7 -48 -2 -82 -8 -35 -9 -57 -1 -82 9 -28 8 -47 -4 -88
-14 -47 -14 -54 2 -83 19 -36 14 -108 -11 -156 -21 -42 -27 -104 -14 -143 10
-32 9 -40 -15 -79 -22 -38 -24 -49 -14 -73 15 -41 2 -128 -25 -162 -12 -15
-33 -45 -47 -67 -94 -145 -102 -167 -115 -285 -3 -36 -20 -130 -37 -210 -27
-133 -30 -169 -37 -430 -9 -322 -9 -326 -100 -535 -84 -197 -81 -164 -105
-950 -3 -104 -8 -210 -11 -235 -5 -41 -7 -43 -18 -22 l-11 22 -14 -22 c-11
-17 -11 -22 1 -30 9 -6 6 -7 -9 -3 -18 5 -22 3 -17 -8 6 -17 -26 -19 -38 -2
-4 6 -5 60 -3 120 3 61 10 224 15 363 11 257 26 378 60 467 103 274 130 420
130 706 0 74 7 180 15 235 8 54 19 155 25 224 15 169 34 247 81 327 21 38 61
115 89 172 45 93 52 115 65 225 9 66 22 141 30 166 7 26 13 93 14 158 0 62 6
132 12 155 8 31 8 55 -2 99 -10 48 -9 64 1 83 10 19 10 30 0 55 -9 21 -10 47
-5 83 4 29 8 63 7 77 -3 556 -7 655 -27 750 -3 16 2 10 14 -15 11 -22 20 -47
20 -56 1 -9 8 -22 16 -29 8 -7 12 -16 9 -21 -3 -5 1 -9 9 -9 7 0 21 -16 31
-36 27 -57 29 -34 2 32 -12 32 -26 68 -31 79 l-7 20 -9 -20 c-7 -15 -8 -13 -4
11 5 24 -2 42 -30 82 -19 28 -35 56 -35 60 0 5 -13 25 -28 44 -29 38 -71 137
-95 228 -25 91 -34 121 -68 210 -17 47 -54 148 -81 225 -28 77 -58 163 -68
190 -80 226 -160 393 -220 464 -33 38 -32 19 1 -29 58 -86 91 -162 184 -420
13 -36 29 -85 36 -110 7 -25 16 -49 21 -54 4 -6 8 -17 8 -26 0 -8 20 -76 45
-150 25 -74 68 -214 95 -310 28 -96 57 -180 65 -186 23 -18 36 -191 30 -419
-6 -215 -7 -405 -4 -855 1 -204 -1 -266 -14 -310 -8 -30 -18 -116 -22 -190
-10 -226 -35 -353 -85 -448 -11 -20 -20 -40 -20 -45 0 -5 -25 -50 -55 -100
-100 -168 -122 -272 -135 -637 -17 -476 -22 -513 -114 -797 -75 -231 -85 -284
-92 -468 -4 -88 -11 -164 -16 -170 -6 -6 -7 1 -3 20 5 23 4 26 -4 15 -7 -10
-11 -11 -11 -2 0 6 -4 12 -10 12 -5 0 -10 -11 -10 -25 0 -18 -4 -23 -15 -19
-8 4 -15 1 -15 -6 0 -6 -7 -19 -16 -28 -15 -15 -16 -4 -9 139 8 171 18 218 94
439 27 80 54 170 59 200 15 84 31 290 42 553 14 317 34 414 119 556 84 142
126 275 142 455 19 223 28 294 52 431 22 122 26 174 29 405 1 146 -2 354 -8
463 -5 109 -7 231 -3 270 4 40 9 186 12 325 4 239 3 252 -14 252 -24 0 -31 14
-73 160 -21 69 -41 134 -46 145 -4 11 -29 88 -55 170 -26 83 -58 182 -70 220
-13 39 -49 149 -80 245 -31 96 -76 216 -100 265 -40 83 -138 245 -149 245 -3
0 6 -25 20 -55z m1103 -3307 c0 -67 -8 -110 -19 -103 -4 3 -8 -5 -9 -18 -4
-59 -3 -94 4 -119 6 -23 1 -33 -34 -66 -46 -44 -51 -70 -25 -138 16 -42 16
-43 -10 -77 -31 -40 -126 -137 -126 -128 1 15 33 97 43 110 7 8 13 60 16 123
3 104 4 110 27 120 13 6 25 15 25 20 1 4 2 14 3 21 1 6 -2 27 -7 45 -11 44 6
93 42 120 21 15 32 36 41 74 21 87 30 92 29 16z m-79 -666 c1 -31 3 -34 13
-21 7 9 17 14 24 12 6 -2 14 4 17 14 3 10 4 1 3 -19 -2 -21 1 -38 6 -38 5 0 6
-35 3 -77 -6 -73 -8 -98 -20 -213 -3 -25 -12 -144 -21 -265 -8 -121 -22 -267
-31 -325 -8 -58 -16 -143 -18 -190 -4 -95 -25 -186 -37 -154 -4 13 -10 1 -18
-41 -21 -100 -81 -294 -117 -374 -18 -42 -34 -70 -34 -63 0 7 -5 10 -11 6 -6
-3 -9 -17 -7 -29 3 -14 1 -22 -6 -19 -20 6 -49 -24 -43 -45 3 -12 -1 -22 -9
-25 -8 -3 -14 -12 -14 -21 0 -8 -5 -15 -11 -15 -6 0 -8 9 -4 20 29 90 132 467
145 530 5 25 16 72 25 105 9 33 32 119 51 190 19 72 41 154 49 183 23 85 35
267 35 537 0 138 3 280 6 317 7 70 24 84 24 20z m-157 -618 l2 -299 -69 -172
c-38 -95 -72 -171 -74 -169 -2 3 1 20 7 38 6 18 13 130 16 248 8 310 15 426
27 409 6 -10 7 -5 3 16 -4 23 0 36 15 53 12 12 18 27 14 34 -5 7 0 9 13 6 18
-5 20 -1 18 34 -1 21 1 40 4 42 4 3 6 21 5 41 -1 24 1 34 8 27 5 -5 10 -134
11 -308z m-239 -1 c-3 -32 -9 -67 -14 -78 -5 -11 -11 -27 -13 -35 -4 -9 -6 -7
-6 7 -2 45 -18 30 -17 -16 1 -27 -2 -47 -5 -45 -4 2 -12 -10 -19 -27 -10 -23
-10 -33 -1 -42 6 -6 11 -28 11 -49 0 -43 19 -53 21 -10 l1 27 8 -25 c9 -27 12
-21 12 23 1 15 4 27 9 27 4 0 10 19 12 43 2 23 2 -111 0 -298 -5 -373 -9 -406
-66 -529 -18 -39 -37 -81 -43 -94 -14 -33 -17 216 -5 448 6 107 11 260 12 338
1 79 6 165 11 190 7 42 82 202 94 202 2 0 2 -26 -2 -57z m604 -25 c6 -13 12
-62 14 -109 4 -77 8 -91 40 -143 l35 -58 -13 -71 c-6 -40 -17 -155 -24 -257
-6 -102 -18 -228 -26 -280 -8 -52 -14 -98 -14 -102 0 -5 -6 -8 -14 -8 -8 0
-16 -8 -18 -17 -3 -14 -8 -10 -22 15 -22 42 -56 82 -71 82 -6 0 -27 -21 -47
-47 -37 -49 -108 -120 -108 -108 0 10 33 59 55 81 37 38 63 72 59 78 -2 3 -1
4 3 1 3 -3 17 11 30 30 13 19 28 35 32 35 14 0 23 70 11 84 -5 8 -7 21 -4 31
5 11 9 13 14 5 4 -7 10 2 14 21 5 25 1 40 -12 59 -20 27 -20 28 9 250 6 47 12
105 14 130 1 25 6 107 10 183 5 75 11 137 15 137 4 0 12 -10 18 -22z m-18
-1087 c5 -11 10 -33 10 -50 0 -23 -5 -30 -22 -33 -16 -2 -26 -15 -37 -48 -9
-25 -25 -59 -37 -75 -11 -17 -32 -50 -47 -75 -34 -56 -154 -187 -163 -177 -4
4 3 16 16 27 13 11 19 20 15 20 -4 0 0 9 10 20 17 19 17 20 -1 20 -15 0 -13 4
11 20 25 17 27 20 10 20 -11 0 -26 10 -34 22 -12 20 -10 25 31 64 47 44 124
138 177 217 35 52 45 56 61 28z m-1180 -247 c0 -7 -5 -14 -11 -16 -7 -2 -11
-50 -10 -147 2 -123 -2 -164 -29 -299 -18 -86 -36 -161 -41 -166 -5 -6 -17 -5
-31 1 -42 20 -60 23 -74 12 -16 -13 -13 15 24 191 22 108 32 207 46 466 4 80
12 83 72 23 30 -29 54 -59 54 -65z m216 -164 c7 0 15 -7 18 -16 5 -12 1 -14
-15 -9 -17 6 -20 3 -17 -22 3 -27 1 -28 -34 -25 -31 2 -38 0 -37 -15 0 -11 3
-13 6 -5 4 10 8 10 19 1 12 -10 12 -14 2 -20 -10 -7 -10 -11 0 -21 6 -6 12
-35 13 -63 l1 -50 9 39 c13 54 19 57 19 9 0 -26 -7 -48 -20 -63 -11 -13 -20
-18 -20 -12 0 7 -7 12 -16 12 -11 0 -14 -6 -9 -20 11 -34 -4 -73 -46 -120
l-40 -45 6 65 c3 36 15 90 25 120 24 67 40 193 30 235 -4 16 -9 35 -10 40 -1
6 -2 22 -1 37 l1 28 53 -40 c28 -22 57 -40 63 -40z m844 -6 c17 -90 9 -192
-19 -238 -13 -20 -26 -36 -29 -36 -10 0 -9 312 1 328 19 29 35 10 47 -54z
m-136 -200 c-1 -145 -12 -175 -86 -229 -89 -66 -90 -65 -43 60 32 85 48 162
41 191 -5 20 -10 23 -26 14 -10 -5 -33 -10 -50 -10 -25 0 -31 3 -26 16 3 9 6
20 6 24 0 23 42 32 87 19 39 -10 46 -10 61 5 30 30 37 12 36 -90z m-242 21
c20 5 28 3 28 -7 0 -33 -39 -148 -58 -173 -12 -15 -22 -32 -22 -37 0 -16 -43
-68 -57 -68 -7 0 -31 16 -53 36 l-40 36 30 37 c37 47 73 138 66 166 -8 32 2
36 42 19 21 -8 48 -12 64 -9z m-247 -291 c14 -15 29 -43 35 -62 11 -42 2 -52
-47 -52 -17 0 -38 -2 -46 -5 -10 -4 -21 13 -39 62 l-25 68 41 6 c23 3 45 7 49
7 4 1 19 -10 32 -24z m-1024 1 c15 10 49 -58 49 -97 0 -36 -2 -38 -30 -38 -20
0 -30 -5 -30 -15 0 -10 10 -15 33 -15 l33 0 -7 -52 c-15 -106 -15 -108 35
-108 42 0 44 -1 50 -37 11 -70 8 -84 -16 -82 -56 5 -78 -1 -78 -20 0 -17 6
-20 45 -17 25 1 49 0 54 -3 5 -3 12 -33 16 -65 8 -58 7 -59 -15 -53 -12 3 -34
1 -49 -5 -14 -6 -28 -12 -31 -12 -3 -1 -17 -10 -32 -20 -15 -9 -37 -16 -50
-14 -23 3 -23 4 -23 157 l0 155 48 -1 c41 -1 46 1 36 13 -7 9 -26 13 -48 12
l-36 -3 -1 130 c-1 110 2 134 17 153 10 13 17 29 15 35 -1 7 -1 9 1 4 3 -4 9
-5 14 -2z m899 -61 c26 -71 25 -88 -5 -104 -20 -11 -27 -11 -40 0 -27 23 0
-34 50 -105 48 -66 54 -85 30 -85 -8 0 -15 -6 -16 -12 0 -9 -2 -9 -6 1 -4 9
-8 10 -12 2 -9 -13 -78 6 -85 24 -2 7 -8 33 -11 59 -7 47 -7 47 19 40 19 -4
26 -2 26 8 0 19 -20 37 -34 32 -18 -7 -36 40 -36 91 0 35 6 52 30 79 41 47 64
39 90 -30z m-662 35 c12 -5 22 -16 22 -26 0 -10 3 -34 6 -55 l6 -36 -63 5
c-35 3 -65 7 -67 8 -6 5 -20 110 -15 118 5 8 75 -1 111 -14z m162 -23 c20 -9
26 -20 28 -54 l3 -42 -50 0 c-40 0 -51 -3 -51 -16 0 -13 7 -15 38 -9 55 9 71
-8 78 -83 5 -45 4 -66 -5 -71 -12 -8 -109 3 -119 13 -2 3 -6 41 -7 85 -2 44
-6 85 -10 91 -4 6 -9 33 -12 61 l-5 51 43 -7 c24 -4 55 -12 69 -19z m109 9 c9
-2 23 -4 31 -4 27 -2 41 -18 50 -56 13 -57 7 -63 -60 -61 -65 1 -62 -2 -76 90
-6 47 -6 48 16 41 12 -4 30 -9 39 -10z m676 -126 c44 -69 51 -89 34 -100 -8
-5 -20 -7 -27 -4 -8 3 -12 0 -9 -7 2 -8 18 -12 36 -11 28 1 35 -4 46 -30 7
-18 15 -48 19 -68 6 -35 5 -37 -26 -42 -47 -7 -64 6 -72 54 -4 23 -16 68 -27
101 -11 32 -22 79 -26 103 -5 37 -3 45 11 45 8 0 27 -18 41 -41z m-88 0 c7
-14 15 -43 19 -66 l6 -41 -57 -4 c-31 -1 -61 -1 -65 2 -9 6 -30 77 -30 102 0
10 13 19 38 26 53 14 75 9 89 -19z m-910 12 c9 9 13 8 13 0 0 -7 4 -10 9 -7 5
3 23 1 40 -5 25 -9 31 -17 31 -39 0 -15 3 -48 6 -74 5 -35 4 -46 -6 -44 -22 5
-22 -20 -1 -27 19 -6 21 -15 21 -75 l0 -69 -32 11 c-18 6 -45 12 -60 15 -29 6
-33 13 -43 86 -6 43 -4 47 14 47 12 0 21 7 21 15 0 18 -20 20 -20 3 -1 -33
-23 30 -31 88 -10 69 -5 94 14 75 7 -7 14 -7 24 0z m770 -78 c47 -136 72 -221
78 -260 4 -24 11 -45 16 -49 16 -9 10 -96 -8 -116 -17 -20 -5 -26 15 -6 13 13
16 8 30 -72 9 -51 9 -56 -15 -77 -51 -48 -57 -33 -69 182 -4 66 -10 125 -14
130 -4 6 -8 43 -9 84 -2 79 -18 123 -66 179 -27 32 -25 62 5 62 12 0 23 -17
37 -57z m-205 31 c18 -5 23 -22 34 -103 l7 -53 -54 7 c-82 10 -86 12 -93 53
-8 50 -8 97 1 106 7 6 65 1 105 -10z m382 -112 c3 -5 9 -34 14 -65 l9 -55 -51
-4 c-28 -3 -54 -2 -58 1 -11 10 -32 97 -26 112 6 16 103 25 112 11z m-405 -56
c24 -2 50 -11 57 -18 8 -7 17 -42 20 -76 8 -68 10 -65 -61 -62 -69 3 -75 11
-75 96 0 41 4 73 8 70 4 -2 27 -7 51 -10z m233 -45 c3 -66 7 -125 14 -196 l6
-70 -29 -10 c-15 -5 -42 -9 -60 -7 -36 4 -39 11 -47 132 -3 36 -8 86 -12 112
-10 68 -5 73 65 74 l61 1 2 -36z m204 -59 c6 -4 15 -32 19 -62 4 -30 8 -57 9
-59 0 -2 -15 -5 -34 -7 -19 -2 -45 -6 -56 -9 -18 -4 -23 1 -27 28 -3 17 -9 44
-12 59 -12 45 -1 58 47 58 24 0 48 -4 54 -8z m-914 -27 c52 -10 62 -27 66
-109 1 -39 7 -100 12 -135 6 -35 9 -65 8 -66 -4 -4 -116 20 -122 25 -2 3 -7
38 -9 78 -3 40 -8 76 -11 79 -3 4 -6 36 -6 73 0 64 7 91 19 71 3 -5 23 -12 43
-16z m560 -69 c7 -10 11 -47 12 -121 1 -16 4 -34 8 -40 3 -5 8 -39 10 -75 l3
-65 -60 3 c-32 1 -62 6 -66 10 -4 4 -10 38 -14 76 l-8 68 52 -3 c34 -3 52 0
56 9 3 8 -8 13 -33 14 -20 1 -46 2 -57 2 -23 2 -33 30 -34 102 l-1 51 63 -10
c34 -5 65 -14 69 -21z m398 -86 c14 -54 20 -111 11 -106 -5 4 -12 2 -16 -3 -3
-6 -11 -8 -18 -6 -18 7 -41 -11 -32 -25 5 -8 20 -10 44 -6 l37 6 16 -63 c18
-68 13 -81 -29 -85 -15 -2 -37 -4 -47 -5 -15 -2 -22 9 -33 48 -7 28 -10 63 -7
79 4 17 1 31 -6 36 -25 15 -42 157 -17 147 6 -2 21 -1 32 4 34 14 58 6 65 -21z
m-222 -126 c2 -61 1 -70 -15 -72 -10 -1 -35 -4 -55 -8 -33 -5 -38 -4 -43 18
-4 13 -5 46 -3 72 3 48 3 48 42 52 21 2 41 6 44 9 17 16 27 -9 30 -71z m402
-14 c6 -8 10 -36 10 -62 0 -38 -4 -50 -21 -58 -11 -7 -26 -9 -34 -7 -7 3 -17
1 -23 -5 -13 -13 -12 -13 -36 69 -11 39 -12 54 -3 61 27 22 94 23 107 2z"/>
<path d="M7928 7360 c4 -113 22 -129 22 -20 0 59 11 92 25 78 2 -2 5 -45 6
-96 3 -89 8 -103 35 -84 5 4 11 48 13 97 1 50 4 98 7 108 5 15 -2 17 -53 17
l-58 0 3 -100z"/>
<path d="M8652 6393 c-8 -38 -18 -117 -22 -178 -10 -115 -22 -184 -39 -226 -6
-13 -20 -71 -31 -129 -12 -58 -27 -134 -35 -170 -8 -36 -15 -94 -15 -130 0
-82 -22 -219 -59 -369 -46 -183 -54 -261 -42 -371 6 -52 18 -208 26 -347 8
-138 20 -273 27 -300 9 -35 12 -204 12 -613 1 -311 4 -578 9 -595 6 -23 5 -25
-2 -10 -6 11 -15 40 -21 64 -6 23 -14 40 -17 37 -9 -9 -4 -337 5 -350 5 -6 5
-56 0 -111 -13 -152 -9 -205 20 -285 8 -23 2 -53 -15 -72 -9 -10 -11 -18 -5
-18 6 0 12 5 14 10 2 6 2 -21 1 -60 -1 -39 4 -93 12 -122 13 -52 11 -83 -6
-72 -5 3 -9 -6 -9 -19 0 -18 15 -34 70 -69 42 -28 70 -40 70 -32 0 7 -4 16
-10 19 -5 3 -10 32 -10 63 0 31 -9 97 -20 146 -11 50 -20 103 -20 120 0 16
-12 50 -27 75 -26 43 -28 53 -28 166 1 66 4 133 8 149 l8 29 29 -28 29 -27 -1
-162 c0 -183 8 -233 54 -308 32 -51 33 -57 35 -171 2 -115 3 -118 30 -141 15
-13 39 -29 52 -36 l24 -12 -8 97 c-5 70 -4 96 4 91 6 -4 11 -12 11 -17 0 -5
16 -32 35 -60 30 -44 35 -59 35 -109 l0 -58 50 -36 c28 -20 52 -36 55 -36 9 0
-34 97 -64 147 -17 27 -37 65 -45 84 -18 43 -66 371 -66 450 0 65 6 69 54 44
15 -8 38 -15 49 -15 20 0 20 0 1 15 -10 8 -27 15 -36 15 -13 0 -18 12 -22 53
-7 67 -24 665 -31 1107 -6 362 -19 606 -36 703 -5 32 -24 102 -40 155 -37 117
-36 185 5 412 14 80 37 227 51 326 13 100 32 212 40 250 8 38 22 107 30 154 9
47 27 132 40 190 13 58 33 197 44 310 12 113 26 241 32 285 16 115 14 119 -48
123 l-53 3 6 -43 c3 -27 0 -59 -10 -87 -9 -24 -16 -75 -16 -113 0 -92 -24
-252 -62 -413 -16 -71 -34 -152 -39 -180 -5 -27 -16 -84 -24 -126 -8 -42 -19
-127 -24 -190 -6 -63 -28 -204 -50 -314 -58 -292 -59 -302 -22 -413 29 -86 32
-109 46 -350 8 -141 19 -333 25 -427 16 -266 23 -1365 9 -1365 -30 0 9 -313
56 -445 12 -32 -41 34 -65 81 -11 22 -20 56 -20 75 0 19 -5 50 -11 69 -17 52
-18 290 -1 290 9 0 10 5 3 19 -16 29 -37 100 -52 171 -10 50 -14 197 -15 620
-1 305 -6 627 -12 715 -6 88 -16 252 -22 365 -8 144 -17 229 -32 285 -33 128
-29 194 33 460 27 119 41 205 54 345 8 85 21 180 29 210 8 30 24 98 36 150 11
52 29 131 40 175 10 44 21 130 24 190 3 61 12 135 21 165 21 79 20 99 -11 110
-58 23 -68 16 -82 -57z"/>
<path d="M9047 6338 c-3 -40 -12 -140 -21 -223 -9 -82 -21 -197 -27 -255 -6
-58 -15 -121 -19 -140 -9 -33 -70 -342 -90 -455 -5 -27 -18 -99 -29 -160 -10
-60 -22 -146 -26 -190 -3 -44 -19 -165 -35 -270 -50 -335 -50 -348 16 -543 53
-157 62 -255 69 -789 5 -430 12 -621 31 -864 7 -88 0 -144 -15 -135 -5 3 -14
-1 -21 -9 -17 -20 -7 -129 31 -360 63 -380 65 -385 234 -501 66 -46 123 -83
126 -83 8 -1 8 2 15 181 5 106 3 166 -4 185 -7 15 -16 66 -22 113 -11 86 -39
339 -40 353 0 4 9 7 21 7 11 0 18 4 14 9 -14 24 -33 364 -34 636 -3 393 -9
432 -94 615 -66 141 -80 252 -57 450 25 214 32 275 45 418 9 85 13 158 9 163
-3 5 1 58 10 117 8 59 20 145 26 192 6 47 15 105 20 130 28 133 50 275 54 355
2 50 14 148 25 219 12 71 21 147 21 170 0 23 7 84 14 136 13 85 30 338 29 430
0 19 -4 59 -8 88 -8 51 -9 52 -40 52 l-33 0 1 -52 c1 -29 -4 -107 -10 -173 -7
-66 -14 -169 -17 -230 -5 -109 -38 -336 -75 -510 -11 -49 -24 -133 -30 -185
-6 -52 -20 -144 -31 -205 -20 -111 -40 -266 -59 -470 -6 -60 -20 -184 -31
-275 -28 -216 -35 -372 -21 -440 6 -29 30 -99 52 -154 82 -201 81 -192 85
-651 2 -225 9 -474 14 -552 15 -212 14 -257 -6 -249 -15 6 -16 -3 -10 -91 7
-108 24 -202 67 -370 29 -114 52 -350 28 -290 -6 15 -14 27 -18 27 -4 0 -8 6
-9 13 0 6 -7 30 -15 51 l-15 39 -16 -29 c-10 -16 -15 -21 -12 -12 3 9 0 19 -7
22 -9 5 -9 7 1 12 17 8 15 25 -2 18 -9 -3 -15 4 -19 23 -3 15 -17 91 -31 168
-14 77 -32 174 -40 215 -24 120 -40 230 -34 235 3 3 17 1 32 -4 14 -6 26 -9
26 -8 0 1 -9 72 -21 157 -18 135 -21 223 -25 685 -3 320 -9 552 -15 585 -6 30
-34 122 -61 204 -68 203 -69 228 -25 577 20 156 41 336 47 399 6 63 31 219 55
345 61 310 64 327 80 430 8 50 20 117 26 150 6 33 15 146 21 250 5 105 12 229
15 276 l5 86 -32 7 c-58 11 -58 11 -63 -66z"/>
<path d="M9805 6305 c-3 -9 -12 -90 -35 -310 -5 -44 -9 -143 -9 -220 -1 -77
-6 -169 -12 -205 -12 -76 -23 -261 -43 -760 -19 -458 -22 -489 -56 -635 -16
-66 -34 -183 -41 -260 -17 -191 -18 -812 -1 -885 7 -30 18 -85 25 -121 l12
-66 1 121 c2 97 6 133 24 181 22 61 39 243 54 600 10 227 16 283 48 430 18 87
31 182 34 250 2 61 9 238 14 395 13 342 36 751 50 875 15 126 39 599 31 606
-11 12 -93 15 -96 4z"/>
<path d="M1470 5840 c-31 -7 -32 -7 -7 -9 29 -1 38 -21 10 -21 -10 0 -29 -3
-42 -7 -21 -5 -23 -3 -17 12 6 16 2 17 -39 12 -26 -2 -56 -13 -68 -25 -12 -11
-28 -17 -35 -15 -7 3 -10 -1 -6 -10 6 -15 -39 -27 -108 -27 -27 0 -38 -4 -38
-15 0 -8 -4 -15 -9 -15 -5 0 -8 -11 -7 -25 1 -28 40 -49 78 -42 22 4 21 5 -10
18 -39 16 -37 35 4 32 113 -5 184 -17 184 -29 0 -8 7 -14 15 -14 8 0 15 4 15
9 0 5 3 16 6 24 5 13 -7 15 -72 14 -53 -1 -79 2 -81 10 -3 7 7 15 21 19 14 3
26 9 26 13 0 12 68 29 135 36 33 3 62 10 63 15 2 6 27 10 55 11 29 0 61 5 72
10 14 6 4 8 -38 6 -55 -2 -76 7 -39 16 29 8 -30 5 -68 -3z"/>
<path d="M4100 183 c0 -15 -2 -16 -10 -3 -5 8 -10 10 -10 4 0 -15 -78 -23 -84
-9 -2 5 -5 2 -5 -7 -1 -10 -9 -18 -18 -18 -9 0 -25 -7 -35 -17 -13 -12 -18
-13 -18 -3 0 10 -4 9 -17 -2 -10 -9 -27 -18 -38 -20 -11 -2 -19 -10 -17 -16 1
-7 -2 -12 -7 -12 -13 0 -71 -56 -71 -69 0 -15 306 -15 316 0 4 8 9 8 17 0 17
-17 27 -13 27 9 0 12 7 20 18 20 10 0 13 3 6 8 -18 12 -25 42 -14 62 8 15 6
21 -9 29 -12 7 -17 18 -14 30 3 10 0 22 -6 25 -6 4 -11 0 -11 -11z"/>
</g>
</svg>
