<?xml version="1.0" standalone="no"?>
<!DOCTYPE svg PUBLIC "-//W3C//DTD SVG 20010904//EN"
 "http://www.w3.org/TR/2001/REC-SVG-20010904/DTD/svg10.dtd">
<svg version="1.0" xmlns="http://www.w3.org/2000/svg"
 width="1536.000000pt" height="2048.000000pt" viewBox="0 0 1536.000000 2048.000000"
 preserveAspectRatio="xMidYMid meet">
<metadata>
Created by potrace 1.16, written by Peter Selinger 2001-2019
</metadata>
<g transform="translate(0.000000,2048.000000) scale(0.100000,-0.100000)"
fill="#000000" stroke="none">
<path d="M0 20112 c0 -273 3 -371 12 -380 9 -9 9 -12 0 -12 -9 0 -12 -789 -12
-3490 0 -2708 3 -3490 12 -3490 9 0 9 -3 0 -12 -8 -8 -12 -59 -12 -165 0 -146
1 -153 20 -153 11 0 20 -5 20 -11 0 -6 -9 -9 -20 -6 -20 5 -20 0 -20 -2372 l0
-2378 23 -11 22 -11 -22 0 -23 -1 0 -554 c0 -434 3 -555 13 -559 10 -4 10 -6
0 -6 -18 -1 -19 -801 -1 -801 9 0 9 -3 0 -12 -9 -9 -12 -656 -12 -2850 l0
-2838 1599 0 c1270 0 1601 3 1605 13 5 9 7 9 12 0 4 -10 208 -13 970 -13 641
0 963 3 959 10 -3 6 -1 10 4 10 6 0 11 -4 11 -10 0 -7 1707 -10 5100 -10
l5100 0 0 6388 c0 5549 -2 6405 -15 6527 -8 77 -26 248 -39 380 -38 362 -99
933 -171 1595 -89 826 -102 953 -125 1300 -12 168 -25 341 -30 385 -6 50 -6
83 0 89 5 5 87 13 182 17 95 4 179 8 185 8 10 1 13 391 13 1896 l0 1895 -2519
0 c-2005 0 -2520 -3 -2524 -13 -4 -9 -6 -9 -6 0 -1 10 -1042 13 -5156 13
l-5155 0 0 -368z m12392 -1792 c12 -11 30 -20 39 -20 30 0 31 -19 4 -46 -25
-25 -26 -27 -11 -59 22 -45 20 -55 -4 -25 l-21 25 7 -30 c10 -44 14 -48 46
-41 25 5 29 3 24 -10 -3 -9 -6 -24 -6 -35 0 -10 -6 -19 -14 -19 -7 0 -17 -10
-21 -22 -4 -15 -8 -18 -12 -10 -3 7 1 21 9 30 29 33 29 39 0 34 -15 -3 -36
-11 -47 -18 -43 -30 -62 -14 -57 49 1 9 -3 17 -8 17 -6 0 -10 -9 -10 -21 0
-11 -4 -17 -10 -14 -5 3 -10 17 -10 30 0 16 -7 25 -25 29 -14 4 -25 11 -25 17
0 6 4 8 9 5 7 -5 21 33 25 69 1 5 22 21 47 35 26 14 44 31 42 38 -7 18 5 15
29 -8z m-127 -262 c9 -30 16 -92 10 -86 -14 14 -43 -11 -38 -32 4 -15 0 -20
-13 -21 -11 0 -32 -2 -49 -5 -48 -7 -72 4 -89 38 -19 36 -20 41 -6 33 6 -3 10
-1 10 5 0 8 11 9 31 5 30 -7 31 -6 24 24 -4 20 -3 31 5 31 6 0 8 5 5 10 -4 6
15 10 50 10 36 0 57 -4 60 -12z m-1040 -2112 c721 -5 1062 -10 1088 -18 27 -8
37 -17 37 -32 0 -18 14 -262 45 -796 12 -217 35 -735 45 -1015 6 -165 15 -408
20 -540 20 -496 60 -1699 75 -2215 8 -294 17 -605 20 -690 3 -85 10 -299 15
-475 5 -176 12 -392 15 -480 3 -88 10 -308 15 -490 6 -181 14 -469 20 -640 35
-1132 53 -1853 65 -2735 7 -566 14 -896 25 -1215 5 -154 12 -354 15 -445 3
-91 8 -199 10 -240 3 -41 12 -226 20 -410 8 -184 19 -411 25 -505 5 -93 11
-229 14 -301 2 -72 9 -141 15 -152 9 -18 8 -23 -8 -31 -23 -13 -818 -27 -1871
-36 -1150 -8 -1955 -17 -1959 -21 -2 -2 2 -10 9 -19 7 -9 10 -18 7 -22 -4 -3
-12 6 -18 21 -10 22 -19 26 -53 26 -37 0 -653 -10 -1506 -25 -184 -3 -614 -10
-955 -15 -341 -5 -728 -12 -860 -15 -132 -3 -355 -7 -495 -10 -270 -6 -1082
-25 -2080 -50 -333 -8 -674 -15 -759 -15 -132 0 -152 -2 -147 -15 3 -9 0 -15
-9 -15 -8 0 -15 5 -15 12 0 8 -74 10 -294 5 -322 -7 -304 -10 -325 56 -7 20
-17 37 -22 37 -6 0 -7 -4 -4 -10 3 -5 2 -10 -3 -10 -6 0 -8 17 -6 37 2 21 6
142 9 268 2 127 9 430 15 675 13 531 14 1108 9 4710 -2 1510 -7 2750 -12 2757
-4 6 -3 13 2 15 6 2 12 179 16 428 3 234 10 652 15 930 4 278 8 512 8 520 -1
22 14 859 17 975 2 78 -1 104 -13 118 -14 15 -13 17 1 17 15 0 17 16 19 128 1
70 2 154 3 187 2 33 5 168 9 300 4 132 9 249 11 260 2 11 7 92 10 180 3 88 10
200 15 250 5 49 8 97 8 105 0 8 3 51 6 95 4 44 11 159 16 255 12 216 16 239
44 244 20 5 526 20 996 31 745 17 1060 25 1175 30 72 2 411 7 755 11 344 3
648 7 675 9 28 2 833 7 1790 11 957 4 1741 7 1742 8 4 3 1508 -2 2448 -8z"/>
<path d="M8929 15206 c-2 -2 -537 -6 -1189 -10 -1468 -8 -1851 -12 -3190 -31
-346 -5 -1125 -24 -1825 -44 -159 -5 -309 -7 -332 -6 l-41 3 -6 -72 c-3 -39
-8 -147 -11 -241 -3 -93 -8 -231 -10 -305 -3 -74 -10 -301 -15 -505 -5 -203
-12 -440 -15 -525 -2 -85 -7 -276 -10 -425 -3 -148 -8 -342 -10 -430 -13 -453
-16 -1029 -6 -1020 7 7 12 160 16 460 3 248 8 465 11 483 4 24 10 32 22 30 12
-2 18 -15 20 -46 4 -52 22 -56 22 -4 0 20 3 53 6 73 6 35 5 37 -25 44 -42 9
-50 28 -46 110 2 39 7 183 10 320 3 138 10 254 14 258 5 5 18 4 30 -2 21 -12
21 -17 20 -268 -1 -241 -2 -256 -20 -260 -11 -3 -19 -12 -19 -20 0 -17 39 -52
57 -53 17 0 26 60 15 91 -12 32 2 63 17 39 6 -8 13 -12 16 -8 4 3 -4 15 -16
27 -21 20 -22 22 -7 38 9 9 31 16 47 15 17 0 31 4 31 9 0 12 -46 59 -58 59
-27 0 -65 156 -45 182 10 13 23 82 28 148 1 19 7 36 14 38 6 2 11 12 11 23 0
27 46 26 53 -1 4 -17 -2 -24 -23 -22 -3 0 -6 -16 -7 -36 -2 -32 3 -41 33 -61
19 -13 37 -35 41 -50 3 -14 13 -32 20 -40 12 -11 18 -10 38 9 13 12 30 20 37
17 20 -7 16 57 -6 78 -29 30 -48 64 -41 75 3 5 32 10 64 10 49 0 59 -3 63 -18
4 -14 19 -21 54 -26 26 -3 52 -2 56 2 12 12 55 3 69 -14 6 -8 19 -14 29 -14
44 0 22 -74 -26 -86 -13 -3 -24 -10 -24 -15 0 -5 6 -6 13 -4 6 3 18 1 26 -4
12 -8 12 -12 2 -25 -10 -12 -9 -17 8 -26 24 -12 29 -32 6 -24 -10 4 -15 0 -16
-12 0 -11 -2 -26 -4 -35 -2 -9 8 -20 26 -26 25 -10 31 -8 44 10 8 12 15 32 15
45 0 26 28 82 47 95 7 4 18 13 25 20 7 7 23 12 36 11 28 -2 51 34 31 47 -8 5
-18 10 -24 12 -6 2 -5 9 2 18 7 8 10 25 6 37 -4 16 -1 22 11 22 9 0 16 5 16
10 0 6 -11 10 -24 10 -14 0 -27 4 -30 9 -7 11 30 44 43 37 5 -4 9 9 9 31 -1
21 2 45 6 55 4 9 6 31 4 49 -2 27 -10 37 -43 53 -22 12 -41 29 -43 39 -4 21
23 23 32 2 3 -8 10 -15 15 -15 7 0 7 8 2 23 -6 15 -16 21 -30 20 -19 -3 -20 0
-10 18 9 18 17 20 52 15 47 -8 74 -26 38 -26 l-22 0 22 -32 c20 -27 23 -44 23
-117 -1 -92 -8 -202 -20 -316 -4 -38 -7 -96 -6 -128 2 -47 -1 -59 -15 -64 -10
-4 -22 -13 -28 -20 -8 -10 -67 -14 -247 -17 -181 -4 -243 -8 -265 -19 l-27
-15 38 -16 c29 -12 43 -13 58 -5 26 14 47 -3 29 -25 -10 -12 -9 -16 5 -24 10
-5 25 -6 33 -2 9 5 38 15 66 23 43 12 51 12 64 0 24 -24 59 -33 87 -23 22 9
31 6 56 -15 16 -14 36 -25 44 -25 29 0 104 -51 104 -70 0 -11 4 -21 8 -24 5
-3 8 -31 6 -63 -9 -178 -21 -357 -28 -398 -3 -18 -10 -19 -92 -17 -166 4 -324
3 -333 -2 -5 -3 -59 -6 -121 -7 -126 -1 -141 -4 -133 -25 5 -13 42 -14 267
-10 143 3 285 2 315 -2 l54 -7 12 -50 c8 -28 9 -52 4 -55 -12 -8 -20 -170 -9
-170 5 0 7 -6 4 -14 -3 -8 -1 -17 5 -21 6 -3 11 -16 11 -28 0 -20 0 -20 -14
-1 -14 18 -15 18 -14 -6 2 -33 38 -75 50 -58 4 7 8 23 8 34 0 13 8 24 20 27
12 3 20 0 20 -8 0 -7 7 -16 16 -19 13 -5 14 -9 4 -21 -10 -12 -9 -15 5 -15 26
0 75 56 75 85 0 14 5 25 11 25 5 0 7 4 4 10 -3 5 -27 8 -53 6 -46 -3 -112 15
-112 31 0 5 10 14 21 22 17 10 23 10 29 1 4 -7 13 -9 19 -6 16 10 4 26 -20 26
-25 0 -36 27 -20 51 8 14 8 19 0 19 -8 0 -8 5 1 15 7 8 21 15 31 15 11 0 19 5
19 11 0 6 -6 9 -14 6 -21 -8 -52 29 -38 45 6 8 13 56 17 108 3 52 8 120 10
150 3 30 6 92 8 138 4 92 13 111 46 90 26 -16 27 -27 4 -44 -10 -7 -14 -16
-10 -20 14 -15 42 12 48 47 4 19 7 30 8 24 1 -5 6 -2 12 8 16 27 92 24 113 -5
15 -23 16 -23 32 -3 11 14 18 16 21 8 7 -18 40 -16 47 3 8 21 8 26 -3 20 -5
-3 -14 1 -21 9 -9 11 -16 12 -31 2 -17 -10 -22 -9 -30 6 -11 19 -49 24 -49 6
0 -6 -9 -9 -20 -6 -10 3 -27 -1 -37 -9 -19 -14 -88 -9 -109 8 -12 9 -29 85
-24 103 2 6 4 37 5 70 1 33 5 68 10 78 4 10 5 36 2 57 -3 23 -1 40 5 40 5 0 7
4 4 8 -7 12 16 95 31 110 8 8 13 9 13 3 0 -6 5 -10 11 -8 6 1 14 -4 17 -12 3
-10 0 -12 -12 -8 -27 11 -19 -28 9 -41 40 -19 83 -4 111 38 30 46 24 75 -15
65 -34 -9 -35 -10 -19 -34 9 -15 10 -23 1 -32 -14 -14 -50 -3 -57 19 -3 10
-21 26 -40 36 -54 29 -56 65 -4 66 11 0 15 6 11 19 -7 27 9 32 35 11 13 -11
18 -21 12 -25 -13 -8 -13 -45 -1 -45 6 0 13 5 17 11 3 6 19 9 35 7 26 -4 27
-2 22 23 -7 34 8 43 43 24 16 -8 39 -15 50 -15 12 0 38 -7 59 -16 22 -9 49
-13 65 -9 16 3 31 2 35 -4 3 -6 17 -11 31 -11 14 0 23 -4 20 -9 -4 -5 0 -11 6
-14 10 -3 10 -8 -2 -21 -13 -16 -12 -18 10 -16 47 4 58 0 64 -25 5 -18 1 -32
-13 -47 -11 -11 -18 -24 -16 -29 7 -11 46 2 52 18 4 9 14 12 32 8 22 -5 27 -2
28 14 1 12 -3 24 -9 27 -7 5 -9 1 -5 -9 11 -28 -28 -20 -41 8 -13 28 -10 31
43 34 22 1 41 6 43 11 2 5 10 6 18 3 8 -3 14 1 14 11 0 9 1 19 3 22 1 4 -9 11
-22 15 -20 8 -23 7 -18 -10 4 -16 0 -18 -24 -17 -16 1 -30 -2 -32 -7 -3 -10
-67 24 -67 36 0 4 -6 7 -14 7 -8 0 -24 9 -37 19 l-24 19 30 12 c26 10 32 9 46
-9 22 -27 35 -27 42 0 3 12 10 18 17 14 13 -8 42 13 35 25 -7 11 -64 10 -71
-1 -2 -5 -11 -6 -19 -4 -53 17 -51 15 -25 36 21 16 23 20 10 29 -12 7 -8 11
18 16 18 4 35 10 37 15 6 8 62 -7 82 -23 7 -6 13 -4 16 4 7 19 57 -31 57 -57
0 -12 6 -30 14 -40 10 -14 12 -51 9 -159 -2 -77 -7 -144 -11 -148 -5 -5 -5
-42 -1 -83 11 -110 5 -149 -25 -185 -29 -35 -33 -55 -12 -67 15 -9 41 -54 38
-65 -1 -4 5 -5 14 -1 12 4 14 14 9 39 -3 20 -2 34 4 34 5 0 8 15 5 33 -5 44
-5 83 -1 202 4 101 25 175 62 211 8 9 15 21 15 28 0 14 42 26 87 26 15 0 22 4
17 11 -4 7 -22 9 -45 6 -47 -6 -74 11 -84 55 -12 55 -11 78 2 78 9 0 11 -8 7
-25 -4 -18 -2 -25 8 -25 7 0 19 -9 26 -20 7 -12 17 -18 22 -15 17 10 11 24
-16 38 -24 13 -23 13 24 14 61 1 98 18 82 38 -12 15 5 16 28 2 8 -6 12 -1 12
16 0 16 9 28 26 36 34 15 42 7 20 -18 -19 -21 -17 -58 2 -54 17 4 15 -7 -5
-29 -15 -17 -15 -18 5 -18 12 0 21 3 21 8 -3 19 2 23 16 12 13 -10 15 -9 15 9
0 15 -4 20 -12 15 -10 -6 -10 -4 0 7 6 7 12 23 12 36 0 14 6 23 15 23 9 0 15
-10 15 -26 0 -14 -4 -23 -10 -19 -5 3 -10 2 -10 -3 0 -18 44 -22 62 -5 17 15
18 15 18 0 0 -10 5 -17 10 -17 6 0 10 -13 10 -30 0 -25 21 -50 43 -50 9 0 13
60 6 72 -10 16 8 38 25 32 19 -7 46 57 46 110 0 25 -4 46 -9 46 -13 0 -24 37
-15 51 5 8 10 7 16 -5 15 -26 45 -38 52 -20 4 11 1 14 -13 9 -27 -8 -37 13
-15 30 18 13 18 14 0 34 -14 16 -16 21 -5 21 8 0 20 -9 27 -20 9 -16 23 -20
62 -20 41 0 50 -3 49 -17 0 -11 -3 -13 -6 -5 -6 14 -39 16 -48 2 -3 -5 3 -10
15 -10 11 0 23 -7 26 -15 9 -23 18 -18 31 15 24 64 32 31 32 -132 -1 -207 -1
-208 11 -208 6 0 10 27 10 61 l0 61 31 -7 c22 -5 29 -4 25 4 -4 6 -15 11 -25
11 -11 0 -21 10 -25 23 -16 61 4 167 31 167 8 0 13 8 11 18 -3 15 7 17 77 19
44 1 106 4 139 6 46 3 62 1 76 -13 9 -9 29 -20 44 -24 34 -9 37 -56 4 -79
l-23 -14 28 0 c34 -1 45 -9 29 -25 -19 -19 -14 -34 13 -46 23 -11 24 -10 13 7
-13 21 -4 56 12 46 17 -11 11 17 -7 31 -12 9 -14 13 -5 14 9 0 11 7 7 21 -6
16 -4 20 6 14 8 -4 4 2 -8 14 -25 23 -28 36 -14 45 16 10 39 -5 45 -28 11 -43
101 -84 133 -61 16 13 16 14 2 15 -10 0 -20 11 -23 25 -7 28 0 49 14 40 5 -3
11 -1 15 5 4 7 17 3 34 -10 30 -21 43 -18 34 8 -5 13 -1 14 28 8 18 -3 37 -10
42 -15 4 -4 8 -135 8 -289 0 -292 -5 -339 -44 -395 -17 -25 -22 -27 -70 -22
-104 10 -430 14 -421 5 11 -11 251 -24 358 -21 85 3 163 -15 179 -40 16 -25
30 -24 22 1 -3 11 -3 20 2 20 4 0 6 30 5 66 -4 69 10 114 35 114 7 0 13 4 13
8 0 19 93 32 223 31 76 -1 141 1 144 5 17 16 -23 21 -193 22 -247 2 -228 -19
-219 234 4 107 9 218 11 245 2 28 4 65 4 83 -1 40 9 60 20 41 6 -9 12 -9 24 4
18 18 22 57 5 57 -5 0 -7 -6 -3 -12 4 -7 -1 -6 -10 3 -15 14 -16 22 -7 55 13
47 35 63 79 56 35 -5 43 -27 13 -37 -23 -7 -54 -52 -42 -59 4 -3 6 -17 3 -31
-3 -20 0 -25 17 -25 12 0 30 6 41 13 17 10 22 9 30 -3 10 -16 14 -8 11 23 -3
22 25 33 44 17 8 -7 13 -15 11 -19 -7 -11 18 -38 36 -38 9 0 15 4 12 9 -3 4
-12 8 -20 8 -10 0 -14 9 -12 31 2 20 -3 34 -15 40 -26 15 -20 31 11 27 19 -2
27 -8 26 -21 -2 -14 1 -15 12 -6 31 25 0 58 -40 43 -18 -7 -49 13 -41 27 3 4
38 8 78 7 52 -1 79 -7 99 -20 32 -22 54 -23 91 -3 37 19 202 13 245 -9 32 -16
39 -37 42 -111 5 -162 4 -159 41 -171 41 -14 48 -10 26 14 -15 17 -17 46 -11
293 3 151 7 290 9 309 2 19 4 40 4 47 1 6 9 12 19 12 18 0 93 18 127 31 36 14
89 7 93 -13 3 -15 0 -16 -25 -7 -24 9 -26 8 -11 -3 10 -8 15 -17 11 -21 -4 -3
8 -3 25 0 21 4 32 3 32 -5 0 -6 7 -11 17 -11 15 0 14 2 -2 20 -17 18 -16 19
10 26 17 4 30 2 35 -5 5 -9 9 -9 13 3 7 17 57 22 57 6 0 -5 7 -10 15 -10 11 0
15 -11 15 -35 0 -40 21 -55 45 -35 21 17 31 5 14 -17 -11 -15 -10 -15 9 1 12
11 22 25 22 33 0 7 5 13 10 13 6 0 10 -4 10 -9 0 -5 11 -12 25 -15 16 -4 25
-13 25 -27 0 -16 4 -19 22 -14 16 6 20 4 15 -9 -3 -8 -2 -18 2 -20 16 -10 22
-69 9 -78 -9 -6 -7 -8 7 -6 13 2 22 13 25 33 4 23 10 29 25 26 19 -3 19 -2 2
16 -22 25 -22 33 3 33 24 0 25 8 4 31 -13 14 -21 16 -35 8 -14 -7 -23 -5 -39
11 -29 29 -25 38 21 50 81 22 90 0 89 -219 -1 -91 1 -228 3 -304 4 -135 4
-139 -19 -164 -23 -24 -26 -25 -51 -12 -21 11 -84 14 -317 13 -160 0 -313 -2
-341 -4 -27 -3 -58 -1 -67 4 -17 8 -18 -1 -13 -125 3 -74 5 -144 5 -156 0 -13
4 -23 10 -23 5 0 11 50 12 116 2 92 6 118 18 124 8 4 25 12 37 18 29 15 73 15
73 1 0 -8 4 -8 13 -2 13 11 79 14 73 4 -2 -3 37 -2 87 3 51 4 135 8 187 7 52
-1 132 -2 177 -1 l81 0 7 -40 c13 -77 14 -97 15 -353 0 -142 3 -264 7 -272 3
-8 11 -15 19 -15 14 0 15 20 19 310 1 36 5 85 10 110 4 25 7 54 6 65 -1 11 -1
164 -1 340 0 359 4 385 60 385 15 0 35 -3 44 -6 21 -8 20 -44 -1 -60 -17 -12
-17 -13 1 -27 15 -11 17 -17 8 -33 -9 -15 -11 -16 -12 -3 0 12 -7 15 -24 12
-18 -4 -25 -13 -29 -36 -3 -21 0 -35 9 -40 8 -4 14 -18 14 -30 0 -43 14 -50
54 -28 45 26 51 26 76 1 16 -16 25 -18 40 -10 17 9 20 8 20 -12 0 -19 -2 -20
-10 -8 -8 13 -10 12 -10 -2 0 -23 6 -22 40 2 27 19 28 19 49 1 11 -10 18 -21
14 -25 -3 -3 -1 -6 5 -6 7 0 12 5 12 10 0 6 5 10 11 10 8 0 9 -11 5 -32 l-6
-33 16 24 c16 22 16 27 3 50 -8 14 -24 27 -34 27 -11 1 -29 2 -40 3 -27 1 -50
38 -35 56 8 9 7 14 -3 18 -8 3 -14 0 -14 -6 -1 -22 -8 -41 -20 -54 -16 -18
-20 -16 -26 8 -5 18 -12 21 -41 17 -19 -2 -33 -2 -31 1 3 2 -2 13 -12 23 -15
17 -15 18 4 18 25 0 49 20 58 48 6 20 3 22 -29 22 -28 0 -36 4 -36 18 0 28 9
32 44 17 18 -8 37 -10 42 -6 13 12 103 20 110 10 3 -5 -8 -12 -25 -15 -32 -7
-40 -18 -18 -28 13 -6 -30 4 -50 11 -7 3 -13 -2 -13 -11 0 -10 6 -13 15 -10 9
4 15 0 15 -10 0 -9 8 -16 20 -16 10 0 28 -9 39 -21 29 -31 67 -49 79 -37 7 7
21 2 44 -15 36 -28 84 -28 74 -1 -4 10 3 14 24 14 16 0 31 -4 34 -9 7 -10 -54
-42 -66 -35 -4 3 -8 1 -8 -5 0 -15 23 -19 55 -8 32 10 67 37 48 37 -6 0 -9 9
-6 20 3 11 8 20 12 20 13 0 52 -60 46 -70 -7 -11 -5 -12 43 -16 17 -1 30 1 27
5 -8 14 26 53 41 47 21 -8 27 15 25 92 -1 37 -1 78 -1 92 1 14 1 39 0 55 -1
17 -1 71 0 120 1 78 4 93 23 110 12 11 24 18 27 17 3 -2 10 -8 17 -14 7 -5 16
-7 21 -5 4 3 14 2 22 -3 11 -7 11 -11 1 -24 -7 -8 -18 -13 -25 -10 -18 7 -38
-21 -43 -60 -3 -36 22 -60 34 -31 4 12 9 13 19 4 8 -6 21 -9 29 -5 22 8 73
-13 56 -23 -9 -6 -10 -11 -2 -15 11 -7 17 3 23 39 4 23 29 27 35 5 4 -13 3
-13 -6 0 -13 18 -24 8 -15 -14 5 -13 13 -16 31 -11 35 8 48 -32 19 -57 -17
-14 -18 -19 -7 -27 7 -5 22 -6 32 -4 12 3 19 0 19 -8 0 -10 -17 -14 -65 -14
-59 0 -65 2 -65 20 0 22 -17 45 -33 45 -4 0 -5 -10 -1 -22 6 -20 5 -21 -9 -10
-13 11 -17 10 -24 -2 -7 -13 -15 -14 -46 -4 -38 12 -63 4 -37 -12 8 -5 14 -23
13 -45 -1 -27 2 -35 13 -31 15 6 18 -3 8 -28 -3 -9 -12 -16 -20 -16 -8 0 -14
-4 -14 -10 0 -13 29 -13 69 1 26 9 38 8 72 -9 37 -18 41 -19 47 -4 8 20 43 26
54 9 6 -9 11 -8 18 3 13 20 13 60 0 60 -5 0 -10 5 -10 10 0 17 25 11 43 -10
21 -25 34 -25 40 -2 3 13 6 11 15 -10 6 -16 17 -28 24 -29 7 0 3 -4 -9 -9 -25
-10 -27 -17 -14 -39 8 -12 12 -12 25 -2 12 10 18 9 33 -8 23 -27 57 -28 50 -2
-4 15 -1 18 12 14 25 -9 43 -25 50 -46 5 -14 19 -20 52 -22 24 -1 36 0 27 2
-10 3 -18 11 -18 20 0 8 -10 23 -22 34 l-23 19 33 -6 c17 -4 32 -4 32 -1 0 10
-75 51 -88 48 -10 -2 -12 4 -7 18 3 12 2 21 -3 21 -5 0 -15 11 -22 25 -9 17
-19 23 -31 20 -20 -7 -27 10 -30 70 -1 22 -9 48 -17 57 -8 10 -12 25 -8 33 10
26 40 13 51 -23 10 -36 22 -40 40 -15 11 15 14 15 31 -5 13 -15 30 -22 56 -22
36 0 49 -12 28 -25 -28 -17 2 -47 51 -51 49 -4 67 -18 71 -54 3 -22 -1 -25
-24 -23 -36 2 -35 -6 1 -38 28 -25 30 -30 30 -113 0 -115 -17 -146 -91 -166
-54 -14 -84 -16 -282 -19 -118 -2 -133 -6 -116 -26 7 -9 7 -21 0 -41 l-11 -28
-25 27 c-23 25 -54 36 -54 20 0 -9 93 -93 105 -94 5 -1 17 -2 25 -3 8 0 14 -7
12 -15 -3 -12 0 -12 12 -2 16 14 36 7 36 -12 0 -11 19 -22 75 -44 6 -3 5 -1
-1 4 -6 4 -11 15 -11 23 0 8 -3 25 -7 36 -5 15 -2 23 10 28 22 8 33 -1 27 -23
-2 -10 3 -25 11 -34 9 -8 16 -21 16 -27 0 -7 7 -10 15 -6 8 3 15 0 15 -6 0 -6
3 -8 6 -5 4 4 0 17 -9 30 -14 21 -13 24 5 39 11 9 26 14 34 11 15 -6 18 6 8
31 -4 11 -19 16 -43 16 -26 0 -47 9 -76 34 -39 34 -40 34 -12 31 16 -2 38 -11
48 -21 19 -17 21 -17 55 1 30 16 39 17 56 6 11 -7 17 -8 14 -2 -4 7 -1 8 8 5
9 -3 16 -1 16 5 0 15 71 13 93 -3 9 -7 17 -20 17 -29 0 -9 4 -18 9 -21 14 -9
20 -92 27 -348 6 -245 2 -298 -22 -298 -8 0 -14 -6 -14 -13 0 -11 -17 -13 -72
-10 -67 4 -71 3 -52 -11 11 -8 47 -16 80 -18 51 -3 60 -6 71 -28 14 -30 26
-242 26 -462 0 -160 -6 -188 -39 -188 -8 0 -31 -11 -52 -24 -36 -24 -45 -25
-249 -28 -117 -3 -216 -8 -220 -11 -11 -11 -73 -8 -96 5 -12 6 -38 14 -57 18
-32 5 -35 8 -41 50 -16 113 -27 628 -14 650 4 6 14 8 24 5 44 -18 99 -16 135
6 25 14 40 18 44 12 9 -14 124 -8 153 7 11 7 19 13 17 15 -1 1 -76 0 -166 -4
-90 -3 -171 -3 -181 1 -14 5 -20 22 -25 68 -12 105 -18 618 -7 638 7 13 4 33
-7 68 l-17 49 -3 -165 c-2 -155 -4 -166 -25 -190 -19 -20 -23 -34 -19 -70 2
-25 4 -191 5 -370 l2 -325 -127 3 c-71 1 -128 -1 -128 -5 0 -8 19 -12 65 -13
27 -1 44 -18 38 -39 -3 -10 0 -22 6 -25 7 -4 11 1 11 12 0 26 38 35 67 17 12
-8 28 -15 35 -15 15 0 41 -58 32 -71 -3 -5 4 -9 15 -9 11 0 23 -4 26 -10 3 -5
-1 -10 -11 -10 -11 0 -15 -6 -11 -20 3 -11 1 -23 -4 -26 -6 -4 -6 -11 1 -19
12 -14 21 -163 21 -335 0 -81 2 -99 10 -80 5 14 8 32 6 41 -6 24 18 50 49 52
35 2 53 17 46 37 -3 9 4 6 17 -7 27 -28 27 -46 1 -38 -23 7 -29 -19 -6 -28 15
-6 36 11 36 30 0 20 157 37 199 21 14 -5 36 -5 55 1 40 13 330 20 349 9 22
-12 26 -56 32 -328 2 -129 8 -268 11 -308 6 -61 4 -75 -11 -92 -10 -11 -29
-20 -42 -20 -15 0 -22 -4 -18 -11 4 -6 13 -8 21 -5 9 3 14 -1 14 -14 0 -10 -9
-22 -20 -25 -11 -4 -18 -10 -15 -14 2 -5 -11 -32 -29 -62 -52 -82 -146 -269
-145 -288 0 -9 13 9 28 39 89 176 251 403 347 488 45 39 53 50 40 55 -11 5
-19 0 -25 -16 -7 -18 -70 -67 -71 -55 -1 2 -2 58 -3 126 -2 101 1 123 13 127
17 5 413 -2 590 -10 136 -6 169 -16 172 -54 0 -14 2 -48 3 -76 2 -27 7 -64 13
-82 6 -17 8 -34 5 -36 -3 -3 -2 -15 2 -26 10 -32 26 -14 20 22 -19 101 -30
524 -14 543 14 17 3 48 -14 41 -11 -4 -14 26 -15 151 -1 87 -5 233 -8 325 -6
163 -6 169 15 188 11 11 21 26 21 33 0 21 32 44 73 51 65 12 43 28 -33 23 -39
-3 -73 -2 -76 3 -11 19 -15 201 -3 215 18 22 45 16 73 -17 34 -40 33 -49 -8
-49 -40 0 -64 -21 -43 -38 7 -6 24 -11 38 -10 53 3 79 -2 79 -17 0 -18 16 -20
26 -3 5 7 11 5 21 -7 13 -18 13 -18 15 1 0 10 1 24 1 31 -1 18 36 26 53 12 13
-11 15 -10 14 2 -4 24 0 39 9 39 12 0 61 -47 54 -53 -3 -4 7 -9 22 -13 34 -8
79 11 71 31 -3 8 -1 15 4 15 6 0 10 -4 10 -10 0 -5 8 -10 19 -10 10 0 24 -6
30 -14 11 -13 15 -12 32 5 20 20 20 20 44 -3 l24 -23 -42 -6 c-23 -4 -45 -5
-48 -3 -4 2 -9 -3 -13 -11 -6 -17 -36 -21 -36 -5 0 6 -7 10 -15 10 -19 0 -19
-9 1 -35 12 -16 16 -17 23 -6 5 8 16 11 30 6 12 -4 21 -2 21 4 0 8 6 8 18 0
15 -9 34 -7 88 9 44 14 72 18 78 12 6 -6 16 -10 23 -10 16 0 18 57 1 62 -19 7
2 28 28 28 27 0 32 -15 9 -24 -21 -8 -19 -22 7 -48 l21 -21 -26 -23 c-14 -12
-30 -23 -36 -25 -5 -2 -13 -17 -17 -32 -5 -24 -4 -28 12 -27 38 4 44 0 44 -34
0 -25 -5 -35 -20 -39 -13 -3 -20 -14 -20 -31 0 -17 -4 -24 -13 -20 -8 3 -19
-2 -26 -10 -11 -14 -7 -15 39 -13 40 2 54 -2 61 -15 6 -10 5 -19 -1 -23 -5 -3
-10 -16 -10 -28 1 -22 1 -22 15 -2 8 11 19 25 25 32 14 17 13 40 -2 46 -10 3
-8 9 5 24 16 18 16 21 2 33 -15 12 -15 14 1 23 13 8 22 5 34 -11 16 -19 70
-41 70 -29 0 12 -52 57 -65 57 -8 0 -26 17 -40 37 -21 31 -25 49 -25 105 0 37
4 69 9 72 4 3 11 24 15 46 5 34 10 40 30 40 38 0 71 -40 46 -55 -21 -13 -9
-25 25 -25 28 0 35 4 35 19 0 28 -25 72 -36 61 -5 -5 -16 1 -27 16 -14 19 -15
23 -2 18 14 -6 19 4 13 24 -4 13 -30 1 -53 -24 -27 -29 -61 -31 -70 -5 -5 17
8 97 17 107 2 2 13 5 24 7 10 1 30 10 44 20 16 11 43 17 77 17 50 0 54 -2 66
-32 8 -18 12 -38 10 -45 -7 -19 -67 -4 -89 24 -28 33 -47 23 -32 -17 5 -17 16
-30 24 -30 8 0 14 -10 14 -24 0 -13 7 -29 16 -37 8 -7 13 -21 11 -31 -6 -20 9
-25 16 -5 3 8 11 6 28 -9 20 -17 31 -19 64 -13 22 4 48 3 57 -2 23 -12 28 -11
28 5 0 33 20 22 54 -30 20 -31 36 -62 36 -69 0 -16 27 -38 38 -31 5 3 14 -6
21 -20 11 -25 31 -28 39 -6 2 7 -6 12 -18 12 -19 0 -21 5 -18 35 1 20 -3 39
-9 43 -7 4 7 7 29 7 24 0 43 6 46 13 7 21 31 13 46 -16 10 -19 11 -33 5 -45
-8 -14 -6 -15 8 -10 10 3 24 11 31 16 18 14 20 7 13 -43 l-6 -45 -53 1 c-28 1
-52 -2 -52 -8 0 -16 27 -63 49 -82 25 -22 29 -58 6 -50 -10 4 -15 0 -15 -11 0
-13 6 -16 26 -12 29 5 66 -26 57 -49 -7 -18 -23 -18 -23 0 0 9 -7 12 -20 9
-11 -3 -27 0 -35 7 -20 16 -35 4 -35 -30 0 -32 11 -38 58 -34 22 1 35 -3 39
-12 7 -18 38 -10 67 18 17 15 18 20 7 28 -11 6 -12 14 -3 37 6 15 9 43 8 61
-3 34 -40 82 -63 82 -7 0 -13 9 -13 20 0 13 5 18 15 14 11 -4 13 -2 9 9 -3 8
-1 18 4 21 5 3 12 -4 15 -15 4 -16 11 -20 26 -16 26 6 33 -14 31 -96 -3 -116
-2 -119 20 -112 14 5 20 2 20 -10 0 -9 -4 -13 -10 -10 -5 3 -12 -7 -16 -22 -3
-15 -7 -33 -9 -39 -2 -8 -48 -12 -142 -12 -115 -1 -134 1 -113 11 26 13 38 41
20 52 -5 3 -13 0 -16 -9 -3 -8 -12 -12 -20 -9 -9 3 -12 0 -9 -8 3 -8 1 -21 -5
-29 -8 -13 -44 -15 -222 -15 -204 0 -215 1 -252 23 -41 24 -57 22 -40 -6 5 -9
7 -44 3 -77 -3 -33 -2 -70 2 -82 8 -21 -9 -73 -23 -73 -5 0 -8 -5 -8 -11 0 -5
4 -8 9 -4 15 9 31 -29 31 -74 0 -22 5 -43 10 -46 15 -9 12 -36 -7 -57 -15 -17
-16 -21 -1 -46 12 -20 16 -54 15 -130 0 -116 17 -160 25 -65 10 105 4 193 -12
203 -8 5 -10 10 -5 10 7 0 9 36 7 98 -8 251 -8 262 8 272 8 5 24 10 34 10 18
0 18 -1 2 -18 -22 -25 -16 -108 8 -106 9 1 16 -2 16 -6 0 -5 9 -12 20 -15 11
-3 20 -13 20 -21 0 -8 5 -14 10 -14 13 0 13 17 0 25 -6 4 -5 14 3 28 16 29 29
38 47 32 8 -2 5 3 -7 11 -13 9 -23 23 -23 30 0 8 -5 14 -11 14 -6 0 -9 -9 -6
-20 3 -11 1 -20 -5 -20 -5 0 -6 -9 -3 -20 7 -22 -5 -26 -23 -8 -18 18 -15 38
6 31 13 -5 12 -1 -5 19 -32 34 -30 58 5 59 180 5 265 10 273 15 6 3 13 -3 16
-15 3 -12 10 -21 15 -21 6 0 8 -7 4 -15 -3 -8 -1 -15 3 -15 5 0 11 6 13 12 3
9 9 8 22 -5 11 -11 33 -17 61 -17 32 0 51 -7 73 -25 23 -19 31 -22 35 -11 6
16 -32 52 -60 58 -29 5 -23 42 9 46 22 3 27 -2 33 -27 4 -17 10 -31 13 -31 4
0 16 -7 27 -16 17 -13 18 -16 5 -24 -11 -7 -6 -10 20 -10 29 0 36 -4 37 -21 2
-26 8 -33 22 -24 14 8 14 42 1 50 -17 11 -11 43 8 41 11 -1 17 6 17 21 0 11 4
25 9 30 5 5 7 1 3 -9 -4 -12 -1 -18 8 -18 10 0 15 -12 16 -37 0 -21 2 -49 5
-63 2 -14 6 -92 9 -174 6 -129 4 -148 -9 -143 -8 3 -19 0 -25 -7 -14 -17 10
-39 32 -30 14 5 16 -6 14 -88 -2 -76 -5 -93 -17 -90 -11 2 -11 -1 3 -11 21
-17 23 -47 2 -47 -22 0 -19 -7 19 -44 30 -30 34 -42 40 -107 5 -50 4 -75 -3
-77 -7 -2 -8 -10 -1 -22 6 -10 12 -63 15 -117 3 -54 8 -118 11 -142 l6 -43 21
20 c23 22 163 44 263 42 27 0 69 -1 94 -1 57 1 102 -8 95 -19 -3 -5 -1 -10 5
-12 15 -5 17 -53 2 -50 -8 1 -11 -1 -8 -6 3 -5 -2 -21 -10 -36 -19 -37 -18
-48 4 -44 14 3 17 -6 19 -52 3 -68 7 -98 16 -106 4 -4 7 -35 8 -68 0 -34 4
-79 9 -101 9 -39 6 254 -5 595 -6 180 -13 450 -20 725 -6 270 -16 587 -20 695
-2 47 -6 191 -10 320 -4 129 -8 267 -10 305 -2 39 -4 114 -4 168 -1 79 -4 97
-16 97 -10 0 -15 10 -15 30 0 21 4 28 14 24 11 -4 13 4 10 38 -2 24 -8 180
-14 348 -14 404 -19 527 -24 635 -3 50 -11 212 -17 362 -7 150 -16 278 -20
285 -7 10 -283 13 -1407 16 -769 1 -1400 1 -1403 -2z m-789 -37 c0 -6 -4 -18
-10 -28 -7 -14 -4 -23 13 -37 35 -30 65 -44 82 -38 25 10 17 24 -15 24 -16 0
-30 2 -30 4 0 2 -3 11 -6 20 -4 10 -1 16 9 16 24 0 77 -34 77 -49 0 -10 8 -11
28 -7 41 10 75 7 90 -7 11 -12 4 -14 -40 -16 -29 -1 -57 -6 -62 -11 -11 -11
-64 -1 -93 18 -21 13 -23 13 -23 -6 0 -17 -5 -19 -37 -15 -24 3 -49 -1 -68
-11 -29 -15 -30 -15 -33 5 -6 37 6 52 36 46 21 -4 33 0 45 13 14 17 14 19 -1
25 -11 4 -13 9 -6 13 6 4 14 17 18 30 7 22 26 31 26 11z m-3650 -34 c31 -16
42 -32 15 -21 -16 6 -41 -30 -36 -53 1 -7 -8 -24 -20 -37 -19 -21 -20 -24 -5
-30 23 -9 20 -23 -4 -17 -11 3 -20 9 -20 13 0 12 -38 23 -50 15 -6 -4 -7 -11
-4 -17 4 -6 7 -28 8 -49 1 -31 -3 -39 -17 -39 -10 0 -20 6 -23 13 -2 7 -13 13
-24 14 -17 2 -18 0 -2 -17 8 -11 17 -26 18 -35 1 -9 9 -24 17 -33 20 -24 26
-47 17 -62 -4 -7 -13 -9 -19 -5 -8 4 -9 11 -2 19 7 8 -3 23 -31 51 -26 26 -42
35 -45 27 -3 -9 -16 -11 -39 -6 -33 6 -34 5 -29 -22 8 -42 -5 -57 -39 -44 -15
5 -24 15 -21 20 3 6 -1 13 -10 16 -12 5 -14 14 -9 38 3 17 8 34 10 38 5 7 64
-13 64 -23 0 -3 10 -5 23 -4 16 1 23 9 25 29 3 22 8 27 22 23 21 -5 37 21 17
29 -7 2 -13 20 -13 39 0 23 3 32 10 25 6 -5 19 -10 29 -10 15 0 18 5 14 20 -6
25 18 78 26 58 4 -10 10 -8 21 7 14 16 61 40 89 44 4 0 21 -6 37 -14z m-1983
-82 c-1 -28 5 -61 15 -80 10 -21 12 -32 5 -30 -7 1 -12 -5 -13 -13 -1 -46 -14
-57 -67 -63 -29 -2 -53 -1 -55 4 -2 5 -9 9 -16 9 -9 0 -12 9 -8 25 2 14 8 25
12 25 18 0 60 48 60 68 0 14 9 26 23 32 13 5 16 9 7 10 -13 0 -13 1 0 10 10 6
11 10 3 10 -27 0 -4 27 34 39 1 1 1 -20 0 -46z m2767 27 c25 -10 46 -23 46
-29 0 -16 -28 -21 -60 -9 -38 13 -88 -5 -100 -36 -7 -20 -9 -19 -19 8 -11 28
-13 29 -74 24 -70 -6 -123 2 -116 17 5 11 12 13 110 20 43 4 90 10 105 15 44
13 59 12 108 -10z m1066 -4 c0 -7 11 -23 25 -36 26 -25 33 -14 14 22 -15 27 9
44 28 20 14 -19 17 -58 5 -66 -4 -2 -7 -93 -5 -200 l3 -196 -28 0 c-15 0 -33
-5 -40 -12 -8 -8 -47 -11 -125 -10 -61 1 -211 4 -332 6 -141 2 -220 7 -223 14
-1 5 1 25 5 43 l9 33 22 -22 c24 -24 70 -30 77 -9 26 72 24 71 44 53 10 -9 28
-15 41 -14 12 2 25 -3 27 -9 3 -7 -3 -13 -12 -13 -20 0 -15 -20 9 -34 13 -9
19 -7 27 7 10 16 12 17 22 3 7 -8 24 -18 38 -21 24 -6 26 -4 24 24 -2 30 9 43
17 20 2 -5 11 -11 19 -12 9 -2 24 -10 33 -20 21 -21 45 -22 52 -3 4 11 13 12
35 6 32 -9 40 5 14 24 -17 13 -25 51 -10 51 6 0 9 -4 7 -8 -4 -14 39 14 45 29
3 8 -3 21 -12 28 -12 9 -16 19 -11 31 5 13 10 15 17 8 7 -7 22 -8 40 -3 36 11
72 2 65 -16 -3 -8 0 -11 10 -7 7 3 14 11 14 19 0 8 6 11 15 8 23 -9 32 46 10
62 -10 8 -19 22 -20 31 0 10 -4 24 -8 30 -4 6 -3 14 3 18 18 11 10 25 -15 25
-14 0 -25 -4 -25 -9 0 -5 -9 -13 -20 -16 -23 -7 -27 -25 -5 -25 8 0 15 -7 15
-16 0 -8 15 -29 33 -46 l32 -30 -52 4 c-40 4 -53 2 -53 -8 0 -8 -4 -14 -10
-14 -13 0 -13 37 0 45 18 11 -13 45 -41 45 -30 0 -78 34 -66 46 5 5 28 9 53 9
43 0 44 1 44 34 0 33 0 33 38 26 20 -3 43 -14 50 -23 6 -8 12 -11 12 -6 0 19
-25 43 -50 47 -25 4 -24 4 7 16 17 7 34 19 37 27 7 17 26 10 26 -10z m124 -62
c9 -3 16 -11 16 -18 0 -7 21 -10 62 -9 35 0 70 -3 79 -8 11 -5 20 -4 27 4 14
17 162 14 172 -3 13 -22 0 -40 -29 -40 -31 0 -51 -16 -51 -43 0 -11 -5 -15
-11 -11 -6 4 -9 19 -5 36 l6 29 -53 -6 c-28 -3 -57 -12 -63 -20 -10 -13 -13
-13 -23 -1 -7 8 -20 13 -29 12 -14 -2 -17 -12 -14 -51 1 -38 -1 -46 -10 -37
-21 21 -46 13 -57 -19 -22 -63 -37 0 -21 89 0 1 8 2 18 3 14 0 14 2 -3 9 -33
13 -48 37 -41 65 7 27 7 28 30 19z m1696 -24 c0 -5 14 -25 30 -44 17 -18 29
-42 28 -52 -2 -11 2 -19 7 -19 6 0 9 4 7 9 -1 4 14 5 34 1 34 -6 36 -5 25 9
-8 9 -9 16 -3 16 9 0 82 -93 82 -105 0 -17 -41 0 -60 25 -25 33 -40 38 -40 15
0 -9 -8 -14 -22 -12 -15 1 -26 -6 -36 -25 -10 -22 -20 -28 -45 -28 -43 0 -61
-13 -53 -37 9 -27 -21 -54 -35 -32 -5 8 -9 9 -9 3 0 -6 11 -21 24 -33 l24 -23
16 31 c19 36 19 36 54 14 50 -32 57 -42 37 -56 -15 -12 -14 -15 11 -40 15 -15
31 -27 36 -27 5 0 6 -4 3 -10 -8 -13 17 -13 33 0 6 6 10 7 7 4 -9 -13 17 -34
42 -34 22 0 24 2 13 15 -10 12 -15 13 -20 4 -10 -15 -31 -2 -24 15 3 9 -7 19
-25 27 -39 17 -40 39 -3 39 15 0 33 5 39 11 9 9 23 2 56 -25 53 -43 82 -41 73
5 -3 17 -1 29 5 29 17 0 40 28 29 35 -5 3 -10 1 -10 -5 0 -8 -6 -8 -21 0 -11
6 -30 10 -42 9 -32 -3 -78 11 -106 33 l-24 18 26 0 c13 0 28 -7 31 -15 4 -12
16 -14 57 -10 30 4 56 2 64 -5 9 -7 19 -5 36 10 22 19 23 21 6 31 -11 6 -16
17 -12 28 3 10 -1 24 -10 31 -8 7 -16 10 -16 6 -8 -40 -20 -64 -34 -70 -8 -3
-14 2 -15 12 -3 61 -8 86 -18 90 -7 2 -10 -3 -6 -12 10 -26 -21 -19 -42 10
-10 15 -27 35 -38 44 -10 10 -15 23 -11 29 3 6 1 11 -6 11 -9 0 -10 3 -2 11
12 12 82 -19 83 -38 0 -7 7 -13 17 -13 14 0 14 2 -3 21 -16 17 -16 22 -4 29
20 13 27 12 50 -2 15 -10 22 -10 32 0 15 15 48 15 68 1 12 -8 9 -9 -12 -5 -38
9 -42 -7 -7 -28 16 -9 29 -24 29 -32 0 -8 10 -14 23 -15 14 0 17 -2 7 -6 -8
-3 -21 -12 -27 -21 -12 -14 -13 -14 -13 1 0 19 -15 23 -25 7 -4 -6 -1 -18 7
-27 7 -9 11 -26 10 -38 -2 -13 2 -26 9 -31 9 -5 10 0 6 18 -5 17 -2 30 8 38
13 11 15 8 15 -17 0 -37 48 -87 74 -77 12 5 19 1 23 -15 3 -11 7 -21 10 -21
17 0 43 25 52 51 10 29 37 37 35 11 -1 -7 -2 -28 -2 -48 -2 -31 -4 -35 -17
-24 -12 10 -15 10 -15 0 0 -8 -8 -10 -25 -6 -33 8 -32 1 5 -36 33 -33 38 -48
15 -48 -8 0 -15 -6 -16 -12 0 -10 -2 -10 -6 0 -12 29 -113 53 -113 27 0 -10
11 -15 34 -15 19 0 38 -4 41 -10 3 -5 -1 -10 -9 -10 -28 0 -30 -45 -3 -74 15
-16 28 -23 31 -17 4 6 -2 16 -14 23 -27 17 -26 46 3 46 12 0 32 3 45 7 18 6
21 4 16 -9 -3 -9 -1 -16 5 -16 6 0 11 9 11 20 0 11 4 20 9 20 12 0 18 -74 11
-160 -4 -60 -8 -74 -20 -71 -15 3 -238 4 -256 0 -25 -4 -36 4 -50 36 -8 21
-19 33 -25 29 -6 -4 -21 5 -33 20 -16 19 -25 23 -36 16 -20 -12 -2 -44 28 -48
27 -4 48 -30 35 -43 -5 -5 -36 -11 -69 -13 -32 -2 -65 -4 -72 -5 -9 -1 -11 -8
-7 -21 4 -11 2 -20 -4 -20 -6 0 -11 9 -11 19 0 23 -48 30 -153 20 -40 -4 -73
-6 -75 -4 -10 9 -20 136 -17 220 3 87 5 100 20 97 10 -2 14 1 10 7 -4 7 0 8
11 4 12 -4 15 -2 12 8 -3 8 -15 13 -27 12 -16 -2 -21 3 -21 20 0 13 5 28 11
34 7 7 7 17 1 29 -27 52 -34 73 -28 83 10 16 31 14 46 -4 17 -20 60 -20 60 0
0 9 7 18 15 21 21 8 7 26 -18 23 -38 -2 -43 0 -70 41 -35 53 -27 71 29 68 42
-1 49 -7 45 -35 -1 -7 3 -13 10 -13 7 0 9 9 6 22 -6 22 7 48 24 48 5 0 9 -4 9
-10z m-2157 -65 c10 -4 33 -5 52 -2 23 4 33 2 30 -6 -7 -19 29 -54 63 -62 18
-3 32 -10 32 -13 -1 -19 -18 -29 -45 -26 -16 2 -33 -2 -37 -9 -6 -9 -10 -8
-18 3 -7 11 -12 12 -21 3 -9 -9 -6 -19 11 -43 l23 -32 -42 7 c-26 4 -41 3 -41
-4 0 -5 -12 -22 -27 -35 -22 -21 -29 -23 -35 -12 -13 23 2 47 23 41 13 -5 26
1 38 16 16 20 16 25 5 37 -8 7 -14 25 -14 38 0 20 3 23 18 16 28 -15 67 -8 67
13 0 10 -7 19 -17 21 -9 1 -24 6 -33 12 -13 7 -23 4 -36 -9 -11 -11 -19 -23
-19 -29 0 -5 -6 -10 -14 -10 -30 0 -25 -28 7 -41 l32 -13 -32 -3 c-20 -3 -33
-10 -33 -18 0 -22 -18 -27 -50 -13 -18 8 -30 20 -30 32 0 18 1 18 18 3 23 -21
36 -22 28 -2 -3 8 -2 15 3 15 4 0 6 11 3 25 -3 17 0 25 10 25 18 0 17 44 0 46
-7 1 -20 2 -29 3 -16 1 -15 4 4 20 22 18 71 21 106 6z m-1233 -75 c0 -10 5
-22 10 -25 6 -3 10 -15 10 -25 0 -10 5 -22 11 -25 6 -4 9 0 7 11 -6 37 26 19
35 -18 7 -28 14 -38 28 -38 10 0 19 -4 19 -10 0 -5 6 -10 14 -10 7 0 19 -6 25
-14 18 -21 -3 -29 -45 -17 -32 9 -37 8 -41 -9 -7 -25 -29 -31 -77 -20 -21 4
-47 7 -57 5 -36 -7 -287 13 -309 25 -18 10 -25 8 -41 -6 -13 -12 -23 -15 -27
-8 -4 6 -23 14 -44 17 -28 4 -40 1 -54 -14 -9 -10 -13 -19 -9 -19 5 0 6 -3 3
-6 -4 -3 -20 2 -38 11 -17 9 -40 13 -50 10 -15 -5 -21 0 -25 19 -3 14 -7 37
-10 51 -7 31 17 44 42 24 13 -11 17 -11 20 -1 6 16 18 15 35 -2 8 -7 24 -17
36 -20 18 -6 22 -3 22 16 1 21 2 22 14 6 18 -25 26 -22 26 7 0 14 4 25 10 25
5 0 7 -7 4 -15 -9 -23 37 -38 54 -17 6 9 12 11 12 5 0 -17 39 -26 54 -14 19
16 46 3 46 -21 0 -14 5 -18 15 -14 9 3 25 -4 36 -15 15 -15 24 -18 32 -10 6 6
24 11 39 11 20 0 28 5 29 18 0 11 2 12 6 4 4 -10 8 -10 19 -1 20 17 18 26 -18
58 -23 21 -28 30 -18 36 9 5 11 4 6 -3 -4 -8 3 -16 18 -22 14 -5 26 -13 26
-17 0 -12 51 -33 79 -33 23 0 24 1 6 13 -17 13 -17 14 6 20 l23 6 -27 29 c-31
32 -34 44 -11 35 13 -5 15 -2 9 17 -5 15 -4 20 4 16 6 -4 11 -16 11 -26z m670
-35 c9 -10 9 -15 1 -15 -6 0 -11 -9 -11 -19 0 -24 -26 -34 -51 -20 -25 13 -89
-6 -89 -26 0 -8 -10 -21 -21 -29 -14 -9 -19 -21 -15 -31 5 -13 14 -15 46 -10
38 6 42 4 86 -41 34 -36 47 -45 54 -35 4 8 13 10 19 7 6 -4 11 -4 11 1 0 11
51 34 61 27 21 -12 8 -42 -23 -53 -24 -9 -29 -14 -20 -23 20 -20 15 -40 -8
-33 -14 4 -20 2 -20 -9 0 -12 -5 -14 -22 -7 -13 4 -28 6 -34 4 -6 -2 -17 4
-25 13 -11 14 -11 18 4 29 24 18 11 23 -43 18 -25 -2 -68 -4 -97 -3 -54 0 -77
-17 -65 -49 3 -10 0 -12 -13 -7 -10 3 -23 2 -30 -4 -10 -8 -17 -5 -29 12 -9
12 -16 30 -16 40 0 22 -9 27 -54 30 -21 1 -39 6 -42 10 -7 11 -34 -2 -34 -17
0 -14 -44 -15 -57 -2 -11 12 -20 8 -20 -10 0 -10 7 -23 16 -30 22 -16 7 -27
-19 -13 -18 9 -20 18 -17 58 2 30 7 46 15 45 7 -2 12 4 12 12 0 21 23 19 44
-4 24 -27 108 -18 90 10 -6 10 37 3 66 -11 8 -4 47 -8 85 -8 l70 -2 -35 33
c-38 35 -66 87 -53 96 16 12 12 31 -7 41 -11 6 -18 15 -15 21 11 18 36 9 66
-23 16 -18 29 -27 29 -21 0 13 54 28 88 24 13 -1 32 5 42 14 10 9 23 14 29 11
5 -4 12 -2 16 4 9 14 20 12 35 -5z m-3024 -9 c8 -8 14 -19 14 -24 0 -5 6 -14
13 -21 11 -8 13 -4 9 22 -4 30 -3 31 11 12 17 -23 20 -105 4 -105 -8 0 -7 -4
0 -11 14 -14 5 -42 -10 -32 -7 4 -8 -2 -3 -18 11 -35 12 -109 2 -109 -4 0 -5
-11 -2 -25 4 -14 4 -31 0 -37 -4 -6 -8 -25 -9 -42 -11 -149 -19 -198 -32 -203
-13 -5 -13 -7 1 -15 20 -11 21 -38 2 -38 -8 0 -16 -5 -18 -11 -2 -7 -16 -13
-31 -15 -24 -2 -27 0 -27 29 1 32 29 77 49 77 6 0 8 7 4 16 -4 11 -13 14 -29
10 -29 -8 -34 17 -6 33 9 6 11 11 5 11 -19 0 -17 76 2 84 8 3 15 11 15 17 0 8
-4 8 -15 -1 -13 -11 -15 -8 -15 14 0 20 5 25 19 23 11 -1 19 3 18 8 -1 6 -5 9
-9 8 -11 -4 -25 51 -18 72 4 11 4 30 -1 42 -5 15 -4 23 6 27 12 4 30 -20 27
-36 -3 -14 15 -9 28 7 11 13 10 20 -1 41 -9 17 -10 27 -2 32 6 4 7 16 3 27 -6
16 -8 12 -14 -19 -7 -34 -9 -37 -22 -24 -19 19 -25 98 -7 98 7 0 13 -7 13 -15
0 -19 36 -20 43 0 3 7 -2 22 -11 32 -9 11 -14 14 -10 8 12 -19 -1 -24 -27 -11
-29 13 -33 50 -7 65 22 13 21 13 38 -3z m3192 -229 c1 -122 -2 -228 -6 -234
-12 -19 -138 -27 -220 -14 -44 7 -80 8 -90 2 -9 -5 -98 -11 -198 -15 -152 -5
-184 -3 -202 10 -12 8 -22 23 -22 32 0 10 3 13 8 7 4 -6 33 -11 64 -11 51 -1
56 1 55 20 0 12 -6 24 -12 28 -5 4 0 8 12 8 16 0 21 -5 18 -19 -3 -17 1 -19
29 -14 21 3 38 0 47 -9 26 -25 79 -21 105 7 13 15 29 23 35 20 6 -4 5 1 -2 13
-17 27 -5 52 26 52 14 0 28 7 31 15 11 28 76 9 137 -42 35 -28 64 -30 72 -2 6
16 9 18 22 8 8 -7 12 -21 9 -31 -3 -15 0 -18 17 -16 17 2 21 10 22 38 0 29 -3
34 -18 32 -16 -3 -18 1 -12 30 4 18 13 36 19 41 8 5 7 10 -4 17 -12 8 -9 10
12 10 25 0 27 2 19 24 -7 16 -5 32 4 50 12 22 12 31 -1 62 -15 36 -11 74 8 74
5 0 8 7 4 15 -3 8 -2 15 3 15 5 0 9 -100 9 -223z m3242 169 c0 -17 41 -54 65
-58 15 -2 22 5 31 32 14 42 30 49 39 18 16 -51 37 -59 132 -52 49 3 92 10 98
15 13 13 49 11 63 -3 10 -10 17 -10 34 1 16 10 22 10 28 1 10 -16 71 -3 87 19
7 9 13 11 13 4 0 -7 26 -14 65 -18 56 -6 64 -10 53 -22 -29 -35 -58 -39 -218
-31 -85 5 -222 8 -305 8 -82 -1 -159 -1 -169 -1 -32 0 -40 21 -37 89 1 23 21
22 21 -2z m-1261 -52 c23 -9 41 -19 41 -23 0 -4 13 -6 28 -3 29 4 62 -21 44
-32 -6 -3 -1 -24 11 -48 32 -68 37 -71 58 -44 11 13 19 29 19 36 0 16 53 59
65 52 5 -4 20 -5 33 -3 15 1 22 -3 22 -13 0 -9 5 -16 10 -16 6 0 10 5 10 10 0
18 39 10 50 -10 13 -25 -1 -56 -30 -65 -24 -8 -40 1 -40 22 0 10 -6 13 -16 9
-9 -3 -20 -6 -25 -6 -18 0 -9 -15 21 -35 18 -12 30 -29 30 -42 0 -18 6 -23 25
-23 14 0 27 -6 29 -12 24 -91 25 -103 8 -116 -25 -19 -44 -11 -56 24 -13 37
-42 68 -56 59 -13 -8 -60 24 -60 41 0 8 -10 14 -25 14 -32 0 -32 -11 3 -41 26
-23 26 -24 6 -27 -21 -3 -21 -3 -3 -39 19 -37 17 -53 -5 -53 -9 0 -12 -9 -8
-25 5 -31 -16 -34 -40 -5 -20 23 -11 33 35 39 7 1 1 12 -14 24 -33 30 -46 71
-19 64 10 -2 24 0 31 5 11 8 10 8 -4 4 -11 -3 -20 0 -23 9 -4 8 -15 15 -26 15
-10 0 -17 -4 -14 -9 8 -12 -21 -34 -34 -26 -5 3 -10 1 -10 -4 0 -6 5 -11 10
-11 6 0 0 -11 -14 -25 -14 -14 -29 -25 -34 -25 -11 0 -32 68 -26 83 2 7 -8 13
-26 14 -21 2 -30 -2 -30 -12 0 -17 -9 -19 -30 -5 -9 6 -17 5 -22 -3 -5 -8 -15
-4 -33 13 -18 17 -22 26 -13 31 7 5 17 4 22 -1 15 -15 26 -12 26 5 0 9 9 15
25 15 18 0 23 4 19 15 -10 25 14 17 43 -15 26 -30 60 -37 75 -15 11 16 -13 24
-41 13 -14 -5 -22 -6 -18 -2 4 4 3 12 -2 18 -5 6 -11 28 -15 49 -6 29 -4 39 9
44 26 9 -4 24 -34 16 -16 -4 -22 -2 -17 5 9 16 -11 62 -28 62 -17 0 -30 16
-22 28 9 14 65 12 105 -4z m2301 -34 c12 0 31 5 42 11 17 9 20 9 15 -4 -5 -13
28 -56 39 -50 2 2 16 0 31 -3 26 -5 93 -79 93 -102 0 -12 -58 -24 -72 -16 -6
4 -6 10 1 17 17 17 13 24 -20 31 -17 3 -28 10 -24 16 3 5 -2 10 -12 10 -10 0
-27 6 -38 14 -11 7 -24 14 -28 14 -10 0 -66 21 -88 32 -10 5 -21 4 -27 -2 -11
-11 -42 -4 -42 10 0 5 12 15 28 23 15 8 31 20 36 28 7 12 12 11 27 -7 9 -12
27 -22 39 -22z m-5290 -70 c18 -16 42 -30 52 -30 10 0 18 -5 18 -11 0 -8 4 -9
13 0 15 12 27 5 27 -15 0 -8 -6 -11 -15 -8 -9 4 -15 0 -15 -10 0 -9 -8 -16
-19 -16 -12 0 -18 7 -17 17 2 28 -28 26 -41 -2 -9 -21 -9 -27 3 -32 8 -3 20
-3 27 0 9 3 12 -7 12 -41 -1 -26 -7 -48 -14 -50 -8 -3 -6 -8 6 -17 23 -17 11
-30 -15 -16 -12 6 -29 11 -40 11 -24 0 -36 24 -33 68 2 27 -2 35 -19 39 -16 4
-20 11 -16 27 3 13 -2 29 -16 43 -25 27 -18 30 17 7 13 -9 30 -14 37 -11 8 4
5 8 -9 12 -25 8 -32 35 -9 35 8 0 16 7 20 15 7 20 7 20 46 -15z m1243 -21 c12
-7 34 -22 50 -35 15 -13 34 -21 42 -18 8 4 15 1 15 -5 0 -6 7 -11 16 -11 12 0
15 7 12 25 -6 30 5 39 37 31 23 -6 23 -7 8 -38 -9 -18 -22 -41 -30 -50 -20
-23 -1 -57 36 -64 27 -6 28 -8 18 -39 -9 -31 -13 -34 -48 -32 -33 1 -39 5 -44
29 -7 30 -12 33 -34 19 -10 -6 -12 -19 -7 -45 7 -34 -5 -49 -19 -26 -9 14 -35
12 -35 -2 0 -15 97 -65 106 -55 4 4 1 13 -6 22 -7 9 -10 19 -6 22 4 4 11 1 16
-7 7 -12 12 -11 29 4 12 11 39 19 73 21 29 2 56 4 61 4 4 1 7 7 7 15 0 7 9 16
19 19 12 3 19 12 17 23 -2 11 -1 13 1 6 4 -10 15 -12 39 -8 19 4 43 2 55 -5
22 -11 22 -31 5 -114 -3 -11 -5 -26 -5 -32 -1 -18 -28 -16 -35 2 -7 18 -33 20
-39 3 -6 -18 31 -68 50 -68 8 0 26 9 40 20 l25 20 19 -25 c11 -13 29 -27 41
-31 19 -6 20 -7 4 -16 -12 -7 -22 -6 -32 3 -11 9 -18 9 -26 1 -7 -7 -19 -12
-28 -12 -8 0 -22 -9 -30 -20 -12 -16 -21 -19 -48 -14 -32 6 -34 5 -27 -16 5
-16 4 -21 -6 -18 -8 3 -15 10 -15 16 -1 7 -2 15 -3 19 0 3 -12 -4 -25 -17 -14
-12 -32 -20 -40 -17 -10 4 -18 -4 -25 -25 -11 -30 -11 -30 -28 -10 -44 52
-108 31 -106 -33 1 -29 -3 -39 -18 -42 -10 -3 -19 -11 -19 -17 0 -8 -11 -11
-32 -8 -32 4 -32 4 -12 -12 12 -8 40 -18 62 -22 32 -5 44 -2 60 14 11 11 24
17 28 14 4 -4 4 8 1 26 -4 17 -2 32 2 32 5 0 17 3 26 6 12 5 16 2 13 -9 -2 -9
0 -16 5 -16 24 -3 29 1 24 19 -4 14 0 20 12 20 10 0 20 3 24 6 3 4 36 8 73 10
36 3 71 7 76 10 5 3 14 1 21 -4 7 -6 25 -12 41 -14 23 -2 31 3 46 30 22 41 27
34 29 -50 2 -69 -10 -108 -33 -108 -8 0 -16 -7 -20 -15 -4 -12 -21 -14 -98 -8
-51 3 -203 6 -338 5 l-245 0 -7 26 c-5 18 -3 30 6 37 19 14 19 23 1 42 -28 28
-16 158 15 166 11 3 17 12 16 23 -2 11 5 25 15 32 26 18 24 29 -8 44 -20 9
-28 21 -28 38 0 14 5 25 12 25 6 0 15 3 19 8 4 4 2 7 -5 7 -7 0 -9 5 -6 10 4
6 10 8 15 5 4 -3 18 7 29 22 18 24 22 26 32 13 8 -12 9 -10 4 10 -17 61 -17
80 -3 85 10 4 13 15 10 30 -5 26 -32 57 -32 36 0 -6 -10 -15 -23 -20 -15 -6
-28 -24 -37 -53 -15 -47 -37 -79 -27 -40 3 13 2 36 -3 52 -7 26 -4 36 27 72
43 52 109 71 156 47z m4427 -51 c0 -10 7 -18 15 -18 18 0 18 -5 5 -31 -7 -12
-21 -19 -40 -19 -17 0 -30 -3 -30 -6 0 -7 28 -35 35 -34 19 1 25 -1 25 -10 0
-5 -7 -10 -15 -10 -9 0 -14 -8 -12 -21 3 -29 -34 -34 -65 -9 -23 19 -23 19 -1
20 12 0 23 -5 25 -12 5 -13 28 -2 28 13 0 11 -60 69 -72 69 -4 0 -7 -10 -5
-22 1 -14 -4 -23 -15 -26 -13 -3 -18 3 -18 21 0 14 -7 28 -16 31 -14 5 -13 9
3 36 20 35 24 36 47 11 19 -21 61 -25 75 -7 11 12 10 34 -2 52 -3 6 -3 14 0
18 10 10 33 -23 33 -46z m-590 30 c0 -5 9 -8 20 -8 11 0 20 -5 20 -10 0 -6 15
-20 34 -31 23 -13 37 -31 41 -51 5 -21 10 -27 17 -20 13 13 61 -15 52 -29 -3
-5 2 -9 10 -9 8 0 23 -10 33 -23 10 -12 33 -33 52 -47 l34 -24 -6 25 c-4 13
-7 36 -7 52 0 17 -5 27 -15 27 -8 0 -15 6 -15 13 0 8 11 12 30 11 24 -2 30 2
30 17 0 26 6 24 42 -12 17 -17 42 -35 55 -40 12 -5 23 -13 23 -19 0 -14 -13
-13 -46 4 -15 8 -31 13 -36 10 -12 -7 20 -64 36 -64 7 0 19 -7 26 -15 20 -25
-1 -38 -41 -27 -21 5 -45 5 -61 0 -21 -7 -34 -5 -55 9 -16 10 -37 23 -48 29
-11 6 -21 21 -23 33 -5 30 -44 28 -59 -4 -9 -20 -8 -28 1 -38 7 -6 15 -20 19
-29 7 -20 71 -50 91 -42 19 7 30 -14 17 -30 -8 -10 -6 -12 12 -10 12 1 25 3
30 3 4 1 7 7 7 14 0 6 4 18 9 26 8 12 12 13 26 1 20 -17 183 -40 235 -33 29 4
40 10 40 23 0 11 10 20 25 22 31 6 33 3 28 -44 -4 -26 -9 -35 -19 -31 -8 3
-21 0 -29 -7 -8 -6 -20 -8 -27 -4 -7 4 -94 7 -195 5 -177 -2 -221 2 -192 20 7
4 10 11 6 15 -4 4 -14 -2 -23 -14 -18 -26 -42 -29 -51 -7 -5 14 -8 14 -22 2
-9 -8 -42 -14 -78 -15 -78 -1 -114 23 -116 78 -2 29 2 36 21 38 18 3 23 -2 28
-27 8 -40 34 -41 34 -2 0 41 -9 61 -26 54 -9 -3 -14 1 -14 13 0 16 -1 16 -14
-2 -21 -28 -29 -12 -32 59 -1 34 0 52 3 40 2 -13 8 -23 13 -23 5 0 7 -7 4 -15
-5 -11 1 -15 22 -15 16 0 38 -7 48 -15 23 -17 56 -20 56 -5 0 6 -4 10 -9 10
-9 0 -18 19 -22 45 -3 16 -60 47 -75 41 -8 -3 -23 3 -34 14 -16 16 -21 54 -11
97 2 7 71 -3 71 -9z m-2881 -134 c5 -30 21 -44 52 -44 21 0 32 -7 43 -29 14
-27 14 -29 -5 -34 -12 -3 -31 4 -49 20 -17 14 -30 22 -30 19 0 -4 -16 0 -35 8
-19 8 -35 13 -35 11 0 -16 15 -35 29 -35 9 0 27 -12 40 -25 21 -22 31 -25 85
-23 33 2 77 -1 97 -5 30 -6 40 -3 63 18 33 30 42 31 56 5 11 -21 34 -18 27 3
-2 7 3 17 12 23 13 10 19 7 33 -17 23 -37 23 -56 1 -63 -10 -3 -163 -8 -339
-10 -177 -3 -338 -8 -358 -11 l-36 -7 0 49 c0 33 4 50 13 50 6 0 17 2 22 3 25
6 35 -2 35 -30 0 -27 3 -30 31 -30 28 0 31 3 27 25 -3 14 -2 25 2 25 4 0 13
-11 20 -25 7 -14 22 -25 32 -25 15 0 12 7 -16 35 -39 39 -39 39 0 25 23 -9 25
-9 15 4 -8 10 -9 16 -1 21 17 11 30 -5 30 -36 0 -16 1 -29 3 -29 32 -5 128 -8
117 -3 -35 15 -100 78 -100 97 0 28 39 58 66 52 14 -4 24 -2 24 5 0 18 25 4
29 -17z m517 -58 c-3 -10 2 -29 11 -43 12 -18 13 -27 4 -36 -18 -18 -13 -27
13 -27 26 0 47 -21 28 -28 -17 -5 -15 -52 2 -58 9 -3 13 -15 10 -28 -3 -16 4
-26 25 -39 33 -19 43 -14 35 19 -4 14 -2 24 4 24 18 0 41 -30 36 -45 -4 -9 3
-16 20 -21 39 -9 50 5 22 27 -20 15 -26 32 -31 84 -5 40 -3 70 3 78 5 6 12 23
14 37 2 14 14 30 28 37 21 11 28 9 48 -10 13 -12 25 -21 28 -19 10 6 24 1 24
-8 0 -5 -7 -10 -15 -10 -8 0 -15 -7 -15 -15 0 -8 -5 -15 -10 -15 -6 0 -8 11
-4 25 8 30 0 31 -34 4 -29 -22 -41 -89 -16 -89 14 0 104 -87 104 -101 0 -5 14
-16 31 -24 23 -13 34 -14 44 -5 11 9 23 9 48 1 37 -13 108 -3 114 16 2 6 -14
19 -36 29 -22 11 -42 27 -44 36 -4 14 -1 16 12 8 25 -13 54 -6 57 13 1 9 9 31
18 48 9 18 16 45 16 61 0 19 5 28 17 28 28 0 53 -31 53 -67 0 -28 -3 -33 -17
-29 -15 5 -18 -1 -21 -31 -1 -20 -10 -41 -20 -49 -22 -16 -12 -26 28 -28 34
-2 50 -19 50 -54 0 -22 -3 -22 -97 -22 -54 1 -107 0 -118 -1 -11 0 -33 0 -50
1 -32 3 -267 -7 -397 -15 l-78 -5 0 53 c0 39 5 59 20 75 22 23 25 43 11 70
-18 36 -27 98 -17 117 8 13 8 19 -1 22 -21 8 -3 31 23 29 19 -1 24 -5 20 -20z
m1184 -71 c13 -14 30 -25 38 -25 8 0 12 -6 8 -15 -3 -9 0 -15 8 -15 20 0 7 48
-15 55 -24 8 -25 25 -1 25 19 0 47 -19 89 -57 13 -13 30 -23 38 -23 8 0 15 -6
15 -14 0 -10 13 -16 36 -18 32 -3 37 -7 40 -32 2 -16 8 -34 13 -39 13 -13 14
-64 2 -71 -5 -3 -18 10 -30 29 -22 38 -35 43 -49 20 -6 -12 -18 -14 -50 -9
-23 4 -42 11 -42 16 0 6 -9 8 -20 5 -13 -3 -28 6 -49 30 -22 26 -36 34 -51 30
-21 -5 -28 7 -10 18 7 4 5 14 -5 28 -21 30 -20 58 3 50 15 -6 15 -4 -2 15 -28
32 4 29 34 -3z m-98 -17 c18 -8 28 -21 28 -36 0 -21 -3 -22 -35 -16 -28 5 -35
3 -35 -10 0 -18 -25 -22 -35 -6 -3 6 -10 10 -16 10 -13 0 -12 -37 2 -42 12 -4
1 -38 -13 -38 -5 0 -12 9 -15 20 -5 18 -22 25 -47 21 -5 -1 -12 2 -15 6 -3 4
-15 13 -26 19 -12 7 -19 20 -17 33 2 11 -2 21 -7 21 -6 0 -11 4 -11 9 0 14 37
20 50 7 8 -8 13 -7 20 4 8 13 11 13 19 1 5 -8 19 -12 35 -9 15 3 29 1 32 -4 3
-5 13 0 21 12 8 12 20 19 27 16 6 -2 23 -10 38 -18z m-4376 -35 c6 -28 3 -32
-28 -42 -22 -7 -44 -8 -65 -2 -18 5 -35 6 -37 2 -9 -15 -329 2 -356 19 -13 8
-13 12 1 26 15 15 19 15 49 -1 32 -17 77 -24 182 -29 70 -4 88 5 70 34 -10 17
-10 20 5 20 9 0 24 -6 32 -14 21 -18 81 -29 81 -15 0 7 11 9 25 7 22 -5 24 -3
19 21 -5 19 -4 23 5 16 6 -6 13 -25 17 -42z m797 -132 c2 -78 0 -147 -4 -152
-4 -7 -36 -9 -90 -5 -46 3 -176 5 -289 6 -218 0 -321 7 -299 21 7 4 17 5 23 2
5 -4 6 -1 2 6 -5 8 0 14 13 18 12 3 21 12 21 19 0 24 30 28 53 7 31 -29 66
-45 82 -39 8 3 28 1 44 -5 23 -8 35 -7 55 6 14 10 26 25 26 34 1 11 8 7 28
-15 25 -28 30 -30 62 -22 19 6 40 14 46 19 6 5 25 6 43 3 37 -8 39 1 9 27 -25
20 -58 25 -58 9 0 -17 -36 -11 -55 10 -10 11 -22 17 -26 14 -5 -3 -9 1 -9 9 0
21 90 12 140 -14 22 -12 44 -17 51 -14 6 4 14 3 18 -3 9 -14 53 -3 48 12 -3 6
-10 10 -16 9 -23 -6 -10 14 17 23 l27 10 -32 17 c-31 16 -32 16 -35 -6 -2 -12
-10 -22 -18 -22 -8 0 -17 -6 -20 -13 -6 -13 -11 -10 -80 46 -15 12 -34 22 -41
22 -8 0 -1 7 15 15 15 8 32 12 38 9 5 -3 30 -8 56 -10 45 -5 45 -4 28 15 -27
30 -11 44 40 36 43 -6 45 -5 56 25 19 56 28 17 31 -129z m-1319 30 c17 -19 14
-47 -4 -36 -5 3 -11 1 -15 -5 -4 -6 -11 -8 -16 -5 -5 4 -9 1 -9 -5 0 -6 -4 -9
-9 -6 -5 3 -12 -1 -15 -10 -11 -29 -6 -44 14 -44 10 0 23 -7 28 -17 9 -15 12
-14 40 5 28 20 62 21 62 2 0 -5 20 -16 44 -25 49 -19 64 -41 43 -62 -12 -12
-16 -12 -30 2 -9 9 -21 23 -25 32 -5 9 -15 13 -21 9 -6 -4 -8 -12 -5 -18 5 -8
1 -9 -12 -3 -10 5 -37 9 -59 9 -31 1 -40 5 -40 19 0 26 -21 34 -74 29 -50 -4
-88 16 -77 44 6 17 -20 38 -39 30 -9 -3 -15 0 -15 9 0 10 11 15 35 15 22 0 38
6 41 15 4 8 11 15 18 15 16 0 37 -37 30 -55 -3 -8 -1 -15 5 -15 6 0 11 8 11
18 0 9 10 22 21 27 12 6 21 14 20 19 -3 8 17 26 30 26 3 0 14 -9 23 -19z
m8083 -52 c8 -8 8 -20 3 -35 -10 -25 -6 -28 36 -25 12 1 24 -5 28 -15 8 -20
-1 -54 -15 -54 -18 0 -2 -42 22 -58 14 -9 38 -29 53 -43 23 -22 25 -27 12 -38
-13 -11 -13 -17 0 -46 7 -18 15 -47 16 -64 2 -28 6 -33 24 -30 14 2 24 -28 24
-73 0 -41 -3 -48 -20 -48 -11 0 -20 7 -20 16 0 8 4 12 10 9 6 -4 7 1 3 11 -4
11 -8 13 -11 6 -5 -16 -33 -16 -29 1 3 17 -41 11 -60 -9 -10 -10 -25 -13 -39
-10 -20 5 -24 3 -24 -17 0 -12 7 -33 16 -45 15 -22 17 -22 35 -6 10 9 16 21
12 27 -3 6 -1 7 5 3 7 -4 12 -13 12 -19 0 -18 35 -36 58 -30 11 2 23 0 26 -6
5 -7 -4 -11 -24 -11 -17 0 -40 -5 -50 -10 -14 -7 -31 -6 -61 4 -30 10 -69 13
-133 10 -177 -9 -196 -8 -211 12 -8 11 -14 37 -13 59 1 22 -2 77 -6 123 -6 59
-5 82 3 82 6 0 16 -11 21 -25 5 -14 14 -25 20 -25 15 0 12 -14 -8 -36 -15 -16
-16 -22 -6 -32 7 -7 18 -12 25 -12 7 0 9 -9 6 -23 -7 -26 6 -52 22 -43 6 4 15
-3 20 -17 17 -44 120 -47 122 -3 1 18 2 18 6 3 4 -15 11 -17 31 -12 36 9 39
13 17 29 -18 13 -18 14 3 41 15 19 20 35 16 51 -4 13 -1 30 5 38 18 21 -12 42
-32 22 -15 -16 -37 -4 -37 21 0 7 -20 21 -44 32 -39 18 -44 24 -49 63 -5 35
-2 45 18 64 23 21 24 21 40 4 12 -13 13 -20 5 -25 -20 -13 8 -30 49 -30 35 0
37 2 36 28 -2 25 1 28 23 22 13 -3 22 -2 20 2 -2 4 -12 25 -21 45 -9 20 -21
40 -27 43 -6 4 -8 11 -4 16 4 6 11 6 20 -2 26 -21 28 0 5 41 -27 48 -16 81 16
49z m-2717 -39 c9 -5 19 -5 27 1 7 6 26 8 43 4 29 -6 30 -8 15 -25 -12 -14
-23 -16 -50 -10 -30 7 -34 5 -38 -19 -8 -40 25 -71 35 -33 4 15 16 19 62 21
44 1 56 -2 56 -13 0 -10 6 -13 15 -10 8 4 21 1 29 -5 7 -6 16 -8 20 -4 4 4 11
1 15 -6 6 -10 13 -10 28 -3 14 8 23 8 30 1 7 -7 17 -7 32 3 17 10 25 10 41 0
30 -18 56 -15 72 10 13 20 18 21 32 9 14 -12 20 -9 46 19 25 27 33 30 45 20
19 -16 19 -30 0 -30 -28 0 -15 -27 16 -34 70 -14 129 -5 129 20 0 8 4 14 9 14
14 0 22 -29 15 -56 -6 -23 -7 -24 -130 -21 -90 2 -124 -1 -124 -10 0 -6 6 -13
13 -16 6 -2 8 -8 4 -13 -5 -5 -17 3 -29 19 -22 30 -56 35 -118 17 -18 -5 -36
-6 -39 -2 -8 10 -67 9 -78 -1 -18 -18 27 -34 84 -30 45 4 60 1 70 -12 10 -14
8 -21 -13 -42 -30 -30 -30 -30 2 -59 23 -22 24 -27 13 -58 -12 -33 -34 -42
-64 -24 -6 3 -22 8 -37 12 -31 7 -37 -4 -13 -24 8 -7 15 -22 15 -34 0 -12 6
-28 13 -35 10 -10 8 -15 -6 -26 -24 -17 -18 -50 8 -50 15 0 19 6 18 23 -2 12
2 22 7 22 6 0 10 17 10 39 0 38 0 38 38 36 48 -3 50 -4 32 -15 -10 -6 -11 -10
-2 -10 6 0 12 -4 12 -10 0 -5 -7 -10 -15 -10 -8 0 -15 -4 -15 -10 0 -5 9 -10
20 -10 15 0 20 7 20 25 0 35 17 31 41 -10 12 -19 24 -35 28 -35 9 0 32 -80 26
-91 -4 -5 8 -22 26 -39 18 -16 36 -26 39 -21 3 5 14 11 25 14 15 3 12 5 -9 6
-49 2 -88 53 -52 67 7 3 31 -2 51 -11 21 -8 46 -13 56 -10 10 3 27 0 38 -7 19
-11 19 -14 4 -30 -9 -10 -11 -18 -5 -18 6 0 18 -3 28 -7 12 -4 15 -3 10 5 -9
14 2 54 13 48 4 -3 6 -24 4 -48 -2 -23 -1 -50 3 -58 5 -13 6 -13 14 1 12 20
96 53 116 45 22 -9 9 -23 -29 -31 -52 -12 -65 -48 -20 -60 19 -4 23 -9 14 -14
-10 -7 -10 -13 -2 -29 15 -27 14 -32 -4 -32 -19 0 -19 -14 1 -57 16 -33 16
-35 -5 -56 -20 -20 -23 -21 -34 -6 -8 10 -12 53 -12 113 0 96 -7 114 -34 82
-9 -10 -9 -20 0 -39 10 -21 9 -31 -5 -51 -35 -54 -42 -55 -343 -62 -180 -4
-293 -2 -315 4 -18 6 -46 13 -62 17 -25 5 -28 9 -23 38 2 18 1 75 -4 128 -6
58 -5 106 0 120 9 23 9 23 16 4 13 -42 31 -70 45 -70 8 0 17 11 20 25 5 19 0
30 -17 43 -27 22 -30 47 -5 47 36 0 60 -13 67 -33 6 -18 8 -19 12 -6 2 10 12
19 23 22 13 3 17 1 13 -9 -3 -8 1 -14 10 -14 8 0 21 -10 29 -22 13 -19 15 -20
21 -5 4 11 1 17 -8 17 -8 0 -15 5 -15 10 0 6 10 10 22 10 21 0 21 1 4 13 -12
9 -20 30 -22 60 -4 45 -3 47 21 47 14 0 25 6 25 13 0 21 -39 57 -60 57 -11 0
-20 4 -20 9 0 5 -10 8 -23 6 -16 -3 -25 2 -32 18 -6 12 -23 28 -40 36 -16 8
-31 18 -33 23 -6 13 -32 9 -33 -4 -1 -7 -2 -24 -2 -37 -3 -38 -25 -37 -32 3
-11 58 2 69 89 71 55 1 76 -2 76 -11 0 -7 12 -22 28 -34 23 -19 27 -20 30 -6
2 9 11 15 20 14 11 -2 17 4 17 17 0 14 8 21 28 23 40 5 28 27 -16 29 -40 2
-77 18 -77 33 0 6 7 10 16 10 9 0 14 6 11 13 -3 8 -32 12 -98 13 -52 1 -99 2
-105 3 -7 0 -18 22 -25 47 -11 36 -21 50 -44 61 l-30 14 33 -6 c29 -6 32 -4
32 19 0 28 6 31 30 16z m874 -37 c4 -10 1 -20 -7 -24 -33 -19 -57 -46 -63 -71
-5 -23 -2 -28 20 -34 31 -7 34 -20 5 -27 -19 -5 -19 -6 -3 -25 9 -11 23 -18
30 -15 8 3 14 0 14 -5 0 -6 -10 -12 -22 -14 -13 -2 -23 -10 -23 -18 0 -8 -4
-18 -9 -22 -6 -4 -5 -13 3 -22 7 -8 10 -24 6 -36 -4 -11 -2 -20 4 -20 6 0 11
7 11 15 0 8 6 15 14 15 26 0 26 -16 1 -40 -22 -20 -34 -50 -21 -50 2 0 11 -3
20 -6 12 -4 16 0 16 15 0 39 44 22 55 -22 7 -28 3 -31 -42 -28 -27 3 -37 -13
-29 -45 6 -23 8 -24 23 -8 14 14 18 14 27 2 6 -8 23 -18 39 -22 15 -3 27 -11
27 -17 0 -6 13 -7 35 -3 28 5 35 3 35 -10 0 -14 -16 -16 -115 -16 l-115 0 0
26 c0 14 -4 33 -9 42 -14 25 -27 474 -15 494 3 4 22 8 44 8 26 0 40 -5 44 -17z
m-5880 -30 c16 -2 39 -11 50 -21 10 -9 16 -12 13 -6 -9 15 63 25 81 11 14 -11
17 -107 3 -107 -11 0 -21 -51 -13 -65 3 -5 7 -29 9 -53 l2 -44 -36 5 c-20 4
-40 12 -45 19 -11 19 -10 0 2 -23 18 -32 -7 -22 -34 14 -40 53 -33 90 19 103
17 4 42 20 57 36 23 25 24 28 7 28 -11 0 -24 11 -31 25 -13 28 -19 30 -36 13
-9 -9 -19 -5 -44 19 -18 17 -39 28 -45 26 -8 -3 -13 4 -13 17 0 14 4 19 12 14
7 -4 26 -9 42 -11z m6366 -8 c15 -18 6 -45 -15 -45 -11 0 -15 -12 -15 -48 0
-26 5 -53 12 -60 9 -9 9 -17 1 -34 -24 -49 -22 -81 8 -124 28 -41 28 -43 9
-49 -11 -3 -24 -4 -29 -1 -5 3 -11 -1 -15 -9 -3 -9 0 -15 9 -15 8 0 19 -9 25
-20 6 -11 15 -18 21 -14 6 3 7 -4 4 -19 -6 -21 -2 -26 22 -35 22 -7 36 -6 54
4 23 13 23 15 -3 18 -17 1 -22 34 -8 51 6 8 9 19 5 25 -11 17 17 11 31 -7 13
-17 15 -17 29 1 8 10 16 24 18 30 3 8 8 8 17 -1 9 -8 11 -29 6 -75 -8 -68 -30
-113 -45 -89 -6 10 -10 10 -16 1 -10 -17 -195 -10 -195 8 0 6 -9 12 -19 12
-11 0 -22 6 -24 13 -4 9 -7 9 -15 -1 -5 -7 -16 -10 -25 -7 -9 4 -24 -2 -36
-14 -35 -35 -121 -25 -121 15 0 16 50 25 56 9 8 -19 56 -5 82 23 l24 25 -21
21 c-18 18 -21 18 -21 3 0 -25 -27 -21 -58 8 -28 26 -42 31 -42 15 0 -16 -64
1 -80 21 -8 10 -28 23 -44 29 -23 8 -26 13 -17 24 10 11 5 22 -24 51 -30 30
-34 39 -24 51 10 13 17 9 45 -22 26 -28 39 -35 56 -30 13 3 29 6 36 6 6 0 12
5 12 10 0 6 -7 10 -15 10 -8 0 -15 5 -15 10 0 14 7 13 35 -6 14 -9 25 -12 25
-6 0 6 -5 14 -11 17 -17 11 19 44 42 38 13 -4 19 0 19 12 0 9 7 23 15 31 13
14 17 14 31 0 21 -22 34 -20 34 4 0 10 9 24 20 30 11 6 18 15 15 21 -4 6 -13
5 -25 -1 -25 -14 -46 -13 -62 3 -7 7 -21 16 -31 20 -19 7 -33 34 -23 44 3 3
12 0 20 -6 8 -7 24 -10 35 -6 12 3 37 0 57 -7 31 -11 37 -11 45 3 5 10 17 15
32 12 14 -3 29 3 41 16 23 25 30 26 46 6z m-5775 -57 c11 -2 26 -7 32 -11 6
-4 13 -1 16 5 3 10 10 10 32 -2 16 -8 38 -15 49 -15 33 0 30 -19 -4 -28 -20
-5 -28 -12 -23 -20 4 -7 0 -6 -10 2 -10 8 -20 11 -23 9 -3 -3 7 -15 22 -27 15
-12 24 -27 21 -35 -4 -10 -1 -13 9 -9 7 3 14 15 14 28 0 27 15 40 57 48 20 4
35 1 42 -7 9 -11 2 -16 -34 -26 -25 -7 -45 -17 -45 -21 0 -23 -31 -63 -40 -51
-8 11 -90 54 -90 48 0 -10 24 -49 53 -89 29 -38 47 -41 47 -7 0 16 8 20 63 35
4 2 14 3 22 4 23 2 18 21 -5 21 -25 0 -26 16 -2 29 9 5 16 13 14 18 -1 4 9 9
22 10 14 1 34 11 45 22 25 25 35 26 55 5 18 -18 18 -15 21 -72 2 -28 -1 -45
-9 -48 -7 -3 -12 -18 -11 -34 2 -33 -13 -63 -22 -42 -2 6 -9 12 -14 12 -6 0
-7 -5 -3 -12 5 -8 -2 -9 -23 -5 -17 3 -35 1 -42 -6 -8 -8 -11 -7 -11 6 0 21
-23 22 -55 1 -17 -11 -28 -12 -42 -5 -10 5 -31 14 -48 19 -16 6 -38 13 -47 17
-13 5 -18 2 -18 -9 0 -10 -6 -13 -15 -9 -9 3 -14 10 -12 17 2 6 -7 19 -19 29
-19 15 -22 25 -19 66 3 44 1 49 -22 60 -24 11 -25 10 -19 -11 18 -67 19 -65
-13 -79 -26 -12 -28 -16 -17 -29 7 -8 16 -25 19 -38 4 -19 2 -22 -14 -17 -12
4 -21 1 -25 -9 -3 -9 -11 -16 -18 -16 -6 0 -17 -9 -24 -20 -7 -11 -19 -20 -27
-20 -22 0 -18 -15 10 -36 28 -21 34 -54 10 -54 -9 0 -26 -6 -38 -14 -33 -20
-75 -28 -83 -15 -4 7 0 17 8 23 8 6 13 17 10 24 -2 7 1 19 8 27 9 10 7 16 -6
23 -19 10 -11 32 12 32 10 0 14 13 14 45 0 39 4 47 24 55 21 7 65 72 48 68 -4
-1 -20 4 -35 10 -16 7 -32 10 -36 7 -5 -2 -17 2 -27 10 -19 14 -19 14 1 15 17
0 17 2 5 10 -12 8 -9 10 12 10 15 0 32 8 37 18 6 9 11 11 11 5 0 -7 5 -13 11
-13 6 0 9 6 6 14 -4 9 3 16 16 20 19 5 20 8 7 16 -13 9 -13 11 0 20 14 8 137
7 185 -2z m1029 -85 c4 -9 1 -22 -5 -30 -16 -19 -5 -27 13 -9 10 10 19 11 25
5 6 -6 27 -11 48 -12 35 -3 40 -7 51 -41 10 -26 11 -44 4 -57 -6 -10 -9 -33
-8 -51 3 -37 9 -34 -114 -44 -71 -6 -78 -3 -53 23 9 8 13 23 11 32 -3 9 1 26
8 39 11 21 14 22 25 8 17 -20 42 -21 35 -1 -4 10 0 15 12 16 11 1 4 5 -13 10
-18 5 -48 13 -65 18 -18 5 -28 9 -22 10 19 2 24 40 6 50 -13 8 -14 12 -3 25 7
8 10 19 7 25 -3 5 3 7 13 4 11 -3 22 -12 25 -20z m5046 -43 c-21 -5 -21 -6 9
-37 l31 -33 6 26 c6 22 8 23 23 10 11 -10 21 -12 31 -6 8 5 18 6 24 3 5 -3 6
-1 2 5 -4 7 -1 12 9 12 10 0 15 -8 14 -22 -6 -67 2 -119 21 -138 11 -11 20
-24 20 -30 0 -15 39 -32 60 -25 15 5 20 2 20 -14 0 -24 20 -73 35 -83 6 -5 4
-8 -6 -8 -9 0 -22 -11 -29 -25 -7 -14 -16 -25 -20 -25 -4 0 -12 11 -18 25 -7
15 -8 25 -2 25 6 0 10 10 10 23 0 19 -9 24 -80 41 l-80 19 -33 -26 c-23 -17
-38 -23 -48 -16 -20 13 -29 11 -29 -6 0 -8 5 -15 10 -15 6 0 10 -7 10 -16 0
-11 -6 -14 -21 -9 -15 5 -20 3 -17 -6 3 -8 17 -15 32 -17 17 -2 31 -12 38 -27
6 -12 22 -26 37 -29 40 -9 50 -19 55 -59 5 -38 -2 -45 -22 -25 -9 9 -13 7 -18
-5 -3 -9 -12 -17 -20 -17 -8 0 -14 -4 -14 -9 0 -5 -10 -11 -22 -15 -19 -5 -20
-8 -8 -15 8 -6 11 -13 7 -17 -3 -4 -13 -1 -22 6 -13 10 -15 9 -15 -8 0 -21 26
-37 35 -22 9 15 43 12 52 -3 9 -16 53 -29 53 -17 0 5 -4 12 -10 15 -15 9 -12
25 4 19 7 -3 16 2 19 10 4 9 13 13 22 10 22 -9 18 -24 -6 -24 -14 0 -19 -5
-17 -17 3 -15 13 -18 66 -16 60 3 82 -9 42 -22 -25 -8 -280 -14 -298 -7 -9 3
-12 30 -11 101 1 53 -2 123 -6 156 -7 63 -16 230 -17 327 0 40 5 62 16 74 23
22 68 34 85 20 11 -9 10 -12 -9 -16z m-1185 -6 c23 -9 58 -82 51 -109 -5 -20
-2 -23 18 -21 14 2 38 -5 53 -15 41 -28 66 -25 61 6 -5 26 -3 26 45 -7 16 -12
27 -29 27 -43 0 -13 6 -25 13 -28 10 -3 10 -9 0 -26 -7 -11 -13 -28 -13 -36 0
-17 -16 -20 -25 -4 -5 7 -14 4 -28 -8 -18 -16 -20 -16 -14 -1 4 12 2 15 -9 11
-7 -3 -14 0 -14 6 0 6 5 11 10 11 6 0 10 9 10 20 0 11 -5 20 -11 20 -10 0 -49
28 -91 65 -23 19 -48 19 -48 0 0 -42 -52 11 -54 55 -1 19 -9 36 -20 42 -16 9
-18 8 -13 -5 3 -9 2 -19 -4 -22 -5 -4 -7 -11 -4 -16 4 -5 1 -9 -5 -9 -10 0 -8
29 4 61 5 10 -2 19 -19 27 -14 7 -23 17 -20 22 7 11 74 14 100 4z m-6936 -118
c9 -11 8 -23 -4 -52 -10 -23 -14 -60 -13 -99 2 -41 -2 -67 -11 -78 -16 -20
-61 -23 -62 -4 -3 32 4 73 13 78 6 4 8 17 5 29 -3 12 -1 30 5 40 8 12 8 22 0
35 -22 40 38 86 67 51z m2149 -27 c13 0 22 -5 22 -14 0 -8 -4 -15 -9 -15 -5 0
-13 -9 -16 -20 -3 -11 -13 -20 -21 -20 -8 0 -14 -6 -14 -12 0 -7 -11 -18 -24
-24 -20 -9 -30 -8 -54 6 -33 21 -61 21 -81 2 -9 -9 -17 -10 -23 -4 -16 16 -5
46 20 57 16 7 21 16 18 29 -4 16 0 18 27 13 18 -2 41 -1 52 4 11 5 34 6 50 3
17 -4 40 -6 53 -5z m-650 -11 c-3 -7 -19 -14 -36 -16 -26 -3 -32 -8 -32 -28 0
-15 7 -27 18 -30 9 -3 26 -10 37 -15 26 -13 80 5 69 23 -5 8 -2 9 10 5 10 -4
22 -7 27 -7 5 0 8 -11 7 -25 -3 -27 -8 -31 -25 -14 -7 7 -15 2 -26 -15 -20
-30 -80 -45 -110 -26 -15 9 -21 9 -27 0 -9 -15 -122 -9 -128 8 -2 7 5 12 18
12 30 0 60 18 60 35 0 8 5 15 10 15 6 0 10 6 10 14 0 7 10 16 22 19 12 4 19 9
15 13 -3 4 -2 15 4 25 11 22 84 28 77 7z m-790 -41 c6 -5 12 -12 12 -17 0 -13
-89 -40 -96 -29 -10 16 -25 -2 -19 -22 5 -14 1 -19 -12 -20 -17 -1 -17 -2 0
-6 26 -7 14 -28 -16 -28 -20 1 -27 -5 -31 -28 -3 -16 -1 -37 4 -47 7 -13 7
-21 0 -25 -5 -3 -10 2 -11 12 0 13 -3 12 -11 -7 l-10 -25 -15 23 c-18 26 -30
28 -53 7 -15 -14 -20 -13 -43 6 -17 13 -34 18 -47 14 -11 -4 -20 -2 -20 4 0 6
6 11 13 11 7 1 5 6 -5 14 -10 7 -18 21 -18 30 0 13 7 15 39 10 33 -5 42 -3 52
14 7 11 19 18 26 15 7 -3 13 0 13 6 0 6 16 11 35 11 47 0 44 16 -5 36 -42 17
-57 41 -17 29 12 -3 35 -8 50 -11 16 -2 32 -6 37 -9 4 -3 7 3 6 13 -1 13 7 17
32 17 17 0 32 2 32 5 0 8 64 6 78 -3z m8340 -180 c10 -8 16 -7 20 0 4 6 21 10
37 10 17 0 44 0 60 1 36 1 87 2 139 2 72 0 98 -62 95 -234 l-1 -61 -11 46 c-8
29 -17 44 -24 42 -16 -6 -17 -60 -2 -65 13 -4 20 -88 7 -88 -4 0 -8 5 -8 12 0
9 -3 9 -11 1 -13 -13 -3 -36 12 -28 5 4 9 -4 9 -17 0 -38 12 -68 23 -61 6 4 8
-2 5 -15 -4 -12 -2 -25 4 -28 5 -3 2 -14 -8 -25 -16 -18 -18 -18 -36 -2 -11
10 -26 32 -33 50 -16 37 -23 40 -51 17 -10 -8 -14 -13 -7 -10 15 8 72 -65 65
-83 -3 -10 2 -13 22 -9 20 4 26 1 26 -13 0 -11 6 -19 13 -19 8 0 13 -20 15
-64 3 -56 1 -65 -16 -70 -27 -9 -485 -11 -499 -3 -7 5 -11 45 -11 115 1 59 -4
177 -10 262 -14 198 -14 198 -2 205 7 4 6 13 0 26 -9 15 -7 21 5 25 14 6 13 9
-5 26 -12 11 -20 29 -18 41 3 19 11 23 63 27 68 7 114 2 133 -13z m-1222 -82
c-4 -17 -2 -26 6 -27 7 0 18 -2 23 -2 6 -1 16 -5 23 -9 6 -5 12 -4 12 0 0 5
13 14 29 20 25 9 30 8 34 -8 3 -11 14 -19 24 -19 22 0 23 -2 26 -90 1 -46 -2
-65 -10 -65 -7 0 -13 5 -14 10 0 6 -5 15 -9 20 -11 13 -118 11 -179 -3 -50
-11 -71 -7 -71 14 0 16 -26 19 -35 4 -3 -5 -16 -10 -29 -10 -12 0 -27 -5 -33
-11 -6 -6 -20 -8 -32 -4 -19 6 -26 21 -22 53 1 7 -9 12 -22 12 -19 0 -27 7
-32 28 -3 15 -13 34 -21 43 -25 28 36 11 69 -19 25 -24 30 -25 60 -14 43 15
47 15 47 -4 0 -12 6 -11 29 8 23 18 26 27 19 42 -15 28 3 38 42 25 30 -11 35
-10 48 9 19 29 26 28 18 -3z m834 -12 c0 -9 -8 -22 -17 -29 -10 -7 -19 -23
-20 -36 -1 -13 -4 -34 -5 -48 -2 -19 1 -24 14 -22 9 1 19 -2 23 -8 17 -27 70
8 60 40 -3 10 0 22 7 26 6 4 14 2 16 -4 2 -7 13 -10 28 -6 33 8 30 -4 -9 -40
-19 -17 -36 -38 -39 -46 -4 -12 -28 -16 -115 -18 -96 -2 -111 -1 -117 14 -7
19 18 48 53 59 19 6 22 12 17 36 -3 15 -1 31 4 34 6 3 10 -6 10 -20 0 -16 5
-25 12 -23 8 3 11 22 9 54 l-2 50 35 1 c26 1 36 -3 36 -14z m-1765 -215 c17
-1 75 0 130 3 l101 4 42 -33 c31 -25 42 -41 42 -62 0 -15 6 -43 13 -61 10 -26
13 -100 13 -295 -1 -241 -2 -264 -20 -283 -17 -19 -21 -19 -52 -6 -19 8 -34
12 -34 9 0 -2 0 -7 1 -11 0 -4 -8 -11 -18 -15 -17 -6 -17 -7 2 -13 30 -9 49
-43 35 -60 -8 -9 -8 -15 0 -20 5 -3 10 0 10 7 0 14 57 51 69 44 11 -7 12 -206
1 -268 -9 -46 -8 -62 4 -80 10 -16 15 -55 16 -128 0 -58 1 -112 2 -120 3 -37
-3 -58 -23 -79 -17 -18 -28 -22 -54 -17 -18 4 -182 7 -363 7 -291 0 -331 2
-336 16 -4 9 -6 68 -6 132 0 64 -2 206 -5 315 -4 193 1 236 26 236 20 0 79 32
79 43 0 6 -19 8 -50 4 -41 -5 -51 -3 -59 11 -9 19 -23 647 -15 679 12 46 135
57 449 41z m859 -20 c10 -11 24 -17 31 -14 8 3 19 -2 27 -11 12 -15 10 -16
-19 -10 -33 7 -42 -4 -25 -29 10 -16 68 -44 76 -37 3 4 6 1 6 -5 0 -7 -15 -12
-35 -12 -22 0 -38 -6 -41 -15 -9 -24 -41 -18 -73 14 -39 38 -48 24 -16 -24 14
-20 23 -40 20 -45 -7 -11 -55 8 -71 27 -7 8 -21 15 -32 18 -11 2 -30 8 -41 14
-11 6 -22 11 -26 11 -7 0 15 -43 26 -50 9 -6 -1 -60 -12 -60 -4 0 -14 8 -21
18 -18 24 -69 25 -75 1 -3 -10 -9 -16 -14 -13 -5 3 -9 0 -9 -5 0 -16 -36 -13
-50 4 -18 21 -4 36 25 25 28 -11 36 -3 24 25 -6 17 -8 17 -8 3 -1 -20 -21 -24
-39 -6 -8 8 -15 8 -26 -2 -13 -10 -17 -8 -26 14 -10 26 -33 35 -45 16 -10 -16
-28 -12 -22 5 4 8 2 17 -3 20 -12 7 -11 103 1 111 5 3 9 -7 9 -23 0 -15 5 -35
11 -43 8 -13 12 -12 26 8 9 13 26 22 43 22 14 0 30 3 34 8 4 4 35 7 69 7 34 0
69 3 77 6 8 3 12 4 8 2 -14 -8 -8 -21 12 -26 12 -3 20 -14 20 -26 0 -14 6 -21
19 -21 11 0 23 -4 26 -10 3 -5 10 -10 16 -10 5 0 9 5 9 10 0 6 -7 10 -15 10
-11 0 -14 7 -9 24 5 20 2 25 -18 28 -15 2 -24 11 -26 25 -3 19 3 22 53 28 30
4 57 11 60 15 8 12 48 -1 69 -22z m1356 -420 c0 3 5 1 12 -6 15 -15 32 -16 23
-2 -10 16 11 11 26 -6 12 -14 14 -14 24 0 10 13 46 18 105 15 8 0 25 3 38 6
17 6 21 4 17 -8 -4 -8 1 -17 9 -20 10 -4 16 -18 16 -37 0 -19 5 -30 14 -30 29
0 27 -21 -3 -31 -28 -10 -43 -29 -23 -29 4 0 7 -27 6 -59 -1 -53 2 -60 23 -70
17 -8 23 -19 23 -43 0 -18 2 -93 5 -165 3 -90 1 -133 -6 -133 -6 0 -9 -6 -6
-12 2 -7 0 -23 -4 -36 -6 -16 -4 -30 7 -48 l17 -25 -129 1 c-71 1 -167 -1
-214 -3 -47 -3 -93 -6 -103 -6 -10 -1 -16 -5 -13 -10 4 -5 -3 -7 -14 -4 -26 7
-29 19 -35 148 -3 61 -8 146 -11 190 -23 337 -27 406 -20 412 4 4 15 2 24 -3
18 -12 23 -40 11 -63 -4 -8 0 -25 8 -37 8 -12 15 -48 16 -79 2 -43 7 -61 22
-71 22 -17 35 -18 35 -4 0 6 8 10 18 8 21 -4 30 39 9 47 -8 4 -12 16 -9 35 3
19 -3 39 -16 57 -20 28 -20 29 -1 53 17 23 19 24 19 5 0 -26 18 -45 42 -45 9
0 21 -7 26 -16 7 -13 11 -14 17 -4 8 12 -10 32 -39 44 -7 3 -6 8 4 15 12 8 12
13 2 23 -9 9 -12 9 -12 0 0 -7 -7 -12 -16 -12 -13 0 -14 3 -5 14 9 11 7 15 -9
19 -11 3 -20 10 -20 15 0 15 30 20 63 11 15 -4 27 -5 27 -1z m278 -768 c26 0
30 -27 6 -37 -15 -5 -15 -7 0 -15 21 -12 18 -82 -5 -107 -17 -18 -16 -19 6
-31 13 -7 28 -9 34 -6 7 5 11 -4 11 -24 0 -25 -5 -33 -29 -41 -35 -12 -42 -27
-32 -66 5 -20 14 -29 33 -31 20 -2 25 -8 25 -30 0 -15 3 -36 8 -46 6 -14 5
-17 -3 -12 -8 5 -12 0 -12 -13 0 -11 5 -23 10 -26 7 -4 8 -11 1 -18 -13 -16
-17 -92 -5 -90 17 3 15 -49 -3 -62 -11 -8 -14 -18 -9 -31 6 -16 9 -16 17 -4 7
11 9 8 7 -14 -2 -17 -13 -37 -28 -48 -22 -16 -46 -18 -212 -19 -117 0 -195 4
-208 11 -17 9 -20 22 -22 83 -2 80 -3 110 -13 242 -6 82 -14 242 -17 353 -2
57 17 69 122 77 47 3 94 8 105 10 11 2 58 2 105 0 47 -3 95 -5 108 -5z"/>
<path d="M10490 13695 c0 -15 -7 -39 -15 -55 -17 -32 -8 -38 24 -18 27 16 71
-4 71 -32 0 -17 -4 -20 -21 -15 -16 5 -20 3 -17 -6 6 -19 56 -19 93 0 41 19
40 18 25 46 -10 19 -10 28 -1 39 9 11 5 19 -20 40 -29 24 -32 25 -44 10 -6 -9
-17 -14 -23 -10 -7 4 -12 1 -12 -8 0 -24 -15 -19 -30 9 -17 32 -30 32 -30 0z"/>
<path d="M9460 12280 c0 -11 -7 -20 -15 -20 -24 0 -65 -30 -66 -49 0 -12 -2
-11 -9 4 -8 18 -9 18 -9 2 -1 -10 -9 -21 -18 -24 -33 -13 -83 -71 -76 -89 5
-14 2 -16 -15 -12 -30 8 -35 -5 -11 -25 20 -18 44 -23 35 -8 -9 13 26 70 46
76 9 3 21 19 26 35 8 22 15 27 31 23 12 -3 28 0 35 6 12 10 17 9 24 -6 5 -10
7 -24 5 -30 -3 -8 4 -13 17 -13 14 0 25 10 35 33 8 19 21 39 29 47 21 17 20
25 -6 50 -28 26 -58 26 -58 0z"/>
<path d="M11475 12440 c-3 -5 -3 -15 0 -20 4 -6 1 -18 -6 -26 -10 -13 -10 -17
2 -25 8 -5 22 -7 31 -5 15 3 16 1 7 -15 -11 -21 -10 -21 -58 -23 -19 -2 -35 3
-38 11 -3 7 -17 13 -31 13 -25 0 -25 0 -7 -20 17 -19 17 -20 1 -14 -15 6 -17
1 -14 -36 3 -37 6 -44 26 -45 20 -2 23 2 19 22 -5 30 15 30 43 1 19 -21 25
-16 21 19 -1 6 4 15 11 19 7 4 10 4 6 -1 -12 -13 11 -35 29 -28 11 4 14 2 11
-8 -4 -12 13 -39 25 -39 10 0 0 37 -17 63 -16 24 -17 30 -6 37 11 7 12 14 1
36 -10 22 -10 29 1 36 8 5 2 6 -16 2 -25 -6 -28 -4 -23 10 4 9 1 16 -5 16 -7
0 -6 5 2 15 8 9 9 15 2 15 -6 0 -14 -4 -17 -10z"/>
<path d="M11380 12211 c0 -5 9 -13 20 -16 21 -7 28 -25 10 -25 -5 0 -9 -6 -7
-12 1 -7 -8 -14 -20 -16 -13 -2 -23 -9 -23 -15 0 -20 17 -40 28 -33 5 3 12 -1
15 -8 3 -8 2 -16 -3 -18 -5 -2 -6 -9 -1 -16 12 -20 41 -2 48 29 3 16 10 32 15
35 14 9 58 -17 58 -33 0 -8 5 -11 10 -8 6 4 8 15 5 25 -5 15 -2 17 15 13 25
-7 25 1 3 27 -21 24 -33 26 -33 3 0 -14 -2 -14 -20 2 -11 10 -20 23 -20 30 0
12 -62 45 -85 45 -8 0 -15 -4 -15 -9z"/>
<path d="M7840 13668 c0 -20 -19 -27 -51 -21 -19 3 -28 -3 -40 -25 -16 -28
-16 -30 2 -46 25 -21 24 -35 -5 -45 -27 -11 -43 -41 -21 -41 21 0 27 -17 15
-41 -14 -24 -14 -24 24 -33 27 -7 28 -6 23 21 -4 15 -4 22 -1 16 9 -20 24 -15
24 7 0 17 -5 19 -25 14 -19 -5 -25 -2 -25 10 0 9 7 16 15 16 15 0 55 19 65 31
3 3 23 5 45 5 46 0 57 20 28 53 -22 26 -37 27 -30 2 2 -10 1 -25 -4 -32 -7
-11 -11 -10 -23 6 -9 11 -16 26 -16 33 0 6 -5 12 -11 12 -5 0 -7 -4 -4 -10 3
-5 -1 -10 -9 -10 -9 0 -16 4 -16 9 0 5 -3 18 -7 28 -6 16 -5 16 10 4 10 -8 17
-9 17 -3 0 6 14 12 31 14 l31 3 -21 19 c-17 16 -21 16 -21 4z"/>
<path d="M6411 13134 c1 -11 -2 -38 -6 -60 -9 -52 -37 -70 -86 -56 -19 5 -43
5 -54 1 -19 -7 -18 -8 3 -8 13 -1 35 -10 49 -20 13 -11 30 -18 37 -15 7 3 20
-4 30 -15 16 -17 18 -40 19 -160 0 -120 2 -141 16 -144 13 -4 13 -5 -1 -6 -16
-1 -18 -14 -20 -98 -1 -54 -2 -111 -3 -128 -1 -34 12 -68 24 -61 4 3 5 55 3
116 -4 102 -3 112 18 143 27 39 71 67 108 68 19 0 9 6 -31 19 -32 10 -63 23
-71 29 -7 6 -15 9 -17 6 -3 -2 -4 66 -2 152 2 103 -1 161 -8 170 -8 9 -8 13 0
13 14 0 15 57 0 66 -6 4 -10 -1 -8 -12z"/>
<path d="M3385 13057 c14 -11 15 -16 5 -22 -10 -6 -9 -9 1 -16 12 -8 11 -11
-1 -19 -13 -8 -13 -11 2 -22 9 -7 18 -22 20 -33 2 -12 13 -21 28 -23 14 -2 29
-8 35 -13 15 -14 45 -10 52 7 3 9 0 20 -7 24 -18 11 11 40 40 40 12 0 25 10
32 25 7 15 17 24 25 21 7 -3 13 -1 13 4 0 15 -40 32 -57 25 -9 -3 -20 0 -25 7
-5 8 -6 2 -2 -15 6 -25 -8 -57 -26 -57 -3 0 -13 11 -20 24 -11 21 -18 24 -43
19 -21 -4 -28 -3 -23 5 4 8 -3 16 -19 22 -37 14 -52 12 -30 -3z"/>
<path d="M4806 12782 c2 -37 4 -71 4 -77 -1 -5 -2 -46 -3 -90 -1 -55 -6 -83
-16 -91 -8 -6 -11 -16 -7 -22 4 -7 1 -12 -6 -12 -13 -1 -78 -55 -78 -65 0 -3
10 -5 23 -5 22 0 65 -24 79 -44 4 -6 4 -31 1 -56 -3 -25 -2 -42 2 -38 13 12
15 45 17 299 3 194 5 235 17 231 28 -11 191 -4 191 8 0 6 -39 10 -96 10 -52 0
-104 4 -114 10 -17 9 -18 6 -14 -58z"/>
<path d="M10730 12780 c9 -16 8 -20 -5 -20 -8 0 -15 8 -16 18 0 14 -2 13 -9
-4 -5 -12 -20 -24 -35 -28 l-27 -7 23 -19 c12 -11 28 -20 36 -20 7 0 13 -5 13
-11 0 -6 -8 -8 -19 -4 -10 3 -23 -1 -29 -8 -9 -10 -6 -21 15 -45 14 -18 34
-32 43 -32 19 0 43 -24 46 -46 2 -10 -2 -11 -16 -4 -11 6 -22 15 -25 20 -10
16 -25 1 -25 -24 0 -13 13 -35 30 -49 17 -15 30 -34 30 -42 0 -8 7 -15 16 -15
9 0 18 -9 21 -19 3 -11 11 -17 18 -15 7 3 16 1 20 -5 3 -7 -2 -11 -14 -11 -14
0 -21 -6 -21 -20 0 -25 8 -25 27 -2 10 12 16 14 19 5 4 -8 24 -13 50 -13 36 0
42 3 37 16 -3 9 0 20 8 25 12 8 12 10 -1 8 -35 -4 -48 2 -54 26 -3 13 -12 22
-19 20 -6 -3 -22 10 -35 28 l-23 32 22 18 c28 22 32 22 67 -8 29 -24 62 -33
62 -17 0 4 -12 19 -28 32 -25 23 -52 69 -52 90 0 6 9 6 24 0 18 -6 28 -5 36 5
10 12 7 16 -13 24 -17 7 -27 20 -32 43 -11 50 -21 57 -76 52 -27 -2 -49 0 -49
5 0 13 -29 41 -41 41 -6 0 -5 -8 1 -20z"/>
<path d="M7177 12738 c-2 -8 -23 -13 -55 -13 -61 0 -69 -17 -14 -28 68 -13 75
-29 84 -190 4 -78 13 -157 19 -176 9 -25 8 -35 -1 -41 -8 -5 -10 -23 -6 -56 3
-27 6 -58 7 -69 0 -40 -22 -170 -31 -179 -14 -14 -229 -33 -240 -22 -11 11
-40 -10 -40 -28 0 -6 7 -2 15 8 13 17 15 18 15 3 0 -13 9 -17 38 -17 22 0 73
-3 115 -6 73 -7 76 -8 87 -37 5 -17 10 -114 10 -222 l0 -192 -30 -31 c-16 -18
-30 -38 -30 -46 0 -8 -6 -16 -14 -19 -22 -9 -84 -212 -90 -296 -4 -60 -10 -79
-29 -100 -28 -30 -49 -99 -47 -153 0 -20 -3 -39 -8 -42 -5 -3 -5 -31 -1 -63 5
-32 6 -66 3 -75 -3 -10 8 -46 24 -80 19 -38 32 -87 36 -123 6 -74 8 -85 23
-110 35 -63 65 -266 58 -390 -8 -125 -14 -156 -39 -186 -13 -15 -41 -63 -62
-106 -36 -73 -38 -83 -36 -156 2 -63 0 -78 -13 -83 -9 -4 -14 -13 -11 -21 4
-9 -1 -17 -13 -20 -16 -4 -18 -11 -13 -46 6 -49 21 -63 79 -71 33 -4 53 0 93
20 28 14 60 27 73 29 28 6 67 26 67 36 0 4 21 28 46 53 25 25 43 50 40 55 -4
5 -1 11 5 13 6 2 13 22 15 43 4 47 -18 84 -38 67 -20 -16 -48 9 -41 36 4 16 1
22 -12 22 -14 0 -15 3 -6 14 14 16 5 43 -14 43 -8 0 -12 -4 -9 -9 3 -4 1 -8
-5 -8 -5 0 -12 -13 -16 -30 -4 -16 -11 -32 -16 -35 -5 -4 -9 -23 -9 -44 0 -21
-6 -44 -14 -50 -11 -9 -17 -2 -31 36 -21 55 -13 99 36 197 21 44 26 62 17 67
-7 4 -16 5 -20 3 -10 -7 -10 -7 -14 111 -2 55 -6 136 -9 180 -4 44 -7 110 -7
148 0 53 -3 67 -15 67 -13 0 -13 3 -3 15 10 12 9 15 -5 15 -11 0 -15 5 -11 15
3 9 -1 18 -9 21 -9 4 -15 19 -15 39 0 26 -5 35 -21 40 -16 6 -18 9 -8 15 7 5
13 21 13 37 1 15 5 34 10 41 4 7 5 16 2 19 -3 3 -1 14 5 25 8 14 14 16 23 9 9
-8 12 -5 12 12 -1 16 10 27 39 42 34 17 58 20 169 18 70 0 148 -7 172 -13 l44
-13 -30 -34 c-34 -38 -36 -50 -16 -96 16 -40 43 -64 75 -69 14 -1 26 -9 29
-17 3 -9 -2 -11 -17 -6 -16 5 -21 2 -21 -10 0 -10 -11 -26 -24 -36 -33 -26
-40 -72 -18 -123 19 -42 52 -79 52 -57 0 9 5 9 20 1 11 -6 20 -17 20 -24 0 -9
-7 -12 -20 -9 -12 3 -20 0 -20 -7 0 -7 -12 -26 -26 -43 -22 -27 -25 -37 -20
-75 8 -57 39 -102 66 -95 13 3 22 -1 26 -11 9 -23 -2 -32 -21 -16 -13 11 -15
9 -16 -11 -1 -13 -1 -29 0 -36 2 -14 -42 -28 -58 -19 -5 3 -20 2 -33 -3 -28
-11 -23 -13 87 -36 44 -10 100 -26 123 -37 24 -11 46 -18 48 -16 2 2 -3 25
-11 51 -16 53 -11 77 15 77 10 0 28 16 41 36 20 33 21 39 8 77 -8 23 -28 58
-46 78 -37 41 -41 57 -15 66 65 25 64 111 -1 189 -35 41 -34 68 2 93 51 36 49
84 -6 164 -26 37 -25 67 1 32 8 -12 33 -21 67 -26 83 -12 161 -30 197 -45 18
-8 44 -14 58 -14 13 0 41 -7 61 -15 19 -8 43 -15 52 -15 10 0 28 -11 40 -24
23 -24 54 -110 44 -120 -4 -3 -2 -6 3 -6 5 0 16 11 25 23 12 17 15 42 13 112
-7 241 -21 328 -58 347 -42 21 -68 54 -102 127 -34 74 -47 156 -27 169 5 4 15
17 22 30 11 21 10 22 -20 22 -31 0 -32 -1 -26 -39 8 -63 -6 -67 -48 -14 -151
190 -303 294 -488 334 -84 19 -129 21 -242 16 l-40 -2 4 73 c1 40 9 85 17 100
8 15 14 33 14 39 0 8 13 13 33 12 17 0 129 4 247 10 307 14 417 14 430 -1 6
-7 21 -26 35 -41 14 -15 25 -37 25 -47 0 -10 5 -22 10 -25 13 -8 13 6 1 38 -8
20 -6 27 7 32 16 6 16 7 -1 20 -13 9 -14 14 -6 17 10 3 10 12 2 39 -10 30 -12
32 -18 13 -6 -20 -11 -21 -358 -22 -349 -2 -352 -2 -392 21 l-40 23 1 329 c0
237 4 336 13 353 8 16 9 27 1 42 -6 11 -12 51 -14 88 -2 37 -4 77 -5 88 0 13
-10 24 -22 27 -12 3 -18 10 -14 16 3 6 2 11 -4 11 -5 0 -11 -6 -14 -12z m380
-1314 c46 -14 85 -30 89 -35 3 -5 12 -9 20 -9 19 0 89 -48 129 -89 69 -69 77
-80 71 -90 -4 -6 -11 -9 -16 -6 -16 10 -18 -10 -4 -50 7 -22 14 -54 14 -71 0
-28 3 -31 30 -29 20 1 30 -3 30 -13 0 -7 10 -22 23 -33 l22 -18 -45 -1 c-25 0
-55 6 -66 14 -11 8 -42 17 -69 20 -26 3 -54 11 -61 17 -8 6 -33 12 -57 13 -23
1 -47 5 -52 8 -52 31 -445 42 -506 14 -12 -5 -18 -1 -23 17 -11 46 50 230 81
241 8 4 13 12 10 20 -9 22 54 71 94 73 24 2 30 0 19 -7 -12 -7 -12 -12 4 -29
10 -11 22 -18 27 -16 4 3 26 -4 48 -16 24 -12 48 -18 61 -14 24 8 38 -18 20
-40 -13 -16 -4 -105 11 -105 8 0 14 66 9 118 -1 14 4 22 14 22 9 0 16 4 16 9
0 5 11 12 25 15 28 7 25 26 -4 26 -10 0 -25 7 -32 16 -9 12 -24 15 -51 11 -21
-3 -41 -1 -44 4 -3 5 0 9 7 9 6 0 1 9 -12 20 l-24 21 55 -6 c30 -3 92 -17 137
-31z"/>
<path d="M6399 12338 c-1 -7 -1 -18 0 -24 1 -7 -3 -23 -8 -37 -9 -22 -16 -26
-51 -25 -58 1 -61 -9 -5 -17 l46 -7 -3 -107 c-3 -113 -4 -109 52 -168 l25 -26
-27 17 c-16 9 -28 14 -28 10 0 -4 -7 -1 -15 6 -13 10 -15 9 -15 -11 0 -25 29
-113 30 -91 0 7 5 10 11 7 6 -4 13 2 16 13 4 18 60 40 87 33 20 -5 47 12 42
25 -4 9 -1 12 5 9 6 -4 8 -13 5 -21 -7 -17 15 -19 32 -2 9 9 7 14 -6 24 -16
12 -16 13 3 14 19 1 19 1 2 11 -13 7 -26 6 -47 -5 -17 -8 -30 -10 -30 -5 0 5
-14 9 -30 9 -34 0 -79 37 -81 67 -2 22 -1 37 4 191 2 67 0 122 -5 122 -4 0 -9
-6 -9 -12z"/>
<path d="M10672 12243 l-23 -4 26 -30 c14 -17 25 -35 25 -40 0 -6 6 -7 13 -3
8 5 8 2 -2 -9 -7 -9 -23 -17 -34 -17 -19 0 -17 -4 13 -33 19 -18 42 -31 51
-29 9 2 20 -1 24 -8 5 -8 10 -8 20 0 10 8 14 4 17 -15 5 -26 -15 -36 -26 -12
-3 6 -5 3 -3 -8 2 -20 23 -27 42 -14 6 4 19 8 29 10 18 4 19 5 3 21 -9 9 -17
21 -17 26 0 11 -40 48 -49 44 -3 -2 -8 5 -10 14 -2 12 2 15 14 10 13 -5 16 -2
11 10 -3 8 -6 18 -6 21 0 2 -8 -3 -17 -13 -16 -16 -18 -15 -26 17 -9 35 -27
63 -27 41 0 -7 -4 -12 -9 -12 -5 0 -7 9 -4 20 3 11 1 19 -3 19 -5 -1 -19 -4
-32 -6z"/>
<path d="M3453 11933 c-7 -3 -13 -9 -13 -14 0 -4 7 -6 15 -3 23 9 17 -9 -10
-29 -14 -10 -26 -13 -30 -7 -3 5 -11 10 -16 10 -5 0 -2 -11 7 -25 9 -14 13
-25 9 -25 -4 0 -2 -7 5 -15 10 -13 9 -15 -8 -15 -26 0 -39 -19 -21 -31 7 -4
10 -11 6 -16 -5 -4 -11 -2 -15 4 -11 18 -59 27 -67 12 -5 -8 -4 -10 4 -5 6 4
14 0 17 -8 3 -9 10 -13 15 -10 5 3 9 1 9 -5 0 -19 -19 -21 -36 -4 -12 12 -16
13 -13 4 3 -8 14 -19 25 -25 10 -6 22 -15 26 -21 5 -6 8 -5 8 3 0 6 12 12 28
12 42 0 72 11 72 26 0 8 -4 14 -9 14 -9 0 -24 30 -18 36 3 3 60 -10 94 -21 14
-5 6 -35 -9 -35 -5 0 -6 5 -2 12 4 7 3 8 -4 4 -7 -4 -12 -2 -12 3 0 6 -4 11
-10 11 -23 0 -7 -29 21 -39 39 -13 42 -14 34 -1 -3 6 -1 10 4 10 6 0 11 9 11
20 0 21 -21 34 -72 44 -31 7 -61 33 -53 47 4 5 19 9 35 9 22 0 33 7 44 29 13
25 13 30 1 35 -9 3 -12 0 -8 -10 3 -7 0 -14 -6 -14 -7 0 -14 6 -17 14 -7 17
-24 25 -41 19z"/>
<path d="M10494 11503 c12 -165 17 -317 11 -340 -5 -21 -28 -34 -70 -39 -46
-6 -546 -7 -551 -1 -6 5 -64 -2 -72 -9 -2 -1 2 -18 9 -37 l12 -34 331 4 c276
4 334 2 350 -10 16 -12 21 -37 31 -153 7 -76 11 -142 8 -146 -2 -5 -1 -13 3
-20 9 -15 11 -68 2 -68 -3 0 -4 -9 -1 -20 8 -32 29 -22 25 12 -4 25 92 32 343
25 28 0 137 1 243 2 168 3 194 2 205 -12 14 -19 33 -10 38 18 3 11 11 20 18
20 18 0 26 21 12 30 -6 3 -11 13 -11 21 0 8 -9 23 -20 34 -16 16 -20 17 -20 5
0 -8 -8 -23 -19 -34 -17 -17 -41 -18 -369 -19 -193 0 -359 -3 -370 -6 -16 -5
-23 2 -39 41 -16 37 -22 83 -28 193 -4 80 -10 170 -12 200 -3 30 -4 64 -4 75
1 22 -1 176 -3 238 l-1 38 53 3 c29 2 55 0 58 -5 2 -4 11 -6 18 -3 7 3 21 -2
30 -12 10 -9 27 -17 39 -18 18 -1 22 -7 20 -29 -1 -15 2 -25 8 -22 5 4 9 12 9
20 0 17 32 75 42 75 12 0 58 -47 52 -53 -3 -3 -1 -14 5 -24 8 -14 9 -10 6 21
-3 21 -8 42 -11 47 -3 5 11 9 30 9 24 0 36 -5 36 -14 0 -15 24 -28 34 -19 3 3
-2 12 -12 19 -14 11 -15 13 -1 14 8 0 21 -6 27 -12 10 -10 15 -10 22 2 7 12
12 12 34 1 29 -16 91 -4 91 17 0 9 -27 13 -87 16 -49 2 -88 1 -88 -3 0 -3 -37
-5 -82 -3 -46 1 -94 2 -107 2 -17 0 -22 4 -17 16 4 10 1 14 -6 12 -7 -3 -13
-11 -13 -18 0 -10 -21 -14 -83 -15 -85 -1 -129 11 -124 35 3 13 -15 30 -32 30
-5 0 -6 -43 -2 -97z"/>
<path d="M2259 11568 c0 -7 -2 -31 -3 -53 -2 -22 -6 -292 -9 -600 -3 -308 -2
-524 3 -480 7 74 20 579 25 978 1 92 -2 167 -7 167 -4 0 -8 -6 -9 -12z"/>
<path d="M6140 11469 c-36 -4 -130 -6 -210 -4 -80 2 -163 0 -185 -5 l-40 -8
40 -2 c22 -2 47 -2 55 -1 35 4 181 -12 174 -18 -5 -4 -25 -14 -44 -21 -115
-46 -336 -236 -381 -328 -12 -23 -26 -48 -33 -55 -13 -13 -86 -171 -86 -185 0
-5 -9 -17 -20 -27 -54 -49 -86 -145 -99 -300 -5 -60 -9 -71 -28 -80 -28 -12
-29 -21 -4 -28 11 -3 26 -21 34 -40 8 -19 20 -38 26 -41 6 -4 12 -43 12 -94
l2 -87 16 132 c16 131 17 133 51 163 21 17 47 29 65 30 17 0 41 7 55 15 14 8
41 14 60 15 19 0 48 7 64 15 15 8 46 15 68 15 22 0 49 5 61 12 12 6 44 13 71
15 27 2 57 8 66 13 32 17 30 -3 -4 -36 -60 -58 -57 -131 7 -168 l32 -18 -24
-17 c-65 -45 -110 -97 -117 -134 -6 -34 -3 -41 30 -72 41 -39 44 -51 15 -60
-33 -11 -79 -56 -95 -94 -29 -69 -13 -118 44 -135 13 -5 22 -15 22 -27 0 -27
-42 -97 -83 -140 -29 -31 -75 -96 -121 -171 -11 -18 -25 -28 -41 -28 -16 0
-33 -12 -51 -35 -31 -40 -51 -44 -64 -12 -8 20 -9 19 -9 -10 -1 -18 -8 -50
-17 -72 -8 -21 -14 -56 -12 -77 3 -38 4 -39 38 -36 19 1 47 9 64 17 36 18 56
19 57 3 1 -7 4 -2 8 11 7 28 50 44 90 34 18 -5 23 -3 19 8 -4 9 4 19 18 26 14
6 24 7 24 2 0 -6 28 -9 64 -7 54 2 64 6 63 20 -1 10 -7 20 -14 22 -7 3 -13 12
-13 20 0 18 -29 29 -44 17 -39 -33 -132 -71 -172 -71 -51 0 -55 8 -16 37 15
11 44 53 65 94 62 120 88 144 186 173 46 13 86 28 90 34 3 6 36 12 72 13 57 2
74 -2 112 -24 25 -15 50 -27 55 -27 24 0 169 -165 188 -213 3 -9 17 -17 30
-17 20 0 24 5 24 33 0 44 -18 104 -38 129 -106 128 -204 190 -334 213 -46 8
-84 15 -85 15 -2 0 -3 16 -3 35 0 24 -5 35 -15 35 -8 0 -15 7 -15 16 0 12 6
15 24 10 19 -5 29 0 45 20 32 41 47 99 33 130 -7 13 -12 38 -12 53 0 21 -6 30
-21 34 -13 3 -18 10 -14 17 4 7 18 9 31 6 18 -5 28 1 48 27 35 45 41 85 22
131 -22 53 -21 58 24 112 32 39 40 56 40 90 0 25 -6 47 -15 54 -8 7 -15 18
-15 25 0 7 7 15 15 19 8 3 15 15 15 26 0 23 25 27 33 6 7 -17 76 -26 101 -13
21 10 92 -2 180 -32 40 -13 55 -25 75 -58 52 -84 71 -43 66 137 -2 72 -7 145
-10 162 -5 21 -4 28 4 24 16 -10 14 -1 -13 57 -22 46 -52 196 -45 222 2 6 -5
27 -14 49 -9 21 -17 43 -17 48 0 22 -52 108 -92 152 -24 27 -47 55 -51 62 -4
8 -16 14 -27 14 -10 0 -20 5 -22 11 -3 9 -9 9 -25 1 -11 -6 -23 -9 -26 -6 -9
9 -86 11 -157 3z m135 -63 c13 -10 24 -11 35 -4 40 26 154 -72 180 -154 8 -24
17 -48 21 -53 4 -6 17 -44 28 -84 22 -81 19 -127 -8 -116 -40 17 -72 21 -151
19 -156 -4 -195 -3 -205 7 -15 15 -15 102 0 119 8 8 13 30 13 48 -1 27 -3 30
-16 20 -8 -7 -18 -22 -23 -35 -5 -15 -14 -21 -24 -17 -12 5 -15 -4 -16 -52 -2
-88 -2 -88 -34 -104 -33 -16 -130 -19 -144 -4 -5 5 -11 23 -14 40 -3 17 -10
41 -17 54 -7 12 -12 38 -12 56 0 35 -12 45 -21 20 -5 -13 10 -85 32 -157 5
-15 6 -31 2 -36 -7 -11 -133 -34 -141 -26 -3 3 -6 31 -6 63 -1 46 2 57 12 53
8 -3 14 1 14 10 0 8 -9 17 -20 20 -11 3 -17 1 -14 -4 3 -6 -6 -7 -23 -3 -40
10 -43 12 -43 40 0 27 9 30 29 12 11 -11 13 -10 7 5 -7 21 25 57 86 98 21 14
35 29 31 32 -3 4 3 7 14 7 12 0 23 7 27 15 3 8 12 15 20 15 9 0 13 6 10 14 -7
19 19 27 55 16 19 -5 31 -5 32 1 1 5 2 14 3 20 4 39 239 76 281 45z"/>
<path d="M6290 9242 c0 -7 -6 -12 -14 -12 -7 0 -19 -7 -26 -15 -10 -12 -10
-15 1 -15 11 0 11 -2 -1 -9 -8 -6 -17 -8 -21 -5 -4 2 -10 -3 -13 -12 -8 -22
-8 -26 4 -19 6 3 10 1 10 -5 0 -8 -9 -10 -23 -6 -20 5 -23 2 -22 -17 1 -13 12
-27 28 -35 15 -7 27 -17 27 -21 0 -16 -14 -20 -28 -8 -13 10 -14 8 -7 -13 4
-14 12 -26 16 -28 15 -6 10 -22 -7 -22 -10 0 -14 -6 -11 -17 27 -99 49 -163
56 -163 5 0 37 26 71 58 68 65 87 111 64 153 -7 13 -13 34 -14 47 0 17 -6 22
-25 22 -27 0 -32 -7 -38 -54 -2 -17 -9 -32 -17 -34 -9 -3 -11 2 -6 23 7 26 5
27 -19 21 -30 -8 -32 3 -5 34 17 19 17 24 5 37 -16 16 -19 26 -8 37 10 10 33
80 28 85 -3 2 -5 -1 -5 -7z"/>
<path d="M5813 9192 c-25 -16 -12 -82 16 -82 15 0 46 -39 51 -65 1 -5 7 -21
12 -35 5 -14 7 -36 5 -49 -3 -14 3 -31 15 -43 10 -10 16 -23 13 -28 -8 -13 56
-130 72 -130 33 0 2 144 -54 249 -12 24 -23 49 -23 55 0 6 -10 16 -22 21 -17
7 -24 20 -26 49 -4 52 -29 77 -59 58z"/>
<path d="M8844 9065 c8 -21 -21 -31 -44 -17 -14 9 -21 8 -31 -4 -7 -8 -26 -22
-42 -30 -26 -14 -31 -14 -53 1 -14 9 -22 20 -19 25 4 6 2 10 -4 10 -5 0 -19
-16 -31 -35 -12 -19 -28 -35 -36 -35 -17 0 -17 -1 -4 -35 5 -14 14 -23 20 -20
5 3 7 0 4 -9 -3 -9 5 -26 20 -41 14 -14 26 -32 26 -40 0 -8 6 -18 14 -22 20
-12 107 -141 135 -201 14 -29 30 -52 37 -52 7 0 10 -8 7 -19 -3 -11 5 -46 16
-79 12 -33 24 -77 26 -97 3 -21 8 -42 12 -49 4 -6 9 -30 10 -53 4 -58 28 -146
48 -177 16 -23 55 -33 55 -12 0 5 18 26 40 47 24 23 38 44 34 52 -3 8 3 21 13
28 26 20 55 68 48 79 -10 16 -25 1 -25 -26 0 -13 -4 -24 -10 -24 -5 0 -7 7 -3
16 3 9 0 20 -8 25 -10 6 -10 9 -1 9 6 0 12 7 12 16 0 9 5 12 11 8 9 -5 10 1 5
20 -6 23 -4 26 21 26 30 0 22 15 -12 22 -18 4 -17 6 8 16 26 11 27 15 21 49
-4 21 -13 42 -20 46 -16 9 -19 37 -5 37 5 0 12 -6 14 -12 3 -7 6 0 6 15 1 19
8 30 23 36 l22 8 -22 5 c-12 4 -22 13 -22 22 0 9 -11 18 -25 22 -24 6 -24 7
-8 20 12 10 13 12 3 9 -17 -6 -45 40 -55 93 -4 17 -12 32 -20 32 -7 0 -15 8
-18 19 -3 14 0 17 13 14 10 -3 20 0 24 5 3 6 -12 10 -36 10 -23 1 -47 7 -53
14 -5 8 -25 24 -43 37 -20 14 -31 29 -28 37 3 8 2 14 -3 14 -5 0 -11 13 -14
29 -4 16 -19 41 -34 55 -21 20 -25 28 -15 38 15 15 16 38 1 38 -6 0 -8 -7 -5
-15z"/>
<path d="M9135 7609 c-17 -6 -17 -8 -2 -8 9 -1 17 -6 17 -12 0 -6 -7 -9 -15
-5 -14 5 -21 -7 -15 -29 2 -5 4 -50 5 -100 2 -104 16 -166 56 -251 15 -33 34
-82 41 -107 7 -26 17 -47 24 -47 6 0 14 -14 16 -30 3 -23 1 -30 -9 -26 -10 4
-10 1 -1 -14 17 -27 1 -38 -18 -12 -8 12 -22 22 -30 22 -8 0 -14 7 -14 15 0 8
-11 17 -25 21 -14 4 -24 9 -21 11 7 7 -18 32 -26 26 -5 -2 -36 25 -70 61 -58
62 -121 106 -153 106 -8 0 -18 6 -22 13 -15 25 -81 55 -124 57 -49 3 -109 -8
-109 -20 0 -5 -3 -16 -7 -26 -4 -12 -3 -15 5 -10 7 4 12 2 12 -4 0 -7 -8 -14
-18 -17 -14 -3 -18 -11 -14 -29 3 -15 0 -24 -8 -24 -6 0 -10 6 -8 12 3 7 -6
24 -19 38 -13 14 -23 30 -23 36 0 7 -7 15 -16 18 -22 9 -24 8 -24 -9 0 -18 -5
-19 -29 -3 -15 9 -23 7 -47 -15 -16 -15 -32 -27 -36 -27 -5 0 -8 -6 -8 -14 0
-9 -7 -12 -20 -9 -16 4 -20 0 -20 -20 0 -14 -4 -29 -10 -32 -5 -3 -10 -22 -10
-42 0 -26 5 -36 19 -40 11 -3 22 -16 25 -29 4 -15 11 -22 18 -18 7 4 8 3 4 -4
-4 -6 6 -30 21 -52 22 -35 25 -45 15 -60 -9 -15 -9 -21 4 -28 17 -9 22 -56 9
-85 -6 -14 -10 -15 -21 -6 -11 9 -14 7 -14 -10 0 -11 -4 -21 -10 -21 -5 0 -7
8 -3 18 4 12 1 10 -13 -6 -17 -20 -23 -21 -53 -12 -24 6 -37 6 -41 0 -4 -6
-16 -2 -31 11 -16 14 -32 19 -51 15 -16 -3 -31 0 -38 9 -16 19 -39 19 -46 1
-7 -19 -68 -13 -72 7 -2 8 -16 20 -32 27 -16 6 -31 18 -34 26 -3 8 -12 14 -20
14 -7 0 -16 7 -20 15 -4 13 -2 14 14 5 17 -9 19 -8 11 12 -6 17 -17 22 -57 26
-27 2 -56 9 -64 16 -47 40 -180 103 -180 85 0 -5 -7 -9 -15 -9 -8 0 -15 -6
-15 -14 0 -9 -15 -17 -40 -21 -22 -4 -40 -11 -40 -16 0 -18 -16 -9 -32 19 -10
15 -18 21 -18 15 0 -7 -9 -13 -20 -13 -11 0 -20 -4 -20 -10 0 -5 -6 -7 -13 -4
-7 2 -13 -4 -15 -16 -5 -55 -4 -88 2 -116 6 -26 4 -31 -11 -29 -10 0 -23 4
-29 8 -6 3 -17 -5 -24 -18 -7 -14 -20 -25 -27 -25 -7 0 -16 -7 -19 -15 -4 -8
-12 -15 -19 -15 -7 0 -15 -5 -17 -11 -2 -5 -11 -7 -20 -4 -18 7 -31 42 -16 47
5 2 3 15 -5 31 -8 14 -17 24 -20 20 -4 -3 -7 8 -7 25 0 18 -3 31 -7 31 -31 -5
-40 2 -35 29 2 15 9 32 14 39 5 7 4 13 -3 15 -6 2 -14 30 -16 63 -2 33 -9 63
-16 67 -6 3 -12 13 -13 22 -1 9 -15 33 -31 53 -33 43 -49 76 -58 116 -8 40
-61 86 -96 85 -23 -1 -32 -9 -51 -47 -25 -50 -36 -66 -57 -84 -19 -17 -74 -73
-89 -91 -7 -9 -22 -45 -34 -81 -28 -83 -56 -86 -101 -13 -18 29 -24 113 -7
103 6 -3 10 1 10 9 0 15 12 33 56 82 30 34 22 81 -16 86 -22 3 -31 -1 -41 -20
-7 -13 -29 -31 -49 -41 -32 -15 -41 -16 -103 -3 -61 14 -69 13 -80 -1 -7 -9
-24 -21 -40 -26 -16 -7 -34 -25 -45 -48 -9 -21 -20 -40 -23 -43 -3 -3 -12 -27
-20 -54 -9 -30 -21 -51 -31 -54 -10 -2 -16 -8 -13 -12 3 -5 -8 -11 -24 -15
-17 -3 -33 -14 -36 -23 -9 -27 -56 -57 -65 -42 -5 8 -9 7 -14 -5 -3 -9 -4 -21
0 -26 3 -5 -2 -9 -10 -9 -14 0 -21 -18 -17 -42 0 -5 -12 -8 -29 -8 -16 0 -30
5 -30 10 0 6 -11 20 -25 32 -14 12 -25 32 -25 45 0 13 -9 32 -21 44 -14 14
-24 42 -30 87 -5 36 -14 69 -21 73 -6 4 -8 11 -4 17 3 5 -1 15 -9 22 -8 7 -12
16 -9 21 3 5 0 18 -7 30 -9 17 -13 19 -20 8 -7 -11 -9 -11 -9 2 0 21 -46 31
-60 14 -7 -9 -7 -21 0 -39 5 -15 11 -55 12 -90 2 -78 -31 -159 -74 -180 -15
-8 -28 -10 -28 -5 0 5 -9 0 -20 -11 -11 -11 -20 -25 -20 -31 0 -6 -7 -8 -16
-5 -13 5 -15 2 -11 -13 3 -12 -3 -27 -13 -36 -11 -10 -16 -24 -13 -33 5 -12 1
-14 -15 -10 -12 4 -25 2 -28 -3 -3 -5 -20 -9 -37 -9 -39 0 -57 -32 -57 -101 0
-29 -5 -49 -12 -52 -10 -4 -10 -8 1 -15 10 -8 8 -13 -10 -26 -13 -9 -34 -16
-47 -16 -19 0 -23 -4 -19 -20 3 -12 1 -18 -5 -14 -6 4 -8 -1 -3 -15 9 -29 -2
-43 -25 -31 -13 7 -21 6 -30 -5 -10 -12 -16 -13 -28 -3 -13 11 -15 10 -9 -4 7
-20 -17 -26 -29 -7 -4 8 -12 3 -20 -12 -9 -15 -14 -19 -14 -9 -1 8 -6 4 -12
-10 -9 -21 -12 -22 -15 -7 -6 24 -29 15 -25 -9 2 -18 2 -18 -13 0 -8 11 -15
24 -15 30 0 5 -3 7 -6 3 -3 -3 -18 9 -34 26 -26 30 -33 32 -86 30 -77 -4 -124
-38 -124 -90 0 -20 -7 -45 -17 -55 -9 -11 -11 -18 -5 -18 7 0 12 -4 12 -10 0
-6 -23 -8 -57 -4 -32 3 -81 7 -110 8 -34 2 -67 12 -99 31 -47 28 -114 35 -184
20 -34 -7 -57 -58 -43 -95 8 -20 7 -36 -3 -59 -8 -20 -9 -31 -2 -31 5 0 7 -8
4 -17 -6 -15 8 -32 27 -33 12 0 8 45 -5 59 -9 10 -9 12 -1 7 6 -3 30 -2 52 3
24 5 43 5 47 0 3 -5 20 -10 37 -10 18 -1 24 -3 14 -6 -14 -4 -15 -8 -7 -18 8
-10 4 -16 -18 -26 -23 -10 -28 -17 -24 -37 4 -20 2 -24 -12 -19 -12 5 -16 0
-18 -21 -2 -52 -4 -57 -18 -54 -17 4 -70 57 -70 70 0 5 -6 15 -14 21 -12 10
-16 8 -22 -11 -4 -13 -8 -29 -8 -37 -1 -8 -7 -16 -15 -19 -8 -3 -11 0 -7 7 4
6 1 11 -8 11 -9 0 -16 -6 -16 -14 0 -7 -8 -16 -17 -20 -10 -3 -24 -9 -31 -12
-10 -5 -12 2 -9 25 3 17 1 31 -4 31 -16 0 -63 52 -64 72 -2 26 -15 35 -15 10
0 -12 -4 -22 -10 -22 -5 0 -10 7 -10 15 0 8 -7 15 -15 15 -8 0 -12 -6 -9 -14
6 -17 -7 -26 -51 -36 -30 -7 -33 -5 -49 31 -10 22 -24 39 -32 39 -8 0 -14 7
-14 15 0 12 -14 14 -73 12 -73 -3 -85 -8 -160 -67 -19 -15 -42 -58 -38 -73 1
-5 -8 -11 -19 -14 -11 -3 -20 -10 -20 -17 0 -6 -22 -34 -49 -62 -39 -41 -50
-60 -56 -100 -5 -27 -7 -59 -6 -71 1 -13 -3 -23 -9 -23 -6 0 -8 5 -5 10 3 6 1
10 -4 10 -6 0 -11 -8 -11 -18 0 -10 -6 -26 -13 -37 -7 -11 -19 -38 -26 -60 -7
-22 -21 -48 -29 -58 -9 -10 -17 -28 -18 -40 -1 -36 -15 -67 -28 -67 -7 0 -20
-16 -29 -35 -9 -19 -25 -36 -34 -37 -10 0 -22 -2 -28 -3 -5 -2 -15 -3 -22 -4
-7 0 -10 -8 -7 -16 7 -18 4 -18 -30 -5 -19 7 -29 6 -37 -3 -7 -7 -27 -11 -46
-9 -18 2 -41 1 -50 -3 -10 -5 -24 -7 -30 -6 -7 1 -22 -3 -34 -10 -17 -8 -23
-8 -29 1 -5 8 -15 10 -26 5 -11 -4 -27 -7 -38 -6 -10 2 -22 -3 -27 -11 -6 -9
-11 -10 -19 -2 -7 7 -8 14 -2 18 18 11 -40 106 -84 137 -23 16 -47 29 -53 29
-6 0 -11 9 -11 19 0 10 -7 21 -15 25 -8 3 -15 12 -15 21 0 11 -10 15 -35 15
-31 0 -36 -3 -42 -30 -3 -16 -11 -30 -17 -30 -7 0 -22 -9 -34 -20 -12 -11 -26
-20 -32 -20 -6 0 -16 -11 -22 -25 -7 -15 -19 -25 -33 -25 -11 0 -26 -5 -33
-12 -7 -7 -12 -8 -12 -3 0 6 -6 -1 -13 -15 -7 -14 -22 -26 -32 -26 -11 -1 -26
-2 -33 -3 -7 -1 -24 -13 -37 -27 -14 -15 -25 -22 -25 -15 0 6 -7 11 -15 11 -9
0 -12 -6 -8 -17 5 -16 4 -16 -10 -3 -13 12 -17 49 -22 195 -10 330 -25 1216
-25 1548 0 198 -4 327 -9 327 -16 0 8 -2177 24 -2227 3 -10 93 -12 402 -8 219
3 814 7 1323 10 509 3 1321 12 1805 20 484 8 1157 19 1495 25 338 5 858 14
1155 20 297 5 684 12 860 15 176 3 412 7 525 10 113 3 347 7 520 10 173 3 482
10 685 15 204 5 489 12 635 15 146 3 280 8 298 11 l32 5 -2 257 -2 257 -6
-200 c-6 -204 -12 -238 -35 -229 -7 3 -19 -1 -26 -8 -10 -11 -22 -12 -55 -5
-52 12 -78 4 -71 -22 5 -19 4 -19 -29 0 -19 10 -44 19 -55 19 -11 0 -17 5 -14
10 3 6 -2 18 -11 28 -17 16 -17 16 -11 -7 4 -17 3 -21 -5 -13 -6 6 -16 8 -23
5 -7 -2 -16 5 -20 16 -6 21 -25 29 -25 11 0 -5 -10 -10 -21 -10 -27 0 -62 39
-56 62 3 10 1 18 -5 18 -5 0 -6 5 -3 11 4 6 -1 5 -13 -2 -25 -16 -56 -5 -48
17 4 11 -1 18 -14 21 -11 3 -20 9 -20 14 0 4 -12 14 -27 21 -18 9 -27 20 -25
32 3 14 -1 16 -20 11 -13 -4 -29 -12 -35 -17 -10 -8 -13 -5 -13 12 0 16 -4 20
-15 16 -9 -3 -18 1 -21 9 -4 8 -14 15 -24 15 -11 0 -22 5 -25 10 -4 6 -10 8
-14 6 -4 -3 -8 9 -9 26 -1 33 -16 50 -39 41 -7 -3 -13 -1 -13 5 0 6 -17 21
-37 33 -21 13 -41 27 -45 33 -3 5 -25 9 -47 8 -23 -1 -41 3 -41 8 0 6 7 10 16
10 14 0 14 3 4 15 -10 12 -16 13 -28 3 -13 -11 -14 -9 -7 12 7 24 7 24 -9 5
-15 -20 -15 -20 -16 5 0 32 -11 49 -30 48 -35 -2 -50 3 -50 17 0 8 -9 15 -19
15 -11 0 -22 6 -24 13 -4 9 -8 8 -16 -3 -15 -22 -23 -7 -12 23 8 20 7 27 -5
31 -23 9 -24 8 -21 -15 3 -34 -20 -33 -31 1 -6 16 -18 30 -26 30 -9 0 -16 4
-16 9 0 5 -11 11 -25 13 -14 3 -25 1 -25 -4 0 -22 -20 6 -31 42 -7 22 -22 46
-33 54 -12 7 -41 32 -66 55 -25 23 -57 50 -72 59 -16 9 -28 24 -28 34 0 9 -4
19 -9 22 -5 4 -7 -3 -4 -14 4 -13 0 -20 -10 -20 -19 0 -32 31 -17 40 7 4 -2
12 -20 20 -17 7 -27 16 -22 19 4 3 5 17 1 31 -5 17 -7 19 -8 7 -1 -10 -8 -25
-16 -33 -8 -8 -12 -21 -9 -29 4 -8 1 -15 -5 -15 -6 0 -11 7 -11 16 0 11 -6 14
-20 9 -21 -7 -28 10 -7 18 9 4 9 6 -1 6 -21 2 5 39 30 44 17 3 14 5 -9 6 -30
1 -49 21 -21 21 7 0 5 7 -6 18 -14 13 -20 14 -23 4 -9 -24 -33 9 -33 45 0 27
-3 34 -15 29 -8 -3 -15 0 -15 7 0 8 -3 8 -9 -2 -7 -11 -10 -10 -18 4 -6 9 -22
18 -37 18 -17 1 -24 7 -21 15 2 7 -1 12 -8 11 -24 -4 -48 13 -42 30 3 11 -5
26 -21 40 -19 17 -25 19 -21 7 8 -19 -16 -22 -31 -3 -10 12 -12 18 -12 37 0 6
-11 10 -24 10 -18 0 -23 4 -19 18 3 12 -4 22 -21 30 -14 6 -26 18 -26 26 0 8
-16 30 -35 49 -19 19 -32 37 -28 41 4 4 2 11 -5 15 -8 4 -15 17 -16 27 -2 10
-11 18 -20 18 -9 -1 -16 4 -16 12 0 8 -6 13 -12 12 -8 -2 -12 5 -10 17 2 20 2
20 -16 -1 -14 -17 -20 -18 -30 -8 -7 7 -12 18 -12 24 0 5 -5 10 -11 10 -5 0
-8 4 -4 9 3 6 -15 13 -39 16 -45 7 -89 40 -71 53 13 9 17 52 6 52 -5 0 -12 -6
-15 -12 -3 -7 -4 -2 -3 11 1 13 -4 26 -12 29 -8 3 -12 -1 -9 -9 3 -8 1 -22 -4
-31 -8 -17 -10 -17 -36 -1 l-27 17 19 -22 c11 -12 24 -21 30 -19 13 4 41 -22
32 -30 -7 -8 -86 34 -103 54 -7 9 -13 10 -17 4 -4 -5 -2 -12 4 -16 6 -4 8 -10
5 -15 -3 -4 3 -6 14 -3 21 5 38 -14 25 -27 -25 -23 -84 42 -84 92 0 10 -5 18
-11 18 -5 0 -7 -6 -3 -12 4 -7 3 -9 -1 -5 -5 4 -10 15 -11 23 -2 12 3 14 21
10 18 -5 27 -1 34 13 9 15 7 20 -12 25 -21 7 -21 8 -3 15 17 7 17 8 3 14 -12
4 -15 14 -10 41 3 19 2 43 -3 53 -4 10 -9 23 -9 28 -4 26 -18 43 -31 38 -9 -3
-14 2 -14 15 0 11 4 22 9 24 5 2 1 13 -9 26 l-19 22 -26 -24 c-27 -25 -65 -40
-65 -25 0 5 -6 9 -14 9 -8 0 -16 11 -18 24 -2 19 -7 22 -23 15z m-51 -691 c10
-11 45 -53 77 -94 56 -70 59 -76 53 -114 -4 -22 -10 -40 -13 -40 -4 0 -31 34
-60 75 -28 41 -56 75 -61 75 -13 0 -40 59 -40 87 0 12 -5 22 -11 21 -6 -2 -14
3 -17 11 -7 21 48 5 72 -21z m-144 -98 c13 7 20 6 24 -5 3 -8 1 -15 -4 -15 -5
0 -7 -7 -4 -15 4 -8 13 -15 22 -15 8 0 12 -3 8 -7 -4 -5 -11 -8 -15 -8 -4 0
-16 -8 -26 -18 -10 -10 -21 -15 -24 -10 -3 4 -24 8 -46 8 -22 0 -45 4 -52 8
-7 5 -17 6 -24 2 -8 -6 -8 -2 1 14 10 19 9 22 -7 19 -15 -2 -17 3 -15 27 2 16
8 33 14 36 6 4 8 14 5 22 -4 11 15 5 60 -18 49 -26 69 -32 83 -25z m-4035
-544 c27 -25 17 -49 -10 -26 -12 10 -15 9 -15 -3 0 -11 9 -14 31 -13 35 3 51
-18 38 -51 -9 -25 5 -41 24 -25 9 8 12 1 10 -26 -1 -21 -2 -39 -2 -41 -1 -2
-8 2 -16 9 -13 11 -14 10 -9 -4 4 -11 1 -16 -12 -17 -11 0 -14 -3 -6 -6 6 -2
12 -12 12 -20 0 -9 -6 -13 -15 -9 -9 3 -15 0 -15 -9 0 -8 -8 -19 -19 -24 -15
-8 -24 -4 -45 20 -15 16 -24 34 -21 40 4 5 3 9 -2 8 -20 -3 -25 2 -14 15 10
11 9 22 -4 46 -9 18 -12 29 -7 26 6 -4 13 -2 17 4 3 5 1 10 -4 10 -6 0 -11 4
-11 10 0 5 8 6 18 3 15 -6 15 -5 3 10 -8 10 -9 17 -3 17 13 0 27 38 23 63 -3
25 23 21 54 -7z"/>
</g>
</svg>
