<?xml version="1.0" standalone="no"?>
<!DOCTYPE svg PUBLIC "-//W3C//DTD SVG 20010904//EN"
 "http://www.w3.org/TR/2001/REC-SVG-20010904/DTD/svg10.dtd">
<svg version="1.0" xmlns="http://www.w3.org/2000/svg"
 width="530.000000pt" height="537.000000pt" viewBox="0 0 530.000000 537.000000"
 preserveAspectRatio="xMidYMid meet">
<metadata>
Created by potrace 1.16, written by Peter Selinger 2001-2019
</metadata>
<g transform="translate(0.000000,537.000000) scale(0.100000,-0.100000)"
fill="#000000" stroke="none">
<path d="M14 5362 c-14 -9 -17 -141 -4 -158 8 -8 8 -14 0 -19 -5 -3 -10 -21
-10 -38 0 -26 7 -37 30 -50 34 -20 31 -47 -6 -47 -23 0 -24 -2 -23 -77 0 -53
5 -88 16 -110 16 -30 16 -33 0 -51 -16 -17 -17 -173 -17 -2415 l0 -2397 2650
0 2650 0 0 2685 0 2685 -2637 0 c-1451 0 -2643 -4 -2649 -8z m4500 -1803 c2
-13 15 -49 29 -80 14 -32 33 -83 43 -115 9 -33 25 -76 35 -96 21 -40 25 -78 9
-78 -14 0 -36 37 -54 93 -15 44 -50 134 -80 202 -25 56 -38 106 -32 122 6 15
9 15 27 -3 11 -12 21 -31 23 -45z m-686 -490 c2 -35 8 -69 14 -76 6 -8 35 -13
77 -13 151 0 270 -25 306 -64 15 -17 52 -95 66 -141 6 -22 29 -87 50 -145 20
-58 43 -125 49 -150 6 -25 22 -76 35 -115 13 -38 37 -115 53 -170 47 -155 88
-283 117 -363 23 -65 25 -86 23 -185 -4 -144 11 -139 -215 -60 -52 18 -54 35
-11 80 l31 32 -33 73 c-18 40 -42 93 -52 118 -24 54 -92 201 -116 250 -9 19
-25 36 -35 38 -29 6 -189 -159 -261 -268 -79 -118 -84 -129 -112 -215 -19 -60
-26 -70 -50 -77 -16 -5 -132 -8 -259 -9 -126 0 -259 -4 -295 -9 -36 -6 -86
-13 -111 -16 l-46 -6 -82 81 c-46 45 -107 100 -137 122 -51 39 -56 41 -114 37
-56 -3 -61 -1 -67 20 -8 33 16 244 38 335 38 159 157 355 302 496 97 96 102
95 168 -22 25 -45 53 -83 61 -85 15 -3 86 40 141 85 16 13 36 23 45 23 9 0 76
-23 147 -51 72 -28 155 -57 185 -64 56 -15 186 -20 214 -9 38 14 -2 88 -66
124 -24 13 -45 26 -48 30 -12 14 -108 79 -145 97 -22 11 -76 30 -120 42 -82
23 -166 60 -172 77 -3 10 138 66 172 68 16 1 21 9 23 38 2 21 -1 53 -6 72 -10
34 -9 35 21 39 18 2 73 3 122 2 l90 -2 3 -64z m-2014 -787 c4 -3 11 -1 15 7 6
10 10 9 15 -4 4 -12 13 -15 31 -11 30 8 32 -4 5 -29 -23 -21 -25 -50 -5 -85 8
-14 14 -35 15 -47 0 -18 -6 -23 -25 -23 -15 0 -28 -7 -32 -17 -5 -13 -8 -12
-16 8 l-9 24 -9 -23 c-5 -13 -14 -76 -20 -140 -6 -64 -12 -119 -15 -121 -2 -2
-4 61 -4 141 0 99 -4 158 -14 185 -8 22 -15 64 -17 93 -4 50 -2 54 21 60 21 5
27 15 35 55 l10 50 6 -58 c4 -32 10 -61 13 -65z m2996 -536 c0 -15 76 -222 94
-256 32 -61 149 -463 180 -620 8 -41 24 -113 36 -160 38 -155 40 -172 22 -209
-40 -83 -70 -25 -76 146 -4 122 -31 237 -76 326 -11 22 -20 50 -20 63 0 14 -9
42 -20 64 -11 22 -20 47 -20 57 0 10 -13 44 -29 75 -17 33 -27 66 -24 78 3 11
1 26 -5 33 -5 6 -13 41 -16 77 -4 36 -11 83 -16 105 -5 22 -13 67 -20 100 -10
54 -23 104 -38 145 -5 13 -3 13 11 1 9 -7 17 -19 17 -25z m-1142 -401 c26 -13
70 -40 97 -60 153 -109 184 -125 236 -125 27 0 66 -7 86 -15 19 -8 50 -15 69
-15 80 0 146 -57 112 -97 -6 -7 -18 -13 -28 -13 -10 0 -23 -6 -29 -14 -7 -8
-21 -12 -33 -8 -14 3 -19 1 -14 -6 4 -7 -12 -19 -43 -33 -49 -20 -50 -22 -31
-38 28 -23 30 -55 4 -59 -11 -2 -27 4 -34 13 -18 22 -49 18 -59 -7 -5 -13 -23
-36 -40 -52 -21 -20 -29 -36 -25 -48 3 -10 1 -18 -4 -18 -5 0 -9 -10 -8 -22 1
-13 -5 -34 -15 -48 -9 -14 -19 -37 -23 -52 -3 -16 -11 -28 -17 -28 -6 0 -7 5
-4 11 4 6 -2 13 -14 16 -12 3 -21 11 -21 17 0 7 -5 17 -12 24 -6 6 -13 22 -15
34 -4 30 -33 110 -44 122 -5 6 -9 18 -9 28 0 17 -5 29 -50 132 -15 34 -53 79
-126 151 -98 95 -104 104 -104 142 0 35 5 43 37 66 48 34 98 35 161 2z"/>
</g>
</svg>
