<?xml version="1.0" standalone="no"?>
<!DOCTYPE svg PUBLIC "-//W3C//DTD SVG 20010904//EN"
 "http://www.w3.org/TR/2001/REC-SVG-20010904/DTD/svg10.dtd">
<svg version="1.0" xmlns="http://www.w3.org/2000/svg"
 width="1000.000000pt" height="750.000000pt" viewBox="0 0 1000.000000 750.000000"
 preserveAspectRatio="xMidYMid meet">
<metadata>
Created by potrace 1.16, written by Peter Selinger 2001-2019
</metadata>
<g transform="translate(0.000000,750.000000) scale(0.100000,-0.100000)"
fill="#000000" stroke="none">
<path d="M9298 6809 c-10 -17 -18 -37 -18 -44 0 -8 -7 -11 -20 -8 -11 3 -20
10 -20 17 0 6 -5 4 -10 -4 -13 -20 -12 -31 2 -27 6 1 14 -6 16 -15 3 -15 -4
-18 -36 -18 -36 0 -39 -2 -35 -24 3 -13 13 -26 23 -29 13 -3 17 -11 13 -26 -4
-16 -13 -21 -38 -21 -37 0 -89 -36 -81 -56 3 -7 -4 -16 -15 -19 -10 -4 -19
-10 -19 -14 0 -18 31 -33 54 -27 20 5 25 2 29 -22 3 -15 0 -30 -6 -34 -9 -6
-8 -10 2 -17 17 -11 7 -41 -14 -41 -17 0 -50 -17 -77 -39 -25 -20 -24 -61 1
-61 11 0 23 5 26 10 5 8 11 7 21 -1 11 -9 14 -7 14 15 0 14 6 27 13 27 6 1 23
3 37 6 14 2 34 5 45 5 11 1 23 6 27 12 4 6 10 8 13 4 10 -9 -72 -178 -89 -184
-26 -10 -25 -33 2 -64 14 -16 29 -30 33 -30 8 0 23 49 21 70 -2 19 7 32 33 46
12 7 19 20 18 33 -2 15 3 21 17 21 10 0 22 5 26 11 4 8 9 7 14 -2 5 -7 -2 -28
-16 -51 -13 -21 -27 -57 -29 -79 -7 -52 -15 -67 -46 -83 -15 -7 -24 -20 -24
-36 0 -17 -9 -29 -30 -39 -16 -8 -25 -16 -18 -18 8 -3 9 -14 2 -36 -5 -17 -6
-39 -3 -49 7 -23 -11 -55 -35 -63 -11 -3 -21 -16 -23 -28 -2 -15 -12 -23 -33
-27 -27 -5 -30 -9 -28 -40 2 -37 36 -75 59 -66 29 11 23 -17 -10 -50 -20 -20
-36 -46 -37 -57 -2 -64 -6 -80 -23 -93 -15 -11 -17 -16 -7 -28 9 -11 8 -18 -5
-31 -14 -14 -15 -18 -3 -25 8 -5 19 -4 26 2 9 7 13 7 13 -1 0 -7 -15 -18 -34
-26 -46 -20 -53 -33 -21 -45 31 -12 42 -35 25 -55 -10 -12 -9 -15 7 -15 10 0
24 -5 31 -12 9 -9 12 -8 12 5 0 20 11 22 28 5 9 -9 12 -6 12 15 0 15 5 27 11
27 5 0 7 5 4 10 -3 6 -2 10 4 10 6 0 7 -14 4 -34 -5 -32 -3 -35 23 -38 20 -2
29 -8 28 -20 -1 -10 -2 -27 -3 -37 -1 -12 -11 -21 -28 -26 -16 -4 -22 -9 -16
-13 7 -4 10 -29 8 -62 l-3 -55 17 37 c13 29 20 35 29 26 20 -20 14 -46 -19
-79 -27 -27 -34 -30 -50 -21 -30 19 -44 14 -24 -8 10 -11 22 -17 27 -14 5 3
20 3 34 0 31 -8 32 -43 2 -56 -13 -5 -45 -23 -73 -40 -27 -17 -74 -42 -103
-56 -53 -24 -64 -45 -27 -50 10 -2 22 -10 27 -19 5 -8 13 -13 18 -10 5 3 16
-5 24 -17 15 -22 14 -24 -29 -64 -25 -24 -45 -47 -45 -53 0 -18 -48 -12 -59 7
-9 14 -10 11 -11 -17 0 -27 3 -31 13 -22 10 8 21 7 40 -2 25 -11 38 -37 19
-37 -4 0 -14 6 -21 13 -10 10 -11 9 -6 -5 5 -12 1 -20 -11 -24 -73 -24 -99
-48 -72 -66 10 -6 10 -10 -2 -18 -13 -9 -13 -11 0 -20 11 -7 8 -9 -14 -7 -22
1 -33 -4 -41 -20 -11 -21 -11 -21 -22 8 -8 21 -18 29 -35 29 -20 0 -27 11 -56
95 -38 112 -129 260 -213 346 -30 30 -70 75 -90 100 -55 66 -167 179 -179 179
-6 0 -32 23 -59 50 -27 28 -53 50 -58 50 -9 0 -65 58 -98 103 -11 15 -38 36
-60 46 -22 11 -49 27 -60 38 -131 119 -225 187 -313 228 -31 15 -81 38 -111
52 -30 14 -89 38 -130 53 -96 36 -234 93 -241 101 -3 3 -39 16 -80 28 -41 12
-108 34 -148 48 -58 20 -86 25 -130 20 -55 -5 -215 -51 -239 -69 -7 -5 -13 -4
-16 4 -4 9 -6 9 -6 -2 -1 -8 -14 -21 -29 -28 -16 -6 -38 -21 -50 -32 -12 -11
-23 -20 -25 -20 -8 0 -157 -149 -157 -156 0 -4 -20 -26 -45 -50 -25 -23 -45
-46 -45 -51 0 -4 -38 -48 -85 -98 -47 -49 -85 -92 -85 -95 -1 -8 -70 -50 -81
-50 -6 0 -8 -3 -6 -7 3 -5 -1 -14 -8 -20 -11 -10 -13 -6 -10 25 l5 37 -9 -33
c-11 -41 -20 -50 -30 -33 -7 11 -11 9 -21 -9 -6 -12 -9 -24 -6 -28 3 -3 6 -1
6 5 0 6 11 8 25 5 32 -6 31 -10 -4 -58 -34 -46 -91 -108 -91 -99 0 4 -8 -1
-17 -11 -10 -10 -18 -23 -18 -29 0 -6 -13 -24 -28 -40 -35 -38 -77 -113 -108
-192 -13 -35 -27 -63 -31 -63 -5 0 -8 -9 -8 -20 0 -11 -7 -20 -16 -20 -8 0
-12 5 -8 11 3 6 1 15 -6 19 -7 4 -9 13 -6 19 4 6 12 9 17 6 5 -4 9 7 9 22 0
16 5 34 12 41 9 9 9 15 0 24 -9 9 -7 14 6 24 9 8 12 14 6 14 -18 0 -37 -28
-30 -45 3 -8 2 -15 -2 -15 -5 0 -15 -23 -24 -50 -9 -28 -12 -48 -7 -45 5 4 6
-8 3 -25 -6 -25 -4 -29 10 -24 9 3 16 2 16 -2 0 -10 -47 -34 -66 -34 -6 0 -15
-12 -19 -27 -3 -15 -10 -30 -14 -33 -5 -3 -12 -16 -16 -29 -6 -20 -4 -23 9
-18 9 4 16 3 16 -2 0 -5 -9 -11 -20 -14 -11 -3 -22 -17 -25 -33 -12 -57 -28
-104 -37 -104 -11 0 -10 16 2 38 5 9 16 42 25 72 9 30 19 62 22 70 3 8 -7 3
-21 -12 -29 -30 -47 -38 -25 -11 8 9 13 24 11 35 -2 10 2 18 8 18 6 0 9 4 5 9
-3 5 3 12 12 14 11 3 7 5 -10 6 -16 0 -26 -3 -23 -8 4 -5 -3 -7 -14 -4 -28 7
-33 20 -8 19 12 -1 23 5 26 13 3 9 -1 11 -18 6 -16 -5 -23 -2 -27 13 -2 11
-15 24 -28 30 -28 13 -50 48 -35 57 5 3 10 0 10 -8 0 -8 9 -22 20 -32 18 -16
23 -17 45 -5 31 17 34 40 3 32 l-22 -5 22 23 c14 16 18 26 11 31 -6 3 -10 10
-9 15 0 5 -9 10 -20 12 -16 3 -19 7 -10 17 8 9 6 14 -6 19 -21 8 -45 -11 -37
-30 3 -8 -1 -14 -11 -14 -13 0 -20 -16 -18 -41 1 -3 -6 -6 -14 -6 -8 0 -14 7
-14 15 0 9 3 12 7 9 3 -4 12 5 20 19 16 32 16 37 2 29 -14 -9 -37 24 -31 47 2
10 1 26 -3 35 -8 21 -37 -71 -39 -125 -1 -23 -9 -39 -26 -52 l-25 -18 28 -7
c19 -5 27 -14 27 -28 0 -20 0 -20 -14 -2 -13 18 -15 18 -30 2 -13 -12 -15 -26
-10 -51 5 -32 4 -36 -21 -42 l-27 -7 29 -18 28 -19 -32 6 c-27 5 -33 3 -33
-10 0 -9 8 -20 18 -23 21 -8 42 -35 36 -45 -3 -5 -14 -8 -25 -8 -10 0 -19 -4
-19 -10 0 -5 -12 -10 -27 -10 -24 -1 -26 -3 -13 -13 19 -15 45 -65 38 -72 -3
-3 -17 -1 -32 5 -15 5 -35 10 -44 10 -14 -1 -13 -4 6 -19 29 -25 28 -39 -2
-47 -14 -3 -27 -12 -30 -20 -8 -21 26 -74 51 -80 21 -6 34 -26 16 -23 -5 1
-15 1 -23 0 -11 -1 -11 -4 -2 -13 21 -21 13 -31 -23 -25 -25 4 -35 2 -35 -8 0
-7 7 -15 15 -19 8 -3 12 -12 9 -21 -4 -9 0 -15 9 -15 21 0 32 -19 18 -33 -7
-7 -12 -6 -17 6 -7 20 -69 57 -94 57 -25 0 -31 12 -35 66 -5 76 -36 84 -50 14
-3 -14 -12 -37 -19 -51 -10 -20 -11 -33 -2 -60 9 -28 16 -35 44 -37 31 -3 32
-2 30 30 -3 28 0 33 17 30 37 -6 43 -10 38 -35 -4 -19 -15 -28 -49 -37 -46
-13 -94 -7 -94 12 0 6 -9 3 -20 -7 -11 -10 -20 -26 -20 -37 0 -10 -5 -18 -11
-18 -7 0 -8 -12 -4 -32 4 -24 3 -29 -4 -18 -9 13 -13 12 -30 -7 -19 -20 -19
-22 -3 -37 10 -8 28 -14 40 -13 19 1 23 6 21 32 -4 43 26 85 61 85 35 0 60 -9
60 -21 0 -5 -17 -6 -39 -3 -24 4 -41 2 -45 -5 -11 -17 -19 -129 -11 -149 5
-15 8 -14 25 8 l19 25 -6 -24 c-5 -21 -3 -23 17 -18 37 10 55 -6 55 -50 0 -31
-4 -39 -21 -41 -14 -2 -29 7 -43 24 -17 21 -24 25 -33 16 -14 -14 -32 -16 -24
-3 3 4 -6 6 -19 3 -14 -2 -22 -8 -19 -13 13 -22 -23 -34 -97 -31 l-76 3 21 24
c15 17 24 21 33 13 9 -7 22 -7 42 0 16 6 32 8 35 5 3 -4 6 9 6 28 -1 39 -36
74 -61 58 -8 -5 -17 -9 -21 -9 -14 0 -9 27 7 40 21 18 19 40 -5 40 -21 0 -46
36 -42 62 2 9 -2 19 -8 23 -8 5 -8 11 1 21 9 11 8 14 -3 14 -10 0 -14 14 -14
55 0 50 3 56 23 61 24 6 30 19 13 29 -5 3 -10 21 -10 40 0 24 -7 38 -25 52
l-26 18 27 140 c23 127 25 155 20 305 -6 192 -5 181 -16 155 -8 -18 -9 -18
-10 5 l-2 25 -8 -25 c-7 -23 -8 -23 -9 -3 -1 12 -8 28 -16 37 -9 8 -15 19 -14
23 3 19 -2 34 -10 29 -5 -3 -9 10 -8 28 0 19 5 32 10 29 12 -7 -1 33 -25 77
-14 27 -17 29 -13 10 5 -19 4 -22 -4 -10 -6 8 -8 23 -5 34 4 11 2 16 -4 12 -5
-3 -12 4 -15 15 -4 13 -10 18 -18 13 -8 -5 -10 -3 -4 6 4 7 4 15 -1 19 -5 3
-17 18 -27 34 -17 26 -17 28 0 34 9 4 19 1 21 -5 2 -7 8 -10 13 -6 5 3 9 -4 9
-15 0 -12 5 -21 11 -21 6 0 8 -7 5 -16 -6 -16 17 -58 26 -48 3 3 5 -3 5 -13
-1 -10 4 -17 12 -15 8 2 11 -3 8 -11 -3 -7 1 -14 8 -14 11 0 11 6 -2 31 -8 17
-22 39 -30 48 -9 10 -12 25 -8 39 4 13 3 19 -3 15 -5 -3 -8 7 -6 25 2 16 0 28
-5 24 -5 -3 -7 5 -4 17 4 19 3 20 -6 8 -13 -18 -15 -1 -2 19 10 15 11 12 35
-80 8 -30 25 -76 39 -102 18 -36 23 -61 21 -105 -1 -38 0 -49 5 -32 8 24 8 24
14 -10 4 -19 8 -48 10 -65 3 -24 4 -22 5 10 1 22 -4 74 -12 115 -8 41 -17 88
-20 103 -29 160 -146 439 -250 596 -25 38 -46 72 -46 76 0 7 -81 110 -125 159
-6 6 -39 52 -74 101 -197 275 -253 342 -332 395 -81 55 -138 64 -376 56 -205
-6 -214 -7 -348 -33 -130 -25 -168 -33 -205 -44 -123 -36 -209 -63 -235 -74
-67 -27 -131 -59 -146 -71 -8 -8 -27 -15 -42 -16 -14 -1 -23 -6 -21 -10 3 -4
-2 -8 -10 -8 -9 0 -16 -5 -16 -11 0 -6 -12 -8 -32 -4 -18 4 -49 9 -68 13 -34
5 -34 6 -10 14 24 7 24 8 -3 4 -33 -4 -142 17 -159 32 -7 5 -30 12 -50 16 -95
15 -109 19 -115 29 -3 5 -2 7 4 4 5 -4 19 2 29 11 10 10 27 21 37 25 10 4 17
12 15 18 -2 6 -6 9 -10 7 -3 -2 -14 5 -25 14 -18 17 -22 16 -76 -13 -47 -24
-60 -27 -76 -17 -14 8 -28 9 -52 1 l-34 -11 32 -1 c42 -1 54 -21 13 -21 -21 0
-29 -4 -24 -12 4 -7 3 -8 -5 -4 -14 9 -41 -17 -41 -38 0 -9 -4 -16 -10 -16 -5
0 -10 7 -10 16 0 11 -5 14 -16 10 -9 -3 -18 -6 -20 -6 -2 0 -4 -4 -4 -10 0
-15 -33 -50 -48 -50 -7 0 -20 -7 -28 -15 -10 -9 -24 -13 -40 -9 -14 4 -24 2
-24 -4 0 -6 8 -12 18 -15 14 -3 12 -6 -9 -15 -32 -13 -79 -55 -79 -70 0 -6 -9
-16 -20 -22 -11 -6 -19 -14 -19 -18 1 -4 1 -14 0 -22 -1 -13 -2 -13 -11 0 -8
12 -10 11 -10 -7 0 -13 -4 -23 -8 -23 -9 0 -37 -67 -37 -88 0 -7 -7 -17 -15
-22 -13 -9 -13 -10 0 -10 12 0 13 -2 1 -9 -9 -6 -11 -18 -7 -35 3 -14 3 -26
-1 -25 -5 1 -15 1 -23 0 -13 -1 -13 -3 -1 -10 18 -12 41 -3 41 15 0 8 5 14 11
14 5 0 7 5 4 10 -3 6 -1 10 4 10 6 0 11 15 11 33 0 21 3 28 9 18 6 -10 13 -10
28 -2 11 5 24 7 28 3 5 -4 5 -2 2 4 -4 7 0 17 8 24 8 7 15 18 15 26 0 7 9 16
20 19 11 3 20 11 20 16 0 6 4 8 9 4 10 -6 51 32 51 47 0 4 9 8 19 8 11 0 21 3
23 8 2 4 26 25 53 47 28 22 53 45 57 50 5 7 8 7 8 0 0 -5 7 1 15 15 7 14 16
24 19 23 10 -5 116 49 116 58 0 5 9 9 19 9 11 0 27 7 36 16 15 16 19 16 51 0
19 -9 48 -16 63 -16 16 0 42 -7 57 -15 16 -8 43 -15 61 -15 17 0 35 -4 38 -10
3 -5 19 -10 34 -10 15 0 31 -3 35 -7 9 -9 14 -10 56 -12 30 -1 44 -21 15 -21
-8 0 -15 -4 -15 -10 0 -9 -72 -62 -115 -86 -274 -149 -465 -291 -600 -448 -22
-25 -48 -49 -57 -52 -10 -3 -18 -10 -18 -17 0 -6 -14 -26 -32 -44 -45 -47 -16
-41 36 7 24 22 46 40 50 40 4 0 14 7 22 15 9 8 20 15 25 15 6 0 -4 -12 -23
-27 -18 -15 -50 -44 -72 -65 -26 -26 -47 -38 -67 -38 -29 0 -40 22 -18 36 6 3
18 22 26 41 11 27 11 38 2 49 -15 18 -8 26 25 28 15 0 29 8 32 19 3 9 10 17
15 17 5 0 9 7 9 16 0 10 -6 14 -15 10 -21 -8 -19 6 5 32 11 12 20 24 20 27 0
7 37 42 79 74 17 13 31 30 31 37 0 8 5 14 10 14 6 0 10 5 10 11 0 6 7 17 15
26 11 11 13 19 5 28 -13 16 5 69 20 60 17 -11 82 25 76 41 -3 8 1 14 10 14 10
0 14 6 11 14 -4 10 -1 13 9 9 7 -3 14 -1 14 5 0 18 -31 22 -47 7 -8 -9 -28
-22 -43 -30 -16 -8 -31 -24 -35 -35 -3 -11 -13 -20 -21 -20 -8 0 -14 -5 -14
-11 0 -13 -19 -32 -48 -48 -12 -6 -22 -17 -22 -23 0 -13 -30 -37 -47 -38 -7 0
-13 5 -13 10 0 6 7 10 15 10 8 0 19 9 24 19 9 15 6 22 -12 34 -21 14 -21 15
12 11 29 -3 40 2 77 40 24 24 44 48 44 55 0 6 7 11 15 11 8 0 15 4 15 10 0 5
7 7 15 4 8 -4 15 -1 15 5 0 25 66 71 102 71 19 0 20 2 8 10 -12 7 -8 10 15 10
24 0 27 -2 15 -11 -12 -8 -11 -9 5 -5 11 3 32 8 48 12 15 3 27 10 27 15 0 5
10 9 21 9 16 0 20 5 16 20 -3 11 -1 20 4 20 5 0 9 -7 9 -16 0 -8 4 -13 10 -9
15 9 0 35 -21 35 -10 0 -19 -4 -19 -10 0 -5 -15 -12 -34 -16 -19 -3 -37 -13
-41 -22 -4 -11 -8 -13 -13 -5 -4 6 -22 14 -41 18 -25 5 -32 4 -26 -5 5 -8 0
-11 -16 -10 -32 3 -89 -21 -89 -38 0 -7 -4 -11 -8 -8 -5 3 -23 -8 -41 -24 -18
-17 -36 -30 -42 -30 -5 0 -9 -4 -9 -10 0 -5 5 -10 10 -10 6 0 10 -4 10 -10 0
-5 -7 -7 -14 -4 -24 9 -76 -27 -76 -53 0 -12 -5 -25 -10 -28 -6 -3 -10 3 -10
14 0 12 -5 21 -11 21 -7 0 -10 -12 -7 -30 3 -20 0 -30 -9 -30 -7 0 -13 -4 -13
-10 0 -5 9 -10 20 -10 11 0 20 -4 20 -10 0 -6 -9 -6 -22 -2 -13 5 -30 8 -38 7
-8 -1 -24 -3 -35 -4 -17 -1 -18 -3 -5 -11 13 -8 12 -10 -3 -10 -21 0 -57 -35
-57 -55 0 -9 -6 -12 -17 -8 -10 4 -14 2 -10 -4 7 -11 -55 -83 -71 -83 -6 0
-12 -3 -15 -7 -2 -5 -3 -3 -1 4 1 6 -4 19 -12 30 -14 17 -15 15 -10 -17 4 -21
3 -30 -3 -22 -6 11 -10 10 -15 -3 -8 -23 -8 -27 4 -20 5 3 10 1 10 -5 0 -7 -9
-14 -20 -17 -11 -3 -20 -14 -20 -24 0 -10 -5 -21 -10 -24 -6 -3 -10 -17 -10
-31 0 -14 4 -22 10 -19 6 3 10 2 10 -4 0 -5 -9 -9 -20 -8 -13 1 -19 6 -15 15
3 7 5 25 5 38 0 14 4 22 10 19 6 -3 10 4 10 17 0 28 21 78 33 78 5 0 5 9 2 20
-3 11 -2 20 3 20 5 0 13 20 19 45 6 25 8 45 6 45 -15 0 -43 -23 -43 -35 0 -17
-41 -99 -52 -103 -4 -2 -8 -16 -8 -31 0 -17 -10 -36 -25 -49 -14 -12 -25 -33
-25 -46 0 -29 36 -77 54 -70 7 3 34 -5 61 -16 27 -11 55 -18 62 -16 8 3 12 2
8 -3 -3 -5 12 -15 32 -21 41 -13 66 -30 44 -30 -7 0 -21 5 -31 10 -13 7 -21 7
-25 0 -3 -5 -1 -10 5 -10 6 0 8 -5 4 -12 -5 -8 -2 -9 9 -5 9 3 19 2 23 -4 11
-18 -2 -19 -51 -5 -38 12 -50 12 -60 2 -19 -19 -65 -109 -65 -128 0 -18 -14
-31 -22 -22 -3 3 0 25 8 50 12 41 11 48 -8 45 -5 0 -8 4 -8 10 0 6 6 9 14 6
22 -9 28 5 8 19 -15 12 -14 13 16 14 20 0 32 5 32 14 0 15 -145 54 -157 43 -3
-4 1 -7 11 -7 10 0 14 -5 10 -11 -3 -6 -17 -8 -30 -5 -26 7 -31 -3 -13 -21 15
-15 1 -36 -17 -29 -8 3 -14 0 -13 -7 5 -37 -2 -59 -16 -53 -10 3 -15 -1 -15
-12 0 -10 -5 -23 -12 -30 -9 -9 -8 -12 5 -12 9 0 17 5 17 12 0 6 2 9 5 7 2 -3
2 -15 -2 -27 -4 -15 -11 -20 -27 -18 -11 3 -24 5 -29 5 -4 1 -2 10 5 21 11 16
10 23 -5 37 -17 17 -18 17 -11 0 3 -9 2 -23 -4 -30 -14 -18 -37 -90 -33 -107
5 -23 25 -31 34 -14 5 8 12 12 18 9 5 -4 9 0 9 8 0 8 13 20 30 26 27 9 30 8
30 -10 0 -16 7 -19 39 -19 43 0 59 13 42 34 -9 11 -8 18 4 30 10 10 13 24 9
39 -6 28 5 40 26 26 10 -5 11 -9 3 -9 -8 0 -12 -18 -11 -57 1 -32 3 -48 5 -36
5 26 33 53 33 31 0 -8 -5 -19 -12 -26 -23 -23 2 -24 39 -1 48 30 73 51 73 62
0 5 25 33 55 62 41 38 61 51 76 48 17 -5 18 -8 6 -22 -30 -34 -30 -42 -1 -31
15 6 28 9 30 7 2 -2 -19 -25 -47 -52 -33 -32 -48 -53 -45 -64 5 -14 5 -14 -7
1 -12 15 -14 15 -26 -4 -13 -21 -12 -21 55 -15 l69 6 -65 -16 c-36 -8 -67 -18
-70 -22 -3 -4 -21 -12 -40 -19 -34 -11 -33 -11 18 -6 28 2 52 2 52 0 0 -6 -56
-37 -65 -36 -35 1 -41 -4 -10 -9 l40 -7 -60 -19 c-33 -11 -60 -26 -60 -33 0
-7 -6 -17 -14 -21 -8 -6 -12 -19 -9 -35 3 -14 2 -24 -1 -21 -20 12 -42 -28
-45 -82 0 -11 -4 -19 -9 -16 -4 2 -7 -3 -7 -12 0 -9 4 -13 10 -10 14 9 12 -7
-4 -28 -8 -10 -16 -15 -19 -10 -11 18 -4 69 11 86 11 12 13 21 6 25 -17 11
-26 62 -14 77 6 7 7 20 4 29 -5 14 -15 16 -50 11 -69 -9 -91 -23 -64 -40 7 -4
7 -12 0 -25 -14 -25 -13 -30 5 -24 20 8 19 -11 -2 -32 -16 -15 -16 -19 -1 -45
9 -15 12 -29 7 -31 -6 -2 -7 -26 -3 -60 5 -46 11 -57 27 -62 27 -7 21 -12 -25
-19 -35 -5 -38 -4 -38 18 0 13 -6 26 -12 28 -10 4 -9 8 2 16 13 10 13 13 -2
25 -10 7 -18 16 -18 20 0 3 8 6 18 7 10 0 12 3 5 6 -18 7 -16 23 2 23 13 0 15
15 12 88 l-2 87 -39 -2 c-44 -2 -45 -3 -51 -36 -3 -13 -12 -38 -20 -53 -18
-34 -20 -74 -4 -74 6 0 9 7 5 15 -3 8 -1 25 4 37 7 17 9 5 7 -44 -1 -47 -6
-68 -15 -68 -8 0 -10 8 -6 25 5 19 2 25 -11 25 -9 0 -14 -4 -11 -8 3 -5 -6
-41 -19 -81 -14 -40 -25 -89 -25 -109 0 -28 -3 -33 -10 -22 -9 13 -10 13 -11
0 -2 -26 3 -45 14 -52 6 -4 2 -19 -12 -43 -27 -47 -17 -60 15 -20 18 22 24 26
24 13 0 -16 4 -16 46 2 48 21 87 27 44 7 -30 -14 -80 -47 -98 -64 -7 -7 -18
-13 -24 -13 -6 0 -9 -2 -6 -5 7 -8 118 44 149 69 14 12 23 28 21 35 -3 10 1
12 12 8 19 -8 21 4 4 22 -11 11 -9 13 10 8 23 -5 28 0 34 38 2 14 -2 19 -14
17 -9 -1 -19 1 -21 5 -10 16 65 13 77 -2 9 -13 11 -11 11 9 0 13 -3 22 -7 19
-11 -6 -10 0 7 34 16 32 11 68 -8 56 -6 -3 -7 -1 -3 5 9 15 36 4 36 -14 0 -21
21 -17 27 6 3 11 9 20 14 20 14 0 10 -42 -6 -74 -9 -16 -13 -31 -10 -34 5 -6
97 89 175 181 30 36 56 61 58 56 4 -10 -14 -37 -59 -87 -19 -20 -50 -57 -71
-82 -48 -59 -128 -143 -128 -134 0 4 -9 -1 -19 -10 -10 -10 -17 -25 -14 -35 4
-17 -18 -31 -54 -35 -6 -1 -19 -9 -30 -18 -18 -16 -68 -46 -127 -76 -16 -8
-49 -17 -73 -20 -44 -5 -45 -6 -39 -35 3 -17 1 -36 -5 -43 -9 -11 -7 -14 7
-14 14 0 15 -3 6 -8 -32 -21 -24 -128 11 -142 16 -6 18 -9 5 -9 -9 -1 -23 -4
-31 -7 -10 -4 -17 1 -19 15 -3 17 -5 18 -21 6 -10 -7 -19 -22 -20 -34 -1 -20
-17 -31 -17 -12 0 16 -55 38 -76 31 -10 -4 -27 -3 -38 2 -10 6 -31 8 -47 6
-18 -3 -30 1 -34 10 -4 12 -8 12 -20 2 -13 -10 -19 -9 -35 5 -19 17 -22 17
-37 3 -13 -13 -20 -14 -41 -5 -20 9 -26 9 -30 -1 -9 -28 -51 4 -52 41 0 9 -6
17 -14 17 -8 0 -16 10 -18 22 -2 12 -9 23 -15 26 -10 3 -13 -27 -13 -126 0
-149 -5 -142 98 -143 106 0 146 -10 150 -37 3 -20 1 -21 -25 -11 -15 6 -57 12
-93 13 -36 1 -74 6 -84 11 -18 8 -17 5 4 -26 13 -19 28 -36 32 -37 20 -9 -7
-22 -43 -22 l-39 0 0 -106 0 -106 63 6 c34 4 69 5 78 1 17 -7 23 -50 9 -73 -9
-16 -9 -16 -10 1 0 23 -16 22 -23 -3 -3 -13 -10 -18 -21 -14 -9 3 -23 1 -30
-5 -11 -10 -17 -8 -25 6 -6 10 -11 14 -11 9 0 -5 -7 -3 -15 4 -13 11 -15 5
-15 -44 l0 -56 204 6 204 7 7 -47 c11 -72 8 -74 -195 -82 -96 -4 -185 -7 -197
-8 -22 -1 -23 -4 -23 -98 l0 -97 30 11 c17 5 36 8 44 5 7 -3 30 0 51 7 27 10
48 11 76 3 29 -7 43 -6 54 3 19 15 163 23 226 12 l44 -8 -4 -74 c-3 -73 -9
-98 -18 -72 -10 27 -20 9 -22 -38 -1 -43 1 -50 18 -50 22 0 36 40 18 52 -9 5
-9 10 -1 18 9 9 22 6 53 -10 23 -11 47 -20 54 -19 36 4 49 -2 44 -21 -3 -13 0
-20 9 -20 8 0 14 7 14 15 0 19 26 19 34 0 7 -19 26 -20 26 -1 0 16 18 31 26
23 3 -3 1 -15 -6 -26 -14 -27 7 -29 25 -4 11 15 12 10 5 -27 -5 -25 -9 -49
-10 -53 0 -4 -9 -3 -19 3 -25 13 -31 13 -31 -1 0 -6 -11 -20 -25 -31 -18 -14
-24 -26 -20 -39 5 -15 1 -19 -22 -20 -17 -1 -21 -3 -10 -6 9 -2 17 -9 17 -14
0 -24 -40 3 -61 42 -12 24 -25 18 -31 -16 -6 -31 7 -42 21 -18 9 16 12 16 21
3 5 -8 8 -20 6 -26 -3 -7 5 -9 20 -6 14 2 24 0 24 -7 0 -6 -7 -11 -16 -11 -11
0 -15 -6 -12 -18 3 -10 -1 -23 -9 -31 -12 -10 -13 -8 -7 13 6 24 4 26 -29 26
-20 0 -39 -5 -42 -10 -9 -14 5 -71 15 -65 4 3 21 -2 36 -10 27 -14 28 -15 6
-15 -13 0 -21 -4 -17 -10 3 -5 13 -7 23 -4 14 5 14 3 -2 -10 -20 -16 -20 -16
0 -16 28 0 26 -26 -3 -41 -14 -8 -27 -28 -34 -52 -11 -42 -6 -72 11 -62 6 4 8
10 5 15 -10 16 50 16 62 0 11 -13 12 -12 13 8 0 12 7 25 15 28 8 4 15 12 15
20 0 24 24 15 54 -21 16 -19 35 -35 43 -35 7 0 13 -4 13 -10 0 -5 -13 -7 -28
-4 -24 5 -34 0 -55 -26 -29 -34 -34 -50 -15 -50 7 0 2 -7 -10 -16 -12 -8 -22
-22 -22 -31 0 -11 -4 -13 -12 -6 -13 10 -53 14 -43 5 3 -3 0 -11 -5 -17 -8 -9
-6 -14 5 -19 8 -3 15 -1 15 4 0 6 4 10 9 10 12 0 9 -33 -4 -43 -6 -5 -4 -12 6
-20 8 -6 15 -21 15 -32 0 -11 4 -35 8 -54 6 -22 5 -31 -2 -27 -6 3 -13 2 -17
-4 -3 -5 -1 -10 4 -10 23 0 10 -16 -14 -18 -16 -1 -25 3 -25 12 0 8 -3 21 -6
29 -4 11 2 14 26 11 19 -2 29 0 25 6 -3 6 -19 10 -36 10 -28 0 -29 -2 -29 -48
0 -26 6 -56 13 -67 18 -30 15 -134 -6 -177 -15 -32 -16 -41 -5 -60 13 -22 14
-29 17 -56 0 -7 5 -11 10 -8 5 3 16 -5 25 -19 20 -30 20 -36 1 -29 -8 4 -15
13 -15 21 0 11 -6 10 -29 -6 -27 -19 -29 -24 -20 -54 11 -40 11 -47 -1 -47 -5
0 -10 9 -10 21 0 11 -5 17 -10 14 -7 -4 -7 -12 0 -25 7 -14 5 -19 -10 -23 -18
-5 -30 -29 -12 -25 4 0 18 -4 32 -11 24 -11 24 -11 2 -7 -20 4 -23 1 -19 -15
6 -22 -8 -26 -17 -4 -4 11 -11 13 -28 6 -23 -9 -32 -11 -45 -11 -5 0 -1 -4 7
-10 10 -6 5 -9 -19 -8 -18 1 -35 7 -38 15 -8 21 -32 16 -26 -7 4 -14 0 -20
-11 -20 -9 0 -16 -4 -16 -10 0 -5 -7 -10 -15 -10 -13 0 -89 -42 -232 -127 -28
-18 -55 -28 -59 -25 -4 4 -4 1 1 -7 6 -10 2 -12 -16 -7 -13 3 -18 3 -11 0 10
-5 5 -14 -17 -35 -17 -15 -31 -36 -31 -45 0 -14 9 -10 37 18 39 36 123 93 123
82 0 -3 -10 -14 -23 -25 -12 -10 -16 -18 -9 -19 7 0 0 -11 -15 -25 -15 -13
-38 -34 -49 -46 -13 -12 -27 -18 -34 -14 -9 5 -10 1 -5 -14 5 -15 1 -29 -12
-43 -18 -21 -18 -21 4 -16 l21 6 -19 -34 c-23 -41 -24 -54 -5 -54 9 0 12 -7 9
-20 -3 -11 -9 -20 -14 -20 -19 0 -8 -19 13 -23 l23 -4 -23 -2 c-13 0 -20 -5
-17 -11 18 -30 22 -234 5 -254 -7 -9 -7 -22 0 -40 6 -17 6 -26 0 -26 -18 0
-10 -20 8 -20 16 -1 15 -2 -2 -15 -18 -13 -18 -16 -2 -40 15 -22 14 -29 -5
-27 -3 1 -6 -12 -6 -29 0 -22 4 -28 16 -24 13 4 16 -4 17 -35 2 -31 -2 -41
-17 -45 -11 -4 -16 -11 -13 -17 4 -6 10 -5 15 3 6 9 9 -1 9 -30 0 -35 3 -42
16 -37 8 3 12 2 9 -4 -3 -6 -15 -10 -26 -10 -10 0 -19 -4 -19 -10 0 -5 4 -10
8 -10 4 0 8 -9 9 -20 1 -13 -4 -20 -15 -20 -14 0 -15 -2 -3 -9 12 -8 12 -12 2
-24 -8 -11 -9 -17 -1 -22 7 -4 7 -11 2 -18 -15 -20 -15 -119 0 -128 10 -7 10
-9 1 -9 -16 0 -17 -44 -3 -71 7 -13 7 -19 0 -19 -16 0 -11 -28 8 -40 16 -11
16 -11 -1 -6 -13 4 -17 0 -16 -22 0 -15 3 -21 6 -14 2 6 9 12 14 12 6 0 7 -4
4 -10 -4 -7 128 -10 388 -10 393 0 395 0 400 21 3 12 10 18 17 14 6 -4 9 -13
6 -21 -7 -19 129 -20 138 -1 5 9 7 9 12 0 4 -10 297 -13 1413 -13 1222 0 1410
2 1427 15 25 19 40 19 24 0 -11 -13 4 -15 124 -15 123 0 169 9 116 23 -11 3
-20 11 -20 18 0 10 3 10 12 1 7 -7 25 -12 40 -12 16 0 31 -7 34 -15 5 -13 277
-15 2311 -15 2025 0 2304 2 2300 15 -8 19 11 31 26 16 8 -8 8 -11 -1 -11 -7 0
-12 -4 -12 -10 0 -5 6 -10 14 -10 17 0 31 35 20 51 -4 8 3 9 27 4 46 -10 51
-14 44 -36 -6 -17 -1 -19 64 -19 68 0 71 1 59 19 -7 11 -20 22 -30 24 -12 3
-16 11 -12 21 3 9 9 14 13 11 4 -2 -3 17 -15 43 -13 26 -24 56 -24 67 -1 23
-28 61 -50 67 -17 5 -51 -23 -34 -29 6 -2 9 -15 6 -28 -3 -17 1 -27 12 -31 9
-3 13 -11 10 -16 -4 -5 -6 -27 -6 -49 1 -56 -29 -53 -58 6 -8 17 -16 34 -18
38 -3 5 5 4 16 -2 21 -11 21 -10 7 22 -11 28 -12 38 -1 58 26 51 42 74 56 87
8 7 9 11 3 7 -9 -4 -13 2 -13 20 0 24 1 25 23 10 13 -8 39 -35 57 -61 l35 -45
60 5 c130 12 219 23 204 24 -17 2 -100 35 -132 53 -10 5 -41 19 -70 30 -28 11
-78 32 -111 47 -53 23 -56 27 -40 39 22 16 35 17 31 2 -2 -12 296 -148 326
-149 9 0 17 -4 17 -9 0 -5 33 -19 73 -31 110 -34 128 -38 187 -45 30 -4 82
-13 115 -20 33 -8 75 -17 93 -20 18 -4 69 -34 112 -67 48 -36 93 -61 115 -65
l35 -6 0 725 0 724 -55 17 c-31 9 -64 17 -74 17 -10 0 -21 3 -25 7 -3 4 -28 9
-54 11 -26 2 -60 9 -77 16 -16 7 -38 12 -49 10 -10 -1 -59 10 -108 27 -60 19
-117 30 -178 34 -76 4 -201 26 -285 51 -18 6 -41 9 -177 30 l-48 7 0 43 c0 34
3 42 15 38 8 -4 15 -1 15 5 0 6 -4 11 -9 11 -5 0 -12 7 -15 16 -6 15 3 16 89
10 82 -6 95 -5 95 8 0 18 45 22 55 6 3 -5 -3 -10 -14 -10 -11 0 -23 -5 -27
-12 -5 -8 -2 -9 10 -5 9 4 42 0 73 -8 80 -21 125 -20 121 2 -2 9 -14 20 -28
23 -22 5 -23 7 -7 13 10 4 28 5 40 3 76 -16 81 -17 67 -26 -18 -11 51 -25 82
-17 12 4 28 1 35 -4 6 -6 18 -7 25 -3 8 5 -3 12 -32 20 l-45 12 55 2 c181 8
280 -3 280 -30 0 -12 40 -13 59 -1 11 7 10 11 -5 20 -30 17 2 13 41 -6 19 -9
35 -23 35 -30 0 -8 13 -21 28 -30 35 -20 77 -92 62 -107 -6 -6 -16 -2 -30 14
-17 20 -23 21 -47 11 -16 -6 -66 -12 -113 -13 -47 -2 -89 -7 -93 -13 -6 -7
-10 -6 -13 2 -4 8 -21 10 -54 6 -33 -4 -55 -2 -65 7 -9 8 -15 8 -15 2 0 -6 8
-13 18 -16 46 -14 395 -86 417 -86 l25 0 0 213 0 212 -51 55 c-80 88 -80 87
-10 118 l61 27 0 45 c0 45 -2 48 -91 131 -50 46 -96 87 -103 91 -7 5 2 12 22
20 20 8 32 19 32 31 0 15 3 17 14 8 20 -17 126 25 126 50 0 14 -7 19 -30 19
-20 0 -30 5 -30 15 0 8 5 15 10 15 18 0 10 18 -10 25 -30 10 -14 25 26 25 29
0 34 3 34 24 0 13 -6 27 -12 30 -10 5 -10 7 0 12 16 8 18 1104 1 1121 -8 8 -8
13 0 17 14 9 14 43 0 48 -9 3 -9 9 0 25 6 12 11 44 11 72 0 40 -3 51 -16 51
-9 0 -18 9 -21 20 -3 11 -9 20 -14 20 -22 0 -6 18 21 24 17 3 30 10 30 16 0 6
-5 8 -10 5 -17 -10 -68 33 -79 68 -6 18 -12 52 -13 75 -1 29 -7 47 -19 56 -10
6 -19 18 -21 26 -4 19 -35 43 -47 36 -5 -3 -12 1 -15 10 -4 9 8 29 30 52 20
20 41 49 46 63 5 15 18 29 29 32 16 4 18 11 13 39 -4 18 -13 38 -20 44 -8 6
-14 16 -14 22 0 5 -23 16 -51 23 -28 7 -54 19 -56 26 -3 7 -14 13 -24 13 -26
0 -69 29 -69 47 0 11 4 11 20 3 22 -12 27 -1 8 18 -9 9 -9 15 -1 23 8 8 13 8
18 0 4 -8 11 -6 22 4 14 15 17 14 35 -4 22 -25 38 -27 38 -6 0 8 5 15 10 15 6
0 10 -7 10 -16 0 -32 25 -6 26 27 1 19 5 42 9 51 4 10 -3 37 -19 68 -31 63
-32 69 -5 44 21 -19 21 -18 45 9 20 23 23 35 18 63 -4 21 -2 40 6 49 6 8 9 19
6 24 -9 13 15 51 31 51 7 0 13 3 13 8 0 10 -59 62 -71 62 -5 0 -16 15 -25 33
-13 28 -25 36 -64 46 -27 7 -51 19 -54 27 -3 8 -1 14 5 14 6 0 6 6 1 18 -5 9
-7 22 -5 29 3 7 -13 14 -41 18 -33 5 -47 13 -52 27 -3 12 -9 17 -13 12 -3 -5
-17 -15 -30 -22 -22 -13 -23 -12 -18 7 4 16 0 21 -13 21 -11 0 -22 5 -25 10
-3 6 -21 11 -38 11 -18 1 -24 3 -14 6 22 6 22 15 -4 36 -21 18 -23 47 -3 54 7
2 17 -10 22 -27 6 -16 16 -30 23 -30 6 0 9 7 5 15 -3 8 -2 15 3 15 12 0 51
-45 51 -58 0 -7 7 -12 16 -12 13 0 14 3 5 14 -14 17 -1 28 18 16 8 -4 11 -15
7 -25 -4 -13 -2 -16 9 -11 9 3 15 0 15 -8 0 -8 7 -17 16 -20 19 -7 54 19 54
40 0 7 6 11 13 9 9 -4 11 10 10 54 -2 33 2 63 7 66 21 13 8 25 -27 25 -92 1
-195 46 -148 64 8 3 15 9 15 13 0 8 -9 12 -90 46 l-35 15 40 -6 c22 -3 42 -9
43 -14 6 -14 32 -9 32 7 0 8 7 15 15 15 26 0 16 20 -20 41 -19 12 -35 27 -35
35 0 8 -6 17 -14 20 -8 3 -16 18 -19 33 -4 20 -15 32 -34 39 -15 5 -37 17 -48
26 -19 16 -18 16 18 10 23 -4 37 -2 37 4 0 6 -4 12 -9 14 -13 4 -26 78 -13 78
5 0 7 11 5 24 -4 18 0 26 16 31 23 7 28 39 9 52 -7 4 -29 8 -48 10 -21 1 -41
10 -51 22 -11 13 -19 17 -26 10 -7 -7 -13 -7 -17 -1 -3 6 -2 13 4 17 7 4 6 13
-1 27 -7 12 -12 47 -13 77 -1 31 -5 61 -9 68 -10 16 8 26 33 18 19 -6 19 -8 5
-28 -19 -27 -19 -41 0 -34 8 4 17 2 20 -3 10 -16 25 -11 25 7 0 14 2 14 20 -2
11 -10 20 -13 20 -7 0 19 47 14 53 -5 2 -10 8 -26 12 -35 5 -12 0 -18 -17 -21
-13 -2 -8 -3 10 -1 22 2 35 -2 39 -12 3 -8 12 -13 20 -10 9 4 19 -6 29 -29 15
-36 34 -47 34 -19 0 8 11 30 24 47 13 18 27 43 31 56 6 20 4 23 -10 17 -20 -7
-61 29 -67 59 -2 14 3 21 20 23 12 2 20 7 17 11 -2 5 -31 2 -62 -5 -76 -19
-175 -5 -154 20 13 15 91 20 91 6 0 -19 49 -10 64 12 25 35 20 51 -11 45 -30
-6 -53 1 -53 14 0 5 6 9 14 9 9 0 14 12 14 35 0 42 -10 44 -50 10 -36 -30 -79
-36 -57 -7 7 9 20 23 28 30 8 7 16 28 16 47 1 30 -1 33 -17 24 -10 -5 -18 -13
-18 -18 0 -13 -90 -53 -105 -47 -17 6 -20 22 -5 31 6 3 10 16 10 27 0 11 8 27
18 34 16 13 16 15 -1 28 -13 10 -17 21 -12 35 6 19 2 21 -32 21 -32 0 -41 -5
-55 -31z m-5179 -1108 c11 -1 11 -4 0 -18 -10 -11 -10 -14 -1 -9 6 4 12 3 12
-2 0 -16 62 -82 71 -76 5 3 9 2 8 -3 -4 -25 2 -44 14 -37 6 4 9 4 5 0 -4 -5 4
-20 18 -35 13 -14 22 -31 20 -37 -2 -6 0 -17 6 -25 8 -11 9 -10 4 4 -9 27 1
20 25 -20 13 -21 29 -44 36 -51 15 -15 17 -32 4 -32 -5 0 -14 14 -22 32 -7 17
-15 26 -17 20 -2 -8 -7 -8 -17 1 -7 7 -11 15 -8 20 2 4 -11 14 -30 22 -19 8
-47 28 -61 46 -31 36 -46 34 -18 -2 11 -13 22 -35 26 -49 5 -15 -4 -7 -20 20
-15 25 -38 57 -52 73 -14 15 -22 27 -16 27 5 0 1 5 -9 11 -14 8 -16 14 -6 25
10 12 9 13 -5 8 -11 -4 -16 -1 -16 11 0 14 -3 15 -15 5 -8 -7 -12 -17 -8 -23
4 -6 1 -7 -8 -1 -8 5 -17 9 -21 9 -3 0 -10 3 -14 7 -3 4 3 6 14 3 49 -9 30 25
-36 68 -24 16 -41 31 -38 34 2 3 18 -4 34 -16 17 -12 33 -21 36 -21 13 0 105
-78 99 -84 -3 -3 0 -12 7 -21 10 -12 16 -13 28 -3 10 8 13 9 9 1 -8 -12 67
-113 83 -113 6 0 10 7 10 15 0 8 -3 15 -8 15 -4 0 -18 18 -32 39 -13 22 -28
37 -34 34 -5 -3 -6 -1 -3 4 4 6 -13 32 -38 59 -25 27 -45 55 -45 61 0 7 -16
30 -35 52 -19 21 -35 41 -35 45 0 4 19 -16 43 -43 23 -27 48 -50 56 -50z m-41
-290 c23 -19 30 -37 10 -25 -7 4 -8 3 -4 -5 4 -6 11 -9 16 -6 4 3 16 -7 25
-22 10 -15 29 -38 42 -50 12 -13 23 -28 23 -32 0 -5 7 -12 16 -15 12 -5 11 1
-5 28 -24 38 -27 54 -7 34 7 -8 19 -32 26 -53 8 -22 34 -66 58 -99 34 -45 41
-61 31 -70 -7 -7 -10 -7 -6 0 3 6 -3 18 -14 27 -10 9 -19 15 -19 13 0 -3 -3
-12 -7 -22 -4 -11 -3 -15 5 -10 13 8 72 -101 72 -133 0 -10 7 -21 15 -25 8 -3
15 -15 15 -26 0 -12 6 -33 14 -48 7 -15 16 -40 19 -57 3 -16 12 -58 21 -92 8
-35 10 -63 5 -63 -5 0 -9 8 -9 18 0 9 -7 50 -17 90 -11 49 -20 68 -26 60 -6
-9 -7 -8 -4 3 7 23 -18 108 -26 89 -6 -13 -6 -13 -5 0 1 8 -2 24 -6 35 -34 87
-43 105 -53 110 -7 2 -13 -3 -14 -13 0 -9 -6 1 -13 23 -7 22 -8 42 -4 43 12 5
10 42 -3 42 -6 0 -8 -7 -4 -17 5 -14 4 -15 -6 -6 -10 10 -9 16 2 29 12 16 12
17 -4 11 -12 -4 -16 -3 -11 4 9 16 -35 59 -54 52 -11 -5 -14 -2 -9 10 7 18 0
28 -60 97 -18 21 -33 43 -33 49 0 6 -4 11 -9 11 -5 0 -11 7 -15 15 -7 20 7 19
32 -4z m-1351 -51 c6 -22 43 -36 68 -26 8 3 15 3 15 0 0 -2 -10 -9 -22 -14
l-23 -9 22 0 c13 -1 35 -9 51 -18 28 -18 26 -18 -127 -16 -103 1 -161 -3 -170
-10 -10 -9 -13 -7 -10 8 2 11 15 25 27 31 17 8 20 13 10 17 -9 4 -8 6 4 6 9 1
28 12 42 26 33 33 105 36 113 5z m3813 -91 c0 -5 4 -8 9 -5 5 4 11 1 13 -5 3
-8 38 -12 108 -11 65 0 110 -4 119 -11 7 -6 27 -10 43 -8 16 1 34 -2 41 -7 7
-5 32 -12 57 -16 24 -4 50 -12 57 -17 11 -10 53 -12 133 -8 94 5 291 -41 326
-76 11 -10 12 -15 3 -15 -8 0 -5 -7 7 -18 19 -18 19 -18 25 7 6 22 7 20 8 -12
0 -21 5 -36 10 -33 4 3 16 -3 26 -14 10 -11 24 -20 30 -20 7 0 18 -13 25 -30
7 -16 16 -30 21 -30 14 0 11 -28 -3 -33 -7 -2 26 -23 74 -46 84 -40 162 -96
154 -110 -2 -3 2 -15 10 -26 8 -10 14 -15 14 -11 0 4 7 1 15 -8 8 -8 15 -17
15 -19 0 -3 17 -34 38 -70 21 -35 48 -98 61 -138 13 -41 27 -85 32 -98 15 -36
1 -39 -26 -5 -13 17 -37 39 -52 49 -27 18 -28 18 -12 -1 20 -24 32 -44 25 -44
-10 0 -56 48 -56 58 0 6 -8 13 -19 17 -19 6 -77 65 -64 65 5 0 1 5 -7 10 -8 5
-23 7 -34 4 -11 -4 -16 -2 -13 3 4 6 -6 11 -21 12 -206 11 -262 12 -262 2 0
-6 -9 -11 -19 -11 -11 0 -23 -4 -26 -10 -7 -12 -35 -13 -35 -2 0 5 17 13 38
19 l37 10 -46 2 c-33 1 -49 -3 -53 -14 -3 -8 -16 -15 -28 -15 -23 1 -23 1 2
15 36 20 -1 20 -40 0 -17 -9 -33 -15 -37 -14 -5 1 -12 -8 -18 -20 -14 -29 -29
-27 -21 4 9 36 -4 31 -44 -15 -37 -43 -62 -55 -36 -18 22 31 20 46 -2 20 -13
-15 -19 -38 -20 -74 0 -47 1 -49 8 -20 11 47 16 48 37 5 l18 -38 9 37 c5 20
16 40 24 43 19 7 30 -4 14 -14 -9 -5 -11 -17 -6 -35 5 -21 11 -25 28 -21 15 5
17 4 7 -3 -10 -8 -11 -11 -1 -17 8 -5 18 -1 25 8 7 10 20 17 29 17 22 0 31 24
16 47 -10 16 -10 16 -5 -3 4 -17 1 -21 -23 -21 -29 0 -29 1 -20 40 12 54 15
57 46 56 17 -1 21 -3 10 -6 -28 -7 -21 -26 7 -21 26 6 32 -1 15 -18 -6 -6 -8
-19 -4 -28 5 -14 9 -15 15 -4 5 8 30 13 66 14 32 1 69 4 83 7 111 22 186 27
220 14 8 -4 29 -8 45 -9 17 -2 38 -12 47 -23 10 -11 17 -16 18 -11 0 4 16 -6
35 -23 23 -20 46 -31 65 -31 20 0 30 -5 30 -15 0 -8 5 -15 10 -15 6 0 10 -5
10 -10 0 -6 -13 -1 -29 11 -16 12 -34 18 -40 15 -6 -4 -11 -2 -11 3 0 6 -4 11
-10 11 -17 0 -11 -18 8 -24 21 -7 102 -80 102 -93 0 -5 -65 -10 -147 -10 -82
-1 -195 -9 -253 -18 -91 -14 -133 -22 -245 -51 -17 -4 -18 -3 -5 6 12 9 13 12
1 17 -11 5 -11 7 0 14 11 7 11 9 -1 9 -8 0 -23 18 -33 40 -12 28 -23 40 -37
40 -11 0 -20 -4 -20 -10 0 -5 -17 -10 -39 -10 -56 0 -171 -41 -171 -61 0 -5
-11 -14 -24 -20 -13 -6 -28 -21 -34 -34 -6 -12 -25 -39 -42 -59 -34 -38 -55
-126 -32 -126 23 0 -1 -28 -36 -43 -64 -28 -114 -37 -203 -37 -96 0 -115 10
-111 60 3 33 -42 83 -94 105 -17 8 -36 21 -44 29 -7 9 -24 16 -39 16 -37 1
-72 23 -87 56 -12 27 -13 27 -8 4 5 -23 2 -26 -28 -25 -46 2 -74 19 -87 56
-14 39 -14 49 -1 49 6 0 10 -7 10 -15 0 -8 3 -15 8 -15 4 0 16 -12 26 -27 9
-16 16 -21 13 -13 -2 8 -8 26 -12 40 -8 25 -7 25 13 7 20 -18 20 -18 15 2 -3
12 -11 21 -18 21 -8 0 -22 11 -33 25 -11 14 -25 25 -31 25 -6 0 -11 4 -11 8 0
13 -74 42 -109 42 -18 0 -30 -4 -26 -9 8 -14 -15 -25 -27 -13 -8 8 -22 7 -47
-4 -63 -27 -207 -48 -217 -32 -7 10 -35 11 -32 1 2 -5 -5 -19 -14 -32 -15 -21
-18 -22 -24 -8 -10 26 -41 21 -48 -8 -7 -29 -25 -34 -28 -7 -6 80 41 181 120
258 13 13 21 27 18 32 -3 5 3 21 14 35 11 13 24 36 29 50 5 14 35 42 65 62 65
43 75 55 47 55 -28 0 -27 6 17 71 45 68 103 133 132 149 11 6 18 16 14 21 -3
6 0 9 7 8 21 -3 76 23 60 28 -7 3 22 23 65 45 44 22 89 49 102 60 12 12 22 17
22 12 1 -5 9 1 19 13 21 25 89 56 108 48 8 -2 17 3 20 13 4 9 12 22 17 28 6 6
18 21 26 33 15 23 30 28 30 10z m-3773 -150 c15 -6 38 -20 51 -32 28 -26 77
-120 107 -207 68 -194 145 -351 197 -404 36 -37 68 -97 68 -129 0 -21 14 -31
98 -72 53 -26 126 -58 161 -71 36 -13 67 -28 70 -33 3 -5 22 -17 41 -28 33
-19 36 -23 46 -99 7 -43 10 -82 8 -86 -2 -3 -8 -52 -13 -107 l-8 -102 28 -31
c16 -16 29 -34 29 -38 0 -5 14 -15 31 -24 28 -14 30 -14 25 0 -5 12 1 15 27
12 l32 -3 -3 -75 c-3 -72 -34 -202 -55 -227 -12 -16 -27 -17 -27 -2 0 5 5 7
10 4 16 -10 24 23 10 40 -11 14 -15 14 -31 -1 -25 -22 -25 -64 -1 -65 13 0 12
-3 -6 -12 -20 -9 -23 -17 -20 -54 2 -33 0 -42 -10 -38 -9 3 -11 -1 -7 -15 4
-11 2 -20 -3 -20 -6 0 -13 -7 -16 -16 -4 -9 -2 -13 5 -8 8 4 8 1 1 -12 -5 -11
-26 -55 -47 -99 -20 -44 -52 -102 -70 -130 -18 -27 -48 -82 -68 -121 -19 -38
-41 -75 -49 -81 -20 -15 -57 -22 -64 -12 -9 15 -88 1 -101 -18 -7 -9 -13 -13
-13 -8 0 5 -5 4 -12 -3 -7 -7 -22 -12 -34 -12 -12 0 -24 -5 -26 -10 -5 -15
-78 -26 -78 -12 0 6 10 12 23 15 27 4 10 12 -44 21 l-36 6 8 48 c4 26 5 49 3
52 -3 2 -36 4 -74 4 -63 -1 -72 -4 -91 -28 -11 -14 -26 -26 -33 -26 -17 0 -51
-38 -43 -47 4 -3 2 -12 -5 -20 -6 -7 -8 -16 -5 -20 4 -3 2 -13 -3 -22 -12 -23
-108 -26 -185 -5 -60 15 -243 22 -264 10 -6 -4 -11 -3 -11 2 0 5 -8 12 -17 16
-19 6 -54 27 -63 37 -3 3 -20 14 -37 24 -18 11 -33 25 -33 32 0 8 -13 16 -29
19 -17 4 -32 12 -35 20 -3 8 -12 14 -20 14 -9 0 -39 28 -67 63 -29 34 -56 64
-60 65 -5 2 -9 9 -9 16 0 7 -7 27 -16 45 -20 40 -10 105 21 143 19 22 22 34
16 61 -10 41 -36 83 -73 119 -15 15 -28 32 -28 38 0 11 -21 52 -31 60 -4 3
-10 20 -14 37 -3 18 -13 36 -21 41 -11 6 -11 13 4 44 9 21 22 37 29 38 6 0 14
6 16 13 4 9 8 8 17 -3 13 -18 6 35 -15 115 -38 144 -44 327 -12 364 8 9 12 22
10 28 -5 15 20 43 39 43 7 0 18 8 25 19 12 20 89 61 114 61 8 0 20 5 27 12 6
6 33 15 59 19 27 4 78 18 115 32 36 13 87 28 113 32 40 6 50 3 70 -15 13 -12
27 -40 30 -62 4 -22 20 -54 37 -74 27 -31 35 -34 84 -34 50 0 54 2 60 28 8 34
42 67 71 68 15 0 20 -5 18 -18 -5 -22 40 -72 55 -63 7 4 28 -9 49 -30 l38 -36
38 25 c21 14 47 26 59 26 40 0 67 12 62 26 -3 8 -8 20 -11 27 -3 6 -1 19 4 27
8 11 15 12 33 3 13 -6 31 -14 41 -17 12 -4 17 -14 15 -33 -3 -24 1 -28 25 -31
37 -4 51 9 82 73 26 56 32 95 15 95 -5 0 -10 9 -10 20 0 11 -11 27 -25 36 -14
9 -25 23 -25 30 0 8 -4 14 -9 14 -13 0 -45 53 -44 73 1 9 -5 17 -15 18 -12 0
-13 2 -3 6 9 4 2 16 -25 39 -45 41 -51 41 -66 9 -11 -24 -15 -25 -92 -24 -45
0 -100 -3 -124 -7 -33 -5 -47 -3 -62 11 -19 17 -64 17 -132 0 -25 -7 -28 -5
-28 17 0 14 11 38 25 54 14 16 25 37 25 46 0 9 4 19 9 22 15 9 22 109 8 118
-8 5 -7 8 6 8 20 0 22 11 5 28 -6 6 -12 24 -14 39 -1 15 0 22 3 16 2 -7 10
-13 16 -13 8 0 7 4 -1 12 -7 7 -12 21 -12 33 0 12 -4 25 -8 31 -10 11 21 168
31 158 4 -4 7 -2 7 5 0 27 85 40 137 20z m5272 -935 c28 -4 51 -11 51 -16 0
-6 -7 -8 -15 -4 -17 6 -18 4 -9 -18 3 -9 10 -13 15 -10 5 3 9 1 9 -5 0 -5 -4
-12 -9 -16 -6 -3 -4 -17 5 -33 7 -15 14 -34 14 -43 0 -8 6 -21 12 -27 10 -10
10 -15 -1 -21 -9 -6 -10 -11 -2 -15 6 -4 11 -18 11 -31 0 -13 8 -28 18 -34 14
-8 15 -13 5 -30 -18 -29 -16 -34 8 -28 19 5 20 4 5 -12 -9 -10 -16 -23 -16
-29 0 -7 -4 -12 -10 -12 -5 0 -10 -5 -10 -11 0 -5 5 -7 10 -4 6 3 10 -1 10 -9
0 -18 -29 -11 -31 8 -1 6 -5 -2 -8 -19 -9 -35 12 -85 34 -85 11 0 15 12 16 43
1 24 4 32 6 19 3 -14 10 -22 18 -18 8 3 18 -8 26 -27 7 -18 21 -38 31 -45 10
-7 18 -21 18 -30 0 -11 3 -13 11 -5 33 33 42 308 13 402 -17 58 -11 64 10 11
38 -96 28 -334 -21 -485 -42 -132 -126 -240 -225 -291 -129 -66 -375 -94 -521
-59 -182 43 -307 139 -426 328 -71 114 -116 221 -108 260 4 19 4 18 6 -4 2
-35 40 -112 41 -82 0 12 5 25 10 28 18 11 50 -6 50 -26 0 -17 11 -24 33 -20 4
0 7 -3 7 -7 0 -5 19 -7 42 -6 41 2 108 -22 108 -38 0 -4 21 -8 46 -8 52 0 51
15 -3 25 -27 5 -33 9 -22 16 8 5 24 9 37 9 12 0 22 5 22 12 0 9 3 9 12 0 18
-18 38 -15 31 6 -6 15 -5 15 10 3 17 -14 119 -11 159 4 18 7 38 55 38 92 0 14
4 21 10 18 6 -3 10 -1 10 4 0 6 -6 11 -14 11 -8 0 -18 9 -21 21 -9 26 -91 79
-124 79 -21 1 -23 2 -10 10 9 5 27 7 40 4 13 -3 52 -7 86 -8 67 -3 108 -23
123 -59 5 -13 9 -16 10 -7 0 12 4 11 15 -4 12 -16 12 -22 2 -29 -8 -6 -4 -7
11 -4 12 3 20 1 17 -4 -9 -13 18 -49 37 -49 11 0 15 -5 12 -14 -4 -9 3 -13 20
-13 14 0 26 3 26 8 0 5 16 9 35 9 19 0 35 -4 35 -8 0 -5 18 -18 40 -31 l40
-22 0 23 c0 18 -2 20 -10 8 -5 -8 -10 -10 -10 -4 0 6 6 17 14 23 11 9 15 8 20
-5 3 -9 4 -20 0 -25 -3 -5 0 -9 6 -9 8 0 9 10 5 30 -4 19 -3 30 4 30 6 0 11
-9 11 -21 0 -14 5 -19 17 -17 22 4 29 28 9 28 -9 0 -16 5 -16 10 0 6 7 10 15
10 8 0 15 7 15 15 0 14 13 20 34 16 5 -1 4 5 -3 13 -15 18 -38 11 -44 -12 -3
-10 -5 7 -6 36 -1 31 -6 52 -12 52 -6 0 -9 7 -5 15 3 9 0 15 -10 15 -12 0 -15
-6 -10 -25 4 -14 2 -25 -4 -25 -5 0 -12 11 -16 25 -3 14 -10 25 -15 25 -5 0
-7 11 -3 24 3 14 1 33 -6 43 -10 16 -11 16 -7 -4 6 -26 -8 -40 -17 -18 -3 8
-11 15 -17 15 -7 0 -6 -9 5 -25 23 -35 20 -42 -7 -14 -12 13 -21 33 -20 44 2
11 1 14 -3 8 -11 -24 -24 -13 -24 18 0 23 -4 30 -15 25 -8 -3 -29 1 -47 9 -18
8 -27 14 -19 15 11 0 10 5 -4 20 -20 22 -40 27 -29 8 4 -8 3 -10 -2 -5 -5 5
-9 14 -9 20 0 7 -12 11 -31 9 -16 -2 -52 4 -78 13 -26 9 -50 14 -54 11 -3 -3
2 -6 11 -6 10 0 17 -6 17 -14 0 -26 -17 -26 -28 -1 -6 13 -21 26 -34 28 -22 5
-22 5 2 5 14 -1 32 2 40 5 51 21 319 34 419 21z m-2114 -48 c11 -7 32 -16 48
-20 31 -7 70 -42 62 -55 -3 -5 9 -8 25 -7 17 1 27 -1 23 -5 -5 -3 -64 -9 -133
-13 -120 -6 -290 -29 -310 -41 -6 -3 -10 -2 -10 3 0 5 11 14 24 21 13 7 30 24
37 38 21 40 68 74 92 68 12 -3 42 1 67 9 25 8 47 14 50 15 3 1 14 -5 25 -13z
m135 -171 c-7 -8 -21 -15 -31 -15 -11 0 -19 -4 -19 -9 0 -11 -70 -20 -76 -9
-5 7 -54 -10 -64 -23 -3 -3 -15 -11 -28 -18 -12 -7 -20 -16 -17 -21 4 -6 -7
-7 -25 -4 -19 4 -30 2 -30 -5 0 -6 -3 -10 -7 -9 -16 3 -64 -22 -58 -31 3 -5 1
-12 -5 -16 -6 -3 -13 2 -17 11 -6 16 -7 16 -13 -1 -8 -22 -47 -30 -64 -13 -6
7 -13 33 -14 58 -1 25 1 39 4 32 7 -15 24 -6 24 14 0 18 25 46 33 37 3 -3 21
0 39 6 18 7 58 14 88 18 30 3 57 7 59 9 2 2 56 4 119 4 101 0 113 -2 102 -15z
m-635 -470 c15 -49 29 -98 32 -108 3 -10 11 -16 19 -13 8 3 12 -4 12 -23 -1
-28 27 -81 44 -81 5 0 7 -4 4 -8 -3 -5 7 -21 22 -35 l28 -27 -1 24 c0 13 -3
27 -6 31 -9 8 19 65 32 65 5 0 9 9 9 20 0 14 7 20 23 20 12 0 31 6 42 14 14 9
27 11 45 4 13 -5 70 -10 126 -12 56 -2 107 -7 113 -10 6 -4 48 -2 93 5 46 6
91 11 100 11 9 0 22 6 29 14 6 8 17 14 23 14 7 0 31 9 54 20 22 11 45 20 50
20 5 0 12 8 15 18 2 12 17 22 37 25 27 6 31 9 20 22 -10 12 -10 15 4 15 10 0
16 -8 16 -21 0 -20 3 -21 55 -15 40 4 55 3 55 -6 0 -7 -19 -51 -42 -98 -32
-63 -61 -103 -113 -155 -116 -117 -242 -165 -435 -165 -261 0 -388 91 -495
355 -32 78 -55 199 -53 280 l1 80 7 -95 c4 -53 20 -134 35 -185z m725 255
c-11 -7 -5 -10 25 -11 22 0 34 -3 28 -6 -20 -7 -15 -23 6 -23 25 0 38 -20 20
-31 -11 -7 -10 -9 4 -9 19 0 37 -36 34 -69 -1 -12 -7 -21 -15 -21 -7 0 -10 -4
-7 -10 3 -5 16 -10 27 -10 21 0 21 0 -2 -25 -13 -14 -30 -25 -37 -25 -8 0 -35
-11 -60 -26 -25 -14 -53 -22 -61 -19 -10 3 -23 -2 -32 -13 -15 -20 -80 -38
-80 -24 0 5 16 13 36 18 30 7 37 14 40 36 2 26 1 27 -29 21 -18 -3 -34 -6 -37
-6 -22 -3 -111 17 -117 26 -4 6 2 8 15 5 13 -4 22 -1 22 5 0 8 4 7 12 -1 16
-16 105 -15 164 0 39 11 50 19 61 46 17 41 6 83 -32 124 -33 36 -33 58 3 58
21 0 24 -2 12 -10z m695 -72 c19 -13 39 -33 44 -45 6 -13 14 -23 19 -23 14 0
119 -160 165 -250 12 -25 29 -56 37 -70 8 -14 15 -27 16 -30 5 -21 41 -106 64
-152 7 -12 3 -18 -16 -22 -21 -6 -23 -10 -14 -21 6 -8 10 -22 8 -32 -1 -10 5
-29 15 -43 9 -13 17 -29 17 -35 0 -7 12 -22 27 -36 23 -21 25 -22 19 -4 -4 11
-11 43 -16 72 -5 29 -13 60 -18 70 -11 22 -5 43 13 43 7 0 16 -6 19 -12 5 -12
1 26 -8 77 -10 52 -27 99 -42 116 -28 31 -5 22 60 -25 117 -83 278 -121 480
-113 308 12 476 123 581 382 l16 40 13 -30 c16 -34 59 -176 75 -246 22 -95 24
-211 7 -310 -25 -135 -46 -231 -57 -251 -7 -14 -5 -18 11 -18 12 0 20 -7 20
-17 0 -14 -2 -15 -9 -5 -6 10 -10 8 -14 -10 -4 -12 -7 -33 -7 -46 0 -13 -4
-21 -9 -18 -5 3 -11 -14 -12 -38 -2 -24 0 -42 5 -39 4 3 5 -10 0 -28 -4 -19
-7 -45 -6 -60 1 -14 -9 -40 -23 -59 -26 -35 -32 -66 -15 -72 5 -2 2 -33 -10
-78 -28 -110 -45 -152 -69 -171 -12 -10 -17 -19 -11 -21 5 -1 7 -13 4 -25 -4
-13 -11 -20 -20 -16 -8 3 -14 0 -14 -6 0 -6 5 -11 10 -11 6 0 10 -8 10 -17 0
-14 -2 -15 -9 -4 -11 18 -20 2 -23 -42 -2 -19 -6 -33 -10 -31 -10 6 -28 -30
-29 -58 0 -13 -3 -17 -6 -10 -8 21 -25 13 -18 -9 4 -13 3 -19 -3 -15 -5 3 -12
-9 -15 -27 -6 -39 -39 -117 -49 -117 -4 0 -5 -7 -2 -15 4 -8 1 -15 -5 -15 -6
0 -11 -5 -11 -11 0 -6 -7 -17 -15 -25 -8 -8 -12 -21 -8 -29 4 -11 1 -13 -11
-9 -11 4 -16 1 -16 -10 0 -9 -4 -16 -10 -16 -5 0 -10 -9 -10 -19 0 -24 -16
-36 -23 -19 -3 7 -6 1 -6 -14 -1 -14 -5 -28 -10 -30 -5 -1 -22 -28 -38 -58
-17 -32 -41 -61 -57 -68 -15 -8 -25 -16 -22 -19 7 -7 73 34 79 50 7 19 100
141 117 154 27 21 22 -5 -9 -51 -17 -25 -31 -53 -31 -62 0 -10 17 8 37 41 20
33 40 62 43 65 4 3 10 12 13 20 4 12 6 12 6 -2 1 -9 -3 -20 -9 -23 -5 -3 -10
-13 -10 -22 0 -9 -11 -31 -25 -49 -14 -18 -25 -39 -25 -47 0 -20 -70 -98 -82
-91 -6 4 -13 2 -17 -3 -3 -6 -38 -26 -76 -46 -87 -43 -146 -89 -279 -217 -56
-55 -103 -93 -103 -85 0 8 5 15 10 15 5 0 6 7 3 16 -3 8 -2 12 4 9 6 -3 10 1
10 11 0 20 71 106 148 182 64 62 58 66 -18 12 -40 -29 -56 -36 -63 -27 -5 7
-6 4 -2 -9 5 -19 2 -21 -22 -16 -16 3 -30 9 -34 13 -3 5 -63 11 -134 13 -90 3
-130 9 -136 18 -6 10 -11 9 -22 -5 -12 -17 -14 -17 -26 -3 -19 22 -34 20 -65
-9 -29 -26 -46 -32 -46 -14 0 6 -25 10 -62 10 -93 -1 -98 -1 -98 9 0 5 -15 4
-32 -1 -36 -10 -115 -2 -124 12 -3 5 -15 9 -27 9 -12 0 -31 7 -41 15 -26 20
-66 19 -66 0 0 -8 -9 -15 -20 -15 -11 0 -20 -6 -20 -12 0 -9 -3 -9 -8 -2 -11
16 -54 13 -47 -5 5 -12 3 -12 -11 0 -24 20 -76 99 -65 99 5 0 17 -10 26 -22
13 -20 17 -21 25 -8 14 22 12 41 -7 55 -9 7 -17 26 -18 41 0 20 -7 32 -22 38
-14 7 -23 22 -28 50 -3 23 -8 51 -12 64 -3 13 -1 22 6 22 6 0 11 -7 11 -16 0
-8 4 -13 9 -10 5 3 9 30 10 58 0 29 4 68 7 86 5 25 3 32 -10 32 -9 0 -16 5
-16 10 0 6 -7 10 -15 10 -8 0 -15 7 -15 15 0 8 7 15 15 15 8 0 15 5 15 10 0
22 22 8 33 -20 7 -18 19 -30 29 -30 23 0 23 9 1 25 -9 7 -18 27 -19 44 -3 39
-23 91 -35 91 -5 0 -9 -7 -9 -15 0 -8 -4 -15 -9 -15 -10 0 -20 32 -22 70 -1
20 -3 18 -9 -10 l-7 -35 -2 38 c-1 32 5 45 31 69 26 25 36 28 50 19 10 -6 25
-11 34 -11 10 0 14 -5 10 -16 -3 -9 -2 -12 5 -9 6 4 15 18 20 32 7 19 14 23
27 18 41 -18 62 -17 69 1 8 21 28 44 38 44 3 0 4 -4 1 -9 -3 -4 10 -7 28 -5
31 4 33 2 29 -20 -4 -18 -14 -27 -41 -33 -38 -9 -56 -33 -25 -34 15 0 14 -2
-4 -9 -28 -12 -30 -40 -3 -47 11 -3 20 -10 20 -15 0 -6 13 -8 29 -6 17 2 28 1
25 -4 -6 -10 77 1 89 11 11 11 141 -5 145 -18 4 -13 32 -15 32 -2 0 5 18 11
40 13 28 2 40 0 40 -9 0 -16 2 -16 37 -1 49 22 113 102 114 144 0 16 3 23 6
17 6 -15 42 -17 77 -3 30 11 254 -6 272 -21 8 -6 24 -2 50 13 20 12 32 24 26
26 -12 4 -7 47 8 67 10 14 20 85 12 85 -16 0 -62 49 -53 55 19 11 12 54 -14
80 -30 29 -35 31 -35 10 0 -17 -13 -20 -129 -35 -47 -5 -95 -17 -108 -25 -13
-9 -23 -13 -23 -9 0 4 -7 1 -15 -6 -8 -6 -19 -9 -25 -5 -6 4 -16 2 -23 -3 -7
-5 -43 -10 -82 -11 -38 -2 -76 -6 -85 -10 -8 -5 -32 -11 -52 -14 -33 -5 -39
-2 -63 29 -14 19 -23 34 -20 34 3 0 -2 14 -10 31 l-16 30 -22 -27 c-12 -15
-22 -34 -23 -42 -5 -30 -21 -34 -75 -17 -30 10 -73 26 -96 36 -30 13 -43 15
-43 7 0 -23 -18 7 -22 35 -2 15 -7 26 -13 25 -5 -2 -8 -14 -6 -27 2 -15 -1
-21 -8 -17 -6 4 -11 14 -11 22 0 9 -10 14 -29 14 -16 0 -34 7 -41 15 -7 8 -16
15 -21 15 -17 0 -9 -28 14 -43 18 -13 19 -16 5 -16 -10 -1 -18 3 -18 8 0 5
-11 12 -24 15 -14 3 -26 14 -28 23 -3 15 -15 17 -93 15 -50 -2 -104 -5 -120
-8 -24 -4 -38 1 -65 25 -19 17 -41 31 -48 31 -24 0 -105 78 -125 120 -7 13
-23 27 -37 31 -14 4 -19 7 -12 8 19 2 14 21 -5 21 -21 1 -63 33 -63 49 0 6 -8
10 -17 9 -41 -3 -53 3 -59 30 -10 39 -15 46 -25 31 -7 -12 -9 -11 -9 1 -1 16
-42 51 -66 54 -8 1 -21 12 -30 24 -14 21 -14 22 5 22 12 0 21 5 21 11 0 6 -9
9 -19 6 -12 -3 -27 3 -36 13 -9 10 -24 16 -35 13 -12 -3 -22 3 -29 16 -7 12
-18 21 -26 21 -8 0 -15 8 -16 18 -1 9 -7 -1 -15 -23 l-14 -40 7 40 c4 22 6 54
5 70 -3 49 21 169 36 181 12 8 11 12 -2 23 -9 8 -16 17 -16 22 0 5 27 -11 60
-35 75 -55 143 -81 249 -96 200 -27 441 40 574 160 56 51 87 66 47 22 -29 -31
-53 -159 -40 -211 5 -23 15 -59 20 -82 6 -22 7 -46 4 -52 -4 -7 5 -1 20 13 34
31 79 117 96 187 11 44 11 57 0 77 -19 36 -7 110 41 267 52 168 78 227 117
267 39 39 86 43 137 10z m-2419 -22 c11 -45 2 -61 -38 -64 -36 -3 -36 -4 -31
-37 5 -31 2 -36 -22 -45 -34 -13 -43 -6 -22 18 9 9 13 22 9 27 -8 12 -64 39
-74 37 -15 -4 -8 46 8 58 13 11 16 10 21 -8 7 -29 21 -28 25 1 2 17 11 23 43
28 70 11 74 10 81 -15z m-148 -163 c-6 -7 -21 -13 -34 -13 -13 0 -28 -9 -34
-20 -6 -11 -17 -20 -24 -20 -7 0 -27 -7 -44 -16 -24 -11 -40 -13 -66 -6 -19 6
-37 7 -40 4 -14 -14 -4 -50 17 -61 18 -10 23 -19 20 -39 -3 -26 -3 -26 6 -4
12 25 29 29 37 8 6 -14 -39 -66 -57 -66 -7 0 -8 14 -4 39 4 27 3 40 -7 43 -9
4 -14 -7 -15 -38 -1 -24 1 -44 5 -44 4 0 6 -58 4 -130 l-4 -130 27 -10 c43
-16 57 -13 50 11 -7 20 -5 21 23 16 39 -8 34 10 -11 38 -17 11 -30 24 -29 30
1 5 27 11 58 12 31 1 59 4 61 7 3 2 -1 20 -8 40 -10 29 -10 38 2 52 8 10 10
19 4 21 -26 9 -75 44 -75 54 0 7 19 10 53 7 38 -2 51 0 50 10 -4 18 22 15 48
-7 22 -18 26 -18 41 -4 14 13 21 13 32 4 9 -7 24 -10 37 -6 17 6 18 9 8 16 -7
4 -11 11 -7 14 3 3 20 -2 37 -13 17 -10 28 -21 25 -24 -7 -8 56 -17 89 -13 15
2 34 9 42 15 12 10 15 10 15 1 0 -7 5 -9 11 -6 5 4 19 -1 29 -10 16 -14 23
-15 34 -6 11 9 20 9 34 2 11 -6 46 -14 78 -17 109 -12 131 -43 29 -40 -61 2
-91 -9 -42 -16 14 -2 21 -9 19 -19 -2 -12 7 -18 30 -21 18 -3 42 -9 53 -13 18
-8 19 -7 5 10 -14 17 -13 18 19 12 34 -7 34 -7 16 13 -10 11 -13 20 -7 20 6 0
14 -4 17 -10 3 -5 15 -10 26 -10 10 0 19 -6 19 -13 0 -18 60 -34 135 -36 33
-1 62 -6 63 -11 2 -6 8 -8 13 -4 5 3 9 0 9 -6 0 -7 -6 -10 -14 -7 -20 8 -28
-4 -15 -20 9 -10 6 -13 -14 -13 -32 0 -57 -9 -57 -21 0 -5 9 -9 20 -9 11 0 20
-6 20 -13 0 -25 -12 -27 -38 -7 -13 11 -32 20 -41 20 -22 0 -41 19 -41 41 0
10 -5 21 -11 25 -17 10 -111 6 -123 -6 -13 -13 -53 -13 -61 0 -4 6 5 10 20 10
24 0 25 1 10 16 -9 9 -25 14 -35 11 -14 -4 -26 4 -41 25 -16 22 -28 29 -46 25
-13 -2 -26 0 -29 4 -3 5 3 9 13 10 16 0 15 1 -3 9 -21 8 -132 5 -142 -4 -3 -3
-14 1 -24 10 -14 13 -21 14 -32 5 -8 -7 -20 -10 -26 -6 -5 3 -10 -1 -10 -9 0
-17 16 -20 116 -16 49 1 62 -2 68 -15 9 -24 -1 -35 -32 -35 -25 -1 -62 -20
-62 -32 0 -3 9 -8 20 -11 12 -3 20 -14 20 -25 0 -23 81 -74 118 -74 12 0 25
-4 28 -9 2 -4 16 -3 29 3 18 8 32 8 53 -1 20 -8 36 -9 55 -2 17 7 28 7 32 1 4
-6 2 -10 -2 -10 -5 0 -18 -6 -28 -14 -17 -12 -15 -13 22 -11 50 3 57 -2 60
-39 2 -27 1 -28 -32 -22 -22 4 -35 3 -35 -4 0 -5 18 -10 39 -10 26 0 41 -5 45
-16 4 -11 15 -14 35 -11 43 7 53 16 49 45 -3 24 1 26 32 28 40 2 70 -8 93 -31
18 -17 9 -35 -23 -48 -9 -3 -6 -6 10 -6 61 -3 68 -9 70 -64 0 -29 1 -59 0 -67
0 -8 0 -41 0 -74 0 -32 -5 -65 -11 -72 -10 -12 -9 -13 5 -8 13 5 16 -2 16 -43
0 -27 -5 -54 -12 -61 -9 -9 -9 -12 0 -12 10 0 12 -26 10 -102 l-3 -103 -90 -1
c-153 -1 -182 -3 -165 -14 8 -5 25 -10 38 -10 23 0 30 -16 10 -23 -7 -2 19 -7
57 -10 82 -8 96 -10 110 -19 15 -9 32 3 37 27 3 11 4 -7 2 -40 -2 -33 -3 -72
-4 -86 0 -23 -4 -26 -35 -24 -40 2 -79 -28 -51 -38 8 -3 24 -4 36 -2 13 3 20
-2 21 -13 0 -14 2 -13 9 3 7 14 9 -3 6 -52 -1 -45 1 -74 8 -77 12 -5 -37 -9
-73 -6 -15 1 -21 -2 -16 -10 4 -6 23 -9 46 -7 21 2 39 0 39 -5 0 -4 0 -11 0
-15 0 -6 -216 -6 -299 0 -13 1 -26 -3 -28 -8 -2 -7 44 -12 124 -14 120 -4 202
-8 213 -10 2 -1 0 -5 -6 -11 -5 -5 -53 -10 -106 -11 -60 -1 -101 -6 -107 -13
-6 -8 -2 -11 14 -12 21 -2 73 -19 198 -66 19 -7 27 -17 27 -34 l0 -24 -40 25
c-50 32 -51 17 -2 -28 57 -53 68 -81 35 -90 -15 -4 -14 -5 3 -6 21 -1 34 -21
60 -93 11 -33 11 -38 -1 -38 -8 0 -15 -5 -15 -11 0 -5 -4 -8 -9 -5 -5 4 -11 0
-14 -6 -3 -9 -9 -7 -20 7 -8 11 -13 23 -11 27 3 5 -2 8 -11 8 -8 0 -23 16 -32
35 -9 19 -20 32 -25 29 -4 -3 -5 2 -2 10 3 9 -6 23 -25 37 -17 12 -28 26 -25
31 11 17 -27 7 -43 -11 -36 -39 -48 -55 -55 -70 -4 -10 -7 -11 -7 -3 -1 6 -7
12 -15 12 -9 0 -12 -7 -9 -21 3 -12 11 -18 19 -15 8 3 14 -2 15 -12 1 -16 2
-16 6 1 2 9 9 17 14 17 6 0 8 4 4 9 -3 5 0 13 6 16 18 12 20 -1 4 -31 -8 -16
-15 -48 -15 -71 0 -34 -3 -41 -15 -37 -8 4 -15 1 -15 -5 0 -18 -35 -12 -71 12
-19 13 -42 26 -51 30 -10 3 -18 11 -18 17 0 5 -7 10 -15 10 -8 0 -15 7 -15 16
0 11 -6 15 -20 11 -11 -3 -20 -1 -20 4 0 5 9 9 20 9 11 0 20 5 20 10 0 6 -12
10 -27 10 -25 0 -26 1 -8 13 11 9 14 16 7 21 -12 7 -42 -3 -42 -15 0 -5 -5 -9
-10 -9 -6 0 -9 6 -8 13 2 7 -5 11 -17 9 -18 -2 -18 -1 -4 10 9 7 14 19 11 27
-3 10 1 12 16 9 14 -4 19 -2 16 7 -3 7 2 15 10 18 9 4 16 14 16 23 0 10 -5 14
-16 10 -8 -3 -12 -2 -9 4 3 6 1 10 -4 10 -20 0 -11 32 9 37 11 3 20 8 20 11 0
14 -54 52 -78 54 -24 3 -27 0 -25 -24 1 -16 -1 -28 -5 -28 -4 0 -18 -9 -32
-20 -21 -17 -23 -21 -10 -30 13 -8 12 -10 -3 -10 -15 0 -39 -37 -42 -65 0 -5
-4 -16 -8 -22 -5 -9 -2 -13 8 -13 19 0 16 -30 -5 -47 -24 -20 -29 -15 -23 20
4 29 -1 38 -52 90 -31 33 -54 61 -51 65 3 3 20 -9 36 -27 24 -25 36 -30 53
-25 21 7 20 8 -10 21 -20 8 -33 20 -32 31 0 10 3 12 6 5 2 -7 17 -12 31 -12
26 2 26 2 3 6 -13 3 -26 14 -29 25 -3 12 -7 15 -11 9 -4 -6 -27 -12 -52 -14
-24 -2 -43 -7 -41 -13 2 -5 -12 -13 -30 -17 -36 -9 -38 -9 -82 -5 -18 2 -30
-2 -32 -10 -1 -7 0 -8 3 -2 7 16 23 1 23 -22 0 -15 4 -18 17 -14 9 4 20 1 25
-6 5 -9 8 -7 8 7 0 16 2 17 9 6 14 -21 2 -43 -20 -36 -11 4 -19 2 -19 -4 0 -6
5 -11 10 -11 6 0 10 -4 10 -10 0 -5 -7 -10 -15 -10 -25 0 -65 23 -65 37 0 7
-9 13 -20 13 -11 0 -20 6 -21 13 0 9 -2 9 -6 0 -5 -15 -5 -24 2 -20 2 1 12 -8
20 -20 9 -13 23 -23 31 -23 8 0 14 -4 14 -10 0 -5 7 -7 15 -4 8 4 15 2 15 -4
0 -5 -10 -13 -22 -17 -14 -4 -18 -8 -10 -12 6 -2 12 -11 12 -19 0 -16 16 -19
25 -4 10 17 25 11 25 -10 0 -15 7 -20 25 -20 16 0 25 -6 25 -15 0 -8 -9 -15
-20 -15 -11 0 -20 -4 -20 -10 0 -5 -5 -10 -11 -10 -6 0 -9 7 -6 14 4 10 1 13
-9 9 -31 -12 -3 -63 43 -77 19 -6 21 -11 13 -31 -6 -16 -6 -27 2 -31 7 -5 5
-12 -8 -22 -15 -11 -15 -13 -2 -9 9 3 29 2 45 -3 27 -8 27 -9 6 -15 -52 -16
-11 -31 67 -25 20 1 22 -1 13 -11 -6 -6 -26 -12 -42 -13 -36 -1 -40 -15 -11
-36 11 -8 20 -22 20 -32 0 -9 5 -20 12 -24 7 -4 8 -3 4 4 -4 7 -1 12 9 12 9 0
15 -6 14 -12 -3 -26 1 -39 11 -33 6 3 10 -1 10 -9 0 -9 5 -17 10 -17 6 -1 14
-2 18 -3 9 -1 42 -32 42 -39 0 -3 -12 -8 -26 -11 -19 -5 -32 -2 -44 11 -9 10
-31 30 -49 46 -17 15 -31 33 -31 40 0 6 -18 21 -40 31 -22 11 -40 24 -40 30 0
7 -12 13 -27 14 -15 1 -34 9 -43 18 -14 14 -11 15 25 8 37 -7 39 -6 26 10 -19
23 -73 45 -86 35 -5 -4 -21 1 -34 12 l-23 19 31 -6 c40 -8 40 7 1 38 -34 27
-48 68 -24 68 8 0 13 -4 9 -9 -3 -5 1 -16 9 -24 12 -12 22 -12 50 -3 19 6 32
14 29 19 -3 5 -10 6 -17 4 -7 -3 -21 5 -32 17 -11 13 -26 21 -36 18 -22 -5
-23 7 -4 22 13 9 13 13 -2 26 -14 13 -15 12 -9 -3 6 -16 -2 -21 -30 -18 -7 1
-13 -7 -13 -19 0 -11 -5 -20 -11 -20 -6 0 -9 7 -5 15 7 19 -4 51 -13 36 -5 -7
-18 -7 -45 0 -21 6 -47 8 -58 6 -20 -6 -88 28 -88 44 0 5 16 2 36 -6 41 -17
84 -20 84 -5 0 5 19 3 41 -5 51 -19 85 -19 92 -2 4 10 -4 12 -27 10 -29 -3
-29 -3 -8 7 14 6 21 15 18 22 -3 7 -9 21 -12 31 -4 9 -10 17 -15 17 -5 0 -9 7
-9 15 0 8 -6 15 -12 15 -7 0 -14 11 -14 24 -2 27 -41 76 -62 76 -9 0 -12 6 -8
16 4 12 2 15 -9 10 -17 -6 -21 9 -5 19 18 11 50 -6 51 -28 l2 -22 4 21 c3 16
9 20 25 16 15 -3 19 -1 16 9 -3 8 -17 14 -31 14 -15 -1 -27 3 -27 7 0 4 11 8
25 8 19 0 25 5 24 23 0 20 -1 20 -8 3 -6 -16 -8 -17 -13 -4 -4 9 -1 21 5 27 8
8 7 11 -6 11 -9 0 -17 5 -17 10 0 6 5 10 12 10 6 0 9 3 5 6 -3 4 0 13 8 21 8
8 15 20 15 26 0 7 -4 6 -10 -3 -8 -12 -10 -10 -11 10 -1 19 -4 15 -11 -15 -10
-40 -10 -40 -57 -40 l-47 0 7 40 c5 22 8 43 9 48 0 4 7 7 15 7 12 0 15 9 13
38 -3 34 -1 37 21 34 13 -1 39 -10 59 -19 25 -12 31 -18 19 -22 -13 -5 -13 -9
-3 -24 8 -9 20 -15 29 -12 11 5 16 -5 22 -41 6 -41 9 -45 17 -29 8 13 8 23 0
35 -7 12 -7 17 1 17 7 0 30 2 52 5 22 3 32 3 23 1 -10 -2 -18 -8 -18 -13 0 -5
-6 -7 -14 -4 -8 3 -17 1 -21 -5 -3 -7 2 -11 14 -11 11 0 27 -7 35 -16 15 -14
16 -14 17 3 0 16 1 16 8 -2 4 -11 6 -28 3 -38 -4 -17 -6 -17 -14 -3 -5 9 -17
16 -26 15 -14 0 -13 -2 3 -9 18 -8 18 -9 -5 -10 -22 -1 -23 -2 -9 -13 9 -7 16
-16 17 -22 1 -15 22 -18 22 -3 0 8 13 14 33 15 17 0 26 -1 20 -4 -24 -9 -13
-25 12 -19 14 4 25 2 25 -4 0 -5 9 -10 20 -10 11 0 20 5 20 11 0 6 9 8 20 4
11 -4 20 -2 20 4 0 6 -7 11 -16 11 -11 0 -14 6 -9 23 5 17 4 19 -4 7 -7 -9
-11 -10 -11 -3 0 8 -13 10 -39 7 -22 -2 -42 -1 -45 4 -3 5 9 10 27 10 53 0 58
2 51 13 -3 6 -15 9 -25 6 -11 -3 -19 -1 -19 4 0 5 5 9 11 9 6 0 7 5 2 13 -4 6
-8 16 -8 22 0 5 -21 14 -47 18 -27 5 -48 12 -48 16 0 8 117 -3 143 -14 9 -4
17 -4 17 -1 0 15 -100 39 -256 60 -17 2 -45 11 -62 20 -17 9 -43 16 -57 16
-15 0 -24 4 -20 10 3 5 1 10 -4 10 -6 0 -11 17 -11 38 0 21 -8 65 -17 97 -13
44 -17 93 -15 187 1 92 -3 137 -13 162 -8 20 -15 66 -15 103 0 61 1 65 15 47
14 -18 15 -16 11 25 -3 24 -2 49 1 57 7 18 23 18 23 0 0 -22 25 -26 38 -5 9
14 8 21 -4 34 -17 16 -39 21 -29 6 3 -6 -3 -9 -12 -8 -16 1 -18 10 -15 80 2
50 0 77 -6 73 -14 -8 -3 74 12 93 8 11 8 13 0 8 -15 -9 -23 62 -23 198 0 107
-9 177 -21 185 -5 3 -5 19 -2 35 l6 30 7 -30 c6 -26 7 -23 8 18 1 32 9 59 26
85 l24 37 110 0 c89 1 108 -2 99 -12z m-578 -874 c0 -5 5 -7 10 -4 17 10 -1
-77 -19 -96 -9 -9 -36 -20 -61 -24 -25 -4 -49 -11 -55 -15 -5 -4 -28 -7 -50
-6 -22 1 -43 -3 -47 -8 -4 -7 -15 -6 -30 1 -13 7 -54 15 -93 18 -157 14 -178
17 -164 26 19 12 72 11 106 -2 15 -5 87 -11 160 -11 128 -2 132 -1 167 25 23
18 39 41 46 67 10 36 30 56 30 29z m2201 -914 c5 -16 9 -44 9 -61 0 -56 -50
-225 -105 -359 -98 -235 -127 -361 -128 -550 -1 -106 3 -144 21 -208 62 -218
189 -352 382 -402 86 -23 198 -16 262 14 92 44 171 131 204 225 52 145 -37
611 -153 798 -60 98 -179 175 -256 165 -23 -3 -50 -8 -59 -12 -12 -5 -18 -3
-18 7 0 8 18 23 40 33 129 58 328 -83 386 -273 9 -32 21 -61 26 -67 4 -5 8
-17 8 -27 0 -10 5 -18 11 -18 5 0 7 -4 4 -10 -3 -5 1 -20 8 -32 16 -25 59
-209 78 -331 13 -83 7 -199 -12 -259 -14 -44 -28 -50 -22 -10 3 26 3 26 -7 4
-5 -13 -8 -28 -4 -33 10 -17 -27 -79 -48 -79 -15 0 -18 -3 -10 -13 14 -16 -73
-91 -143 -123 -73 -34 -178 -48 -257 -34 -76 13 -118 30 -118 47 0 17 -17 17
-23 1 -3 -7 -6 -4 -6 7 -1 17 -3 17 -11 5 -8 -13 -10 -13 -10 2 0 22 -56 53
-63 35 -3 -6 -6 -2 -6 11 -1 22 -21 33 -21 11 0 -8 -5 -8 -15 1 -8 7 -15 19
-15 27 0 8 -4 12 -9 9 -31 -20 -162 212 -186 329 -17 83 -19 262 -4 372 15
110 63 271 115 386 81 177 108 270 108 372 1 74 -3 98 -22 136 -12 25 -22 50
-22 55 0 16 82 -120 91 -151z m3029 -81 c41 -8 104 -21 140 -28 36 -7 71 -15
77 -19 6 -4 51 -14 100 -22 48 -9 115 -22 148 -30 33 -8 79 -17 103 -20 23 -4
42 -11 42 -15 0 -9 -86 -26 -104 -22 -4 2 -14 -2 -21 -8 -7 -6 -32 -9 -57 -6
-49 6 -74 -5 -65 -28 5 -12 14 -15 32 -10 15 4 25 2 25 -5 0 -14 31 -2 53 21
19 20 37 24 37 8 0 -5 -5 -10 -11 -10 -5 0 -8 -4 -5 -9 13 -21 -6 -41 -33 -34
-25 6 -26 5 -8 -14 22 -25 13 -33 -37 -32 -35 1 -37 2 -16 9 21 6 22 8 8 14
-28 12 -53 2 -56 -22 -3 -20 1 -22 37 -22 26 0 41 -5 41 -12 1 -8 6 -6 14 5
14 18 37 22 50 10 4 -5 11 -8 14 -9 4 0 15 -4 25 -7 9 -4 24 -9 32 -12 22 -7
18 -20 -10 -35 -18 -10 -24 -20 -23 -38 3 -22 -2 -26 -29 -29 -19 -2 -33 0
-33 6 0 6 10 11 23 11 17 0 19 2 8 9 -10 6 -27 4 -50 -5 -19 -8 -41 -12 -49
-9 -8 3 -20 1 -26 -3 -18 -15 -94 -23 -101 -12 -9 14 -78 13 -93 -2 -9 -9 -15
-9 -23 -1 -7 7 -20 8 -33 4 -11 -5 -39 -11 -61 -15 -39 -7 -39 -7 -17 9 12 9
22 27 22 41 0 17 5 24 20 24 21 0 27 15 10 25 -5 3 -10 17 -10 31 0 22 4 24
51 24 47 0 50 -1 44 -21 -5 -13 -3 -19 3 -15 5 3 15 0 21 -7 5 -7 24 -12 41
-11 16 1 28 -2 25 -6 -9 -14 12 -21 39 -14 14 3 23 10 20 16 -3 5 -11 4 -20
-3 -11 -9 -14 -8 -14 4 0 20 26 29 65 21 19 -3 35 -1 39 5 5 7 -8 11 -37 11
-43 0 -45 1 -51 34 -6 33 -28 52 -47 40 -17 -10 -9 -25 11 -19 14 4 20 2 20
-9 0 -20 -17 -30 -23 -14 -3 7 -6 3 -6 -9 -1 -13 5 -23 12 -24 6 0 2 -5 -11
-12 -19 -8 -25 -8 -32 3 -5 8 -5 19 0 25 11 14 -48 45 -85 45 -13 0 -30 6 -37
13 -29 27 -68 41 -80 29 -7 -7 -17 -12 -22 -12 -6 0 -5 4 2 9 11 7 11 9 -2 14
-9 4 -16 2 -16 -3 0 -14 -27 -12 -33 3 -4 9 -8 8 -16 -3 -8 -12 -11 -12 -11
-1 0 11 -3 11 -15 1 -9 -7 -13 -21 -10 -31 10 -31 -3 -21 -20 15 -9 19 -28 42
-42 51 -32 22 -73 12 -73 -16 0 -28 -22 -19 -38 15 -21 42 -9 58 35 50 44 -8
65 -17 87 -40 24 -23 33 -11 40 53 7 60 17 123 20 123 0 0 35 -7 76 -16z m57
-329 c10 -31 9 -35 -7 -35 -13 0 -16 -6 -12 -25 2 -15 0 -25 -7 -25 -6 0 -11
7 -11 15 0 8 -7 15 -16 15 -10 0 -14 6 -11 15 10 25 -15 29 -35 5 -16 -20 -23
-19 -19 3 1 9 -11 9 -28 -2 -9 -6 -11 -18 -7 -35 5 -21 2 -28 -16 -36 -23 -9
-23 -9 -2 -9 12 -1 22 -7 21 -13 -2 -54 4 -70 22 -65 15 4 20 -2 24 -27 2 -17
7 -39 11 -48 9 -19 -6 -19 -44 1 -16 10 -25 10 -28 3 -2 -6 -10 -8 -19 -5 -12
5 -14 3 -8 -7 5 -9 4 -11 -3 -6 -6 4 -24 0 -39 -8 -20 -11 -23 -15 -10 -16 12
0 17 -8 17 -27 -1 -25 -2 -26 -14 -10 -16 21 -26 22 -26 2 0 -8 5 -15 12 -15
6 0 8 -3 5 -7 -4 -3 -15 1 -25 10 -17 16 -20 15 -40 -3 -12 -12 -22 -16 -22
-10 0 5 -5 10 -10 10 -7 0 -7 -6 0 -19 17 -32 11 -34 -14 -4 -17 19 -21 30
-13 35 7 4 8 8 2 8 -5 0 -17 -5 -25 -10 -12 -8 -13 -13 -2 -30 18 -29 15 -40
-10 -36 -13 3 -34 5 -47 5 -24 1 -21 16 2 16 7 0 12 15 12 35 0 28 4 34 18 32
11 -2 17 4 17 17 0 17 5 19 34 14 29 -4 34 -2 32 12 -1 9 -8 20 -15 24 -14 9
2 61 19 61 6 0 5 9 -2 25 -6 14 -15 25 -20 25 -4 0 -8 7 -8 16 0 14 1 14 16 0
21 -22 22 -21 22 18 0 37 46 106 70 106 7 0 15 7 18 15 9 22 74 17 74 -5 0
-11 7 -16 23 -14 12 1 26 3 31 3 4 1 5 8 2 17 -9 22 14 50 25 32 7 -10 12 -9
26 4 15 16 19 16 33 3 9 -8 21 -31 27 -50z m-87 -456 c0 -5 -4 -7 -10 -4 -5 3
-10 2 -10 -3 0 -6 7 -12 15 -16 8 -3 15 -17 15 -31 0 -14 5 -25 10 -25 6 0 10
4 10 10 0 10 56 8 67 -3 3 -4 13 -7 20 -7 18 0 38 -21 38 -40 0 -8 8 -16 18
-18 9 -2 17 1 17 7 0 17 17 13 24 -5 3 -8 2 -12 -4 -9 -5 3 -21 -1 -34 -10
-31 -20 -43 -14 -54 27 -10 40 -28 47 -34 13 -3 -14 -1 -25 4 -25 4 0 1 -11
-7 -24 -10 -15 -12 -26 -6 -30 5 -4 14 1 19 10 11 20 27 1 18 -21 -3 -8 -1
-15 4 -15 6 0 10 5 10 10 0 6 7 10 15 10 8 0 15 -4 15 -10 0 -5 7 -10 16 -10
19 0 43 -28 44 -49 0 -11 -4 -10 -19 3 -11 10 -25 15 -31 11 -8 -5 -8 -10 -2
-14 5 -3 12 -16 16 -27 5 -16 2 -23 -14 -27 -21 -5 -28 7 -10 18 19 12 -11 37
-37 30 -18 -4 -23 -1 -23 15 0 22 -16 27 -23 8 -3 -10 -8 -10 -18 1 -11 10
-11 15 -1 18 6 3 12 11 12 19 0 7 -6 11 -14 8 -9 -4 -16 3 -18 18 l-5 23 -11
-25 c-6 -14 -11 -19 -11 -11 -1 8 -9 20 -18 27 -16 12 -15 13 15 14 17 0 32 5
32 10 0 6 6 10 14 10 11 0 12 5 3 24 -8 16 -16 21 -21 16 -6 -6 -18 -2 -32 11
l-23 21 -6 -36 c-8 -41 -25 -49 -25 -12 0 14 -5 28 -10 31 -13 8 -2 55 19 77
18 19 41 23 41 7z m-1460 -22 c31 8 94 -75 129 -172 66 -182 114 -406 92 -428
-4 -4 -29 -9 -54 -11 -46 -4 -47 -3 -47 26 0 40 -19 76 -31 57 -4 -7 -11 -10
-15 -6 -4 4 1 13 12 21 15 12 17 19 9 43 -7 17 -19 29 -33 31 -28 4 -29 22 -1
22 16 0 19 4 14 23 -9 29 -22 42 -42 42 -9 0 -18 6 -20 13 -3 7 4 12 16 12 12
0 21 6 21 14 0 9 -7 12 -20 9 -11 -3 -20 0 -20 6 0 5 -8 8 -17 5 -17 -5 -17
-4 0 9 12 10 14 17 8 22 -18 10 -12 25 9 25 23 0 24 1 8 35 -6 14 -19 25 -30
25 -10 0 -18 5 -18 10 0 6 7 10 15 10 16 0 20 30 6 46 -7 7 -41 107 -41 121 0
2 7 0 16 -5 9 -5 24 -7 34 -5z m1734 4 c3 -5 -1 -12 -10 -15 -9 -4 -14 -9 -11
-13 4 -3 13 0 21 7 13 10 19 9 31 -4 9 -9 19 -16 23 -16 13 0 37 19 38 30 3
21 4 21 20 6 19 -20 33 -20 40 -1 14 37 25 -4 15 -53 -1 -1 -9 2 -20 7 -23 13
-55 -17 -45 -43 4 -11 1 -16 -10 -16 -11 0 -16 9 -16 28 -1 26 -1 26 -16 7
-11 -14 -17 -17 -22 -8 -6 9 -15 6 -34 -12 -33 -30 -48 -32 -41 -5 4 15 0 20
-16 20 -19 0 -27 15 -22 43 0 4 -8 7 -20 7 -36 0 -15 25 27 31 61 10 62 10 68
0z m-3627 -93 c-9 -4 -21 -24 -27 -43 -15 -45 -84 -102 -104 -85 -12 9 -18 5
-31 -23 -8 -18 -21 -34 -28 -34 -7 0 -20 -4 -30 -8 -16 -7 -16 -4 3 31 12 22
30 46 40 55 16 14 17 18 5 23 -8 3 -20 -3 -27 -12 -18 -24 -39 -38 -68 -47
l-25 -7 27 29 27 28 -27 12 c-35 14 -121 25 -101 12 10 -6 3 -8 -23 -6 -20 1
-34 5 -31 10 2 4 -8 7 -22 7 -15 0 -24 -4 -20 -10 4 -6 -7 -10 -27 -9 -27 0
-30 2 -13 9 20 8 19 9 -1 9 -12 1 -36 -2 -54 -5 -23 -5 -30 -11 -27 -24 8 -33
-11 -51 -53 -48 -21 2 -36 6 -33 11 6 10 -19 8 -37 -3 -13 -8 -12 -10 3 -10 9
0 17 -4 17 -10 0 -5 -24 -9 -52 -8 -33 1 -66 -5 -85 -16 -28 -14 -31 -19 -21
-35 6 -11 19 -16 29 -14 10 3 42 -3 71 -13 46 -16 50 -19 25 -22 -16 -2 -25
-8 -21 -14 4 -7 2 -8 -5 -4 -6 4 -9 11 -6 15 6 10 -53 23 -66 15 -17 -10 -48
7 -51 28 -3 20 -4 20 -29 -6 -26 -26 -87 -56 -111 -56 -7 0 5 9 27 19 22 10
58 33 80 51 53 42 111 75 160 90 22 7 69 26 105 44 62 29 71 31 190 31 96 0
137 -4 178 -19 l54 -18 51 27 c29 16 72 40 96 54 41 23 44 23 38 6 -4 -14 1
-11 16 8 18 24 23 26 26 11 1 -9 -4 -21 -12 -26z m1792 -123 c11 6 51 -28 51
-44 0 -13 -28 -22 -35 -11 -3 4 -2 15 1 24 4 11 1 16 -10 16 -10 0 -16 -8 -16
-22 0 -29 15 -52 27 -45 10 7 53 -36 53 -52 0 -6 -6 -13 -12 -17 -7 -4 -10 -4
-6 0 4 5 -2 17 -12 29 -24 25 -29 21 -23 -20 4 -27 10 -33 29 -33 15 0 24 -6
24 -16 0 -10 -6 -14 -15 -10 -10 3 -15 -1 -15 -12 0 -34 13 -62 26 -60 7 2 13
-1 13 -7 1 -5 -5 -10 -11 -10 -7 -1 -12 -7 -10 -15 6 -28 12 -144 6 -132 -8
18 -22 15 -29 -7 -6 -19 -39 -19 -50 0 -11 17 -95 371 -95 399 0 25 4 30 25
30 13 0 30 6 37 14 9 9 17 11 25 4 7 -5 17 -7 22 -3z"/>
<path d="M2930 3773 c-44 -16 -72 -83 -35 -83 8 0 15 -4 15 -9 0 -17 -20 -23
-35 -11 -11 9 -21 8 -46 -4 -18 -9 -38 -16 -45 -16 -7 0 -15 -6 -17 -12 -3 -7
-6 -2 -6 12 -1 19 -3 22 -10 11 -8 -12 -13 -12 -24 -3 -8 7 -21 10 -29 7 -9
-4 -18 0 -21 7 -6 18 -90 17 -111 -1 -11 -9 -30 -11 -59 -7 -41 6 -123 -13
-137 -32 -3 -5 -26 -20 -52 -35 -54 -31 -60 -39 -52 -61 8 -21 45 -20 102 3
49 20 147 36 138 23 -2 -4 40 -6 95 -4 65 2 99 0 99 -7 0 -6 16 -11 35 -11 19
0 35 -5 35 -11 0 -8 19 -10 64 -5 l65 6 -3 -52 c-2 -29 -1 -36 1 -15 2 20 8
37 14 37 5 0 9 6 9 13 0 14 26 29 93 53 21 7 35 9 32 4 -3 -6 1 -10 10 -10 9
0 13 5 10 10 -8 13 6 13 39 0 17 -6 26 -6 26 0 0 6 16 10 36 10 24 0 33 -4 28
-12 -5 -7 -3 -8 6 -3 7 4 16 2 21 -6 6 -11 11 -11 20 -2 8 8 32 10 75 6 58 -5
64 -4 64 13 -1 44 -72 98 -144 109 -27 3 -59 13 -71 21 -12 8 -43 17 -70 20
-27 3 -68 16 -90 30 -43 25 -50 26 -75 17z"/>
<path d="M2350 3465 c0 -9 -7 -23 -15 -32 -10 -10 -12 -19 -7 -27 5 -6 12 -21
16 -32 5 -16 2 -23 -14 -27 -26 -7 -26 -39 0 -92 31 -65 79 -105 127 -105 9 0
21 -7 27 -15 14 -19 81 -22 128 -5 29 11 56 11 118 4 62 -7 86 -6 105 4 21 10
34 10 79 -3 52 -15 116 -13 141 5 11 7 51 6 75 -3 57 -20 101 -11 161 36 20
15 43 27 51 27 8 0 22 8 32 18 20 23 14 101 -9 118 -8 6 -12 13 -10 16 3 3 0
28 -6 56 -12 49 -13 50 -33 36 -26 -18 -36 -18 -36 0 0 19 -17 29 -32 19 -17
-10 -38 -15 -65 -14 -14 1 -23 -5 -23 -14 0 -17 -17 -20 -22 -5 -2 7 -20 6
-50 -4 -26 -7 -49 -11 -52 -8 -4 3 -6 0 -6 -7 0 -7 -5 -9 -12 -4 -18 11 -52
10 -60 -2 -5 -6 -8 -5 -8 4 0 9 -4 10 -12 3 -15 -11 -68 -13 -68 -2 0 4 -9 10
-20 13 -11 3 -18 1 -14 -4 9 -15 -13 -10 -26 6 -13 15 -35 11 -25 -6 4 -5 1
-9 -4 -9 -6 0 -11 5 -11 10 0 6 -7 10 -15 10 -8 0 -15 -4 -15 -10 0 -15 -37
-12 -54 5 -8 8 -28 15 -45 15 -17 0 -31 5 -31 11 0 9 -4 8 -14 0 -7 -6 -26 -8
-44 -5 -24 5 -33 2 -38 -10 -5 -14 -8 -14 -23 3 -9 11 -26 22 -39 26 -18 5
-25 2 -29 -14 -3 -12 -9 -21 -13 -21 -19 0 -40 13 -40 25 0 8 -4 17 -10 20 -5
3 -10 -1 -10 -10z"/>
<path d="M6980 2852 c-30 -8 -63 -21 -72 -29 -26 -23 -100 -28 -155 -10 -136
44 -209 41 -197 -8 3 -14 2 -25 -4 -25 -5 0 -12 -9 -15 -20 -3 -14 -17 -21
-45 -26 -67 -10 -69 -15 -47 -80 19 -57 61 -108 118 -147 15 -10 25 -22 22
-28 -4 -5 3 -9 15 -9 12 0 18 -4 15 -10 -3 -5 3 -15 13 -21 12 -7 17 -19 14
-31 -3 -14 0 -17 14 -11 11 3 30 15 43 25 14 11 40 18 67 18 36 0 48 -6 77
-36 l34 -36 17 36 c10 22 26 38 41 42 14 3 25 10 25 14 0 4 24 6 54 4 51 -3
60 0 140 48 92 56 117 88 122 160 2 36 0 39 -53 67 -31 17 -65 33 -77 37 -25
8 -66 50 -66 68 0 20 -38 23 -100 8z"/>
<path d="M8095 2751 c-8 -17 -20 -52 -26 -80 -5 -27 -19 -57 -30 -67 -10 -9
-19 -23 -19 -31 0 -7 -4 -13 -9 -13 -11 0 -29 -44 -36 -90 -3 -19 -11 -40 -17
-47 -6 -7 -12 -27 -14 -43 -2 -17 -13 -43 -25 -59 -23 -31 -32 -121 -12 -128
6 -2 13 4 16 14 4 15 5 14 6 -4 1 -31 18 -37 31 -12 8 14 15 18 22 11 6 -6 35
-3 84 10 41 10 79 16 83 13 11 -6 23 39 15 58 -8 22 14 58 33 55 10 -2 22 7
29 20 8 16 13 19 16 10 3 -7 8 15 12 49 6 50 12 62 28 66 15 4 19 11 14 23 -6
16 21 112 35 124 15 13 18 41 4 46 -21 9 -19 25 3 17 15 -5 14 -4 -2 9 -19 15
-19 15 1 20 19 5 40 58 22 58 -4 0 -9 -10 -11 -22 -4 -32 -24 -33 -51 -4 -30
32 -45 33 -57 4 l-9 -23 -7 23 c-8 26 -32 29 -49 5 -12 -16 -14 -16 -39 0 -25
17 -26 17 -41 -12z"/>
<path d="M4220 2970 l-41 -41 23 -19 c13 -11 31 -19 40 -20 9 0 21 -6 25 -14
4 -7 18 -18 31 -25 12 -7 20 -17 16 -23 -4 -7 -2 -8 5 -4 6 4 17 3 24 -2 7 -6
23 -10 37 -9 14 0 35 -2 47 -7 22 -7 23 -6 17 41 -7 51 -19 73 -39 73 -7 0
-11 12 -10 29 2 33 -17 45 -92 56 -40 6 -45 4 -83 -35z"/>
<path d="M390 3052 c-58 -10 -92 -21 -108 -35 -21 -20 -22 -22 -6 -34 10 -7
22 -9 28 -4 15 12 76 19 82 10 2 -4 0 -10 -6 -14 -5 -3 -10 -13 -10 -21 0 -10
5 -12 13 -7 6 4 20 6 30 5 13 -3 17 4 17 30 0 30 1 31 17 15 13 -13 15 -19 5
-29 -16 -16 -15 -39 1 -33 11 5 31 49 44 101 7 30 -10 32 -107 16z"/>
<path d="M9083 231 c-32 -5 -40 -9 -34 -20 6 -10 13 -11 29 -2 26 14 43 14 20
0 -26 -15 -23 -43 3 -36 17 5 20 2 16 -14 -3 -10 -1 -16 4 -13 5 3 13 -5 18
-18 7 -17 5 -26 -7 -35 -14 -12 -13 -13 6 -13 29 0 28 -17 0 -23 -22 -4 -22
-4 -2 -6 15 -1 24 -10 28 -27 7 -26 8 -26 69 -20 34 3 72 6 85 6 12 0 22 5 22
10 0 6 -9 10 -19 10 -25 0 -38 20 -20 31 8 5 28 9 44 9 l30 0 -33 20 c-18 11
-41 20 -52 20 -11 0 -20 5 -20 12 0 6 -11 26 -25 44 -14 18 -25 40 -25 49 0
12 -6 15 -21 10 -15 -5 -19 -4 -15 4 8 12 -27 13 -101 2z"/>
</g>
</svg>
