<?xml version="1.0" standalone="no"?>
<!DOCTYPE svg PUBLIC "-//W3C//DTD SVG 20010904//EN"
 "http://www.w3.org/TR/2001/REC-SVG-20010904/DTD/svg10.dtd">
<svg version="1.0" xmlns="http://www.w3.org/2000/svg"
 width="2048.000000pt" height="1536.000000pt" viewBox="0 0 2048.000000 1536.000000"
 preserveAspectRatio="xMidYMid meet">
<metadata>
Created by potrace 1.16, written by Peter Selinger 2001-2019
</metadata>
<g transform="translate(0.000000,1536.000000) scale(0.100000,-0.100000)"
fill="#000000" stroke="none">
<path d="M0 7680 l0 -7680 1582 0 c1399 0 1580 2 1562 15 -16 13 -17 16 -4 25
21 14 37 12 44 -5 3 -8 1 -15 -4 -15 -6 0 -10 -5 -10 -11 0 -13 60 -4 70 9 8
13 48 9 43 -4 -3 -8 9 -11 36 -10 40 1 60 16 22 16 -24 0 -32 21 -17 42 15 20
56 13 56 -8 0 -8 7 -14 16 -14 9 0 24 -10 33 -22 21 -25 45 -16 36 13 -4 11
-2 19 4 19 6 0 11 -9 11 -20 0 -22 28 -39 39 -24 9 13 31 16 31 4 0 -6 8 -10
18 -9 10 0 12 3 5 6 -7 2 -13 11 -13 19 0 8 -4 14 -9 14 -14 0 -10 49 5 61 8
7 17 9 21 5 3 -3 1 -6 -5 -6 -7 0 -12 -6 -12 -14 0 -16 27 -30 52 -27 12 2 16
-3 12 -13 -7 -19 7 -21 25 -4 10 11 11 7 5 -16 -6 -25 -5 -28 10 -23 10 4 26
7 37 7 10 0 19 5 19 11 0 7 8 18 18 25 16 12 15 13 -7 14 -21 0 -22 2 -10 17
13 15 12 16 -8 11 -13 -4 -23 -2 -23 3 0 5 13 9 28 9 33 0 53 16 45 38 -4 9
-2 13 4 9 18 -11 44 4 54 31 11 27 -3 44 -28 35 -21 -8 -15 13 13 46 27 33 25
38 -7 20 -11 -5 -17 -14 -14 -20 4 -5 -1 -9 -10 -9 -10 0 -15 -6 -12 -12 3 -9
-8 -13 -39 -13 -47 0 -44 17 3 19 17 1 27 6 25 14 -1 7 5 15 13 18 24 10 18
22 -12 26 -20 2 -27 8 -25 20 1 9 -2 19 -7 22 -11 7 -37 -22 -28 -31 4 -3 -1
-12 -11 -19 -10 -8 -12 -13 -4 -14 15 0 16 -26 0 -36 -6 -4 -18 1 -27 12 -9
11 -25 18 -38 16 -17 -3 -21 0 -17 12 4 9 1 16 -6 16 -8 0 -10 -9 -6 -24 8
-33 -9 -42 -28 -15 -17 25 -46 19 -46 -10 0 -17 -4 -18 -30 -11 -24 7 -30 5
-30 -6 0 -8 -7 -17 -15 -20 -17 -7 -21 -34 -5 -34 6 0 10 5 10 11 0 6 8 8 19
4 11 -3 22 -1 26 5 8 13 75 13 75 0 0 -5 5 -10 10 -10 6 0 10 6 10 14 0 17 35
27 49 13 5 -5 24 -10 40 -9 17 0 33 -3 36 -8 3 -4 13 -6 24 -3 10 2 25 -2 33
-11 9 -8 19 -12 23 -8 5 4 5 2 1 -5 -4 -7 -13 -10 -21 -7 -10 4 -18 -3 -25
-20 -6 -17 -17 -26 -32 -26 -29 0 -52 -15 -44 -28 3 -5 -1 -15 -9 -22 -13 -11
-15 -8 -15 16 0 16 -4 24 -8 18 -4 -6 -14 -13 -23 -16 -13 -5 -16 0 -14 23 3
39 11 46 34 25 12 -11 21 -13 25 -7 8 12 -4 65 -12 57 -3 -3 -11 -1 -19 5 -8
7 -13 8 -13 1 0 -5 -13 -12 -29 -15 -23 -5 -30 -14 -41 -51 -9 -31 -16 -43
-26 -39 -9 3 -12 13 -9 24 5 15 1 19 -20 19 -23 0 -25 2 -15 21 9 16 14 18 26
8 19 -16 44 5 27 22 -16 16 -69 -18 -84 -53 -14 -33 -3 -51 15 -26 14 20 28
14 19 -8 -3 -9 1 -14 12 -14 9 0 13 -4 10 -10 -8 -13 -62 -13 -70 0 -5 8 -11
7 -21 -1 -11 -9 -14 -8 -14 4 0 9 8 20 17 26 10 5 15 13 10 17 -4 4 -16 -1
-27 -11 -27 -25 -47 -7 -30 25 10 18 14 20 21 9 8 -12 11 -12 19 1 13 19 12
27 0 35 -6 4 -17 1 -25 -5 -8 -7 -27 -10 -42 -7 -30 6 -54 -5 -102 -48 l-34
-30 5 27 c3 16 2 28 -2 28 -14 0 -18 -13 -10 -39 7 -25 6 -27 -16 -23 -16 3
-24 11 -24 24 0 15 -5 19 -20 15 -26 -7 -26 17 0 36 11 8 17 17 13 20 -3 4 -1
7 5 7 15 0 15 -13 1 -27 -8 -8 -7 -13 2 -19 7 -4 14 -3 17 4 2 7 10 12 18 12
8 0 26 7 39 16 14 9 34 14 45 11 15 -4 20 0 20 14 0 10 5 19 10 19 6 0 10 -7
10 -16 0 -12 6 -15 23 -10 12 3 35 6 51 6 24 0 27 2 16 15 -9 10 -9 15 -1 15
6 0 11 5 11 11 0 6 -9 9 -19 6 -14 -3 -21 2 -26 20 -4 18 -10 23 -23 18 -9 -4
-32 -9 -50 -12 l-33 -6 3 42 c1 23 6 45 10 47 5 3 6 10 3 15 -4 5 1 12 10 15
13 5 14 9 4 15 -14 8 -59 -67 -59 -99 0 -10 -5 -23 -12 -30 -9 -9 -6 -14 13
-21 21 -9 22 -10 4 -12 -11 -1 -26 0 -34 1 -8 1 -17 -4 -22 -11 -4 -8 -10 -11
-13 -8 -3 3 8 20 24 38 37 40 38 50 1 57 -27 6 -29 9 -20 31 18 48 8 57 -14
11 -18 -39 -25 -46 -43 -42 -17 4 -23 0 -28 -20 -5 -21 -12 -26 -37 -26 -26 0
-30 3 -26 19 2 10 1 24 -3 31 -10 17 -31 3 -23 -15 3 -8 1 -15 -5 -15 -5 0
-12 7 -16 15 -3 8 -1 15 5 15 6 0 9 7 6 15 -4 8 -2 17 3 20 5 3 7 12 4 20 -4
8 -10 12 -16 9 -5 -3 -7 -12 -4 -19 3 -8 -2 -19 -9 -25 -8 -7 -12 -16 -9 -21
3 -5 -2 -9 -11 -9 -13 0 -16 6 -11 25 5 20 3 25 -12 25 -9 0 -27 -7 -39 -15
-21 -14 -23 -14 -35 5 -16 25 -28 26 -28 2 0 -14 -8 -18 -35 -18 -22 0 -35 5
-35 13 0 7 -4 13 -10 13 -5 0 -10 -4 -10 -10 0 -5 -7 -10 -16 -10 -13 0 -14 3
-5 14 10 11 6 16 -16 24 -26 10 -27 10 -5 11 13 1 38 11 55 23 17 12 27 16 22
8 -14 -23 -13 -50 2 -50 8 0 11 -4 8 -10 -3 -5 1 -10 9 -10 9 0 16 7 16 16 0
12 8 15 33 12 28 -3 32 0 35 22 2 14 13 30 26 36 20 10 23 9 18 -8 -4 -16 -1
-18 23 -12 18 4 26 3 22 -3 -4 -7 8 -8 36 -3 28 6 44 5 49 -3 5 -7 8 -2 8 13
0 22 5 25 38 26 20 0 31 -1 24 -3 -14 -5 -16 -33 -2 -33 6 0 13 -1 17 -2 4 -2
9 17 11 42 4 50 6 55 21 46 7 -5 7 -15 1 -31 -8 -21 -7 -25 10 -25 11 0 20 -4
20 -10 0 -5 7 -10 16 -10 11 0 14 -6 9 -20 -4 -12 -2 -20 5 -20 7 0 9 17 6 51
-2 27 -6 51 -7 52 -38 20 -44 27 -44 56 -1 26 3 31 22 31 29 0 29 -14 1 -34
-12 -9 -18 -19 -14 -23 5 -5 11 -2 13 5 3 6 13 12 24 12 14 0 20 -10 25 -40 6
-34 9 -38 25 -30 24 13 29 13 29 -5 0 -8 -4 -15 -10 -15 -5 0 -10 -5 -10 -11
0 -8 5 -8 15 1 8 7 15 18 15 25 0 7 7 18 15 25 9 8 15 8 15 2 0 -14 53 -8 58
7 3 8 -4 10 -22 5 -15 -3 -26 -2 -26 4 0 14 52 22 73 11 9 -6 22 -7 27 -4 6 3
14 -5 20 -19 7 -19 15 -24 37 -22 15 1 27 8 26 14 -2 7 1 12 6 12 12 0 21 -39
10 -46 -21 -12 -7 -23 16 -12 15 7 24 17 21 25 -3 7 -1 13 4 13 6 0 10 -4 10
-8 0 -5 23 -2 50 7 53 16 65 37 32 58 -16 9 -21 7 -36 -19 -21 -35 -32 -32
-15 5 6 14 25 31 42 37 41 14 52 13 38 -3 -6 -8 -8 -17 -4 -20 3 -4 12 1 18
10 7 10 23 18 36 18 13 1 41 2 62 3 34 2 55 22 22 22 -9 0 -12 6 -9 18 4 12 0
10 -15 -7 -12 -13 -25 -20 -29 -16 -4 4 -1 10 5 12 18 6 16 23 -2 23 -8 0 -15
5 -15 11 0 6 7 9 15 5 10 -4 15 1 15 14 0 23 -4 24 -32 9 -28 -15 -31 -7 -12
29 14 29 17 30 31 17 12 -12 18 -13 29 -4 8 6 14 14 14 17 0 3 -3 2 -7 -1 -3
-4 -17 0 -30 8 -15 10 -32 13 -50 8 -16 -4 -34 -6 -40 -5 -7 2 -13 -1 -13 -6
0 -4 -16 -6 -36 -4 -27 3 -35 1 -32 -9 6 -17 100 -22 110 -6 15 24 8 -11 -11
-52 l-18 -42 -26 30 c-14 17 -29 27 -32 21 -10 -16 -25 -12 -25 6 0 13 -7 15
-30 11 -25 -6 -30 -3 -30 13 0 21 -43 45 -61 34 -5 -3 -9 2 -9 10 0 9 7 16 15
16 8 0 15 5 15 11 0 5 -4 7 -10 4 -5 -3 -10 1 -10 9 0 9 5 16 10 16 6 0 10 4
10 9 0 4 -21 8 -47 7 -36 0 -48 3 -48 14 0 11 12 15 40 15 23 0 53 8 68 18 30
20 35 13 10 -15 -22 -25 -9 -34 21 -15 18 12 24 24 23 52 -1 19 -5 35 -9 35
-4 0 -8 -5 -8 -11 0 -6 -9 -8 -20 -4 -14 4 -20 2 -20 -9 0 -18 -60 -38 -74
-25 -13 12 -39 11 -32 0 7 -10 -54 -34 -63 -25 -3 3 4 13 17 21 15 11 22 25
22 47 0 18 5 37 12 44 9 9 8 12 -5 12 -9 0 -17 -4 -17 -10 0 -5 -5 -10 -11
-10 -13 0 -38 -29 -39 -44 0 -4 9 -6 20 -3 25 6 34 -7 16 -23 -11 -8 -20 -8
-35 -1 -17 10 -19 8 -16 -9 2 -11 7 -25 10 -30 3 -6 1 -10 -4 -10 -6 0 -11 6
-11 13 0 6 -14 20 -31 29 -29 17 -30 17 -24 -1 3 -10 -1 -24 -10 -31 -12 -10
-15 -10 -15 1 0 8 -5 6 -13 -5 -12 -17 -15 -17 -20 -3 -4 12 3 18 26 23 18 4
27 9 21 11 -6 2 -9 17 -6 33 6 39 53 55 58 19 3 -22 5 -23 14 -9 11 16 14 37
4 27 -12 -12 -33 17 -22 31 16 19 -9 42 -42 38 -16 -2 -34 0 -41 4 -17 11 27
33 51 25 12 -4 26 2 39 16 15 17 35 23 89 27 61 4 71 2 89 -17 17 -19 21 -20
26 -7 4 10 1 16 -8 16 -20 0 -19 17 1 28 9 5 15 12 15 15 -4 27 2 38 8 17 6
-23 12 -25 66 -25 101 -1 115 3 115 36 0 16 -4 29 -10 29 -14 0 -1 28 17 34
13 5 14 1 10 -24 -4 -16 -2 -42 4 -57 l10 -26 20 22 c21 22 44 19 35 -5 -7
-19 1 -17 24 6 11 11 20 28 20 38 1 12 5 10 15 -9 19 -35 36 -40 90 -30 37 7
48 5 64 -10 25 -23 27 -23 33 -1 5 16 17 19 92 19 47 0 92 5 99 11 8 7 18 7
27 2 8 -5 17 -7 20 -6 13 8 206 20 320 21 69 0 128 4 132 9 6 9 44 12 218 16
52 1 116 5 143 10 40 6 47 5 43 -7 -4 -8 -6 -17 -6 -19 0 -2 -7 -4 -15 -4 -8
0 -15 -7 -15 -16 0 -14 3 -14 15 -4 12 10 18 10 30 0 8 -7 15 -18 15 -24 0 -6
7 -24 15 -40 16 -30 7 -56 -21 -56 -7 0 -16 -5 -20 -12 -5 -7 -2 -9 9 -5 19 7
40 -16 35 -38 -3 -14 -6 -13 -25 5 -13 11 -23 16 -23 11 0 -12 29 -41 41 -41
6 0 8 -15 5 -32 -3 -18 -8 -59 -11 -90 l-6 -57 -93 1 c-51 1 -98 -2 -104 -5
-5 -4 -13 1 -17 11 -6 16 -7 16 -20 -2 -11 -14 -20 -17 -42 -10 -15 4 -32 8
-38 9 -5 0 -16 4 -22 8 -9 6 -13 2 -13 -13 0 -19 -5 -20 -52 -17 -45 2 -53 6
-53 22 0 16 8 20 35 22 58 2 60 3 60 12 0 4 -17 7 -37 5 -50 -4 -64 7 -29 21
33 14 86 0 86 -22 0 -9 11 -12 30 -11 21 2 29 7 25 16 -3 7 -5 18 -5 24 0 6
-7 8 -15 4 -8 -3 -15 -2 -15 3 0 14 43 21 58 9 8 -7 16 -8 20 -2 4 5 19 10 33
11 23 1 28 -5 39 -40 9 -27 15 -36 18 -24 2 9 8 17 13 17 5 0 9 5 9 11 0 5 -5
7 -10 4 -5 -3 -15 -3 -22 1 -7 5 -5 12 8 22 15 11 15 13 2 9 -9 -3 -19 0 -22
9 -3 8 0 14 6 14 6 0 21 11 33 24 16 17 19 29 14 45 -5 11 -5 21 -1 21 4 0 8
9 9 20 1 11 -2 20 -8 20 -5 0 -9 -7 -9 -15 0 -18 -66 -22 -72 -4 -2 6 -12 7
-25 2 -19 -7 -20 -10 -8 -27 12 -15 17 -17 29 -7 9 8 16 8 20 2 8 -12 -44 -41
-73 -41 -11 0 -22 4 -26 10 -3 5 -12 6 -21 3 -9 -3 -24 4 -35 16 -11 11 -29
21 -39 21 -28 0 -25 -17 5 -24 42 -11 28 -26 -25 -26 -27 0 -50 -4 -50 -9 0
-5 -8 -7 -19 -4 -10 2 -25 -3 -34 -11 -19 -20 -33 -20 -40 -1 -5 11 -25 14
-90 13 -46 -1 -90 3 -98 7 -8 5 -27 9 -44 8 l-30 -2 27 11 c15 7 29 17 32 24
4 10 -3 10 -32 0 -40 -13 -82 -11 -82 5 0 5 -5 9 -11 9 -6 0 -8 -7 -5 -16 5
-14 0 -15 -36 -10 -24 3 -55 6 -70 6 -16 0 -28 5 -28 12 0 6 3 8 7 5 7 -8 33
11 33 24 0 4 -20 8 -44 7 -38 0 -45 -4 -48 -21 -3 -24 -46 -39 -66 -24 -10 8
-16 7 -23 -4 -7 -11 -9 -8 -9 10 l0 23 -21 -23 -20 -24 4 28 c3 21 -1 31 -17
39 -19 10 -20 10 -7 -6 18 -22 3 -38 -38 -40 -25 -1 -31 -5 -31 -23 0 -13 5
-23 10 -23 6 0 10 -7 10 -16 0 -13 9 -15 50 -11 34 4 50 2 50 -6 0 -7 4 -6 9
2 10 16 61 25 61 10 0 -5 4 -9 10 -9 5 0 9 5 7 12 -2 11 12 13 77 9 22 -1 27
-4 19 -12 -12 -12 -6 -49 9 -49 6 0 8 6 5 13 -8 21 39 71 59 63 15 -6 15 -9
-5 -29 -22 -24 -28 -47 -12 -47 5 0 12 6 14 13 3 6 6 1 6 -12 1 -16 5 -21 16
-17 45 18 50 18 28 -2 -15 -13 -19 -22 -12 -29 7 -7 5 -21 -6 -43 -13 -25 -19
-29 -30 -20 -8 6 -11 18 -8 26 4 12 0 14 -20 9 -21 -6 -26 -3 -30 17 l-4 23
-8 -22 c-4 -13 -13 -23 -20 -23 -7 0 -15 -9 -18 -20 -3 -11 -10 -20 -15 -20
-6 0 -8 9 -5 20 3 11 0 20 -6 20 -6 0 -10 -3 -10 -7 3 -20 -2 -46 -8 -40 -3 4
-15 0 -25 -9 -14 -13 -15 -20 -7 -31 15 -18 26 -17 51 7 26 24 27 23 21 -17
-5 -34 -7 -35 -76 -16 -9 2 -17 0 -17 -6 0 -6 7 -11 15 -11 8 0 15 -4 15 -9 0
-5 -7 -11 -15 -15 -8 -3 -15 -1 -15 5 0 6 -9 8 -20 4 -11 -3 -20 -2 -20 4 0 5
8 12 18 14 13 4 11 5 -5 6 -14 1 -23 -5 -23 -13 0 -8 -4 -16 -8 -18 -5 -1 -12
-16 -16 -33 l-8 -30 24 22 c23 22 25 22 48 6 18 -13 25 -14 28 -4 2 7 15 24
29 39 l24 27 -7 -25 c-4 -14 -11 -27 -15 -28 -12 -5 -12 -42 0 -42 14 0 33 28
27 39 -9 14 4 41 19 41 7 0 16 -6 18 -12 4 -10 8 -9 16 2 5 8 13 11 17 7 4 -3
1 -13 -5 -21 -7 -8 -10 -24 -7 -34 8 -23 -8 -37 -53 -47 -24 -5 -36 -3 -43 6
-7 10 -8 8 -5 -9 4 -18 1 -22 -19 -22 -27 0 -29 -7 -10 -32 15 -21 41 -24 33
-5 -3 7 4 19 16 26 18 12 22 11 34 -5 7 -9 16 -14 20 -9 5 4 2 10 -5 12 -18 7
-4 23 19 23 13 0 18 4 13 12 -4 6 -3 8 4 4 6 -3 13 -2 17 4 8 12 65 13 65 1 0
-18 -26 -31 -38 -19 -8 8 -15 7 -26 -5 -17 -17 -11 -51 7 -40 16 10 63 12 77
3 15 -9 4 -30 -16 -30 -8 0 -14 -4 -14 -10 0 -5 9 -10 20 -10 13 0 20 -7 20
-19 0 -13 10 -21 33 -27 l32 -8 -32 -3 c-21 -3 -33 -10 -33 -19 0 -11 -6 -13
-19 -9 -27 8 -54 -34 -49 -77 2 -25 -1 -33 -15 -36 -11 -2 -17 1 -15 10 1 7
-2 13 -7 14 -6 0 -9 -7 -7 -18 2 -10 -2 -18 -7 -18 -6 0 -11 -4 -11 -8 0 -10
106 -9 116 1 4 4 0 7 -9 7 -9 0 -19 4 -22 10 -8 13 65 7 90 -8 18 -10 18 -11
3 -12 -10 0 -18 -5 -18 -11 0 -7 -9 -9 -21 -6 -15 4 -23 -1 -30 -21 -6 -15 -8
-34 -6 -43 3 -12 0 -16 -9 -12 -15 6 -44 -19 -44 -38 0 -10 3 -10 12 -1 9 9
14 8 22 -4 8 -10 20 -13 44 -8 36 7 43 29 12 37 -11 3 -20 10 -20 15 0 16 37
2 61 -24 15 -16 34 -24 58 -25 29 0 32 -2 16 -9 -12 -5 36 -8 125 -8 81 0 132
4 115 8 l-30 7 38 8 c41 8 61 0 37 -15 -9 -6 196 -9 545 -9 322 0 551 4 540 9
-16 7 -13 9 16 9 19 1 41 7 49 14 8 6 6 2 -4 -10 -17 -20 -17 -23 -3 -23 9 0
20 7 25 17 12 20 82 25 82 6 0 -7 5 -13 10 -13 6 0 10 7 10 16 0 12 7 14 30 9
25 -5 29 -4 24 9 -5 12 1 16 24 16 17 0 32 6 35 13 3 7 7 5 12 -8 12 -30 26
-45 36 -39 5 3 3 14 -3 24 -9 14 -10 22 -1 31 11 11 29 1 86 -53 l28 -28 912
0 912 0 -45 39 c-52 44 -51 45 66 60 55 7 71 6 80 -5 6 -8 21 -14 33 -14 39 0
17 -22 -49 -49 l-64 -26 404 -3 c316 -2 406 1 413 10 7 10 10 10 14 1 7 -19
31 -16 29 3 0 11 15 23 42 35 42 18 42 18 32 -1 -6 -11 -17 -20 -24 -20 -8 0
-19 -7 -26 -15 -11 -13 -7 -15 29 -15 23 0 52 5 63 11 15 8 19 8 14 0 -10 -15
15 -13 36 3 14 10 15 15 5 25 -9 9 1 10 46 5 40 -5 57 -3 57 5 0 6 7 11 16 11
8 0 12 5 9 10 -4 7 -13 6 -26 -1 -31 -16 -52 -4 -45 25 4 15 1 26 -7 29 -7 4
-6 6 5 6 9 1 29 7 45 15 73 38 207 87 231 86 41 -3 48 -1 32 10 -12 8 -11 10
8 10 12 0 22 -4 22 -9 0 -4 11 -6 25 -4 31 6 66 -24 44 -37 -11 -7 -11 -10 3
-15 19 -8 21 -55 1 -62 -20 -8 -30 6 -13 17 13 8 12 10 -2 10 -9 0 -20 -5 -24
-11 -11 -18 18 -36 68 -43 41 -6 48 -4 58 14 15 27 5 40 -30 40 -22 0 -28 4
-24 15 4 8 15 15 25 15 10 0 19 4 19 9 0 5 9 12 20 16 13 4 19 14 18 29 -2 20
-5 22 -23 14 -14 -6 -29 -5 -48 5 l-28 15 44 6 c37 6 55 1 120 -30 42 -20 77
-38 77 -39 0 -2 -16 -3 -36 -3 -22 0 -40 -6 -48 -18 -8 -10 -18 -14 -26 -9 -8
5 -11 3 -8 -6 3 -8 14 -13 24 -12 10 1 34 -2 52 -7 35 -9 65 -4 57 11 -3 4
-13 5 -22 2 -10 -4 -14 -2 -11 7 2 7 14 17 27 22 19 6 22 5 17 -7 -3 -8 -1
-15 4 -15 6 0 10 -7 10 -16 0 -8 5 -12 10 -9 7 4 7 13 0 26 -13 24 -1 25 43 3
l32 -17 -70 -34 c-39 -19 -113 -53 -165 -75 -52 -22 -97 -42 -99 -44 -2 -2
171 -4 385 -3 l389 1 -80 39 c-44 21 -86 39 -92 39 -7 0 -13 7 -13 15 0 8 -3
14 -7 14 -28 -5 -42 3 -38 20 2 14 -1 18 -11 14 -7 -3 -11 -9 -8 -14 10 -16
-16 -10 -84 22 -167 76 -182 84 -178 95 5 14 -21 27 -34 19 -11 -7 -100 15
-100 24 0 8 201 41 249 41 32 0 116 -30 316 -115 61 -25 204 -84 318 -131
l209 -84 4809 0 4809 0 0 7680 0 7680 -3117 0 -3118 -1 -67 -82 c-36 -45 -108
-131 -158 -191 l-92 -108 28 -24 c16 -13 36 -23 45 -24 27 0 39 -23 53 -99 8
-40 16 -73 17 -75 2 -1 27 -7 54 -14 59 -15 429 -124 433 -128 2 -1 6 -22 9
-46 3 -24 11 -48 18 -53 13 -11 23 -79 90 -630 31 -254 105 -851 151 -1210 19
-152 65 -503 104 -800 31 -236 40 -309 110 -905 22 -190 72 -598 110 -907 39
-309 70 -569 70 -578 0 -9 -13 -22 -30 -28 -35 -13 -39 -27 -10 -34 16 -4 20
-14 20 -44 0 -32 4 -41 23 -48 21 -8 23 -20 47 -231 24 -211 25 -222 8 -234
-16 -11 -16 -19 -7 -75 6 -34 10 -63 8 -65 -16 -13 -324 -166 -334 -166 -7 0
-18 -6 -24 -14 -10 -12 -8 -17 8 -26 12 -6 21 -17 21 -25 0 -8 6 -15 14 -15 7
0 16 -11 19 -25 5 -29 18 -18 -241 -218 -90 -70 -176 -134 -192 -142 -17 -9
-30 -19 -30 -23 0 -4 -65 -61 -145 -126 -80 -65 -145 -120 -145 -123 0 -2 64
45 143 104 79 59 155 117 169 128 15 11 119 95 232 188 113 92 207 167 210
167 2 0 6 -23 9 -51 4 -29 8 -53 10 -56 3 -2 47 -8 98 -14 52 -5 102 -14 111
-19 10 -6 28 -10 41 -10 13 0 32 -7 43 -15 10 -8 27 -15 37 -15 17 0 25 -20 7
-20 -21 0 -58 -54 -63 -94 -6 -40 5 -175 18 -241 l6 -30 -228 -69 c-125 -38
-336 -103 -468 -143 -132 -41 -271 -82 -310 -93 -38 -10 -103 -30 -143 -45
-130 -47 -524 -166 -530 -161 -1 2 52 46 119 97 106 82 254 202 269 217 28 30
-222 -158 -348 -261 -78 -64 -105 -80 -165 -97 -117 -34 -139 -42 -134 -47 3
-2 37 6 76 18 40 11 74 19 76 17 3 -2 -31 -32 -75 -67 -44 -35 -83 -68 -87
-74 -5 -9 35 22 182 136 17 13 91 43 165 67 228 72 492 150 510 150 10 0 34 7
53 15 20 8 188 62 374 119 186 57 406 126 488 152 180 56 195 60 195 45 0 -6
7 -11 15 -11 8 0 15 -4 15 -10 0 -5 9 -10 20 -10 27 0 26 -5 -15 -47 -19 -20
-35 -40 -35 -45 0 -10 -255 -178 -271 -178 -5 0 -14 11 -19 25 -18 48 -37 20
-32 -47 2 -18 -61 -62 -205 -146 -39 -23 -78 -48 -85 -55 -7 -7 -99 -69 -205
-137 -106 -68 -190 -126 -189 -128 3 -3 148 88 326 203 36 24 88 56 116 71 28
16 88 55 134 86 60 41 86 54 92 45 4 -7 1 -17 -7 -23 -21 -16 -19 -29 10 -44
14 -7 25 -18 25 -24 0 -6 9 -81 20 -166 23 -176 24 -204 10 -195 -5 3 -10 21
-10 39 0 63 -30 137 -74 184 -37 39 -49 45 -94 50 -28 2 -49 9 -46 14 9 14
-16 38 -32 31 -11 -4 -12 -8 -3 -20 10 -11 3 -23 -41 -60 -61 -54 -80 -92 -80
-164 0 -46 4 -55 35 -85 31 -29 35 -38 33 -78 -1 -30 -6 -46 -14 -46 -17 0
-29 -21 -17 -29 6 -3 13 -34 16 -69 6 -54 4 -65 -13 -82 l-20 -20 21 -30 c21
-28 22 -33 10 -100 -16 -88 -6 -120 47 -146 20 -11 39 -22 40 -26 2 -5 8 -8
13 -8 6 0 8 4 4 9 -3 5 4 12 15 16 29 9 60 54 60 86 0 15 -12 51 -26 79 -20
39 -24 60 -20 86 4 19 11 34 16 34 18 0 10 18 -9 23 -25 6 -45 76 -38 134 4
37 2 42 -18 47 -18 5 -26 17 -35 56 -11 45 -10 52 9 76 12 15 21 38 22 53 0
26 0 26 9 3 5 -12 16 -25 25 -28 8 -4 15 -12 15 -20 0 -8 7 -14 15 -14 17 0
20 17 5 22 -7 2 -5 11 5 23 15 20 15 19 45 -13 40 -43 46 -122 12 -148 -14
-11 -15 -13 -2 -14 9 0 21 5 28 12 9 9 12 9 12 -3 0 -7 11 -104 25 -214 13
-109 22 -216 19 -236 -4 -22 -2 -39 5 -43 17 -11 13 -57 -6 -72 -17 -13 -17
-13 0 -14 9 0 17 5 17 10 0 19 16 10 33 -17 9 -16 37 -50 62 -78 29 -33 45
-59 45 -77 0 -27 -16 -46 -28 -33 -3 3 0 10 7 14 10 7 10 10 1 16 -6 4 -17 2
-23 -4 -17 -17 5 -47 32 -44 12 2 21 2 21 0 0 -1 12 -90 26 -197 13 -107 29
-231 34 -275 6 -44 12 -90 15 -102 4 -18 -1 -22 -38 -29 -23 -5 -59 -7 -80 -5
-33 2 -42 -2 -77 -41 -46 -50 -48 -58 -19 -105 17 -27 27 -33 47 -31 51 6 59
108 10 124 -27 8 -17 28 16 32 37 5 74 -22 78 -55 2 -22 8 -27 28 -28 29 0 39
-18 13 -24 -10 -2 -20 -6 -23 -10 -3 -3 -17 -12 -32 -18 -14 -7 -33 -24 -42
-40 -8 -15 -20 -38 -27 -50 -10 -18 -8 -28 11 -57 33 -55 73 -45 86 22 5 25 1
35 -22 57 -26 24 -27 27 -10 43 16 16 18 16 32 -2 8 -11 14 -28 14 -37 0 -13
9 -19 32 -21 30 -3 32 -6 35 -43 2 -36 29 -268 37 -322 2 -17 -2 -23 -16 -23
-13 0 -18 5 -15 14 6 14 -27 75 -47 88 -43 29 -106 -17 -106 -76 1 -36 28 -95
51 -109 26 -16 66 0 81 33 8 20 20 30 34 30 18 0 22 -8 27 -52 4 -29 10 -73
13 -98 6 -41 5 -43 -11 -30 -13 11 -18 11 -24 1 -8 -13 -11 -12 -68 17 -13 7
-33 12 -46 12 -13 0 -29 6 -35 12 -10 10 -15 10 -23 -2 -8 -13 -11 -13 -22 0
-15 19 -57 25 -67 10 -5 -8 -18 -5 -44 9 -20 12 -43 21 -52 21 -8 0 -12 5 -9
11 4 6 -1 16 -11 23 -23 17 -10 36 27 36 17 0 29 5 29 13 0 20 -21 37 -46 37
-12 0 -24 4 -26 8 -1 5 -29 12 -60 16 -66 7 -64 11 -49 -92 6 -42 5 -52 -6
-48 -7 3 -18 -4 -24 -15 -17 -32 -36 -8 -21 26 11 24 7 55 -8 55 -4 0 -6 -12
-4 -26 1 -14 -2 -38 -7 -54 -11 -29 -41 -49 -47 -31 -6 17 -19 13 -25 -8 -5
-22 -54 -33 -78 -18 -10 6 -22 8 -26 4 -4 -5 -1 -12 6 -16 9 -6 -4 -15 -43
-30 -74 -28 -94 -27 -102 3 -3 14 -12 27 -20 30 -7 3 -11 12 -8 21 3 8 1 15
-5 15 -6 0 -11 8 -11 17 0 14 -3 13 -16 -5 -14 -21 -37 -31 -32 -15 3 12 -21
53 -32 53 -12 0 -33 -67 -25 -80 9 -14 -8 -39 -36 -54 -13 -7 -23 -18 -21 -25
2 -9 -3 -9 -18 -1 -22 12 -27 1 -7 -19 10 -11 9 -13 -5 -8 -12 4 -31 -7 -58
-33 -47 -45 -56 -48 -65 -20 -8 25 -17 25 -32 2 -9 -16 -25 -18 -119 -18
l-109 1 -6 55 c-6 56 -6 57 66 214 47 106 128 305 132 327 3 15 1 29 -4 32 -4
2 -122 8 -260 12 -237 7 -253 6 -260 -11 -7 -20 -14 -7 137 -254 62 -102 119
-196 125 -210 14 -28 30 -142 18 -124 -5 6 -23 15 -40 19 -18 3 -33 10 -33 15
0 12 -64 40 -101 44 -19 2 -43 -3 -56 -11 -16 -11 -31 -13 -50 -7 -38 11 -83
12 -83 1 0 -4 -4 -6 -9 -3 -5 3 -11 -1 -15 -9 -3 -8 -1 -17 4 -20 6 -4 10 -15
10 -26 0 -33 -25 -16 -28 19 -3 27 -7 32 -30 32 -47 0 -54 -12 -27 -45 13 -17
24 -24 25 -16 0 11 3 11 15 1 20 -16 19 -30 -1 -30 -43 0 -108 -70 -90 -98 5
-9 -32 -50 -40 -44 -2 1 -10 2 -16 2 -10 0 -9 -3 1 -9 11 -7 9 -11 -8 -20 -18
-10 -21 -9 -21 9 0 29 -15 25 -38 -12 l-20 -32 -7 40 c-11 63 -12 64 -56 64
-28 0 -46 -6 -55 -17 -13 -17 -15 -17 -34 6 l-20 23 2 -23 c2 -13 7 -27 12
-30 11 -9 -3 -31 -14 -24 -24 15 -49 248 -28 261 7 4 6 9 -1 14 -7 4 -14 42
-16 89 -2 45 -7 86 -10 92 -4 5 -2 16 5 24 6 8 7 16 2 19 -8 5 -17 81 -27 226
-1 19 -8 55 -15 80 l-13 45 -8 -43 c-4 -23 -11 -46 -14 -51 -3 -5 -1 -20 4
-34 16 -41 17 -177 2 -186 -10 -6 -9 -10 3 -14 19 -8 22 -73 3 -81 -8 -3 -7
-8 6 -16 19 -12 23 -45 7 -55 -8 -5 -7 -11 1 -21 6 -8 9 -23 6 -34 -3 -11 -1
-22 4 -25 4 -3 8 -21 7 -40 -1 -26 -6 -35 -19 -35 -10 0 -19 8 -21 17 -2 13
-6 10 -16 -11 -7 -15 -8 -25 -2 -21 6 4 23 4 39 0 29 -6 29 -7 36 -100 4 -55
3 -100 -2 -110 -9 -15 -11 -14 -17 8 -5 23 -9 25 -37 17 -26 -8 -29 -6 -25 8
6 19 -25 62 -44 62 -7 0 -10 7 -6 15 3 9 1 15 -7 14 -26 -3 -32 2 -33 26 -2
22 1 25 20 19 11 -3 27 -13 35 -23 10 -13 12 -13 9 -1 -3 8 -15 20 -29 27 -13
7 -29 20 -36 29 -11 14 -16 15 -43 4 -16 -7 -44 -10 -61 -6 -22 4 -39 0 -59
-14 -16 -11 -34 -19 -41 -18 -6 2 -14 -3 -16 -9 -3 -7 0 -13 6 -13 6 0 11 -5
11 -11 0 -6 -7 -9 -15 -6 -18 7 -30 -9 -13 -16 10 -4 10 -8 -1 -15 -9 -7 -10
-12 -2 -16 6 -4 11 -13 11 -19 -1 -7 -9 -2 -20 11 -11 13 -24 21 -30 17 -5 -3
-13 1 -16 10 -6 14 -9 14 -30 0 -27 -17 -48 -20 -39 -5 4 6 10 8 15 5 16 -10
20 12 5 25 -8 7 -12 16 -9 21 3 5 1 9 -5 9 -5 0 -18 3 -28 7 -17 6 -17 6 0
-14 21 -24 23 -40 2 -23 -8 6 -23 9 -33 5 -22 -6 -36 -42 -21 -51 14 -8 -1
-26 -16 -20 -18 6 -29 -25 -13 -35 9 -6 7 -10 -7 -15 -11 -4 -23 -12 -27 -18
-6 -7 -11 -6 -18 4 -7 11 -5 19 7 27 15 12 14 13 -8 14 -13 1 -40 1 -59 0 -19
-1 -45 -2 -58 -2 -15 -1 -22 -6 -18 -14 2 -7 -4 -21 -15 -31 -23 -21 -26 -56
-4 -48 9 4 15 0 15 -10 0 -18 -15 -22 -25 -6 -11 17 -64 8 -71 -12 -3 -10 -10
-16 -15 -12 -5 3 -6 10 -3 16 4 5 2 20 -4 31 -5 12 -14 33 -20 47 l-11 25 0
-24 c-1 -28 -17 -18 -23 13 -3 18 -5 17 -22 -8 -15 -23 -16 -30 -5 -37 8 -5
25 -7 39 -4 23 5 23 4 8 -8 -10 -8 -18 -24 -18 -36 0 -25 -25 -28 -39 -3 -9
15 -12 15 -20 2 -7 -9 -6 -17 1 -21 7 -4 2 -11 -11 -18 -18 -10 -22 -9 -30 11
-7 18 -4 27 11 42 23 21 12 40 -25 43 -41 3 -56 9 -86 35 -21 19 -38 26 -62
24 -19 -2 -42 -4 -51 -5 -10 0 -18 -7 -18 -14 0 -7 -10 -17 -22 -23 -26 -11
-68 8 -68 32 0 9 -12 14 -36 14 -19 0 -33 -4 -29 -9 6 -11 -13 -26 -22 -17 -3
3 0 12 6 20 10 11 10 20 1 36 -9 18 -18 21 -41 16 -16 -3 -29 -2 -29 3 0 5 -7
12 -16 15 -12 5 -15 2 -10 -9 3 -9 2 -13 -4 -10 -6 3 -10 1 -10 -6 0 -7 -7 -4
-15 7 -8 10 -15 15 -15 9 0 -5 -5 -3 -10 5 -7 10 -12 12 -17 4 -12 -17 -50
-26 -58 -14 -3 5 -32 9 -66 7 -47 -1 -60 -6 -65 -20 -5 -14 -9 -16 -20 -6 -11
9 -18 9 -32 -3 -9 -8 -36 -15 -59 -16 -37 -1 -44 2 -47 21 -4 19 -14 210 -22
427 -3 92 -14 160 -25 160 -5 0 -9 -12 -9 -26 0 -14 -5 -34 -10 -44 -6 -10 -6
-21 -2 -24 10 -6 17 -148 17 -324 0 -67 4 -122 8 -122 5 0 7 -15 5 -32 -3 -30
-6 -33 -40 -36 -21 -1 -54 4 -74 13 -44 18 -37 19 -64 -5 -24 -21 -60 -27 -60
-10 0 6 5 10 12 10 8 0 8 4 -2 14 -19 17 -90 10 -90 -10 0 -8 -10 -14 -22 -14
-12 0 -18 3 -15 7 8 7 -11 33 -24 33 -5 0 -9 -6 -9 -13 0 -18 -24 -67 -32 -67
-5 0 -8 5 -8 12 0 6 -9 3 -20 -7 -17 -16 -31 -17 -106 -11 -48 3 -97 9 -109
12 -15 4 -31 -2 -50 -20 -31 -29 -50 -34 -41 -11 4 11 -2 15 -27 14 -31 0 -31
-1 -7 -10 l24 -10 -29 -24 c-33 -27 -50 -31 -61 -14 -6 10 -39 9 -110 -6 -22
-5 -36 -2 -47 9 -8 9 -23 16 -33 16 -10 0 -14 -3 -11 -7 4 -3 -2 -12 -12 -20
-11 -7 -21 -23 -23 -35 -4 -29 -24 -34 -31 -8 -3 13 -13 20 -29 20 -23 0 -25
3 -26 65 -2 67 14 91 21 32 l4 -32 1 32 c2 30 4 32 50 38 26 3 61 10 77 14 29
9 29 9 -10 9 -22 1 -61 -3 -87 -7 -37 -6 -48 -5 -48 6 0 9 16 13 60 13 38 0
60 4 60 11 0 8 -19 10 -64 5 l-63 -6 -5 91 c-3 50 -11 96 -17 102 -13 13 -15
1 -15 -138 l-1 -100 -30 2 c-38 3 -105 -15 -105 -28 0 -6 4 -8 9 -5 17 11 122
15 115 5 -3 -5 0 -17 7 -25 18 -22 3 -28 -19 -6 -14 14 -24 17 -43 10 -33 -12
-132 -3 -170 16 -37 19 -49 20 -49 6 0 -5 9 -10 20 -10 11 0 20 -4 20 -10 0
-5 -7 -10 -16 -10 -8 0 -12 -5 -9 -11 9 -14 -21 -46 -50 -53 -15 -4 -22 -11
-19 -19 3 -8 -4 -25 -15 -38 -20 -24 -20 -24 -21 -2 0 12 4 33 10 47 7 20 6
24 -5 19 -8 -3 -15 -16 -15 -30 0 -22 -1 -23 -16 -9 -27 28 -53 37 -109 39
-49 2 -58 -1 -82 -28 -16 -16 -28 -34 -28 -40 0 -14 -35 -19 -48 -6 -8 8 -6
11 5 11 9 0 20 5 24 12 5 8 2 9 -10 5 -13 -5 -17 -3 -13 7 4 10 1 13 -9 9 -7
-3 -14 0 -14 6 0 6 -11 8 -30 5 -20 -4 -30 -2 -30 5 0 7 -5 9 -11 5 -6 -3 -15
-1 -19 7 -7 10 -11 10 -24 0 -9 -8 -16 -12 -17 -10 0 2 -2 30 -4 62 -3 58 -9
76 -21 64 -3 -3 -5 -50 -5 -104 1 -95 0 -98 -23 -109 -23 -11 -25 -9 -31 17
-9 41 -31 56 -45 30 -6 -12 -19 -21 -30 -21 -10 0 -21 -4 -24 -9 -10 -16 -46
0 -46 20 0 13 -7 19 -24 19 -13 0 -26 -5 -28 -11 -3 -8 -13 -9 -28 -4 -24 8
-24 8 -5 16 17 7 16 8 -8 8 -15 1 -36 -8 -48 -20 -18 -18 -29 -20 -65 -15 -28
3 -44 2 -44 -5 0 -6 -4 -7 -10 -4 -17 11 -11 24 17 39 16 9 22 15 13 16 -9 0
-22 -6 -28 -12 -8 -8 -44 -13 -92 -13 -44 -1 -85 -6 -91 -12 -8 -8 -17 -5 -31
9 -11 11 -23 16 -27 12 -6 -10 -47 -34 -56 -34 -15 0 -2 22 20 32 30 14 24 27
-10 20 -37 -7 -31 16 8 27 30 8 29 9 -15 7 -27 0 -48 -4 -48 -8 0 -5 -11 -8
-25 -8 -16 0 -25 -6 -25 -15 0 -8 -9 -15 -20 -15 -11 0 -20 -4 -20 -10 0 -5
-8 -10 -19 -10 -20 0 -45 -23 -35 -33 3 -3 -6 -13 -20 -23 -26 -16 -28 -16
-78 10 -29 15 -59 24 -69 21 -11 -4 -19 -2 -19 4 0 17 -41 13 -61 -5 -19 -17
-41 -11 -33 9 5 15 -33 17 -54 3 -9 -5 -15 -2 -19 12 -7 27 -27 34 -60 21 -16
-6 -42 -8 -60 -4 -25 4 -34 2 -43 -14 -6 -12 -16 -18 -25 -15 -21 8 -19 -6 3
-22 16 -12 16 -13 -4 -14 -28 0 -59 24 -59 46 0 10 -12 24 -26 31 -15 7 -32
19 -38 27 -13 15 -22 109 -12 123 6 10 180 37 187 30 12 -11 -11 -37 -32 -37
-24 0 -28 -7 -24 -47 1 -21 -3 -23 -53 -23 -35 0 -57 -5 -60 -13 -3 -9 10 -12
52 -12 37 0 56 -4 57 -12 1 -7 2 -18 3 -24 1 -14 99 -5 113 9 5 5 8 36 6 68
-3 52 -5 59 -25 62 -24 3 -31 26 -13 37 29 18 -10 20 -110 7 -61 -8 -113 -12
-117 -9 -3 4 9 23 27 44 44 50 71 114 77 184 6 58 6 59 37 60 l31 2 -35 6
c-29 5 -36 11 -43 42 -7 32 -3 43 41 116 103 170 102 171 -86 175 l-137 3 2
95 c4 180 13 260 29 260 9 0 12 5 9 10 -4 6 -11 8 -16 4 -6 -4 -9 20 -7 62 3
63 5 69 28 75 14 4 22 8 18 9 -12 4 -27 7 -35 9 -10 1 -8 178 2 229 50 270
290 515 555 567 89 18 390 44 395 34 3 -3 -33 -9 -78 -13 -45 -4 -93 -10 -106
-13 l-25 -6 25 -10 c13 -6 29 -9 36 -8 7 1 15 -10 19 -24 5 -20 1 -30 -15 -41
-35 -25 -25 -36 29 -32 27 3 51 1 52 -4 2 -5 15 -5 31 1 15 6 27 7 27 3 0 -9
60 -37 79 -37 8 0 16 -6 19 -13 2 -6 -1 -12 -7 -12 -6 0 -11 -6 -11 -14 0 -10
-13 -16 -37 -18 -25 -2 -39 -8 -41 -19 -3 -14 4 -15 50 -8 40 7 58 5 75 -6 25
-17 71 -19 92 -6 9 6 19 4 29 -5 23 -24 47 -13 47 21 1 24 6 31 24 33 14 2 21
0 17 -6 -11 -19 11 -22 40 -7 16 8 37 15 47 15 10 0 27 5 38 10 12 7 19 7 19
1 0 -6 24 -9 60 -7 33 2 60 0 60 -4 0 -5 -15 -20 -32 -34 -18 -14 -27 -26 -20
-26 7 0 11 -3 9 -7 -6 -10 60 -9 91 1 15 5 30 1 48 -13 15 -12 21 -21 14 -21
-7 0 -1 -9 13 -20 27 -21 62 -26 72 -10 3 6 17 10 31 10 14 0 23 4 19 9 -3 6
4 15 15 21 11 6 19 14 19 18 -3 20 2 32 15 32 8 0 25 13 38 28 38 46 108 53
108 12 0 -11 5 -22 10 -25 6 -3 10 -17 10 -31 0 -31 14 -31 28 1 16 36 15 52
-5 60 -17 7 -16 8 2 15 11 5 34 8 50 8 29 0 29 0 5 -8 l-25 -8 26 -1 c20 -1
25 -6 25 -23 -1 -19 6 -24 41 -28 31 -5 44 -3 48 8 3 8 12 11 20 8 8 -3 15 -1
15 5 0 6 8 8 18 4 14 -5 15 -4 5 6 -7 7 -13 16 -13 20 0 9 96 59 114 59 8 0
16 7 20 15 6 17 61 21 71 5 9 -15 78 -12 118 5 46 19 57 19 57 0 0 -8 -7 -15
-15 -15 -8 0 -15 -5 -15 -11 0 -6 -11 -9 -24 -7 -23 3 -76 -40 -76 -61 0 -17
32 -21 78 -10 26 6 58 13 72 15 13 1 26 8 28 13 2 6 11 11 21 11 9 0 36 14 60
31 29 22 42 27 39 16 -2 -9 1 -16 5 -17 19 -3 67 26 76 47 6 13 23 29 38 35
16 7 30 15 33 18 12 12 51 30 65 30 9 0 34 9 56 20 31 14 39 16 35 5 -3 -8 -1
-17 5 -20 5 -4 7 -11 4 -16 -3 -5 1 -6 9 -3 9 3 16 1 16 -5 0 -6 7 -8 15 -5 8
4 12 10 9 15 -8 13 10 11 23 -2 8 -8 11 -7 10 2 -1 42 4 192 7 188 2 -2 7 -52
11 -111 6 -100 6 -107 -12 -108 -40 -1 -70 -8 -108 -24 -22 -10 -92 -33 -155
-52 -63 -19 -140 -43 -170 -54 -30 -10 -104 -34 -165 -53 -281 -87 -384 -121
-380 -125 4 -4 57 10 195 53 373 117 633 195 649 195 11 0 21 -6 24 -12 4 -10
7 -10 18 0 11 10 11 12 -1 12 -13 0 -13 2 0 10 8 5 25 10 38 10 13 0 30 7 38
15 9 8 19 15 24 15 4 0 10 -41 12 -90 2 -67 7 -93 18 -100 8 -5 15 -15 15 -22
0 -20 40 -21 60 -2 13 13 35 18 89 18 l71 1 5 53 c4 44 10 56 35 73 l30 20
-27 -7 c-23 -5 -28 -3 -28 13 0 28 10 34 27 17 9 -8 18 -13 20 -10 10 10 -20
77 -43 95 -30 24 -30 31 1 31 13 0 48 9 77 19 64 23 287 91 298 91 4 0 5 -11
2 -25 -3 -20 0 -25 17 -25 12 0 19 -4 16 -10 -3 -6 6 -15 20 -20 34 -13 35
-13 35 6 0 8 4 12 10 9 5 -3 22 0 37 9 60 31 104 47 115 40 7 -4 8 -3 4 4 -5
8 0 12 13 12 32 0 81 33 88 59 4 15 2 26 -5 29 -25 8 -9 21 46 37 115 35 227
63 231 60 2 -2 -8 -7 -23 -11 -25 -6 -37 -24 -16 -24 6 0 10 -7 10 -15 0 -12
16 -15 80 -15 64 0 80 -3 80 -15 0 -8 10 -19 23 -25 21 -11 21 -10 3 4 -24 19
-10 21 27 4 15 -7 27 -19 27 -25 0 -18 7 -16 46 13 26 20 34 23 34 11 0 -17
40 -12 52 7 4 7 15 6 32 -4 14 -7 29 -10 33 -7 3 4 -1 7 -10 7 -28 0 -19 24
18 48 19 12 39 22 45 22 5 0 10 8 10 19 0 19 93 97 120 101 31 5 40 -1 40 -21
0 -19 4 -20 48 -15 26 4 61 8 77 9 46 4 93 27 98 48 4 16 3 18 -8 9 -17 -14
-75 -31 -75 -21 0 4 5 12 12 19 9 9 9 12 0 12 -7 0 -12 5 -12 10 0 6 7 10 15
10 8 0 15 4 15 10 0 5 14 17 31 26 25 12 29 18 18 25 -11 7 -10 9 4 9 22 0 52
28 52 48 0 10 42 28 128 57 70 23 131 46 135 50 4 5 -1 5 -11 2 -11 -4 -31
-10 -45 -13 -15 -4 -65 -17 -111 -30 -95 -27 -91 -27 -91 -15 0 4 15 13 33 19
19 6 25 10 13 11 -16 1 -15 4 8 22 26 20 35 62 17 73 -5 3 -7 15 -4 26 6 21
-20 29 -32 10 -12 -19 -26 -10 -20 12 6 16 4 20 -7 16 -8 -3 -22 0 -31 7 -15
11 -16 13 -2 19 20 7 19 26 -2 42 -17 13 -17 13 0 14 10 0 25 6 32 14 12 11 7
14 -32 20 -27 3 -51 2 -57 -4 -5 -5 -18 -10 -27 -10 -9 0 -31 -13 -49 -30 -56
-52 -104 -28 -61 30 11 16 21 35 21 42 0 8 9 21 20 31 23 19 26 37 7 37 -8 0
-36 -11 -63 -25 -27 -14 -66 -25 -86 -25 -20 0 -44 -7 -53 -16 -21 -21 -43 -4
-23 17 13 14 32 50 42 82 3 10 0 17 -8 17 -8 0 -17 -15 -20 -33 -4 -24 -15
-38 -40 -51 -49 -26 -75 -4 -41 34 8 9 16 25 18 36 1 10 6 24 10 31 4 6 5 18
2 25 -4 9 4 19 20 26 34 16 35 15 35 -8 0 -11 7 -20 16 -20 11 0 14 8 12 33
-2 23 -8 32 -20 31 -10 -1 -39 -2 -64 -3 -31 -1 -43 -5 -38 -13 4 -7 3 -8 -4
-4 -6 4 -9 13 -5 21 3 8 1 15 -5 15 -5 0 -13 -7 -16 -16 -3 -8 -11 -12 -17 -9
-6 4 -40 -8 -75 -25 -57 -29 -67 -32 -91 -21 -19 9 -28 9 -33 1 -5 -9 -17 -7
-41 6 -19 9 -28 19 -21 21 20 7 14 23 -9 23 -12 0 -28 -8 -34 -17 -12 -17 -14
-17 -34 1 -12 11 -21 25 -21 33 0 20 -27 16 -50 -7 -12 -12 -25 -18 -30 -15
-6 4 -23 -3 -39 -14 -32 -23 -68 -30 -39 -7 18 13 40 90 32 110 -7 19 34 66
51 59 8 -3 15 -1 15 5 0 9 7 13 63 31 23 8 27 6 27 -9 0 -15 8 -18 50 -17 28
0 50 2 50 4 0 14 -28 29 -46 25 -26 -5 -40 14 -24 32 6 8 8 25 5 38 -4 17 0
29 16 43 20 18 22 18 16 3 -4 -10 -2 -18 4 -18 6 0 9 -6 6 -14 -7 -19 3 -28
18 -16 6 5 10 23 7 40 -4 25 -9 30 -41 35 -93 14 -106 19 -104 43 3 25 -18 30
-37 7 -7 -8 -16 -15 -21 -15 -5 0 -22 -14 -38 -30 -20 -21 -31 -27 -34 -18 -3
10 -7 10 -17 2 -9 -9 -19 -8 -40 4 -27 16 -30 15 -50 -3 -24 -22 -42 -58 -44
-92 -2 -24 -44 -63 -61 -57 -6 3 -22 -7 -35 -21 -13 -14 -28 -25 -35 -25 -24
0 -40 -35 -34 -72 3 -20 2 -35 -3 -32 -4 3 -8 -4 -8 -16 0 -25 -15 -57 -41
-85 -20 -23 -36 -75 -22 -75 6 0 18 9 28 20 10 11 25 20 33 20 9 0 24 8 34 17
30 27 41 3 19 -40 -19 -36 -9 -51 16 -26 6 6 26 14 45 18 18 4 32 12 31 18 -1
5 5 10 13 10 8 0 14 -4 14 -8 0 -5 8 -5 17 -2 13 5 15 2 10 -11 -11 -29 3 -39
30 -21 30 20 39 14 23 -15 -10 -20 -10 -21 8 -11 11 6 22 8 25 5 3 -3 16 1 29
10 31 22 38 20 38 -9 0 -16 6 -25 15 -25 20 0 19 -19 -2 -42 -15 -17 -15 -18
5 -18 14 0 22 -6 22 -16 0 -9 6 -14 13 -11 10 4 12 -3 9 -24 -2 -16 -10 -29
-18 -29 -8 0 -14 -4 -14 -10 0 -5 -12 -13 -27 -16 -16 -4 -36 -13 -47 -20 -21
-14 -56 0 -56 23 0 17 -43 16 -87 -2 -45 -19 -63 -19 -63 0 0 14 -11 17 -89
19 -24 1 -42 30 -34 54 6 15 -63 17 -72 2 -8 -13 -45 -13 -45 0 0 19 -49 23
-75 6 -45 -30 -112 -12 -89 25 3 5 -2 9 -10 9 -11 0 -16 10 -16 31 0 26 -2 30
-15 19 -17 -14 -39 -4 -31 15 3 9 -7 7 -29 -6 -34 -20 -51 -15 -34 11 16 27 9
33 -36 28 -46 -6 -66 5 -46 25 17 17 14 50 -4 44 -8 -4 -17 -2 -20 3 -4 6 -19
10 -35 10 -35 0 -62 36 -39 51 11 7 10 9 -4 9 -10 0 -27 9 -38 19 l-21 19 22
7 c22 7 23 26 2 33 -7 2 -12 -3 -12 -12 0 -16 -12 -21 -23 -10 -13 13 7 34 32
34 34 1 65 41 55 73 -9 28 -23 38 -49 31 -12 -3 -34 0 -49 6 -23 8 -32 7 -46
-5 -22 -20 -103 -20 -120 0 -16 19 -34 19 -50 0 -7 -8 -16 -13 -20 -10 -4 3
-13 -2 -20 -10 -8 -10 -28 -15 -59 -13 -50 1 -81 15 -81 36 0 7 -5 10 -10 7
-6 -3 -10 -2 -10 3 0 5 -11 17 -25 26 -28 18 -61 10 -95 -24 -17 -17 -19 -24
-9 -43 15 -28 40 -47 59 -46 35 2 59 -15 74 -52 11 -26 24 -41 40 -45 14 -3
30 -12 36 -19 9 -11 7 -12 -9 -8 -12 3 -21 1 -21 -6 0 -6 6 -11 14 -11 20 0
28 -32 16 -64 -6 -16 -6 -25 0 -21 5 3 18 0 29 -7 20 -12 20 -12 0 -34 -12
-13 -28 -20 -36 -17 -8 3 -19 0 -24 -8 -14 -23 -10 -31 11 -24 23 7 28 -13 5
-21 -8 -4 -15 -12 -15 -20 0 -8 -5 -14 -12 -14 -6 0 -22 -10 -35 -22 -13 -12
-26 -18 -30 -14 -5 4 1 15 13 25 27 22 39 68 22 84 -7 7 -35 27 -61 44 -43 28
-56 32 -108 29 -49 -2 -59 0 -54 12 3 8 1 20 -5 27 -6 7 -12 30 -13 51 -3 38
-27 62 -27 27 0 -15 -2 -16 -10 -3 -5 8 -10 10 -10 4 0 -7 -9 -14 -21 -17 -15
-4 -23 0 -26 14 -5 18 -17 24 -38 19 -26 -7 -119 0 -127 8 -7 7 -5 21 5 41 18
36 7 48 -26 26 -13 -8 -27 -12 -30 -8 -4 3 -7 1 -7 -5 0 -6 -6 -9 -12 -7 -16
6 -28 -2 -55 -37 -20 -27 -21 -27 -38 -8 -10 11 -31 20 -46 20 -15 0 -31 5
-35 11 -3 6 -19 9 -35 5 -29 -6 -29 -5 -13 19 9 14 22 25 28 24 26 -3 36 2 36
19 0 10 3 13 8 6 11 -18 95 -14 112 5 16 16 13 63 -2 62 -20 -2 -20 0 -4 18
16 18 15 19 -28 37 -24 10 -42 22 -40 26 10 15 -30 8 -48 -9 -10 -9 -18 -12
-18 -6 0 7 -25 9 -69 5 -45 -3 -71 -1 -75 7 -12 19 -46 13 -46 -8 0 -33 -37
-36 -67 -7 -14 14 -29 23 -34 20 -24 -14 -99 49 -100 85 0 14 -3 20 -6 14 -2
-7 -11 -13 -18 -13 -8 0 -23 -12 -34 -27 -20 -25 -22 -25 -35 -8 -16 22 -31
14 -51 -29 -9 -18 -38 -49 -65 -70 -28 -21 -54 -46 -59 -55 -5 -9 -15 -16 -23
-17 -7 0 -20 -2 -29 -2 -9 -1 -21 -14 -28 -28 -6 -14 -16 -24 -23 -22 -12 4
-19 48 -7 48 4 0 5 9 2 20 -7 25 -39 22 -35 -2 1 -10 -11 -36 -27 -58 -16 -23
-28 -47 -25 -55 7 -16 -34 -31 -48 -17 -6 6 -5 17 4 31 9 16 10 24 2 29 -7 4
-13 16 -15 26 -5 23 -63 34 -75 15 -4 -8 -3 -9 4 -5 16 10 15 -9 0 -21 -7 -5
-28 -10 -47 -12 -21 -1 -40 -9 -48 -21 -8 -11 -20 -20 -27 -20 -8 0 -17 -7
-20 -16 -5 -12 -14 -15 -34 -11 -26 5 -30 2 -41 -31 -7 -20 -20 -47 -28 -60
-12 -20 -15 -21 -29 -7 -14 14 -21 57 -13 80 2 6 -5 21 -17 33 -24 26 -54 21
-54 -9 0 -30 -20 -22 -32 12 -10 30 -12 31 -59 27 l-49 -5 4 34 c5 45 -10 50
-63 23 -28 -15 -54 -21 -81 -18 -22 2 -40 0 -40 -5 0 -4 -15 -6 -32 -4 -19 2
-39 -2 -46 -10 -28 -28 -126 -1 -142 40 -8 20 -9 21 -9 2 -1 -16 -8 -20 -41
-20 -27 -1 -35 2 -25 8 8 4 15 13 15 19 0 22 42 98 51 92 15 -9 10 13 -7 30
-8 9 -17 16 -20 16 -10 0 -84 -53 -80 -58 12 -12 -46 -44 -71 -39 -17 3 -39
-3 -62 -17 -20 -12 -44 -20 -55 -18 -10 2 -16 0 -12 -6 3 -5 -1 -13 -10 -16
-24 -9 -56 -7 -50 3 9 13 -14 19 -53 13 -23 -3 -29 -7 -20 -13 11 -7 10 -9 -3
-9 -10 0 -18 4 -18 10 0 5 -12 9 -27 8 -16 -1 -37 2 -47 7 -11 5 -17 5 -14 -1
12 -18 -60 -13 -77 6 -16 18 -16 19 9 26 14 3 26 12 26 20 0 8 5 14 12 14 6 0
8 3 5 6 -3 4 3 18 13 32 l20 25 -40 37 c-22 20 -40 43 -40 50 0 7 -10 0 -22
-16 -13 -16 -30 -36 -38 -45 -8 -9 -26 -31 -39 -48 -19 -25 -29 -31 -48 -26
-16 4 -25 1 -29 -10 -4 -8 -14 -15 -23 -15 -14 0 -14 -2 -1 -10 9 -6 11 -10 3
-10 -7 0 -10 -6 -7 -14 3 -8 0 -17 -5 -21 -6 -3 -9 -10 -6 -15 7 -12 -22 -70
-35 -70 -6 0 -10 -9 -10 -20 0 -11 -4 -20 -10 -20 -5 0 -10 -6 -10 -14 0 -8
-7 -17 -15 -20 -13 -4 -14 -10 -5 -26 13 -25 32 -27 23 -2 -6 15 -4 15 16 -2
18 -17 21 -17 15 -3 -5 13 -1 17 17 17 17 0 20 -3 10 -9 -9 -6 -10 -11 -2 -15
13 -9 33 2 26 13 -2 5 6 9 20 9 14 0 22 -5 18 -11 -4 -6 4 -8 21 -5 29 6 45
-6 20 -16 -8 -3 -13 -10 -9 -15 3 -5 1 -12 -5 -16 -5 -3 -10 -15 -10 -25 0
-15 7 -18 36 -15 38 3 81 -26 69 -45 -11 -18 6 -32 22 -19 12 11 13 9 8 -14
-7 -27 8 -39 18 -14 4 8 6 8 6 0 1 -8 19 -9 61 -6 39 4 60 2 60 -5 0 -6 -10
-14 -21 -17 -15 -5 -18 -10 -9 -15 8 -5 7 -9 -5 -14 -9 -3 -14 -10 -11 -15 10
-15 -5 -43 -20 -37 -7 3 -14 0 -16 -6 -6 -18 -78 1 -103 28 -12 13 -30 24 -39
24 -11 0 -16 9 -16 28 -1 23 -2 24 -11 9 -5 -9 -23 -24 -39 -32 -27 -14 -30
-14 -30 0 0 8 -4 15 -8 15 -10 0 -52 -43 -52 -54 0 -4 -9 -16 -19 -28 -13 -13
-18 -31 -16 -48 4 -31 -22 -51 -31 -25 -10 24 -37 19 -31 -6 3 -12 0 -22 -9
-26 -8 -3 -14 -9 -14 -13 0 -18 32 -18 86 1 45 16 63 18 81 10 34 -15 63 -14
63 4 0 10 9 14 25 13 14 -1 25 -6 25 -10 0 -4 18 -8 41 -8 22 0 38 4 35 9 -10
16 21 20 47 6 21 -11 28 -11 36 -1 6 7 7 16 3 21 -4 4 3 5 14 1 14 -4 28 -1
37 9 9 8 20 15 24 14 20 -3 34 2 28 11 -4 6 -11 7 -17 4 -7 -4 -8 -2 -4 4 9
15 33 15 38 1 3 -9 9 -9 24 -1 11 6 49 10 84 9 l65 -1 -4 43 c-3 42 0 46 67
112 39 38 73 69 77 69 4 0 5 -20 2 -45 -5 -35 -3 -45 7 -45 8 0 22 -8 32 -17
10 -10 22 -18 27 -18 18 0 19 -25 3 -31 -9 -3 -16 -12 -16 -19 0 -8 -8 -16
-17 -18 -10 -3 -2 -5 17 -6 29 -1 38 4 53 30 9 17 17 37 17 45 0 8 10 14 24
14 13 0 26 7 30 15 8 22 63 19 76 -4 6 -13 17 -17 30 -14 13 3 20 0 20 -8 0
-8 7 -26 14 -41 9 -16 10 -28 5 -28 -6 0 -7 -4 -4 -10 3 -5 18 -10 31 -10 23
0 25 -3 19 -30 -8 -34 10 -41 31 -12 10 14 15 15 26 4 11 -11 10 -15 -5 -23
-20 -12 -23 -29 -4 -29 25 -1 77 -59 77 -88 0 -25 -3 -27 -40 -28 -22 -1 -46
-6 -53 -12 -17 -14 -77 -12 -77 3 0 6 5 16 12 23 10 10 8 16 -5 30 -16 15 -19
15 -27 2 -25 -41 -25 -41 -59 -24 -35 17 -39 16 -105 -50 -15 -14 -21 -16 -24
-7 -3 8 0 16 4 20 12 8 34 58 34 76 0 22 -23 18 -38 -5 -14 -23 -32 -18 -32 9
0 10 -7 24 -15 31 -10 9 -15 9 -15 1 0 -6 -10 -11 -23 -11 -13 0 -33 -9 -45
-20 -27 -26 -31 -25 -28 4 3 25 42 96 60 108 14 9 -13 58 -32 58 -19 0 -114
-51 -128 -70 -7 -8 -10 -18 -8 -21 6 -10 -17 -25 -48 -33 -28 -6 -40 -36 -14
-36 7 0 19 -6 25 -14 7 -8 21 -12 31 -9 32 8 23 -14 -20 -54 -22 -21 -40 -42
-40 -47 0 -6 -8 -19 -19 -30 -10 -12 -22 -31 -26 -43 -5 -19 -2 -23 14 -23 11
0 23 -5 26 -11 4 -6 19 -7 36 -4 33 7 38 -5 13 -30 -11 -11 -13 -20 -7 -26 6
-6 14 -4 23 6 7 8 27 15 46 15 18 0 36 5 39 10 9 14 92 13 101 -2 4 -6 0 -17
-10 -23 -15 -11 -14 -13 9 -18 31 -5 75 12 75 31 0 6 7 12 15 12 8 0 15 -5 15
-11 0 -8 15 -10 45 -7 49 6 62 -8 18 -18 -16 -4 -36 -15 -45 -25 -20 -20 -24
-34 -8 -24 6 3 13 -2 17 -11 4 -10 2 -19 -5 -22 -7 -2 -12 -10 -12 -18 0 -8 6
-11 15 -8 10 4 15 0 15 -10 0 -14 4 -15 20 -6 14 8 26 8 40 0 14 -7 26 -8 39
0 27 14 28 13 26 -11 -2 -27 -24 -39 -97 -54 -67 -14 -109 -10 -101 11 6 17
-9 18 -25 2 -7 -7 -46 -12 -91 -14 -91 -2 -104 9 -66 50 23 24 23 26 4 26 -10
0 -28 6 -39 12 -16 10 -24 10 -40 0 -26 -16 -30 -15 -30 6 0 10 -9 26 -21 35
-17 15 -26 16 -55 7 -19 -6 -48 -9 -64 -5 -26 6 -30 11 -30 41 0 19 -4 34 -9
34 -9 0 -25 -30 -23 -42 4 -18 -36 -6 -41 12 -4 16 -14 20 -45 20 -23 0 -43
-4 -46 -9 -3 -4 -25 -7 -49 -5 -29 3 -50 -1 -63 -12 -13 -11 -14 -14 -4 -11
20 6 24 -29 4 -37 -8 -3 -14 -12 -14 -21 0 -12 8 -14 33 -11 17 2 40 7 50 11
9 4 47 4 83 0 53 -5 67 -11 71 -26 3 -10 12 -19 19 -19 21 0 17 -20 -3 -20
-17 -1 -17 -1 0 -14 9 -7 17 -23 17 -35 0 -30 14 -26 44 11 21 27 23 34 10 36
-32 7 -7 36 49 55 41 15 60 18 68 10 15 -15 -42 -76 -64 -67 -8 3 -18 1 -22
-5 -3 -6 2 -12 12 -13 10 0 23 -2 28 -3 6 -2 14 -3 19 -4 18 -2 -48 -61 -68
-61 -12 0 -34 -7 -49 -15 -28 -14 -41 -6 -36 21 3 19 -3 49 -8 37 -9 -24 -40
-14 -53 17 l-13 31 -21 -30 c-11 -17 -29 -31 -38 -31 -25 0 -22 -19 4 -29 l22
-8 -22 -5 c-19 -5 -22 -13 -22 -52 l0 -46 40 0 c22 0 40 -5 40 -11 0 -7 14 -8
40 -4 24 4 40 3 40 -3 0 -13 90 -42 129 -42 17 0 31 -4 31 -10 0 -5 21 -3 48
5 56 17 155 19 184 4 15 -8 19 -8 14 0 -4 6 -2 11 4 11 8 0 8 6 0 21 -10 19
-10 20 9 10 27 -15 29 -14 29 14 0 22 -5 25 -39 25 -49 0 -49 12 -3 39 37 22
64 16 64 -14 0 -8 19 -16 50 -20 53 -7 89 3 54 15 -11 5 4 7 36 7 53 0 208 31
162 32 -13 1 -20 5 -17 11 9 14 45 12 45 -3 0 -9 22 -11 99 -6 107 7 180 18
196 27 6 4 41 5 79 3 48 -2 66 0 62 8 -5 7 7 11 33 11 23 0 41 4 41 10 0 5 -7
7 -16 3 -14 -5 -15 -3 -4 18 10 17 10 24 1 27 -6 2 -19 11 -28 20 -9 10 -27
17 -40 17 -25 1 -31 -10 -10 -18 9 -4 8 -8 -3 -16 -11 -8 -16 -6 -19 7 -5 24
-23 45 -30 34 -3 -5 -28 -12 -55 -15 -27 -4 -53 -12 -58 -19 -6 -9 -8 -7 -6 7
2 13 13 22 32 25 29 5 29 6 12 23 -13 13 -27 16 -47 12 -15 -4 -37 -1 -49 5
-24 13 -78 -3 -93 -27 -9 -15 -47 -18 -47 -3 0 23 -45 39 -82 31 -30 -7 -38
-6 -38 5 0 17 40 34 81 34 16 0 29 4 29 10 0 5 7 7 15 4 8 -4 12 -10 9 -15 -3
-5 -3 -9 1 -9 12 0 110 53 113 61 6 16 31 9 42 -11 8 -14 17 -19 30 -15 10 3
24 0 31 -8 10 -11 18 -10 48 5 56 29 134 7 123 -34 -7 -29 21 -30 75 -4 64 33
78 48 64 74 -9 18 -3 25 60 63 39 23 73 48 76 56 8 21 31 15 35 -9 2 -17 10
-23 28 -23 20 0 26 -6 28 -27 3 -28 -6 -40 -68 -90 -31 -26 -72 -38 -69 -20 4
25 -4 22 -26 -11 -16 -22 -36 -39 -53 -42 -39 -8 -75 -28 -80 -44 -3 -10 0
-12 14 -7 15 6 17 5 7 -5 -18 -18 -16 -56 3 -63 8 -3 13 -2 10 2 -3 5 2 9 10
9 8 0 13 -6 10 -14 -4 -9 3 -12 27 -10 18 1 35 6 39 11 3 5 18 2 33 -8 24 -16
44 -17 159 -13 l131 6 -150 -15 c-192 -18 -326 -19 -336 -3 -5 9 -11 9 -22 -3
-11 -11 -61 -18 -194 -27 -322 -22 -411 -40 -548 -108 -96 -49 -142 -82 -216
-155 -118 -118 -204 -282 -229 -434 -7 -38 -16 -88 -21 -111 -5 -23 -9 -61 -9
-83 0 -33 -4 -43 -20 -47 -23 -6 -27 -23 -5 -23 12 0 15 -15 15 -74 0 -50 -4
-76 -13 -79 -8 -4 -8 -8 -2 -14 6 -5 8 -67 5 -168 l-5 -160 -129 -5 c-164 -6
-165 -7 -121 -114 8 -18 4 -19 -111 -11 -135 8 -784 8 -826 -1 -17 -3 -28 -1
-28 5 0 6 5 11 10 11 6 0 10 6 10 13 0 14 189 147 209 147 12 0 14 -10 12 -50
-2 -23 -1 -24 12 -7 13 15 16 15 27 2 18 -21 57 -19 70 5 8 15 6 32 -7 70 -10
28 -21 50 -25 50 -12 0 -10 -17 7 -57 29 -69 -9 -101 -46 -39 -11 19 -26 37
-34 39 -27 11 -258 29 -287 23 l-31 -6 7 87 c3 49 11 210 17 358 10 241 13
273 31 303 13 22 17 37 10 45 -16 20 -2 86 19 92 25 8 24 37 -1 60 -24 22 -25
33 -4 56 16 17 15 21 -9 52 -16 22 -24 42 -21 54 3 12 1 24 -5 27 -6 4 -8 27
-5 54 2 26 13 209 24 407 53 951 57 1006 74 1024 14 13 40 16 148 16 102 0
132 3 136 14 7 22 -11 26 -120 29 -57 1 -115 5 -131 8 -30 6 -52 37 -40 57 4
6 6 20 5 29 -2 9 6 22 17 28 12 6 21 17 21 25 0 10 11 15 33 15 43 0 72 29 63
64 -8 33 -45 45 -63 21 -9 -14 -10 -22 -2 -32 14 -16 32 -6 25 14 -4 9 -1 13
6 11 7 -3 14 -14 16 -26 4 -26 -35 -39 -67 -22 -50 26 -3 140 58 140 34 0 44
-9 30 -27 -9 -10 -8 -13 4 -13 22 0 29 15 21 45 -5 19 -12 26 -28 24 -37 -2
-38 0 -18 34 14 22 22 59 26 122 11 148 17 185 31 185 31 0 33 65 3 97 -18 20
-22 37 -25 125 -6 133 8 179 58 190 19 4 35 3 37 -3 4 -11 29 -12 35 -1 3 4 8
26 12 49 5 34 3 42 -10 45 -9 1 -27 30 -41 63 -14 33 -27 65 -30 72 -7 16 73
69 153 101 63 25 79 27 210 27 98 0 146 -4 154 -12 8 -8 13 -53 15 -123 l2
-111 -38 -25 c-57 -38 -68 -78 -75 -280 -5 -143 -9 -178 -26 -210 -12 -25 -17
-49 -14 -66 9 -38 -43 -113 -89 -128 -43 -14 -61 -35 -75 -85 -7 -26 -23 -50
-46 -68 -41 -33 -45 -64 -12 -95 23 -21 92 -54 140 -66 19 -4 27 -13 27 -29 0
-75 52 -153 123 -187 51 -25 71 -25 125 0 58 26 109 84 123 142 12 46 14 47
61 58 55 11 118 41 137 64 20 23 6 60 -34 90 -31 24 -35 32 -35 71 0 43 -2 46
-54 79 -60 39 -108 115 -87 140 9 10 7 24 -7 57 -16 39 -18 62 -12 219 8 204
0 244 -57 287 l-35 27 6 76 c4 41 8 90 9 108 3 36 22 55 50 46 12 -4 17 0 17
14 0 15 -5 19 -18 15 -21 -5 -57 40 -48 62 2 7 -1 21 -8 30 -11 15 -13 15 -25
1 -7 -9 -11 -22 -8 -29 3 -8 -3 -21 -13 -30 -16 -13 -29 -14 -87 -6 -147 22
-307 -11 -421 -88 l-63 -42 -49 31 c-28 17 -50 35 -50 40 0 15 32 22 40 8 9
-15 30 -5 30 15 0 22 -35 36 -63 26 -22 -9 -26 -7 -30 17 -8 38 -31 102 -37
102 -7 0 -43 -90 -43 -107 0 -9 -7 -11 -21 -7 -23 7 -23 7 -48 5 -22 -1 -25
-51 -4 -51 8 0 16 5 18 12 14 41 67 -63 74 -145 9 -94 -4 -129 -51 -145 -35
-12 -41 -11 -52 4 -11 15 -15 16 -26 5 -10 -10 -7 -16 11 -29 76 -55 77 -56
57 -86 -17 -26 -17 -29 -2 -56 18 -29 18 -32 17 -240 -1 -281 -28 -466 -63
-431 -15 15 -37 14 -37 -3 0 -7 9 -16 20 -19 28 -7 27 -65 -2 -102 -20 -26
-22 -27 -35 -9 -10 13 -16 15 -24 7 -15 -15 -4 -43 15 -43 24 0 78 -60 67 -74
-6 -7 -8 -21 -5 -32 11 -40 -19 -49 -160 -49 -110 0 -131 -2 -131 -15 0 -9 9
-15 25 -15 14 0 30 -3 37 -8 6 -4 18 -5 26 -2 23 9 180 -14 190 -27 10 -15 6
-121 -22 -603 -47 -804 -53 -880 -67 -891 -8 -7 -12 -19 -8 -28 4 -11 -3 -27
-21 -46 -26 -27 -27 -32 -15 -55 12 -23 11 -29 -8 -55 -27 -36 -28 -57 -4 -64
14 -5 17 -14 14 -44 -2 -20 -9 -43 -14 -49 -7 -9 -4 -20 8 -38 18 -24 18 -37
4 -352 l-15 -326 -43 -1 -43 -1 6 33 c3 18 9 40 12 48 3 9 -2 14 -15 14 -18 0
-22 -8 -28 -70 l-7 -70 -44 0 c-36 0 -44 3 -42 17 1 10 -3 31 -9 46 -16 39
-16 40 18 70 51 46 36 118 -30 152 -37 19 -133 19 -169 1 -59 -31 -111 -114
-111 -178 0 -10 -7 -18 -15 -18 -12 0 -14 17 -9 113 4 64 12 121 19 133 10 16
11 31 3 65 -18 74 -20 76 -36 24 -8 -27 -19 -53 -25 -57 -7 -4 -7 -11 2 -22
11 -13 12 -42 6 -129 -4 -61 -9 -115 -11 -119 -3 -4 -7 -64 -10 -133 -3 -70
-9 -138 -15 -152 -5 -13 -9 -46 -9 -73 0 -77 -3 -80 -79 -80 l-67 0 -2 45 -2
45 73 0 c50 0 67 3 57 10 -8 5 -47 9 -87 8 l-71 -1 -8 -36 c-5 -20 -7 -43 -6
-52 1 -15 -9 -16 -81 -13 -45 2 -273 9 -507 15 -234 6 -428 13 -432 15 -4 3
-7 28 -7 57 0 29 -5 93 -11 142 -17 133 -15 382 4 431 8 21 14 48 13 59 0 11
0 39 1 61 2 37 6 44 37 58 19 9 38 22 42 29 8 13 5 396 -5 655 l-7 162 38 0
c30 0 40 4 44 20 3 11 10 20 17 21 6 0 21 13 34 29 20 25 23 39 20 97 -3 64
-4 68 -28 71 -44 6 -46 20 -7 60 l37 38 10 560 c13 765 28 1392 41 1812 7 194
9 355 6 358 -3 3 -24 8 -46 11 -34 5 -41 9 -41 28 0 24 -8 27 -120 41 -30 4
-58 11 -61 16 -3 4 -6 28 -8 52 -2 53 12 61 92 51 43 -6 57 -4 70 10 9 9 21
13 27 10 5 -3 10 1 10 10 0 8 7 18 15 21 8 4 15 11 15 18 0 15 38 38 50 31 6
-4 12 0 14 7 2 7 7 131 10 274 l6 262 -27 7 c-32 8 -43 21 -43 51 0 23 -6 24
-204 51 -44 5 -52 11 -92 62 -25 31 -123 174 -219 318 l-174 261 -12 185 -12
184 -76 6 c-42 3 -99 11 -127 17 -49 11 -52 13 -58 48 -3 20 -6 91 -6 158 l0
121 -59 85 -59 85 3 114 c2 63 8 125 13 139 15 36 35 244 27 280 -5 21 -2 37
8 48 16 19 32 168 28 264 -1 32 3 66 9 78 6 11 13 84 15 162 2 79 9 168 15
198 6 30 15 111 20 180 5 69 16 179 25 245 9 66 13 134 10 151 -4 23 -1 33 10
38 11 4 15 21 15 64 0 32 2 61 5 64 3 3 26 1 51 -4 44 -10 47 -9 75 21 15 17
33 31 40 31 8 0 10 12 5 39 -5 36 -4 39 16 33 21 -5 21 -4 15 99 -4 57 -18
295 -32 529 -13 234 -27 455 -31 493 l-6 67 -1564 0 -1564 0 0 -7680z m5943
1374 c16 -32 16 -39 2 -81 -9 -25 -26 -60 -38 -77 -20 -28 -22 -46 -25 -171
-5 -172 -16 -191 -99 -169 -18 5 -23 14 -23 41 0 19 7 47 15 63 9 17 13 40 10
53 -5 17 1 33 20 56 25 29 26 34 15 61 -14 34 -5 51 38 73 29 14 50 43 39 53
-4 4 -15 0 -24 -8 -19 -17 -43 -14 -43 5 0 17 78 137 88 137 5 0 16 -16 25
-36z m-85 -577 c8 -9 8 -49 1 -137 -5 -68 -12 -127 -15 -132 -8 -13 -61 -9
-73 6 -15 18 3 242 21 263 14 17 52 17 66 0z m9469 -821 c-3 -8 -2 -39 4 -68
5 -29 11 -71 14 -93 2 -22 9 -55 14 -73 11 -37 53 -82 77 -82 7 0 14 -4 14
-10 0 -5 -7 -10 -15 -10 -8 0 -22 -17 -31 -37 -29 -68 -3 -314 37 -354 10 -10
19 -23 19 -29 0 -5 9 -10 19 -10 27 0 38 -20 15 -26 -36 -10 -54 -67 -50 -157
8 -140 25 -215 57 -248 16 -16 37 -29 49 -29 11 0 20 -7 20 -15 0 -8 -7 -15
-15 -15 -22 0 -55 -79 -44 -108 5 -13 9 -47 9 -76 0 -125 47 -256 91 -256 12
0 19 -5 17 -12 -3 -7 -38 -18 -79 -26 -83 -15 -101 -26 -76 -44 12 -9 21 -40
29 -100 l12 -88 33 0 c35 0 73 -29 73 -55 0 -9 9 -15 24 -15 35 0 42 -18 11
-32 -19 -8 -27 -22 -32 -52 -4 -23 -6 -45 -4 -51 2 -5 5 -44 6 -85 6 -168 39
-260 94 -260 14 0 21 -6 21 -20 0 -13 -7 -20 -18 -20 -28 0 -44 -60 -41 -145
3 -61 0 -78 -14 -92 -17 -17 -19 -17 -31 0 -19 25 -49 23 -41 -3 5 -15 2 -20
-12 -20 -11 0 -24 5 -31 12 -7 7 -12 8 -12 2 0 -16 22 -34 41 -34 21 0 33 -16
24 -31 -5 -7 -15 -3 -30 11 -13 12 -28 18 -38 14 -24 -9 -21 -27 2 -19 14 4
21 0 26 -15 4 -12 4 -24 2 -27 -9 -9 -28 8 -21 19 4 5 -2 8 -13 6 -11 -2 -27
3 -35 10 -12 10 -19 8 -39 -11 -14 -12 -32 -21 -41 -19 -19 4 -21 16 -47 230
-11 89 -23 167 -26 172 -5 7 -91 677 -130 1003 -5 47 -4 57 9 57 8 0 18 5 22
11 4 7 -2 9 -17 7 -19 -2 -24 3 -30 30 -3 18 -4 34 0 36 8 5 7 48 -1 62 -3 5
-9 41 -14 79 -10 96 -10 98 -17 115 -11 28 -49 384 -43 410 3 15 0 32 -5 37
-9 9 -49 283 -49 339 0 11 9 30 20 42 11 12 20 23 20 25 0 3 -9 7 -20 10 -11
3 -20 13 -20 22 0 10 -8 23 -17 30 -14 11 0 22 103 89 65 43 128 84 139 91 26
18 38 18 32 1z m-7389 -330 c-25 -18 -23 -24 9 -28 26 -3 28 -6 29 -53 1 -46
3 -50 28 -53 30 -4 36 -22 7 -22 -11 0 -23 -5 -27 -11 -3 -6 -14 -9 -24 -6 -9
2 -28 -2 -41 -9 -30 -17 -69 -18 -69 -2 0 6 -7 4 -18 -5 -21 -19 -42 -23 -24
-5 21 21 13 30 -18 23 -22 -5 -40 -1 -65 15 -19 12 -35 25 -35 29 0 15 46 50
88 66 23 10 42 23 42 30 0 18 35 28 66 21 17 -5 26 -2 30 9 4 8 14 15 23 15
14 -1 14 -2 -1 -14z m1242 -21 c9 -11 8 -19 -4 -37 -9 -12 -16 -30 -16 -40 0
-10 -6 -18 -12 -19 -7 -1 -2 -4 11 -8 38 -10 35 -24 -11 -50 -27 -15 -39 -19
-36 -9 4 9 -1 14 -12 14 -15 0 -16 -4 -9 -18 7 -13 6 -16 -4 -12 -10 3 -12 -4
-9 -29 3 -27 8 -33 28 -32 13 0 38 12 55 28 22 19 38 26 53 21 20 -6 20 -5 3
8 -15 11 -16 18 -6 46 6 17 15 32 20 32 4 0 19 16 33 36 24 36 25 36 38 15 8
-13 23 -21 39 -21 23 0 25 -3 21 -30 -3 -21 -10 -30 -23 -30 -12 0 -24 -11
-30 -27 -6 -16 -19 -38 -31 -50 l-20 -21 21 -7 c23 -7 60 26 61 55 1 22 22 46
48 52 17 5 22 2 22 -14 0 -10 5 -28 11 -39 10 -19 12 -19 28 -5 21 19 31 12
31 -22 0 -19 4 -23 20 -19 11 3 20 1 20 -3 0 -11 40 -24 48 -15 4 3 -4 15 -18
25 -28 21 -26 25 14 36 21 5 27 4 22 -5 -4 -6 -2 -11 3 -11 6 0 11 -7 11 -14
0 -13 6 -12 38 3 150 72 179 85 195 87 9 1 17 -2 17 -7 0 -14 -30 -38 -43 -34
-7 3 -28 -17 -47 -42 -19 -26 -45 -56 -58 -67 -14 -13 -20 -26 -16 -38 3 -11
-1 -20 -10 -24 -9 -3 -14 -10 -11 -14 5 -8 98 20 112 33 3 4 13 7 20 7 12 0
12 -4 -1 -21 -9 -13 -13 -33 -9 -49 3 -16 0 -36 -6 -47 -9 -14 -10 -11 -5 20
4 24 2 37 -5 37 -6 0 -8 7 -5 15 4 8 1 15 -5 15 -6 0 -10 -5 -9 -12 2 -7 -9
-13 -24 -13 -15 -1 -41 -11 -58 -24 -28 -20 -100 -51 -121 -51 -4 0 -11 9 -14
20 -5 16 -10 18 -25 10 -28 -15 -40 -12 -40 10 0 11 -7 20 -15 20 -8 0 -19 -9
-25 -20 -6 -11 -18 -20 -26 -20 -20 0 -97 -41 -107 -58 -5 -7 -12 -10 -17 -7
-4 3 -27 -2 -50 -10 l-42 -15 14 22 c8 12 28 29 44 37 17 10 29 25 30 38 0 21
0 21 -33 -4 -43 -33 -123 -44 -123 -18 0 10 -5 15 -12 12 -7 -3 -20 -8 -29
-12 -9 -3 -23 0 -30 7 -20 19 -102 25 -158 13 l-34 -8 6 38 c5 29 3 35 -5 27
-21 -21 -40 -14 -33 11 8 26 43 59 56 51 5 -3 12 2 15 10 3 9 17 16 31 16 13
0 22 4 19 9 -3 4 6 13 20 19 27 13 48 53 32 63 -7 4 -5 22 4 50 11 32 21 45
42 52 28 9 66 40 66 54 0 12 33 43 45 43 7 0 18 -7 25 -15z m1033 -12 c4 -3 2
-12 -4 -20 -9 -10 -7 -13 10 -13 11 0 21 -6 21 -12 0 -10 2 -10 8 -1 9 14 52
6 52 -9 0 -11 18 -29 48 -46 13 -7 22 -8 22 -2 0 5 7 10 15 10 8 0 15 4 15 8
0 14 61 1 67 -14 4 -11 10 -11 33 1 16 8 36 12 44 9 9 -3 16 -2 16 3 0 11 64
43 87 43 11 0 14 -7 11 -25 -4 -21 -1 -25 18 -25 17 0 24 -6 24 -20 0 -15 7
-20 28 -20 58 0 45 -35 -17 -46 -20 -4 -45 -12 -56 -18 -11 -6 -33 -11 -50
-12 -16 -1 -40 -5 -52 -9 -27 -9 -32 12 -5 22 21 7 72 53 72 65 0 10 -50 -1
-68 -15 -9 -7 -16 -5 -26 8 -9 13 -15 15 -20 6 -5 -8 -13 -8 -27 -1 -15 8 -19
7 -19 -3 0 -20 -135 -145 -164 -153 -13 -3 -35 0 -48 7 -34 19 -144 38 -160
28 -7 -5 -25 -9 -40 -9 -15 0 -30 -5 -33 -10 -12 -19 -36 10 -29 33 8 26 43
56 65 57 14 0 16 9 13 50 -2 30 1 50 7 50 6 0 8 -9 4 -20 -5 -16 -2 -20 17
-18 34 4 39 19 15 39 -22 17 -22 18 -2 25 11 4 36 20 55 36 36 30 43 32 53 21z
m-1799 -78 c8 -9 13 -22 10 -29 -3 -8 -1 -17 5 -21 21 -12 11 -46 -25 -80 -20
-19 -40 -35 -45 -35 -5 0 -9 -7 -9 -15 0 -8 -4 -15 -10 -15 -5 0 -10 5 -10 10
0 6 -5 10 -11 10 -6 0 -9 -7 -5 -15 9 -23 -27 -18 -57 8 -29 24 -39 87 -14 87
6 0 -3 13 -20 28 -18 15 -33 30 -33 34 0 3 23 8 50 12 28 4 50 11 50 16 0 8
14 11 92 18 9 1 23 -5 32 -13z m3766 -44 c0 -5 -9 -13 -21 -16 -11 -4 -28 -23
-36 -43 -26 -63 -82 -96 -97 -57 -6 18 -39 20 -68 4 -11 -6 -22 -8 -25 -6 -5
6 18 49 32 59 6 5 3 8 -7 8 -22 0 -50 -42 -42 -64 3 -9 1 -16 -5 -16 -6 0 -11
6 -11 14 0 8 -10 22 -22 30 -18 13 -19 18 -9 30 17 20 71 47 71 35 0 -5 9 -9
19 -9 11 0 22 -6 24 -12 4 -9 6 -8 6 2 1 19 38 43 46 30 7 -11 57 -6 82 9 22
13 63 14 63 2z m115 -11 c3 -5 19 -10 35 -10 16 0 31 -4 34 -9 4 -5 18 -8 34
-6 15 2 35 2 44 -1 28 -8 3 -62 -38 -79 -18 -7 -43 -23 -56 -34 -30 -28 -53
-29 -36 -1 22 35 -8 43 -53 13 -41 -27 -77 -26 -105 2 -25 25 -14 49 43 93 56
42 86 51 98 32z m-4307 -117 c15 -10 35 -26 45 -36 18 -18 18 -19 0 -32 -10
-8 -32 -21 -49 -29 -16 -8 -38 -24 -48 -35 -18 -20 -18 -20 -47 9 -35 35 -36
43 -4 64 14 9 27 27 31 41 3 13 13 26 22 28 10 3 18 5 20 6 1 0 15 -7 30 -16z
m522 -18 c-10 -12 -9 -15 8 -15 25 0 43 -22 32 -39 -4 -8 -6 -20 -3 -28 7 -18
-15 -43 -33 -36 -8 3 -14 9 -14 15 0 14 -27 38 -34 31 -3 -4 -6 -1 -6 6 0 8
-5 9 -18 2 -17 -9 -110 -6 -120 4 -9 9 25 30 51 32 16 0 36 8 45 16 15 13 37
20 91 26 11 1 11 -2 1 -14z m1946 -714 c44 -27 60 -77 40 -126 -29 -69 -121
-79 -161 -18 -16 23 -16 26 3 46 11 12 23 33 27 47 10 36 33 70 48 70 6 0 26
-9 43 -19z m-5326 -901 c0 -6 -18 -29 -40 -51 -45 -46 -55 -67 -12 -26 30 29
91 37 122 17 13 -9 13 -11 0 -20 -8 -5 -21 -10 -28 -10 -7 0 -11 -4 -7 -10 3
-5 12 -7 20 -3 10 3 15 -2 15 -16 0 -12 7 -24 15 -27 19 -8 20 -58 1 -77 -8
-8 -17 -33 -20 -57 -6 -51 -9 -55 -35 -38 -24 15 -29 33 -6 25 8 -4 17 -1 21
5 5 8 -7 9 -42 5 -38 -5 -55 -14 -74 -37 -29 -35 -72 -44 -78 -17 -5 24 28 74
38 58 8 -14 21 62 19 113 l-1 31 -11 -27 c-13 -34 -59 -41 -50 -8 3 11 9 20
13 20 4 0 5 12 2 28 -4 26 -4 26 12 7 15 -19 15 -19 16 16 0 45 31 86 73 98
18 5 33 10 35 10 1 1 2 -4 2 -9z m273 -299 c33 -13 51 -84 40 -161 l-8 -54
-81 -2 -81 -1 -11 55 c-6 31 -10 58 -8 60 3 2 38 -18 78 -45 96 -64 98 -66 98
-56 0 5 -36 33 -81 62 -51 35 -78 59 -75 67 3 8 1 14 -4 14 -11 0 -24 45 -17
57 8 12 120 15 150 4z m-244 -30 c16 -12 20 -20 12 -25 -9 -6 -9 -11 0 -22 10
-12 8 -25 -9 -62 -11 -26 -23 -55 -26 -64 -4 -14 -17 -18 -61 -18 l-56 0 2 75
c3 66 6 77 26 90 21 14 23 14 24 -2 0 -10 5 -3 10 15 11 37 40 43 78 13z m679
3 l53 -6 -83 -52 c-46 -28 -101 -64 -124 -79 -58 -39 -70 -30 -73 50 -2 50 2
70 15 85 19 20 37 20 212 2z m517 -207 l310 -5 18 -29 c17 -29 17 -31 -15 -96
l-33 -65 -125 4 c-69 2 -190 10 -270 18 -80 9 -242 23 -360 31 -277 20 -270
19 -270 57 0 27 3 30 25 26 36 -7 42 10 8 23 l-28 10 23 17 c24 19 47 19 717
9z m-1179 -18 l23 -21 29 21 c25 17 45 21 116 21 47 0 86 -4 86 -9 0 -11 -54
-51 -68 -51 -6 0 -17 -9 -25 -21 -14 -19 -23 -20 -160 -17 -153 3 -183 11
-157 42 21 26 5 47 -30 40 -19 -4 -30 -2 -30 5 0 7 32 11 97 11 85 0 100 -3
119 -21z m258 -157 c-1 -175 2 -162 -41 -161 -31 2 -33 3 -10 6 65 10 6 30
-73 25 -23 -1 -300 17 -345 23 -29 4 -43 12 -51 29 -9 20 -9 23 7 19 11 -3 16
-10 12 -16 -3 -6 -1 -7 6 -3 6 4 10 15 7 24 -6 21 13 48 39 55 18 4 18 5 -2 6
-24 1 -31 15 -13 26 15 9 12 25 -4 19 -8 -3 -17 0 -21 7 -6 9 47 11 236 6 134
-3 233 -3 219 0 -43 8 -46 22 -9 37 19 9 36 15 39 16 3 0 5 -53 4 -118z
m-1141 86 l379 -11 -6 -71 c-3 -39 -5 -75 -6 -80 0 -4 -33 -5 -72 -1 -66 7
-71 6 -59 -9 7 -8 11 -23 7 -31 -5 -14 -21 -15 -103 -11 -108 5 -100 0 17 -12
88 -9 88 -9 35 -113 -25 -50 -35 -86 -40 -144 -7 -73 -8 -76 -30 -71 -14 4
-25 1 -28 -7 -4 -9 -8 -9 -15 2 -6 8 -19 12 -31 8 -12 -3 -24 -1 -27 4 -3 5
-17 1 -32 -9 -30 -21 -158 -38 -164 -21 -2 6 -16 3 -35 -6 -18 -9 -49 -15 -70
-13 l-38 3 3 63 c3 40 0 62 -7 62 -6 0 -11 -13 -11 -30 0 -17 -5 -30 -12 -30
-9 0 -12 19 -11 67 2 65 1 66 -10 32 -7 -21 -17 -34 -25 -32 -6 3 -9 9 -6 15
8 13 -16 59 -28 52 -4 -3 -8 -20 -9 -37 l-1 -32 -13 30 c-12 26 -20 27 -16 2
2 -10 -38 1 -55 15 -8 6 -9 21 -4 45 5 19 5 45 0 57 -8 20 -9 20 -10 1 -2 -17
-3 -16 -10 5 -8 24 -8 24 -9 3 -2 -41 -17 -24 -40 45 -13 37 -27 76 -31 87 -5
11 -11 39 -13 62 -5 40 -4 43 16 38 12 -3 81 -12 152 -20 243 -28 346 -43 352
-49 4 -3 -3 -6 -15 -6 -11 0 -25 -7 -30 -17 -8 -14 -16 -15 -53 -5 -24 6 -48
7 -52 3 -5 -5 4 -12 20 -15 49 -10 206 -26 248 -25 52 2 30 6 -67 14 -43 4
-78 10 -78 15 0 4 21 13 46 20 37 11 67 11 148 2 55 -7 112 -12 126 -11 23 0
23 1 5 9 -11 5 -42 12 -70 15 l-50 7 30 24 c18 14 43 24 63 24 17 0 32 4 32 9
0 15 -60 18 -80 4 -17 -12 -20 -12 -20 1 0 9 -7 16 -16 16 -10 0 -14 -6 -10
-15 4 -11 -11 -20 -59 -34 -65 -20 -66 -20 -204 -1 -77 11 -151 24 -166 30
-14 5 -61 10 -103 11 -42 0 -97 4 -122 7 -44 7 -45 8 -48 46 l-3 38 133 -6
c73 -3 303 -11 511 -18z m1517 -62 c85 -8 205 -18 265 -22 64 -4 100 -10 85
-14 -14 -3 -20 -8 -15 -11 18 -10 73 -10 79 0 3 5 21 5 42 1 19 -5 92 -9 162
-9 70 -1 144 -4 164 -8 38 -6 38 -6 38 -53 0 -58 21 -129 50 -170 24 -34 19
-56 -5 -24 -8 10 -15 14 -15 7 0 -14 -75 -37 -90 -28 -6 3 -10 1 -10 -4 0 -6
9 -11 20 -11 11 0 20 -4 20 -10 0 -14 -7 -13 -245 15 -235 27 -378 48 -475 69
-98 22 -280 50 -286 44 -11 -11 60 -27 251 -57 261 -41 302 -46 545 -72 113
-13 206 -23 207 -23 0 -1 3 -10 5 -21 2 -16 -4 -21 -42 -27 -56 -8 -432 -34
-519 -36 l-63 -1 5 35 c5 29 3 34 -14 34 -12 0 -19 -7 -19 -20 0 -17 -7 -20
-40 -20 -36 0 -40 3 -40 25 0 18 -5 25 -20 25 -14 0 -20 -7 -20 -21 0 -20 -4
-20 -72 -14 -40 3 -97 6 -127 6 l-54 1 6 166 c4 100 11 168 17 170 5 2 10 24
10 48 0 52 -17 50 200 30z m-1175 -126 c25 0 24 8 10 -125 -4 -33 -9 -71 -11
-85 -2 -14 -5 -53 -5 -87 -1 -45 -5 -63 -14 -63 -18 0 -13 173 5 195 15 18 7
19 -21 5 -22 -12 -24 -9 -34 63 l-6 47 43 1 c47 1 43 4 -14 14 -30 5 -38 10
-38 27 0 18 4 20 31 14 17 -3 42 -6 54 -6z m509 -40 c44 -6 100 -10 125 -10
50 0 161 -30 161 -44 0 -5 -32 -5 -72 -1 -164 16 -408 30 -408 23 0 -4 15 -8
33 -9 17 0 124 -8 237 -17 l205 -17 -3 -90 c-2 -49 -5 -92 -7 -93 -2 -2 -77
-10 -166 -18 -124 -11 -164 -11 -170 -2 -5 8 -12 6 -25 -6 -14 -14 -31 -17
-88 -15 -39 2 -76 0 -83 -4 -18 -11 -23 7 -17 56 5 31 10 44 19 40 8 -2 23 1
34 7 20 10 21 17 16 114 l-6 104 68 -5 c37 -2 104 -8 147 -13z m-3235 -162
c11 -3 14 -21 12 -78 -1 -41 -7 -80 -13 -87 -6 -7 -25 -13 -43 -13 l-33 0 3
98 c2 53 6 105 10 115 7 17 9 17 29 -6 12 -14 27 -27 35 -29z m11982 -377 c35
-36 38 -75 7 -108 -25 -27 -48 -29 -90 -7 -29 15 -30 18 -25 62 3 31 12 52 27
64 31 25 47 23 81 -11z m-5161 -1075 c0 -68 -7 -80 -53 -91 -23 -6 -27 -4 -27
14 0 18 -6 21 -45 21 -29 0 -45 -4 -45 -12 0 -7 -19 -22 -43 -33 l-42 -20 0
40 c0 42 18 68 54 80 28 9 27 -3 -1 -15 -27 -12 146 -7 175 5 17 7 24 40 10
48 -5 2 -35 1 -68 -3 -33 -4 -62 -6 -63 -4 -12 9 61 33 101 34 l47 0 0 -64z
m-1720 -136 c0 -5 -9 -10 -19 -10 -23 0 -36 -16 -21 -25 6 -4 19 0 29 9 25 22
48 20 65 -6 19 -29 19 -95 0 -102 -8 -3 -14 -18 -14 -33 0 -25 -1 -26 -13 -8
-11 14 -22 17 -45 12 -20 -4 -32 -2 -32 4 0 6 -7 17 -15 25 -25 26 -15 137 11
127 8 -3 14 0 14 6 0 6 9 11 20 11 11 0 20 -4 20 -10z m6885 -140 c169 -11
317 -35 425 -70 84 -27 220 -94 266 -131 20 -16 40 -29 44 -29 5 0 32 -19 61
-41 28 -23 48 -36 44 -29 -4 6 4 4 19 -5 15 -10 24 -20 21 -23 -3 -3 14 -25
37 -49 26 -27 36 -43 27 -43 -26 0 -121 31 -115 37 11 12 -186 127 -206 121
-5 -2 25 -21 67 -43 65 -34 72 -40 49 -43 -17 -2 -44 8 -77 31 -110 72 -376
167 -472 167 -56 0 -91 10 -73 21 8 6 -5 9 -35 9 -30 0 -46 4 -42 10 3 6 34
10 68 11 34 0 80 4 102 8 30 7 6 9 -95 11 -74 1 -196 5 -270 9 l-135 6 97 9
c54 4 117 5 140 1 40 -5 42 -5 24 9 -18 14 -12 15 65 9 124 -9 92 4 -40 16
-101 9 -118 9 -140 -6 -18 -12 -61 -18 -155 -23 -72 -4 -113 -8 -90 -8 22 -1
49 -9 60 -17 22 -17 7 -19 -30 -5 -16 6 -27 6 -31 0 -4 -6 -27 -10 -53 -10
-43 0 -45 1 -26 15 18 15 17 16 -11 10 -17 -3 -95 -8 -173 -10 -79 -3 -162
-10 -185 -16 -87 -23 -172 -79 -316 -209 -83 -75 -152 -130 -164 -130 -15 0
-11 6 18 26 21 14 77 65 124 113 47 48 115 108 151 133 135 93 356 145 675
158 94 3 175 7 180 8 6 1 82 -3 170 -8z m-5259 -150 c77 -5 153 -10 169 -9 29
0 30 0 6 10 -14 5 -42 9 -62 7 -21 -1 -42 2 -46 6 -4 4 56 6 135 4 78 -2 142
-5 142 -8 0 -15 -213 -37 -307 -32 -65 2 -103 1 -103 -6 0 -20 -37 -22 -204
-11 -241 16 -248 31 -11 26 105 -2 177 -3 160 0 -57 7 -76 14 -69 24 3 6 16 8
29 5 13 -3 85 -10 161 -16z m-1036 -1 c0 -7 10 -9 25 -7 14 3 25 2 25 -3 0
-19 224 -46 235 -29 3 5 31 11 63 15 31 3 69 8 84 10 20 3 28 -1 33 -16 7 -20
16 -21 55 -5 8 3 22 1 30 -4 13 -8 13 -11 0 -23 -20 -18 -166 -8 -162 11 1 8
-11 12 -40 11 -30 -2 -35 -3 -15 -6 15 -2 27 -9 27 -15 0 -10 -193 -5 -250 7
-14 3 -47 7 -75 10 -27 4 -60 8 -72 11 -25 5 -31 29 -10 37 22 10 47 7 47 -4z
m1628 -31 c7 -6 10 -18 7 -26 -4 -11 2 -13 25 -10 16 3 30 1 30 -4 0 -4 -18
-8 -41 -8 -22 0 -49 -4 -59 -10 -18 -10 -230 -52 -323 -65 -26 -3 -45 -9 -43
-13 2 -4 -24 -7 -57 -7 -34 0 -71 -4 -82 -9 -11 -5 -42 -11 -70 -13 -80 -5
-30 16 67 28 46 5 115 17 153 26 39 9 76 16 83 14 6 -1 12 2 12 6 0 4 15 8 33
9 49 1 187 26 187 34 0 4 -21 5 -47 3 -27 -3 -64 -1 -83 4 -26 7 -10 9 65 7
55 -2 106 0 114 5 18 11 5 31 -20 31 -10 0 -19 5 -19 11 0 13 48 3 68 -13z
m-8960 -46 l3 -52 45 0 46 0 -7 -32 c-11 -58 -14 -63 -52 -87 -35 -22 -36 -22
-47 -5 -5 11 -10 25 -11 33 0 24 -23 23 -28 -1 -2 -13 -5 -2 -6 24 -1 41 12
126 25 166 10 31 29 3 32 -46z m5912 28 c-8 -5 -13 -10 -10 -11 3 0 14 -3 25
-5 11 -2 41 -7 68 -10 57 -7 62 -24 7 -25 -57 -2 -60 -3 -60 -14 1 -6 22 -9
50 -8 40 3 48 0 44 -12 -6 -14 -30 -20 -61 -16 -7 1 -13 -3 -13 -10 0 -8 12
-10 40 -5 35 5 40 4 40 -13 0 -10 7 -35 15 -54 14 -33 13 -36 -3 -37 -37 -2
-99 -10 -147 -19 -27 -5 -79 -10 -115 -10 -58 0 -62 1 -42 12 12 7 20 16 17
19 -6 6 38 14 143 26 56 7 81 1 50 -11 -7 -3 3 -6 24 -6 31 -1 35 2 31 19 -3
13 0 20 8 20 9 0 10 3 2 11 -7 7 -22 7 -49 0 -22 -6 -75 -13 -119 -17 -75 -6
-81 -5 -100 16 l-20 23 21 -7 c12 -3 32 -2 45 2 20 8 14 11 -38 17 -75 8 -83
25 -13 25 28 0 50 4 50 9 0 6 -16 7 -37 4 -26 -4 -34 -3 -29 5 4 7 18 12 31
12 13 0 27 5 30 10 4 6 -5 10 -21 10 l-26 0 23 20 c13 10 18 19 12 20 -7 0
-13 3 -13 8 0 4 35 8 78 9 53 2 72 0 62 -7z m1085 -53 c71 -7 93 -13 75 -18
-34 -10 -132 -11 -127 -1 3 4 -26 8 -64 9 l-69 2 17 -24 c10 -13 24 -25 31
-25 21 0 13 -20 -8 -20 -12 0 -22 -9 -26 -24 -3 -13 -15 -28 -27 -34 -20 -10
-21 -11 -2 -11 13 -1 16 -4 9 -11 -6 -6 -43 -14 -82 -17 l-72 -6 0 27 c0 15 7
29 15 32 8 4 15 10 15 15 0 4 -7 6 -15 3 -8 -4 -15 -2 -15 4 0 6 24 15 53 20
l52 10 -52 1 c-48 1 -53 3 -53 24 0 49 10 63 41 61 16 -1 29 2 29 6 0 15 63
16 120 2 30 -8 100 -18 155 -25z m-3125 -157 c0 -109 -3 -112 -118 -103 l-80
6 4 46 c6 73 15 120 24 126 4 3 6 -10 5 -28 -2 -17 -4 -32 -5 -32 -1 0 -4 -13
-6 -29 -3 -26 -1 -28 24 -21 15 4 38 7 52 7 18 0 21 2 9 8 -8 5 -27 7 -41 6
-18 -2 -25 1 -21 10 2 7 11 10 19 7 8 -3 21 3 29 13 8 11 15 14 15 8 0 -7 7
-15 16 -18 13 -5 15 0 9 34 -4 26 -3 40 4 40 6 0 8 -7 5 -15 -5 -11 0 -14 20
-13 17 2 26 8 26 20 0 10 2 18 5 18 3 0 5 -40 5 -90z m10737 5 c53 -49 89 -75
105 -75 13 0 81 -16 151 -35 71 -19 133 -33 138 -30 5 4 9 2 9 -3 0 -5 -151
-13 -347 -18 -466 -11 -495 -11 -500 3 -2 6 8 13 24 16 15 2 -63 5 -175 5
-197 0 -253 -6 -135 -14 71 -5 97 -24 32 -24 -24 0 -71 11 -104 25 l-60 25
105 0 c125 0 731 28 778 36 17 3 32 8 32 11 0 11 -35 32 -53 33 -11 0 -15 5
-11 11 3 6 -15 33 -42 60 -75 76 -37 58 53 -26z m-9557 -12 c0 -27 -4 -43 -8
-37 -5 7 -74 9 -211 6 -120 -3 -198 -8 -190 -13 9 -6 0 -9 -27 -9 -28 0 -44 5
-48 15 -8 23 28 28 318 41 133 6 149 9 153 25 9 32 13 21 13 -28z m7262 -45
c-20 -20 -14 -25 33 -32 31 -5 45 -12 45 -23 0 -10 -5 -13 -17 -8 -45 18 -97
16 -204 -9 -63 -14 -134 -35 -157 -47 -24 -12 -56 -22 -72 -23 -15 -1 -26 -4
-23 -8 4 -8 -12 -12 -30 -9 -5 1 -6 -2 -3 -7 3 -5 -8 -16 -25 -26 -41 -24 -39
1 4 41 68 65 238 126 359 127 55 1 68 4 72 19 2 9 10 17 17 17 10 0 10 -3 1
-12z m-4007 -33 l50 -14 -45 4 c-79 8 -217 8 -229 1 -21 -13 -11 -26 22 -27
26 -1 27 -3 8 -6 -17 -3 -20 -7 -12 -13 14 -8 -135 -21 -184 -15 -16 2 -45 4
-64 4 -19 1 -32 4 -28 7 3 3 59 6 124 6 79 0 111 2 96 8 -13 5 -23 12 -23 16
0 3 7 4 15 1 8 -4 16 -3 19 1 7 12 -288 1 -299 -10 -7 -8 -6 -9 2 -4 6 3 14 2
18 -4 3 -6 -1 -13 -9 -16 -9 -3 -13 -10 -10 -15 3 -5 -7 -9 -23 -9 -23 1 -25
2 -11 11 26 15 11 40 -21 34 -14 -2 -32 -1 -39 4 -21 13 30 20 222 31 93 5
171 11 173 14 11 11 202 4 248 -9z m3120 -470 c294 -27 302 -30 122 -39 -120
-7 -200 -5 -335 8 -97 9 -199 16 -226 16 -76 0 -43 18 39 23 163 8 239 6 400
-8z m-1395 -60 c63 -7 158 -19 210 -25 52 -6 96 -15 98 -20 2 -5 61 -8 135 -6
73 2 110 2 82 0 -192 -15 -451 -37 -510 -44 -43 -6 -71 -5 -73 0 -2 6 -12 6
-23 -1 -11 -6 -25 -8 -32 -6 -7 3 1 10 16 16 16 6 33 8 38 5 13 -7 296 16 329
27 25 8 -221 2 -248 -7 -19 -6 -472 59 -472 68 0 8 220 17 290 11 25 -2 97
-10 160 -18z m795 15 c173 -18 195 -21 195 -28 0 -11 -418 -5 -490 7 -36 6
-92 11 -125 11 -33 0 -66 4 -74 9 -22 14 362 14 494 1z m-1456 -59 c139 -23
233 -43 228 -48 -2 -2 -80 -10 -173 -19 -188 -18 -136 -23 -464 48 -153 33
-153 34 -15 46 114 9 266 0 424 -27z m1867 20 c-3 -5 27 -11 67 -15 39 -4 108
-11 152 -16 44 -5 134 -14 200 -21 112 -11 145 -20 145 -39 0 -4 -55 -11 -122
-15 -98 -6 -153 -3 -273 13 -82 12 -177 24 -210 27 -224 24 -381 54 -270 53
134 -1 205 3 200 12 -4 6 18 10 55 10 34 0 59 -4 56 -9z m-2721 -51 c94 -20
220 -52 270 -68 l50 -16 -185 -18 c-181 -18 -186 -18 -250 1 -36 11 -110 31
-165 46 -55 15 -108 29 -118 32 -10 3 -17 7 -15 9 8 7 325 33 348 28 8 -2 38
-8 65 -14z m2253 -30 c114 -16 243 -36 287 -43 l80 -14 -55 -6 c-195 -22 -315
-24 -419 -5 -103 19 -433 68 -454 68 -6 0 -7 3 -4 7 8 7 157 19 275 21 47 1
171 -11 290 -28z m-4728 -31 c0 -5 -6 -10 -12 -10 -25 -3 78 -18 125 -18 41
-1 49 -4 57 -27 13 -34 13 -39 -3 -26 -35 29 -299 27 -311 -3 -3 -8 25 -12
102 -14 59 -1 136 -5 172 -9 61 -7 65 -9 65 -32 0 -16 -6 -26 -17 -28 -11 -2
-18 3 -18 12 0 10 -9 16 -21 16 -18 0 -19 -2 -9 -15 11 -13 7 -15 -24 -15 -20
0 -36 -5 -36 -11 0 -8 20 -10 60 -7 41 3 60 1 60 -7 0 -8 -53 -14 -172 -20
-95 -4 -189 -9 -208 -10 -180 -16 -190 -16 -183 1 5 15 1 16 -30 11 -21 -3
-37 -2 -37 4 0 5 9 9 19 9 11 0 23 5 26 10 3 6 27 10 52 10 26 0 43 -3 39 -7
-4 -5 -17 -8 -29 -8 -11 0 -22 -6 -25 -14 -4 -11 6 -12 49 -6 30 5 77 9 104
11 28 1 54 3 59 3 5 1 3 7 -3 15 -16 19 25 29 43 10 13 -13 56 -20 56 -10 0 2
3 11 6 20 4 11 -4 16 -33 22 -21 3 -47 12 -58 19 -23 13 -125 29 -125 19 0 -4
8 -13 18 -21 15 -12 14 -13 -15 -8 -24 5 -40 1 -60 -13 -31 -21 -93 -37 -93
-23 0 5 16 12 36 15 25 5 34 11 30 22 -4 9 1 14 14 14 11 0 20 5 20 10 0 6
-29 10 -67 10 -102 0 -64 17 67 30 181 18 207 30 51 25 -73 -3 -138 -8 -143
-11 -5 -3 -28 -2 -51 2 -34 6 -13 10 116 21 88 6 165 17 172 23 9 8 15 8 20 0
10 -16 55 -13 49 4 -4 11 4 16 33 18 44 4 63 0 63 -13z m1728 -15 c112 -31
257 -77 265 -83 4 -4 -82 -13 -191 -20 l-198 -13 -135 42 c-73 23 -140 44
-148 46 -31 9 4 16 141 29 194 17 202 17 266 -1z m2147 1 c39 -9 104 -20 145
-25 103 -13 251 -41 275 -50 14 -6 4 -9 -35 -10 -30 0 -120 -9 -200 -19 l-145
-18 -135 24 c-208 36 -391 75 -384 82 8 8 231 28 329 29 44 1 112 -5 150 -13z
m1905 -33 c0 -5 -91 -14 -202 -21 -182 -11 -445 -29 -691 -47 -54 -4 -83 -10
-75 -15 7 -5 27 -9 44 -9 30 0 386 -69 539 -105 194 -44 401 -98 409 -106 21
-20 -8 -20 -101 -1 -54 11 -126 26 -161 32 -34 7 -65 17 -68 21 -3 5 -18 9
-34 9 -16 0 -82 14 -147 31 -204 53 -522 112 -608 112 -44 1 -181 -11 -305
-25 -124 -15 -281 -32 -350 -38 -208 -17 -527 -49 -865 -85 -356 -38 -530 -55
-875 -85 -129 -11 -251 -22 -270 -25 -22 -2 -29 -1 -20 4 8 5 42 11 75 15 66
7 516 54 830 86 110 11 238 25 285 30 47 6 254 26 460 46 206 19 535 53 730
74 458 50 649 67 1010 89 354 22 390 23 390 13z m-2720 -42 c47 -11 156 -34
243 -51 87 -17 156 -33 154 -35 -2 -2 -98 -11 -213 -20 l-209 -16 -140 32
c-77 18 -175 40 -218 50 -42 9 -79 19 -82 22 -6 5 150 27 225 31 128 7 159 5
240 -13z m-2215 -5 c154 -15 202 -24 285 -53 51 -18 336 -129 440 -172 25 -10
72 -21 105 -25 105 -13 133 -36 62 -50 -17 -4 -86 -20 -152 -35 -233 -56 -733
-134 -990 -155 -121 -9 23 38 165 55 135 15 349 48 428 65 40 8 75 15 78 15 2
0 4 3 4 8 0 4 -60 7 -132 7 -120 0 -135 -2 -149 -20 -13 -15 -21 -17 -40 -9
-27 11 -82 11 -118 -1 -16 -5 -21 -4 -17 4 8 12 -3 13 -56 5 -52 -9 -48 -23 5
-18 41 4 41 3 8 -5 -41 -11 -110 -3 -89 10 9 6 3 9 -17 9 -23 0 -27 -3 -15
-10 12 -8 11 -10 -7 -10 -13 0 -23 5 -23 11 0 7 -11 9 -30 6 -23 -5 -32 -2
-40 12 -7 14 -6 20 5 24 18 7 40 47 25 47 -5 0 -10 -7 -10 -15 0 -21 -18 -19
-22 2 -6 32 4 93 16 92 6 -1 21 -1 34 0 21 1 22 3 8 16 -8 8 -21 15 -28 16
-38 2 35 18 86 18 48 1 63 -3 88 -24 16 -14 42 -25 56 -26 15 0 21 -3 15 -6
-18 -7 -16 -23 2 -23 8 0 15 5 15 12 0 9 3 9 12 0 7 -7 20 -12 30 -12 10 0 18
-4 18 -10 0 -5 10 -10 23 -10 12 0 42 -7 67 -16 82 -27 77 -24 59 -37 -12 -9
24 -11 165 -9 181 2 237 9 243 29 2 5 -27 15 -67 22 -72 12 -181 52 -394 145
-149 65 -172 73 -266 86 -154 21 -138 23 -143 -18 -3 -30 -4 -26 -5 16 l-2 52
63 0 c34 0 125 -7 202 -15z m-2026 -72 c-21 -27 -41 -64 -36 -69 2 -2 15 5 28
17 15 13 25 16 27 9 5 -13 -13 -34 -28 -36 -20 -3 -21 -4 -14 -15 7 -13 104
78 104 98 0 7 5 13 11 13 7 0 8 -7 4 -17 -18 -45 -18 -54 1 -46 17 6 18 5 4
-12 -36 -45 -46 -50 -110 -54 -36 -1 -68 -5 -72 -7 -3 -2 -75 -8 -160 -13 -84
-5 -158 -10 -163 -11 -6 -1 -41 -1 -80 0 -65 2 -67 3 -35 12 19 5 43 14 52 19
10 5 24 9 33 9 8 0 19 9 25 20 15 28 28 25 23 -5 -4 -20 0 -25 22 -31 20 -5
31 -2 40 10 16 21 35 21 35 0 0 -13 5 -12 23 8 12 13 28 23 33 21 6 -2 17 3
24 12 18 22 33 19 20 -5 -6 -11 -17 -20 -24 -20 -8 0 -20 -7 -27 -16 -12 -15
-11 -16 6 -11 11 3 53 9 93 13 45 4 71 11 70 18 -2 6 7 21 20 34 12 12 22 33
22 47 0 19 5 25 22 25 19 0 20 -2 7 -17z m3534 -35 c114 -28 207 -54 207 -58
0 -4 -19 -7 -42 -8 -24 -1 -86 -7 -138 -13 -179 -21 -254 -17 -360 18 -52 17
-111 34 -130 38 -19 4 -60 14 -90 23 l-55 16 165 17 c91 9 181 17 200 18 19 1
128 -22 243 -51z m-2171 -90 c-8 -8 -8 -15 -1 -24 7 -9 7 -19 0 -33 -6 -11
-11 -29 -11 -41 0 -16 -5 -19 -22 -16 -81 17 -97 16 -106 -1 -9 -14 -14 -15
-36 -5 -14 6 -26 8 -26 3 0 -10 -21 -20 -67 -31 -23 -6 -36 -4 -44 6 -9 11
-15 11 -25 3 -8 -6 -14 -8 -14 -4 0 4 -6 2 -14 -4 -10 -9 -15 -8 -19 4 -5 11
-12 13 -32 5 -16 -6 -25 -6 -25 0 0 6 -4 10 -10 10 -5 0 -10 -7 -10 -15 0 -12
-10 -15 -40 -13 -22 1 -45 -3 -52 -10 -9 -9 -7 -12 13 -13 13 -1 40 -2 59 -3
19 -1 42 1 51 6 10 4 24 1 35 -7 24 -18 29 -18 49 1 11 12 19 14 27 6 6 -6 31
-8 60 -5 48 5 50 5 43 -17 -6 -19 -4 -21 15 -15 19 6 20 5 9 -12 -17 -28 -76
-50 -139 -51 -55 -2 -138 -9 -195 -17 -16 -2 -33 1 -36 7 -5 8 -13 6 -24 -5
-19 -20 -42 -22 -47 -5 -3 9 -9 8 -22 -5 -22 -22 -46 -22 -46 1 0 10 -3 13 -8
6 -4 -6 -19 -14 -34 -18 -24 -5 -28 -3 -34 19 -5 19 -11 24 -23 20 -43 -17
-71 -17 -71 -1 0 9 -5 16 -11 16 -5 0 -8 -4 -4 -9 8 -13 -57 -61 -83 -61 -11
0 -22 6 -25 13 -3 8 -7 7 -12 -5 -4 -10 6 -32 29 -63 20 -25 36 -51 36 -56 0
-5 -18 -9 -40 -9 l-40 0 0 74 c0 65 2 74 20 79 11 3 24 16 29 30 7 18 15 24
29 20 14 -3 21 2 25 16 3 14 0 21 -9 21 -8 0 -11 -6 -8 -15 7 -18 -12 -20 -19
-2 -4 9 -8 9 -15 -1 -7 -11 -10 -11 -15 2 -4 9 -13 16 -21 16 -9 0 -12 7 -9
21 10 37 48 102 63 107 13 4 13 3 2 -10 -9 -12 -10 -18 -2 -23 17 -11 23 1 15
34 -5 23 -13 31 -37 37 -28 6 -29 8 -13 17 13 7 24 6 38 -2 15 -10 58 -11 171
-6 83 4 162 8 176 10 34 4 348 25 430 28 172 8 184 7 172 -5z m3641 -45 c-7
-2 -13 -9 -13 -15 0 -6 7 -7 18 -3 9 5 41 11 71 15 43 5 50 4 36 -6 -15 -11
-15 -13 4 -19 12 -3 54 -4 94 0 45 4 68 2 62 -4 -6 -5 -19 -11 -30 -13 -11 -3
12 -8 50 -12 88 -10 118 -25 55 -27 -25 -1 -58 -5 -75 -9 l-30 -7 28 -8 c38
-10 228 -2 251 12 19 10 18 11 -3 22 -12 7 -61 18 -109 26 l-87 15 99 -5 c76
-4 105 -10 126 -25 15 -11 30 -17 33 -14 3 3 8 1 11 -5 25 -39 -147 -45 -619
-21 l-70 4 80 5 80 6 -48 28 -49 29 -121 -13 c-67 -7 -126 -15 -130 -19 -5 -4
36 -11 90 -15 86 -7 93 -9 58 -16 -22 -4 -57 -8 -77 -8 -43 -1 -50 -16 -13
-25 14 -4 23 -11 20 -16 -11 -19 -51 -10 -76 16 -21 23 -29 25 -69 19 -57 -8
-69 -20 -47 -43 15 -14 40 -18 140 -20 132 -4 210 9 201 32 -3 8 -26 17 -51
21 -24 3 -42 9 -40 12 10 9 146 -18 157 -32 13 -15 -16 -27 -118 -46 -80 -15
-249 -6 -315 17 -68 23 -60 44 23 65 l65 16 -40 24 -40 24 55 8 c29 4 59 5 64
3 6 -2 1 -5 -11 -5 -13 -1 -23 -6 -23 -11 0 -11 32 -8 185 15 47 8 67 14 50
15 -28 3 -27 3 10 10 47 8 106 11 88 3z m-655 -82 c80 -16 67 -33 -39 -51 -94
-16 -260 -27 -265 -18 -3 4 1 8 8 8 57 1 250 21 269 29 23 9 23 9 4 17 -30 13
-410 9 -493 -5 -76 -14 -91 -30 -36 -42 l29 -7 -30 -1 c-39 -1 -107 18 -100
29 7 11 92 31 178 40 99 10 423 11 475 1z m2528 -20 c5 -5 37 -18 71 -28 l63
-19 -33 -12 c-58 -20 -265 -52 -401 -61 -77 -5 -142 -15 -154 -22 -17 -11 -28
-11 -55 -1 -41 15 -307 -1 -337 -20 -14 -9 -24 -9 -42 -1 -23 12 -23 12 5 12
16 1 26 5 22 11 -10 16 -33 12 -53 -10 -13 -15 -31 -21 -58 -20 -22 0 -57 -2
-79 -5 -22 -3 -85 -12 -140 -20 -110 -16 -199 -26 -475 -55 -197 -20 -249 -24
-515 -40 -93 -6 -217 -15 -275 -20 -204 -19 -236 -20 -217 -9 17 10 17 12 -8
25 -16 8 -45 12 -69 10 -126 -13 -166 -20 -166 -29 0 -7 -4 -7 -11 0 -6 6 -26
9 -45 6 -19 -3 -34 -1 -34 4 0 6 39 13 88 16 48 4 150 14 227 22 77 8 201 20
275 25 140 10 643 57 695 65 17 2 57 7 90 9 33 3 197 19 365 35 338 33 430 39
430 29 0 -4 -12 -9 -27 -11 -17 -2 -8 -5 21 -6 46 -1 48 0 30 14 -18 14 -17
14 13 15 17 0 33 6 36 13 3 8 8 9 16 2 7 -7 40 -8 98 -3 157 15 557 69 634 87
3 0 9 -3 15 -8z m-3659 -73 c18 -7 33 -15 33 -19 0 -4 17 -10 38 -14 34 -6 87
-25 169 -61 21 -10 30 -19 27 -29 -5 -12 5 -15 49 -15 31 0 59 -4 62 -10 11
-18 -111 -12 -129 6 -12 12 -16 12 -16 2 0 -8 -9 -14 -21 -15 -18 -2 -20 2
-16 25 5 24 4 25 -8 8 -10 -12 -20 -16 -32 -11 -10 4 -43 11 -73 15 -30 5 -80
17 -110 28 -50 19 -52 21 -22 21 29 1 31 3 21 20 -10 15 -21 17 -56 13 -30 -3
-43 -1 -43 8 0 7 7 10 15 6 8 -3 15 -1 15 4 0 6 -6 11 -12 11 -14 1 37 16 61
18 8 0 30 -4 48 -11z m-92 -98 l30 -13 -50 -13 c-57 -15 -114 -18 -133 -5 -16
10 -85 -12 -90 -28 -2 -6 2 -11 10 -12 7 0 0 -7 -17 -14 -36 -17 -85 -19 -85
-4 0 7 -10 9 -27 4 -31 -8 -109 -22 -163 -31 -19 -3 -48 -9 -64 -15 -16 -5
-46 -9 -67 -9 -43 0 -69 -8 -69 -21 0 -13 91 -11 128 2 17 6 43 9 59 7 34 -4
-66 -27 -279 -63 -139 -24 -149 -25 -179 -9 -25 12 -33 13 -39 3 -7 -10 -11
-9 -23 2 -8 8 -33 23 -56 33 -23 11 -38 23 -34 27 10 8 350 64 483 78 52 6
131 10 175 10 90 -1 227 27 325 65 68 27 110 28 165 6z m-2161 -47 c7 -16 -23
-45 -36 -37 -5 3 -8 -2 -8 -10 0 -24 34 -23 53 1 19 24 57 32 57 12 0 -7 -9
-9 -21 -6 -20 5 -20 5 -3 -14 9 -10 29 -20 43 -20 44 -2 -56 -16 -171 -24
l-107 -7 -32 46 c-18 25 -39 46 -46 46 -13 0 -19 20 -5 20 4 1 59 3 122 7 63
3 117 7 118 8 8 7 31 -7 36 -22z m-1709 -60 c-17 -33 -5 -50 23 -32 17 10 23
10 37 -1 14 -12 18 -12 26 1 8 12 11 11 19 -3 6 -9 17 -15 25 -12 18 7 20 -17
4 -33 -9 -9 -6 -10 11 -6 17 4 21 3 16 -6 -11 -17 -86 -4 -106 19 -15 17 -20
16 -69 -2 -18 -6 -21 -12 -13 -20 9 -9 16 -7 31 6 11 10 25 15 31 11 15 -9
-34 -35 -67 -35 -20 0 -23 4 -18 23 3 13 -2 8 -14 -13 -11 -19 -20 -31 -21
-26 0 6 -5 5 -12 -2 -7 -7 -22 -12 -34 -12 -12 0 -27 -7 -34 -15 -13 -16 -32
-21 -27 -7 1 4 -2 7 -8 7 -5 0 -8 -6 -7 -14 2 -7 -2 -11 -8 -9 -6 2 -11 7 -11
11 1 4 1 14 1 23 0 12 6 15 24 10 37 -9 43 13 7 27 -17 6 -31 14 -31 18 0 12
34 21 38 10 2 -5 10 -7 19 -4 11 4 14 3 9 -6 -12 -19 11 -39 39 -33 16 3 25
11 25 23 0 11 7 19 15 19 10 0 15 10 15 30 0 17 5 30 10 30 6 0 10 -4 10 -10
0 -5 5 -10 10 -10 6 0 10 9 10 20 0 21 18 49 32 50 4 0 0 -12 -7 -27z m4394
-4 c23 -8 35 -8 45 0 10 8 16 9 21 1 3 -5 23 -10 43 -10 21 0 58 -11 84 -25
26 -14 58 -25 72 -25 14 0 28 -4 31 -10 3 -5 15 -10 26 -10 10 0 27 -4 37 -9
9 -5 47 -21 85 -36 37 -15 67 -31 67 -36 0 -5 7 -9 15 -9 8 0 25 -5 39 -12 22
-9 24 -14 13 -26 -9 -12 -9 -14 0 -8 16 9 94 -14 87 -25 -3 -5 -16 -9 -30 -9
-13 0 -24 -4 -24 -10 0 -5 13 -10 29 -10 17 0 33 5 36 10 3 6 13 10 22 10 12
0 13 -3 4 -13 -13 -17 -5 -28 15 -20 10 4 12 0 8 -11 -3 -9 -1 -16 5 -16 6 0
11 7 11 15 0 8 2 15 4 15 2 0 11 3 19 6 12 4 14 0 10 -15 -4 -17 0 -21 18 -22
24 -2 24 -2 -1 -6 -14 -3 -49 -11 -78 -18 -55 -15 -54 -15 -154 28 -32 14 -38
32 -8 24 11 -3 23 0 27 6 3 7 3 9 -2 5 -5 -5 -15 2 -23 14 l-15 21 -9 -22 c-6
-17 -13 -21 -30 -16 -37 10 -72 29 -81 42 -4 7 -17 13 -27 13 -10 0 -22 4 -25
10 -3 5 -22 17 -41 26 -22 11 -33 22 -30 30 3 8 -1 14 -10 14 -8 0 -12 -4 -9
-10 7 -12 -2 -12 -30 -1 -11 5 -20 14 -20 22 0 10 -14 15 -47 16 -57 2 -81 14
-83 42 -2 23 5 27 22 10 14 -14 34 -3 27 15 -4 10 -14 12 -41 5 -20 -4 -42 -7
-47 -6 -6 1 -10 -4 -8 -10 4 -25 -46 -12 -82 20 -20 18 -36 36 -36 40 0 10 33
8 69 -4z m-303 -16 c-26 -14 -27 -16 -12 -25 14 -8 15 -13 5 -24 -10 -12 -4
-14 47 -8 32 4 64 10 69 14 13 10 149 -10 138 -20 -9 -8 -253 -78 -314 -90
-38 -7 -76 10 -65 29 4 6 -10 10 -35 9 -43 0 -79 -25 -79 -53 0 -9 -6 -12 -16
-8 -8 3 -13 12 -9 21 5 12 -5 14 -67 10 -40 -3 -74 -11 -76 -17 -2 -6 -8 -9
-13 -6 -5 4 -17 1 -26 -4 -17 -10 -17 -11 2 -12 18 -2 77 1 130 5 11 1 34 -2
51 -6 18 -5 43 -4 58 1 14 6 28 7 30 2 3 -4 -20 -14 -52 -21 -31 -7 -111 -29
-177 -50 -124 -39 -219 -63 -245 -63 -8 0 -20 -4 -26 -9 -9 -7 -150 -58 -160
-58 -6 0 -44 44 -44 50 0 3 17 5 38 4 32 -1 33 -1 5 3 -18 2 -33 8 -33 14 0 5
-7 9 -15 9 -7 0 -18 6 -22 14 -4 7 -30 24 -58 37 l-50 23 45 12 c84 22 305 73
415 95 134 26 159 32 255 59 41 11 89 19 107 18 17 -2 30 0 27 4 -5 7 17 14
126 42 72 19 81 18 46 -1z m609 -203 c33 -22 75 -47 93 -56 17 -9 32 -23 32
-31 0 -12 7 -14 28 -10 59 12 51 -10 -13 -35 -36 -14 -65 -21 -65 -17 0 5 -4
9 -10 9 -5 0 -10 -7 -10 -15 0 -12 -8 -14 -38 -9 -39 6 -96 -13 -104 -35 -2
-6 -17 -6 -38 -2 l-35 8 45 13 c58 17 72 30 33 30 -39 0 -65 9 -57 21 11 18
-37 8 -53 -11 -12 -14 -30 -20 -57 -20 -22 0 -36 3 -32 8 4 4 22 7 38 7 17 0
33 6 35 13 3 7 -4 12 -16 12 -12 0 -21 5 -21 10 0 6 10 10 21 10 21 0 21 1 -4
20 -28 22 -47 26 -47 9 0 -6 -8 -8 -19 -4 -21 6 -51 -3 -51 -16 0 -5 11 -9 24
-9 13 0 29 -6 35 -14 10 -11 8 -16 -8 -21 -12 -3 -21 -11 -21 -17 0 -7 -14 -8
-39 -4 -23 3 -42 2 -46 -4 -4 -6 -11 -7 -17 -4 -7 5 -3 10 10 15 12 5 22 13
22 19 0 16 -13 12 -50 -15 -20 -15 -27 -25 -18 -25 8 0 29 -7 45 -15 23 -12
37 -13 58 -5 36 14 44 12 21 -5 -11 -8 -30 -15 -42 -15 -13 0 -26 -4 -29 -10
-4 -6 9 -10 31 -10 42 0 41 -8 -2 -16 -27 -5 -74 -46 -74 -65 0 -11 -67 -12
-73 -1 -3 4 8 8 24 9 16 1 36 9 45 17 13 13 7 15 -53 11 -41 -2 -70 1 -74 7
-8 12 -43 13 -110 3 -31 -5 -49 -3 -53 4 -4 6 -1 11 7 11 8 0 21 8 28 17 12
15 12 16 -6 9 -47 -19 -83 -28 -120 -31 -22 -1 -49 -6 -60 -10 -14 -6 -17 -5
-10 3 11 12 230 92 320 117 33 9 85 26 115 37 30 11 85 28 123 38 37 11 80 26
95 35 26 15 172 74 182 74 3 0 32 -18 65 -39z"/>
<path d="M5200 15350 c0 -5 6 -10 14 -10 7 0 21 -11 30 -25 20 -30 20 -35 0
-35 -20 0 -44 -24 -44 -44 0 -9 -4 -16 -9 -16 -5 0 11 -22 37 -49 26 -28 50
-45 53 -39 4 7 9 6 13 -1 14 -23 26 -10 26 29 0 41 7 49 28 28 8 -8 12 -8 12
-1 0 6 18 13 41 15 38 3 43 1 80 -43 23 -28 39 -57 39 -73 0 -16 5 -26 15 -26
8 0 15 -5 15 -11 0 -7 12 -10 30 -7 28 4 29 3 14 -13 -15 -17 -15 -19 0 -35
13 -13 28 -15 66 -11 36 4 54 2 64 -8 8 -8 20 -15 27 -15 9 0 8 -4 -1 -15 -10
-13 -8 -19 16 -38 16 -12 37 -32 48 -44 11 -13 28 -23 38 -23 10 0 22 -8 25
-17 4 -10 15 -27 25 -37 10 -11 18 -26 18 -33 0 -9 14 -13 40 -13 22 0 40 -4
40 -10 0 -5 5 -10 11 -10 6 0 17 -7 25 -15 9 -8 29 -15 45 -15 17 0 32 6 35
15 9 23 44 19 44 -5 0 -18 7 -20 78 -20 66 0 82 -3 97 -20 10 -11 29 -20 42
-20 12 0 23 -4 23 -10 0 -5 15 -10 33 -10 17 0 52 -7 76 -16 27 -9 47 -11 50
-6 7 11 52 16 118 13 35 -1 42 -5 45 -23 3 -20 11 -24 54 -28 70 -7 104 -34
104 -81 0 -28 5 -38 20 -42 11 -3 20 -12 20 -21 0 -9 8 -16 20 -16 11 0 20 -7
20 -15 0 -10 10 -15 34 -15 19 0 46 -4 60 -10 27 -10 35 -35 14 -43 -7 -2 0
-8 16 -12 20 -6 31 -4 34 3 2 8 40 12 118 12 74 0 114 4 114 11 0 5 5 7 10 4
6 -3 10 4 10 17 0 13 5 29 12 36 8 8 8 12 1 12 -13 0 -4 50 13 67 7 7 14 17
16 21 1 5 13 13 26 16 18 6 22 4 22 -13 0 -22 -18 -60 -35 -74 -6 -6 -6 -10 3
-14 6 -2 12 -18 12 -34 0 -16 5 -29 10 -29 15 0 12 57 -2 64 -10 5 -10 7 0 12
6 3 12 14 12 25 0 10 5 19 10 19 6 0 10 -30 10 -70 0 -39 4 -71 10 -71 32 -5
34 -3 32 55 -1 45 3 63 16 72 14 10 14 16 4 38 -7 15 -12 32 -11 39 0 7 4 3 9
-8 5 -13 8 5 8 53 0 64 -2 72 -19 72 -16 0 -19 7 -18 38 1 37 1 37 9 7 8 -36
16 -21 24 45 16 138 37 222 53 206 3 -3 14 -1 23 4 13 7 30 5 54 -5 37 -16 48
-35 21 -35 -23 0 -18 -26 5 -27 11 -1 19 4 17 10 -1 6 8 13 21 15 12 2 22 -1
22 -7 0 -6 9 -11 20 -11 17 0 20 7 20 40 0 39 1 40 35 40 26 0 42 -8 65 -31
34 -36 33 -34 19 -60 -9 -17 -6 -25 17 -46 25 -23 34 -25 85 -20 51 4 58 3 61
-14 3 -17 6 -17 28 -6 24 13 100 16 130 5 76 -26 81 -27 87 -12 3 8 3 18 -1
21 -3 4 -6 1 -6 -5 0 -7 -7 -12 -15 -12 -8 0 -15 4 -15 9 0 12 30 25 52 22 20
-2 40 31 32 53 -3 9 -1 16 5 16 6 0 11 7 11 16 0 9 15 32 33 51 90 94 89 93
104 81 8 -6 12 -17 9 -23 -8 -21 15 -36 31 -19 20 19 26 18 57 -11 15 -14 31
-25 35 -25 13 0 111 -95 111 -107 0 -6 23 -31 50 -56 28 -25 50 -50 50 -56 0
-6 9 -15 19 -21 11 -5 22 -18 26 -29 3 -10 14 -21 25 -24 14 -3 17 -11 13 -28
-3 -16 -2 -20 4 -11 10 13 43 6 43 -9 0 -5 10 -14 23 -19 14 -5 16 -9 6 -9 -9
-1 -16 -7 -16 -15 0 -8 6 -12 14 -9 13 5 18 -17 15 -59 -1 -10 3 -18 8 -18 6
0 10 14 10 30 0 17 5 30 11 30 8 0 10 -17 7 -52 -3 -29 -3 -47 -1 -40 3 6 13
12 24 12 14 0 19 -7 19 -29 0 -16 5 -31 10 -33 6 -2 12 -44 14 -93 3 -64 8
-89 16 -87 7 2 21 -5 31 -14 10 -9 23 -13 29 -9 13 8 60 -13 60 -26 0 -4 -15
-9 -32 -11 -20 -2 -1 -7 47 -12 44 -4 91 -11 105 -16 l25 -8 -25 -2 c-25 -2
-25 -2 4 -12 21 -8 30 -7 36 1 11 19 135 10 135 -9 0 -14 13 -30 25 -30 4 0 4
16 2 35 -5 40 9 45 56 22 16 -8 56 -12 101 -11 51 1 79 -2 88 -11 18 -19 16
-25 -9 -25 -17 0 -19 -3 -10 -12 7 -7 12 -24 12 -38 0 -22 8 -30 51 -48 42
-17 51 -25 46 -41 -8 -32 16 -44 43 -21 12 11 27 17 32 14 6 -4 5 -10 -3 -15
-7 -4 -10 -11 -7 -15 4 -3 20 3 36 15 37 26 57 26 82 1 11 -11 28 -20 38 -20
23 0 94 -49 87 -60 -3 -4 4 -6 15 -3 11 3 20 0 20 -6 0 -15 27 -14 33 2 3 6 5
1 4 -13 -3 -86 10 -110 39 -72 11 13 13 14 14 2 0 -8 12 -25 28 -39 17 -15 23
-25 15 -28 -7 -3 -13 -9 -13 -14 0 -6 4 -8 9 -5 16 10 71 -6 71 -20 0 -9 12
-14 35 -14 21 0 38 -6 41 -14 7 -19 25 -15 52 12 18 18 26 20 42 12 11 -6 20
-17 20 -25 0 -7 4 -15 8 -17 4 -1 21 -20 37 -41 27 -36 31 -38 76 -35 35 2 52
-2 68 -16 29 -26 29 1 1 34 -15 17 -17 27 -10 34 13 13 30 -8 30 -36 0 -10 5
-18 10 -18 6 0 10 -18 10 -40 0 -38 2 -40 30 -40 17 0 30 -4 30 -10 0 -5 26
-10 58 -10 31 -1 68 -7 81 -14 l24 -13 -32 -19 c-26 -15 -31 -24 -31 -56 0
-21 5 -38 10 -38 6 0 10 -37 10 -90 0 -83 1 -90 20 -90 11 0 20 5 20 10 0 6 5
10 10 10 6 0 10 -18 10 -40 0 -22 -4 -40 -10 -40 -5 0 -11 -37 -12 -82 -3 -79
-4 -81 -12 -38 -7 35 -11 40 -17 25 -7 -17 -8 -18 -8 -2 -1 9 -7 17 -15 17
-10 0 -16 14 -19 43 l-4 42 -1 -47 c-2 -37 -6 -48 -18 -48 -12 0 -15 -9 -14
-42 3 -58 2 -64 -16 -82 -20 -20 -34 -20 -34 -1 0 11 -11 15 -40 15 -36 0 -40
-3 -40 -24 0 -13 4 -26 9 -28 18 -6 71 -119 71 -151 0 -33 31 -187 45 -219 4
-10 13 -18 21 -18 8 0 14 -9 14 -20 0 -11 8 -24 18 -27 19 -7 34 -25 54 -63
33 -64 85 -89 131 -65 15 8 25 10 22 5 -8 -13 6 -12 25 0 8 5 11 10 5 10 -5 0
-2 5 8 11 22 13 22 29 0 29 -15 0 -16 2 -2 15 18 18 87 29 103 16 6 -5 21 -5
34 0 21 8 27 27 24 71 -1 10 7 24 18 30 22 14 27 44 8 51 -7 3 -3 6 10 6 14 1
22 -5 23 -16 1 -10 6 -1 11 20 8 29 18 41 39 49 16 5 29 16 29 24 0 8 10 14
25 14 14 0 25 5 25 10 0 6 6 10 14 10 8 0 17 14 21 30 4 17 11 30 16 30 5 0 9
15 9 33 0 21 -3 28 -9 19 -9 -16 -21 30 -21 83 0 19 -8 48 -17 65 -14 25 -15
34 -5 37 7 3 12 22 12 44 0 32 -3 39 -19 39 -16 0 -21 -8 -24 -42 l-4 -43 -1
43 c-2 38 -5 42 -27 42 -22 0 -25 4 -25 39 0 33 -4 40 -22 43 -17 2 -24 11
-26 31 -3 24 -7 27 -43 27 -37 0 -39 2 -39 30 0 28 -2 30 -21 19 -20 -10 -129
-4 -129 7 0 3 9 14 20 26 11 12 19 29 19 37 -1 13 -2 12 -6 -1 -5 -20 -33 -25
-33 -5 0 9 -2 9 -9 -1 -7 -12 -12 -12 -30 -1 -29 19 -27 26 15 44 30 12 33 17
22 29 -7 8 -14 10 -16 5 -11 -28 -52 19 -52 59 0 18 -25 42 -45 42 -33 0 -52
21 -69 75 -15 47 -21 55 -42 55 -15 0 -24 6 -24 15 0 8 -6 25 -12 36 -10 17
-10 23 0 26 7 3 12 22 12 44 0 25 5 39 13 39 7 0 17 10 22 23 6 13 21 23 38
25 26 3 31 11 28 40 -1 6 3 12 9 12 5 0 10 -4 10 -10 0 -5 6 -10 14 -10 9 0
12 7 9 21 -4 15 1 27 17 39 16 12 21 23 16 36 -6 16 -9 16 -16 4 -7 -11 -10
-5 -9 20 0 25 2 30 8 17 6 -18 8 -18 21 -2 12 15 12 18 -3 26 -9 6 -17 17 -17
26 0 13 3 13 15 3 13 -10 15 -9 15 9 0 12 -6 21 -15 21 -8 0 -15 6 -15 13 0 8
-4 7 -10 -3 -8 -12 -10 -11 -10 6 0 26 -26 49 -63 58 -15 4 -25 11 -22 16 3 6
2 10 -4 10 -6 0 -19 12 -28 27 -23 35 -27 170 -6 195 16 18 34 80 42 139 1 4
17 10 37 14 29 5 44 1 75 -20 22 -14 37 -30 35 -34 -3 -5 15 -9 39 -9 25 -1
53 -6 63 -11 12 -6 30 -5 55 2 30 10 37 17 37 37 1 28 21 60 39 60 7 0 27 16
45 36 25 27 37 34 49 28 24 -14 107 -5 107 11 0 7 17 24 38 36 20 13 39 26 42
29 3 4 13 9 23 13 9 3 17 13 17 22 0 8 9 15 20 15 11 0 20 5 20 10 0 6 9 10
20 10 11 0 20 7 20 15 0 9 9 15 21 15 11 0 19 3 17 8 -2 4 -9 18 -16 32 -15
28 0 86 18 75 5 -3 11 0 11 7 1 7 3 24 4 38 1 14 -2 28 -7 31 -6 4 -7 12 -4
18 4 6 12 9 17 6 5 -4 12 1 15 9 3 9 12 16 20 16 8 0 14 6 14 13 0 8 11 19 25
25 17 8 23 16 18 28 -4 12 -3 15 5 10 7 -4 12 -3 12 3 0 6 7 8 15 5 8 -4 15
-3 15 1 0 3 -7 13 -15 21 -8 9 -14 25 -14 37 2 22 2 22 6 -1 2 -12 9 -20 14
-17 5 4 9 1 9 -4 0 -22 20 -10 36 20 12 25 14 37 5 56 -6 13 -11 33 -11 43 0
11 -7 20 -15 20 -18 0 -20 31 -3 48 9 9 8 12 -4 12 -18 0 -28 20 -28 56 l0 24
-3430 0 c-2280 0 -3430 -3 -3430 -10z"/>
<path d="M11695 10753 c5 -10 15 -40 24 -66 9 -27 22 -51 28 -55 5 -4 13 -17
17 -30 4 -12 23 -37 42 -56 19 -18 34 -43 34 -54 0 -22 18 -29 73 -30 28 0 36
12 15 22 -7 4 2 4 20 1 57 -9 87 -12 70 -8 -12 3 -16 14 -14 46 1 27 -4 50
-16 66 -10 13 -18 30 -18 37 0 8 -4 14 -9 14 -5 0 -13 15 -17 33 -8 40 -52 84
-60 62 -4 -8 -15 -15 -25 -15 -23 0 -25 -16 -3 -24 21 -8 8 -26 -19 -26 -15 0
-18 3 -9 9 10 6 10 10 -2 21 -9 7 -14 16 -11 20 10 16 -16 22 -32 8 -13 -10
-17 -10 -20 0 -3 6 -10 12 -18 12 -7 0 -18 7 -25 15 -17 21 -34 19 -25 -2z"/>
<path d="M10748 10084 c-3 -3 -20 -6 -37 -8 -24 -2 -37 -11 -52 -35 -21 -34
-18 -54 6 -44 11 4 15 -2 15 -21 0 -31 -10 -33 -30 -6 -19 26 -36 25 -51 -2
-17 -33 -26 -36 -72 -27 -23 4 -44 3 -47 -2 -3 -4 -18 -2 -34 6 -15 8 -32 14
-39 12 -6 -1 -21 19 -34 46 -12 26 -24 47 -26 47 -2 0 -17 -12 -33 -27 -23
-21 -25 -26 -9 -21 16 4 20 0 21 -19 1 -12 -2 -20 -7 -17 -5 3 -20 -7 -33 -21
-21 -23 -29 -25 -58 -17 -28 7 -34 14 -39 44 -6 36 -28 68 -48 68 -6 0 -11 9
-11 20 0 11 -4 20 -10 20 -5 0 -10 -9 -10 -19 0 -16 -8 -20 -37 -23 -41 -3
-43 -9 -28 -80 6 -31 11 -38 32 -38 31 0 78 -43 70 -64 -5 -13 1 -16 27 -16
18 0 39 -7 46 -15 7 -8 19 -15 27 -15 11 0 13 -5 8 -17 -5 -10 -10 -32 -13
-50 -3 -23 -10 -33 -28 -37 -13 -4 -24 -11 -24 -16 0 -6 -7 -10 -15 -10 -8 0
-15 5 -15 10 0 6 -5 10 -11 10 -6 0 -23 9 -37 21 -23 18 -27 18 -32 4 -5 -15
-8 -14 -30 3 -14 10 -32 22 -40 25 -12 4 -11 6 3 6 33 2 11 26 -26 29 -24 2
-43 11 -56 28 -11 14 -29 24 -45 24 -14 0 -26 5 -26 10 0 16 -84 12 -106 -5
-11 -8 -14 -15 -6 -15 20 0 13 -30 -7 -30 -11 0 -23 -5 -26 -10 -4 -6 -16 -10
-27 -8 -33 5 -32 -18 2 -32 16 -7 30 -16 30 -21 0 -4 10 -11 22 -15 20 -6 20
-8 5 -19 -38 -27 -7 -33 56 -11 34 13 37 12 32 -3 -4 -14 1 -16 30 -13 21 3
35 10 35 18 0 8 5 14 10 14 6 0 10 -7 10 -15 0 -8 5 -15 10 -15 6 0 15 -11 20
-25 5 -14 17 -25 25 -25 9 0 13 -4 10 -10 -3 -5 -2 -10 4 -10 5 0 13 -9 16
-21 13 -39 50 -88 68 -89 10 0 27 5 38 11 27 14 69 -13 69 -44 0 -23 17 -47
32 -47 4 0 8 7 8 15 0 25 54 18 84 -10 18 -17 38 -25 59 -24 l32 1 -27 11
c-39 15 -35 30 7 25 26 -3 34 -1 31 8 -7 18 53 74 78 74 17 0 18 2 6 10 -12 7
-6 13 27 27 27 11 43 24 43 36 0 9 5 17 10 17 6 0 8 10 5 23 -4 14 1 29 13 42
10 11 21 28 25 38 7 18 27 24 27 7 0 -5 7 -10 15 -10 8 0 15 -4 15 -10 0 -5
11 -10 25 -10 14 0 25 -4 25 -9 0 -15 41 -24 52 -13 7 7 5 21 -7 44 -9 18 -19
58 -22 88 -5 52 -3 57 26 84 24 23 31 26 31 13 0 -20 4 -21 47 -5 18 7 33 18
33 25 0 7 7 13 15 13 8 0 15 7 15 15 0 9 -7 18 -15 21 -8 4 -15 13 -15 22 0
32 -114 124 -132 106z"/>
<path d="M11218 9587 c-15 -18 -28 -39 -28 -48 0 -9 -7 -23 -16 -30 -14 -11
-19 -9 -35 11 -10 14 -19 27 -19 30 0 3 -17 4 -39 2 -21 -2 -42 1 -45 7 -4 6
-20 11 -37 11 -20 0 -29 5 -29 16 0 14 -2 14 -16 -1 -17 -16 -12 -51 6 -40 5
3 10 -1 10 -11 0 -12 6 -15 23 -12 20 4 23 1 19 -19 -5 -28 15 -83 37 -101 14
-11 12 -12 -14 -6 -16 4 -38 16 -48 28 -15 17 -20 18 -27 6 -5 -8 -5 -21 0
-30 7 -14 28 -17 121 -17 81 -1 114 -5 121 -15 7 -10 11 -9 19 5 6 9 14 15 19
12 4 -3 19 7 32 22 13 16 36 35 51 43 22 11 27 19 22 35 -3 11 -9 40 -12 65
-6 48 -18 63 -45 54 -9 -2 -19 0 -23 6 -10 16 -18 12 -47 -23z"/>
<path d="M12539 9599 c-8 -5 -10 -9 -5 -9 11 0 -54 -60 -65 -60 -5 0 -9 5 -9
10 0 6 4 10 9 10 5 0 11 7 15 15 4 11 -4 8 -24 -7 -31 -22 -38 -38 -19 -38 5
0 7 -4 4 -10 -3 -5 -11 -10 -16 -10 -6 0 -7 5 -4 10 3 6 0 10 -8 10 -11 0 -16
-14 -19 -47 -4 -58 24 -112 60 -113 12 0 22 3 22 8 0 4 18 7 40 7 25 0 40 -5
40 -12 0 -7 5 -13 11 -13 5 0 7 4 4 10 -3 5 -1 19 5 30 6 11 7 20 2 20 -4 0
-5 28 -1 63 3 34 2 70 -2 79 -5 9 -6 23 -3 31 6 18 -18 28 -37 16z"/>
<path d="M9597 7782 c-5 -7 -13 -9 -19 -6 -14 9 -28 -15 -28 -48 0 -15 -6 -33
-14 -41 -12 -12 -9 -14 26 -15 23 -1 48 4 56 10 12 10 19 7 38 -17 13 -16 24
-27 26 -25 2 3 8 14 14 25 7 11 19 19 28 17 9 -2 16 4 16 13 0 8 5 15 11 15 5
0 7 5 4 10 -3 6 -1 10 5 10 6 0 8 5 5 10 -3 6 3 10 14 10 12 0 21 5 21 10 0
15 -27 12 -44 -6 -10 -10 -16 -11 -16 -3 0 8 -4 8 -15 -1 -13 -10 -19 -10 -33
3 -14 13 -21 14 -30 5 -9 -9 -12 -9 -12 1 0 8 -7 10 -19 6 -14 -4 -20 -1 -23
12 -3 13 -6 15 -11 5z"/>
<path d="M10800 7733 c0 -6 -8 -9 -19 -6 -10 3 -33 -3 -50 -11 -32 -17 -37
-34 -25 -93 5 -26 9 -29 43 -27 21 1 49 7 62 14 20 11 25 10 37 -9 8 -11 21
-21 29 -21 21 0 6 41 -23 63 -13 10 -24 26 -24 35 -1 20 -29 73 -30 55z"/>
<path d="M13303 7598 c-12 -13 -26 -41 -33 -63 -9 -29 -22 -47 -51 -64 -47
-30 -44 -36 11 -20 35 11 43 10 51 -2 6 -10 9 -10 9 -1 0 6 6 12 13 12 17 0
47 32 47 50 0 8 8 23 19 34 10 12 21 33 25 49 5 22 3 27 -13 27 -11 0 -22 -6
-24 -12 -4 -10 -6 -10 -6 0 -1 19 -26 14 -48 -10z"/>
<path d="M13163 6997 c-23 -18 -61 -45 -84 -62 -23 -16 -124 -94 -223 -173
-100 -78 -200 -157 -224 -175 -201 -151 -311 -239 -311 -250 -1 -8 31 15 139
98 25 19 65 50 89 68 24 17 69 53 100 78 31 25 124 97 206 159 229 174 375
293 353 289 -2 0 -22 -14 -45 -32z"/>
<path d="M14170 6945 c-47 -30 -94 -59 -105 -64 -11 -5 -45 -26 -75 -45 -30
-20 -99 -64 -153 -99 -181 -115 -487 -317 -487 -322 0 -7 306 181 470 290 85
56 217 142 293 190 115 73 161 107 145 105 -2 -1 -41 -25 -88 -55z"/>
<path d="M5660 6337 c10 -11 553 -137 930 -217 472 -99 439 -92 420 -81 -8 5
-60 18 -115 31 -219 48 -374 81 -445 94 -86 16 -158 32 -500 112 -287 66 -297
68 -290 61z"/>
<path d="M3715 4890 c86 -11 957 -12 951 -1 -3 4 -232 8 -508 8 -277 0 -476
-3 -443 -7z"/>
<path d="M3830 923 c-21 -8 -30 -25 -24 -45 6 -19 -10 -25 -21 -8 -9 14 -35 0
-35 -20 0 -20 -27 -35 -32 -18 -2 6 -11 4 -21 -7 -17 -16 -19 -16 -37 0 -17
16 -21 16 -35 2 -14 -14 -13 -16 7 -20 20 -3 18 -5 -10 -12 -38 -9 -53 -25
-23 -25 11 0 24 -7 29 -16 6 -11 24 -17 50 -18 46 -1 66 17 78 68 4 21 8 25
15 15 6 -11 9 -10 15 4 3 9 14 17 23 17 18 0 41 18 41 32 0 4 -7 5 -15 2 -10
-4 -15 0 -15 15 0 12 6 21 15 21 8 0 15 5 15 10 0 6 -1 10 -2 9 -2 0 -10 -3
-18 -6z"/>
<path d="M3879 544 c-11 -15 -27 -20 -68 -22 -52 -1 -82 -14 -68 -28 6 -7 67
-8 97 -2 8 2 16 -1 17 -7 1 -5 -5 -9 -13 -7 -8 2 -14 -2 -14 -8 0 -5 0 -13 0
-17 0 -5 8 -8 19 -9 34 -2 51 -13 45 -29 -7 -18 7 -20 24 -3 9 9 12 8 12 -5 0
-9 5 -17 10 -17 6 0 10 8 10 19 0 21 47 36 66 20 8 -6 11 0 12 21 0 21 -4 30
-15 30 -13 0 -13 3 -3 15 7 9 10 18 7 21 -10 10 -27 -6 -27 -25 0 -12 -9 -20
-27 -24 -29 -5 -45 7 -36 30 4 9 0 11 -10 7 -24 -9 -41 5 -27 22 7 7 10 19 8
26 -3 8 -9 5 -19 -8z"/>
</g>
</svg>
