<?xml version="1.0" standalone="no"?>
<!DOCTYPE svg PUBLIC "-//W3C//DTD SVG 20010904//EN"
 "http://www.w3.org/TR/2001/REC-SVG-20010904/DTD/svg10.dtd">
<svg version="1.0" xmlns="http://www.w3.org/2000/svg"
 width="1536.000000pt" height="2048.000000pt" viewBox="0 0 1536.000000 2048.000000"
 preserveAspectRatio="xMidYMid meet">
<metadata>
Created by potrace 1.16, written by Peter Selinger 2001-2019
</metadata>
<g transform="translate(0.000000,2048.000000) scale(0.100000,-0.100000)"
fill="#000000" stroke="none">
<path d="M0 10240 l0 -10240 7680 0 7680 0 0 10240 0 10240 -7680 0 -7680 0 0
-10240z m5929 5261 c7 -5 10 -14 7 -20 -4 -6 0 -14 8 -17 9 -3 13 -10 10 -16
-3 -5 10 -24 29 -41 21 -20 39 -49 47 -76 7 -29 15 -40 20 -32 6 10 11 8 21
-7 8 -11 25 -19 39 -18 20 1 24 -3 22 -21 -2 -14 4 -26 18 -33 11 -6 18 -15
16 -19 -9 -13 -56 0 -56 15 0 8 -5 14 -11 14 -6 0 -9 7 -5 15 3 8 1 15 -4 15
-6 0 -10 -11 -10 -24 0 -29 -27 -41 -49 -24 -9 7 -26 19 -38 26 -19 10 -23 10
-23 -3 0 -8 -4 -15 -10 -15 -5 0 -10 6 -10 14 0 7 -7 19 -15 26 -8 7 -13 16
-10 20 3 4 -2 13 -10 20 -8 7 -15 22 -15 34 0 12 -6 30 -13 40 -17 23 -10 77
8 69 15 -5 15 32 1 55 -8 14 12 16 33 3z m2041 -100 c0 -47 -27 -100 -55 -107
-14 -3 -32 -1 -39 5 -24 20 -46 77 -46 119 0 46 20 72 56 72 13 0 24 5 24 12
0 6 14 -8 30 -30 17 -24 30 -54 30 -71z m-3416 -464 c-1 -55 -15 -99 -30 -93
-10 4 -14 -3 -14 -21 0 -21 2 -24 15 -13 10 9 15 9 15 1 0 -22 15 -9 33 28 9
20 17 42 17 47 0 5 29 9 65 9 50 1 64 -2 61 -12 -6 -15 -4 -15 18 -7 9 3 16
12 16 19 0 8 4 16 8 19 5 3 8 -5 8 -17 -1 -13 5 -22 14 -22 9 0 14 7 12 18 -2
10 3 17 14 17 10 0 14 -5 10 -15 -9 -25 25 -18 56 12 27 26 28 26 48 8 26 -24
26 -38 -1 -30 l-21 7 21 -21 c12 -12 29 -21 39 -22 14 0 14 -2 -3 -8 -11 -5
-25 -5 -31 0 -7 6 -18 1 -29 -11 -16 -17 -16 -20 -2 -20 9 0 18 4 21 8 6 10
86 3 86 -8 0 -4 11 -6 25 -5 14 2 23 -1 19 -6 -3 -5 -10 -7 -15 -4 -5 4 -9 -1
-9 -9 0 -11 9 -16 26 -16 21 0 24 -3 15 -14 -8 -10 -6 -19 10 -40 17 -22 24
-24 41 -15 22 12 40 3 19 -11 -8 -4 -12 -17 -8 -29 3 -11 -1 -25 -9 -32 -19
-15 -18 -43 0 -36 8 3 20 -1 26 -9 9 -10 9 -14 1 -14 -6 0 -11 6 -11 13 0 9
-2 9 -9 -1 -4 -7 -12 -12 -17 -11 -24 4 -45 -2 -39 -12 4 -6 13 -8 21 -5 19 7
91 -19 76 -28 -7 -4 -16 -4 -22 -1 -5 3 -10 0 -10 -7 -1 -8 -6 -6 -15 6 -8 11
-18 17 -22 13 -3 -4 2 -16 12 -27 13 -15 22 -17 36 -10 21 12 39 -7 20 -20
-18 -10 -9 -43 13 -55 28 -14 32 -35 7 -28 -12 3 -21 1 -21 -6 0 -6 5 -11 10
-11 6 0 10 -10 10 -23 0 -19 -5 -23 -34 -24 -46 -1 -60 -11 -45 -29 9 -11 7
-15 -7 -21 -11 -4 -27 -15 -37 -24 -10 -9 -28 -19 -40 -22 -83 -18 -194 -51
-207 -62 -8 -7 -33 -15 -55 -18 -22 -3 -71 -11 -110 -17 -38 -6 -84 -12 -100
-14 -17 -1 -43 -11 -58 -21 -25 -16 -29 -16 -52 -1 -13 9 -30 16 -37 16 -9 0
-9 -3 2 -10 8 -5 13 -10 10 -10 -3 -1 -26 -3 -51 -5 -25 -2 -59 -10 -75 -16
-16 -7 -33 -13 -39 -13 -5 -1 -16 -7 -23 -13 -7 -7 -25 -13 -39 -13 -34 0
-102 -32 -103 -47 0 -7 -7 -13 -16 -13 -10 0 -14 -6 -10 -15 3 -8 2 -14 -2
-13 -11 2 -46 -14 -53 -25 -4 -5 -10 0 -14 12 -7 23 -25 29 -25 7 0 -7 -10
-16 -21 -19 -14 -4 -20 -11 -16 -21 4 -9 3 -15 -1 -15 -4 1 -15 1 -26 0 -15
-1 -16 -4 -7 -15 8 -9 8 -16 2 -20 -5 -4 -12 -2 -16 4 -10 16 -25 12 -19 -5 4
-9 0 -15 -10 -15 -9 0 -16 -7 -16 -15 0 -9 6 -12 15 -9 8 4 15 1 15 -5 0 -6
-9 -11 -20 -11 -11 0 -20 -5 -20 -11 0 -16 -47 -69 -54 -62 -3 4 -6 -1 -6 -10
0 -10 -8 -17 -19 -17 -10 0 -24 -6 -30 -14 -10 -11 -49 -14 -194 -14 -204 0
-379 -9 -387 -20 -3 -4 -23 -8 -45 -10 -21 -1 -41 -6 -45 -11 -5 -8 -44 -18
-96 -25 -17 -2 -40 -7 -52 -10 -12 -4 -26 -1 -36 9 -14 14 -17 14 -36 -5 -22
-22 -45 -26 -55 -10 -4 6 -11 8 -16 4 -6 -3 -21 4 -35 17 -13 12 -24 19 -24
14 0 -4 -9 0 -21 11 -16 15 -22 16 -29 5 -6 -11 -10 -9 -19 8 -7 11 -20 21
-29 21 -11 0 -22 13 -29 31 -9 22 -17 30 -28 26 -9 -4 -15 -1 -15 10 0 12 -3
13 -15 3 -9 -8 -28 -9 -56 -5 -29 5 -40 4 -35 -4 4 -6 1 -11 -8 -11 -8 0 -18
9 -21 20 -7 22 -25 27 -25 8 0 -7 -9 -2 -20 12 l-20 25 -1 -25 c-2 -22 -2 -22
-6 -4 -3 15 -12 22 -28 22 -14 0 -22 -5 -19 -10 4 -6 -9 -8 -32 -6 -29 2 -40
8 -44 23 -7 23 -58 32 -88 16 -16 -8 -26 -6 -48 11 l-27 22 5 -22 c7 -24 -1
-29 -18 -12 -7 7 -19 8 -37 1 -19 -8 -27 -7 -27 1 0 7 -16 9 -47 5 -27 -3 -56
-1 -65 4 -13 7 -18 6 -18 -3 0 -10 -2 -10 -9 1 -6 10 -13 11 -29 2 -29 -15
-45 -14 -38 4 4 10 -1 15 -14 15 -22 0 -27 16 -7 23 15 5 9 13 -20 21 -19 6
-22 4 -16 -11 6 -16 5 -16 -11 -4 -9 8 -15 20 -12 27 3 7 1 16 -5 19 -5 4 -6
11 -3 17 4 6 -1 8 -11 6 -24 -4 -29 -22 -12 -39 18 -19 29 -49 17 -49 -6 0
-10 7 -10 15 0 8 -4 15 -9 15 -5 0 -12 9 -16 19 -7 23 14 61 33 61 7 0 10 5 7
10 -3 6 1 10 9 10 14 0 20 -12 17 -32 0 -5 3 -8 9 -8 5 0 10 8 10 18 0 10 16
31 36 47 19 15 32 31 27 34 -4 3 -9 17 -11 31 -1 14 -7 27 -12 28 -6 2 -10 18
-10 35 l0 32 15 -29 c8 -15 15 -35 15 -43 0 -8 5 -11 10 -8 6 3 10 15 10 26 0
10 -4 19 -10 19 -5 0 -10 4 -10 9 0 6 8 9 18 9 9 0 29 2 44 5 18 4 28 1 32 -9
3 -8 13 -14 21 -14 9 0 14 4 10 10 -12 19 7 58 31 64 13 4 24 14 24 22 0 13
-3 14 -14 5 -7 -6 -20 -9 -27 -6 -8 3 -21 -6 -30 -21 -11 -17 -19 -22 -23 -15
-4 6 11 29 36 53 24 23 42 48 40 56 -2 8 1 11 7 7 11 -6 41 16 41 31 0 12 42
44 51 38 5 -3 9 -13 9 -22 1 -16 2 -16 14 1 15 20 36 23 36 5 0 -10 3 -9 9 1
15 24 1 52 -23 46 -18 -5 -18 -4 -4 5 17 11 48 4 48 -11 0 -5 5 -9 10 -9 6 0
10 7 10 16 0 14 3 14 15 4 9 -7 14 -19 11 -27 -3 -7 -1 -13 4 -13 12 0 24 46
15 59 -3 6 1 11 9 11 9 0 16 7 16 15 0 9 6 12 16 8 9 -3 20 0 24 8 5 7 12 10
17 6 4 -5 2 -11 -5 -16 -7 -4 -11 -19 -10 -34 2 -23 7 -27 33 -27 17 0 35 4
41 9 5 5 24 12 42 16 28 6 34 4 38 -12 7 -26 60 -26 56 0 -2 9 2 17 8 17 5 0
10 -11 10 -24 0 -14 5 -28 10 -31 6 -3 10 3 10 14 0 20 4 23 33 25 6 1 15 10
19 21 5 18 6 18 7 -3 1 -19 5 -22 21 -17 11 4 20 2 20 -4 0 -23 31 -9 52 24
24 36 38 44 38 22 0 -14 35 -47 50 -47 6 0 10 5 10 10 0 6 -7 10 -15 10 -8 0
-15 7 -15 15 0 12 4 13 19 5 27 -14 40 -12 20 3 -9 7 -16 20 -16 29 0 18 23
32 37 23 4 -3 11 2 14 11 3 8 10 13 15 9 6 -3 8 -12 5 -20 -4 -10 0 -12 14 -8
11 3 23 16 27 30 4 16 11 23 20 19 9 -3 15 1 15 9 0 8 5 15 10 15 6 0 10 -7
10 -15 0 -8 5 -15 10 -15 6 0 11 -8 11 -17 1 -16 2 -16 6 0 3 11 10 16 20 13
8 -3 22 -6 31 -7 11 0 12 -2 5 -6 -7 -2 -13 -9 -13 -14 0 -6 8 -5 20 1 11 6
20 17 20 25 0 7 9 17 20 20 11 4 18 11 14 16 -3 5 -10 7 -15 4 -5 -4 -9 -1 -9
5 0 7 7 10 15 7 8 -4 17 -2 20 2 3 5 16 4 30 -2 21 -10 22 -13 7 -19 -10 -4
-1 -7 23 -7 31 0 36 2 20 9 -11 5 -14 9 -7 9 6 1 12 12 12 25 0 13 3 26 8 29
4 2 2 2 -5 1 -6 -2 -14 3 -17 11 -3 9 0 12 10 8 8 -3 14 -2 13 3 -5 28 2 46
16 40 10 -3 15 1 15 12 0 23 19 42 43 42 16 0 17 -3 7 -15 -7 -8 -17 -12 -23
-8 -6 4 -8 0 -4 -10 3 -9 1 -18 -6 -21 -9 -3 -8 -7 2 -14 7 -5 11 -15 7 -21
-5 -7 -1 -8 10 -4 11 4 15 3 10 -5 -3 -6 -2 -13 3 -16 5 -3 12 9 15 28 8 43
27 59 60 50 21 -5 24 -9 15 -20 -9 -11 -8 -14 6 -14 9 0 19 9 22 20 3 11 10
20 15 20 5 0 7 4 3 9 -3 5 -1 12 4 16 6 3 8 12 5 19 -3 8 -1 17 5 21 6 3 11 0
11 -8 0 -16 27 -31 49 -28 7 1 11 -4 9 -11 -3 -7 -11 -13 -19 -13 -20 0 -17
-28 4 -31 9 -1 17 4 17 12 0 8 7 14 16 14 12 0 15 6 10 25 -4 14 -2 25 4 25 5
0 10 -7 10 -15 0 -9 7 -18 15 -22 13 -5 13 -8 -5 -20 -26 -18 -18 -32 18 -29
16 2 28 10 30 21 3 11 0 15 -7 11 -7 -4 -11 1 -11 13 0 12 5 21 10 21 6 0 10
-6 10 -12 0 -10 3 -10 9 0 9 15 47 12 44 -4 -1 -5 18 -11 42 -12 37 -1 45 2
51 21 7 21 8 21 19 -7 8 -19 15 -25 19 -17 6 9 11 9 21 1 8 -7 15 -7 19 -1 4
5 -3 13 -15 16 -20 7 -20 7 -2 20 29 20 71 8 71 -21 0 -17 -6 -24 -19 -24 -12
0 -16 -5 -13 -15 4 -8 1 -15 -7 -15 -7 0 -9 -3 -6 -7 4 -3 16 2 26 11 11 10
24 16 28 13 5 -3 8 12 6 33 -2 37 -1 39 21 30 13 -5 29 -4 37 1 8 5 21 9 29 9
13 0 13 -1 0 -10 -13 -9 -13 -11 0 -21 13 -9 12 -10 -2 -5 -17 5 -25 -13 -12
-27 13 -13 52 24 47 43 -4 14 2 22 22 30 44 17 48 13 41 -32 -6 -39 -6 -41 7
-23 8 10 13 25 10 32 -3 7 0 20 7 28 6 8 9 19 5 25 -3 5 -1 10 4 10 6 0 11 -6
11 -14 0 -11 5 -12 25 -3 27 13 33 32 13 40 -8 4 -7 6 4 6 9 1 18 -5 20 -11 3
-9 11 -8 31 5 14 9 33 14 41 11 10 -4 18 1 22 11 5 13 14 15 39 11 22 -4 35
-2 37 5 2 7 10 9 16 5 7 -4 10 -16 7 -27 -6 -17 -3 -17 27 -7 43 14 43 15 28
33 -7 8 -8 15 -2 15 5 0 12 -7 15 -14 5 -11 13 -13 36 -6 22 6 33 5 42 -6 8
-10 8 -14 0 -14 -6 0 -11 -4 -11 -10 0 -19 17 -10 28 15 6 14 9 33 5 42 -5 15
-3 16 8 6 7 -7 16 -13 20 -13 12 0 18 40 7 47 -7 4 -4 11 7 20 11 7 19 13 19
13 1 0 1 -15 0 -33z m575 -987 c9 0 23 6 29 12 10 10 15 10 21 -1 5 -7 14 -10
20 -7 6 4 11 0 11 -8 0 -9 4 -16 10 -16 5 0 7 7 4 15 -4 8 -1 15 5 15 6 0 11
-5 11 -10 0 -6 11 -8 26 -4 21 5 25 4 19 -6 -6 -10 -1 -12 19 -8 14 3 26 2 26
-2 0 -4 25 -8 56 -9 69 -2 112 -24 127 -64 5 -13 13 -16 27 -12 16 5 20 2 21
-17 0 -13 3 -17 6 -10 2 6 11 12 19 12 8 0 11 -6 8 -15 -4 -10 0 -15 16 -15
11 0 18 -4 15 -10 -3 -5 -1 -10 5 -10 6 0 9 -4 6 -9 -3 -4 1 -17 9 -27 8 -11
14 -14 15 -6 0 6 4 12 9 12 9 0 22 -50 21 -87 0 -13 5 -23 10 -23 6 0 10 -9
10 -20 0 -15 7 -20 29 -20 16 0 34 -7 41 -15 7 -8 9 -15 5 -15 -4 0 -1 -8 6
-17 12 -15 12 -16 -8 -11 -21 6 -22 4 -18 -40 6 -61 0 -79 -36 -97 -29 -15
-31 -14 -33 14 -1 8 -7 16 -15 19 -8 3 -11 0 -7 -7 4 -7 1 -9 -8 -5 -8 3 -13
11 -10 18 5 14 -83 79 -97 71 -5 -4 -9 -1 -9 5 0 7 -8 9 -20 5 -11 -3 -20 -2
-20 3 0 5 -9 12 -20 15 -13 3 -20 0 -20 -9 0 -22 -20 -16 -30 9 -5 14 -9 16
-9 6 -1 -11 -11 -16 -32 -16 -17 0 -35 -6 -41 -14 -7 -10 -8 -8 -3 9 5 16 2
22 -10 22 -11 0 -15 -5 -11 -15 3 -9 -3 -24 -14 -35 -11 -11 -20 -24 -20 -30
0 -5 -4 -10 -10 -10 -15 0 -12 30 4 36 16 6 30 34 17 34 -4 0 -18 -9 -31 -20
-25 -22 -40 -26 -40 -10 0 6 5 10 12 10 9 0 9 3 0 12 -10 10 -15 10 -21 -1 -9
-13 -101 -25 -100 -13 3 21 -3 32 -16 32 -12 0 -13 -4 -6 -19 8 -15 6 -22 -11
-33 -19 -13 -14 -14 53 -12 53 2 69 0 57 -7 -10 -5 -18 -19 -18 -29 0 -12 7
-20 18 -20 14 0 15 -2 2 -10 -11 -7 -18 -5 -26 5 -16 21 -23 19 -17 -5 3 -11
1 -20 -5 -20 -6 0 -12 8 -14 17 -3 15 -4 15 -20 0 -12 -12 -19 -14 -24 -6 -4
8 -24 9 -58 5 -28 -4 -61 -7 -73 -8 -13 0 -23 -4 -23 -9 0 -14 -28 -11 -33 4
-4 10 -7 10 -18 0 -18 -18 -58 -16 -65 2 -6 14 -8 13 -20 -2 -13 -17 -13 -17
-14 2 0 11 7 31 16 43 16 23 15 24 -23 91 -2 2 -10 -2 -19 -10 -10 -8 -26 -13
-37 -11 -12 2 -17 -1 -13 -7 4 -6 18 -11 32 -11 24 0 34 -15 13 -22 -5 -2 -11
-11 -13 -20 -1 -10 -5 -21 -9 -24 -11 -11 -8 -34 4 -34 6 0 13 9 16 20 5 20
23 28 23 11 0 -25 -14 -41 -36 -41 -14 0 -27 -7 -30 -15 -4 -9 -11 -14 -18
-13 -9 1 -49 -14 -106 -42 -8 -4 -20 -17 -26 -28 -6 -12 -14 -19 -18 -14 -5 4
-6 -2 -4 -13 2 -11 10 -20 18 -20 22 0 59 -36 53 -51 -3 -8 0 -14 6 -14 6 0
11 -8 11 -17 0 -10 9 -29 20 -43 11 -14 20 -31 20 -37 0 -7 4 -13 8 -13 4 0 8
-15 7 -32 0 -27 -4 -32 -19 -30 -11 2 -15 -1 -11 -7 3 -6 -1 -14 -9 -17 -9 -3
-13 -10 -10 -15 3 -5 -2 -9 -10 -9 -19 0 -30 17 -14 23 7 2 11 7 8 10 -3 3
-19 -3 -35 -14 -22 -15 -24 -19 -9 -14 13 3 24 1 27 -7 3 -8 21 -13 46 -13 22
0 41 -3 41 -7 0 -13 58 -9 63 5 3 9 7 9 20 -1 13 -12 19 -10 33 7 17 19 40 20
29 0 -4 -5 -1 -9 5 -9 6 0 13 7 16 15 5 12 10 12 27 3 16 -8 22 -8 25 1 2 6
13 16 24 22 16 8 22 7 34 -8 12 -17 13 -17 14 0 0 11 8 17 23 17 13 0 34 9 47
20 26 22 40 26 40 9 0 -7 9 -9 22 -6 12 4 28 1 35 -5 8 -7 13 -7 13 0 0 15 32
24 40 12 11 -18 77 19 83 46 2 13 0 22 -6 21 -5 -1 -14 13 -19 31 -5 17 -13
32 -18 32 -15 0 -12 60 4 75 17 18 56 8 56 -14 0 -9 5 -22 12 -29 9 -9 9 -12
-3 -12 -9 0 -21 -11 -27 -25 -9 -20 -9 -25 2 -25 7 0 19 -7 26 -15 17 -20 50
-19 66 3 11 14 13 14 14 2 1 -40 98 -73 161 -56 17 5 30 3 34 -4 6 -9 10 -9
17 1 8 12 10 12 15 1 4 -10 12 -7 32 12 22 21 46 27 71 15 3 -1 12 -2 20 -3 8
-1 15 -8 15 -16 0 -8 -6 -14 -12 -13 -20 4 -15 -13 11 -44 17 -21 22 -33 15
-45 -11 -20 -1 -48 17 -48 8 0 14 -5 14 -12 0 -6 8 -20 18 -31 9 -11 12 -17 5
-14 -6 4 -14 3 -18 -3 -3 -6 1 -13 9 -16 18 -7 22 -34 5 -34 -6 0 -8 -7 -5
-15 3 -8 9 -22 13 -32 4 -11 3 -14 -5 -9 -8 5 -14 -7 -18 -33 -4 -22 -15 -48
-25 -57 -22 -19 -25 -50 -6 -57 10 -4 10 -7 0 -18 -9 -8 -13 -9 -13 -2 0 6 -7
19 -15 27 -13 13 -20 13 -35 3 -23 -13 -26 -33 -7 -40 6 -2 9 -8 5 -12 -4 -5
-19 4 -32 18 -25 27 -46 35 -46 17 0 -5 21 -21 46 -36 28 -17 43 -32 40 -40
-3 -8 4 -18 14 -24 15 -8 20 -21 19 -48 0 -25 -3 -31 -7 -19 -7 16 -8 16 -23
-1 -10 -11 -15 -32 -13 -50 2 -18 -1 -32 -6 -32 -6 0 -10 -9 -10 -20 0 -11 -7
-23 -15 -26 -8 -4 -15 -12 -15 -20 0 -8 -5 -14 -11 -14 -12 0 -47 -41 -66 -78
-15 -29 -17 -59 -4 -67 11 -6 -42 -65 -58 -65 -5 0 -11 -4 -13 -8 -1 -5 -20
-12 -41 -15 -31 -5 -38 -3 -33 8 3 9 -1 15 -9 15 -8 0 -15 -7 -15 -15 0 -10
-7 -15 -17 -13 -13 2 -17 -3 -15 -16 3 -14 -1 -18 -16 -14 -15 4 -18 1 -15
-12 3 -13 -3 -19 -25 -23 -16 -3 -38 -4 -48 -2 -58 11 -84 14 -84 7 0 -15 86
-30 150 -25 59 4 63 3 46 -11 -10 -8 -23 -17 -28 -18 -5 -2 -6 -12 -2 -22 6
-15 14 -17 46 -12 21 4 47 10 56 15 35 19 88 40 117 47 17 4 47 15 68 26 21
10 41 17 45 14 5 -3 23 8 42 24 19 16 37 27 41 24 4 -2 11 1 16 8 10 17 69 58
82 58 6 0 17 10 26 23 8 13 40 49 70 81 30 32 55 62 55 67 0 5 12 15 28 23 15
8 23 15 18 16 -4 0 3 15 18 34 14 19 26 39 26 45 0 6 9 15 20 21 11 6 20 21
21 33 0 12 3 16 6 10 2 -7 11 -13 19 -13 17 0 17 5 2 30 -7 10 -9 23 -5 27 5
4 12 1 17 -7 5 -8 17 -15 26 -15 10 0 19 -6 22 -13 2 -7 -2 -11 -10 -10 -7 2
-12 -5 -12 -15 1 -10 -6 -23 -16 -29 -18 -11 -17 -13 3 -25 12 -7 30 -16 40
-19 20 -8 24 -63 5 -82 -10 -10 -10 -15 2 -23 13 -8 12 -11 -4 -24 -20 -15
-20 -15 0 -30 10 -8 26 -15 34 -15 13 0 13 -1 0 -10 -13 -8 -12 -10 3 -10 23
0 22 -16 -3 -23 -11 -3 -20 -10 -20 -16 0 -6 7 -8 16 -4 9 3 20 0 25 -8 14
-23 10 -31 -13 -24 -16 4 -19 4 -9 -3 7 -5 11 -15 7 -21 -5 -7 3 -9 25 -4 23
4 30 3 25 -5 -4 -7 -16 -12 -27 -12 -10 0 -19 -3 -19 -6 0 -12 35 -69 50 -81
8 -6 12 -14 8 -18 -3 -4 -16 3 -27 14 -19 19 -22 20 -28 5 -4 -10 0 -20 11
-26 13 -7 15 -17 10 -43 -5 -29 -1 -37 30 -67 35 -32 36 -34 25 -72 -8 -30 -8
-41 1 -46 9 -6 4 -13 -14 -25 l-27 -18 28 -18 c21 -14 23 -19 11 -19 -10 0
-18 -4 -18 -10 0 -5 5 -10 11 -10 5 0 7 -5 4 -10 -4 -6 -10 -8 -15 -5 -4 3
-10 -4 -13 -15 -3 -11 -1 -22 4 -25 4 -3 4 -17 -2 -32 -8 -21 -6 -30 12 -50
13 -12 18 -23 12 -23 -15 0 -11 -118 4 -124 21 -9 15 -29 -7 -23 -17 4 -18 3
-8 -16 8 -16 8 -22 -1 -25 -6 -2 -11 -10 -11 -18 0 -9 4 -13 9 -9 6 3 15 -4
22 -16 8 -16 8 -23 0 -29 -8 -4 -4 -24 14 -64 28 -63 30 -70 15 -61 -5 3 -10
1 -10 -4 0 -6 5 -11 11 -11 8 0 8 -5 -1 -15 -7 -8 -9 -15 -4 -15 5 0 17 -14
27 -31 13 -24 15 -35 6 -45 -6 -7 -7 -19 -3 -26 5 -7 9 -20 9 -28 0 -8 8 -14
17 -14 10 1 15 -2 12 -7 -3 -5 0 -9 6 -9 7 0 3 -15 -10 -35 -23 -37 -18 -70 6
-38 16 22 18 14 4 -22 -8 -20 -7 -27 5 -31 19 -8 19 -28 0 -44 -8 -7 -15 -18
-15 -24 0 -6 4 -5 9 3 7 11 12 3 21 -29 9 -32 9 -45 1 -48 -6 -2 -9 -8 -6 -12
3 -5 1 -28 -4 -52 -7 -27 -7 -44 -1 -46 6 -2 10 -12 10 -22 0 -10 4 -20 10
-22 13 -4 20 -77 8 -84 -5 -4 -7 -17 -4 -29 4 -14 1 -25 -6 -27 -8 -3 -9 -11
-3 -24 12 -27 12 -37 3 -50 -5 -7 -2 -14 8 -18 9 -4 14 -9 11 -13 -4 -3 -3
-11 3 -18 11 -13 -8 -85 -22 -85 -5 0 -8 -24 -7 -52 1 -34 -4 -64 -14 -83 -9
-16 -17 -24 -17 -16 0 8 -3 12 -6 8 -4 -3 -2 -19 4 -35 9 -25 8 -29 -6 -28
-10 0 -16 -5 -14 -12 2 -12 3 -54 1 -104 -1 -16 -5 -28 -11 -28 -5 0 -6 5 -3
10 3 6 2 10 -3 10 -6 0 -13 -11 -16 -25 -4 -14 -13 -25 -21 -25 -8 0 -15 -9
-15 -20 0 -12 -6 -28 -12 -36 -7 -8 -18 -20 -23 -27 -6 -7 -11 -23 -11 -37 0
-18 -5 -25 -19 -23 -10 1 -24 -5 -32 -12 -11 -12 -11 -15 2 -23 15 -8 15 -10
1 -21 -9 -8 -16 -22 -16 -32 0 -11 -4 -19 -9 -19 -5 0 -11 -10 -13 -22 -2 -13
-9 -22 -16 -21 -6 2 -12 -4 -12 -12 0 -8 -9 -19 -20 -25 -13 -7 -17 -16 -13
-28 6 -15 5 -15 -10 -3 -15 12 -17 10 -17 -14 0 -15 -8 -34 -17 -41 -16 -12
-16 -15 -3 -23 13 -9 12 -12 -5 -24 -10 -8 -25 -13 -32 -10 -17 7 -33 -37 -22
-59 13 -24 11 -28 -8 -21 -11 5 -14 3 -8 -6 5 -10 2 -11 -13 -7 -22 7 -39 -21
-23 -37 7 -7 -1 -18 -24 -34 -27 -18 -36 -33 -41 -65 -6 -37 -8 -39 -21 -23
-7 11 -13 13 -13 7 0 -7 -8 -12 -17 -12 -13 0 -14 -3 -5 -12 19 -19 15 -51 -4
-44 -9 4 -23 1 -30 -5 -7 -6 -19 -7 -25 -3 -8 4 -9 3 -5 -4 4 -7 1 -12 -8 -12
-9 0 -16 -7 -16 -16 0 -11 -5 -14 -16 -10 -12 4 -14 1 -9 -14 9 -27 -3 -60
-21 -60 -8 0 -14 -7 -14 -15 0 -15 -6 -25 -37 -60 -17 -18 -16 -28 2 -22 8 4
17 2 20 -2 2 -5 -5 -11 -18 -14 -23 -6 -51 -52 -61 -99 -15 -68 -20 -84 -35
-95 -13 -11 -14 -14 -2 -22 7 -5 10 -14 7 -20 -4 -6 -4 -11 1 -11 4 0 14 12
20 28 7 15 26 33 43 40 16 8 30 20 30 28 0 8 4 14 8 14 5 0 16 16 25 35 11 23
24 35 37 35 13 0 20 7 20 20 0 34 17 60 39 60 6 0 8 6 5 13 -3 8 6 18 21 25
14 6 25 17 25 23 0 12 66 79 78 79 5 0 14 16 22 35 8 19 20 35 27 35 7 0 13 8
13 18 0 9 8 22 19 29 19 12 111 138 111 152 0 4 14 20 31 37 17 16 34 36 38
44 3 8 29 55 56 103 28 49 57 102 65 118 9 16 18 27 21 25 3 -3 6 15 8 41 1
33 9 53 24 68 32 32 57 67 57 81 0 7 13 26 30 42 28 29 43 32 34 8 -2 -6 4
-21 14 -32 14 -15 17 -26 10 -43 -7 -19 -4 -27 12 -38 17 -12 18 -18 9 -29 -8
-10 -9 -18 0 -27 6 -8 8 -17 5 -20 -3 -3 -2 -12 2 -19 8 -13 14 -42 14 -68 -1
-59 2 -76 16 -87 10 -7 17 -28 18 -52 0 -22 3 -35 7 -30 8 14 19 -15 19 -50 0
-14 7 -36 15 -47 8 -12 12 -24 9 -27 -3 -3 3 -18 13 -33 15 -24 15 -27 2 -22
-14 5 -14 1 -2 -45 7 -28 14 -65 15 -82 1 -16 6 -35 10 -42 6 -7 3 -23 -6 -42
-9 -16 -16 -35 -16 -42 0 -19 -59 -136 -75 -149 -8 -7 -15 -18 -15 -24 0 -7
-14 -25 -30 -41 -17 -16 -28 -35 -26 -42 3 -7 -1 -13 -9 -13 -8 0 -15 -7 -15
-15 0 -8 -4 -15 -10 -15 -5 0 -10 -7 -10 -15 0 -8 -6 -12 -12 -10 -7 3 -26
-15 -43 -40 -16 -24 -37 -43 -45 -42 -8 1 -14 -4 -13 -10 2 -7 -3 -13 -10 -13
-6 0 -19 -15 -27 -33 -8 -17 -21 -31 -28 -30 -6 2 -12 -3 -12 -11 0 -14 -77
-96 -90 -96 -4 0 -10 -7 -14 -15 -3 -8 -1 -15 4 -15 6 0 10 5 10 11 0 5 5 7
10 4 14 -9 2 -25 -19 -25 -28 0 -71 -24 -77 -43 -3 -11 -12 -16 -20 -13 -8 3
-13 0 -11 -7 1 -7 -4 -11 -11 -9 -7 1 -12 -5 -10 -15 2 -11 -2 -17 -11 -15 -7
2 -21 -4 -30 -11 -9 -8 -26 -18 -38 -21 -12 -4 -31 -18 -42 -32 -10 -13 -27
-24 -36 -24 -9 0 -30 -13 -45 -30 -15 -16 -32 -30 -37 -30 -14 0 -73 -55 -73
-68 0 -15 -22 -16 -37 -1 -15 15 -33 3 -33 -22 0 -13 -7 -19 -21 -19 -11 0
-32 -13 -46 -30 -13 -16 -32 -30 -40 -30 -8 0 -24 -10 -35 -22 -11 -13 -17
-17 -13 -10 3 6 2 12 -3 12 -5 0 -12 -9 -15 -21 -3 -12 -10 -18 -16 -14 -6 3
-11 0 -12 -7 0 -9 -2 -9 -5 -2 -3 7 -15 9 -27 6 -24 -5 -103 -64 -128 -95 -9
-11 -21 -17 -28 -13 -6 4 -11 2 -11 -3 0 -6 -7 -11 -16 -11 -9 0 -18 -9 -21
-19 -3 -12 -17 -23 -34 -26 -16 -4 -29 -13 -29 -21 0 -9 -4 -12 -10 -9 -5 3
-10 2 -10 -4 0 -5 -10 -11 -22 -13 -13 -2 -22 -9 -20 -16 1 -6 -5 -12 -13 -12
-8 0 -15 -4 -15 -10 0 -5 -7 -10 -15 -10 -8 0 -15 -7 -15 -15 0 -8 -7 -15 -15
-15 -7 0 -18 -6 -22 -14 -4 -7 -28 -24 -53 -36 -25 -12 -49 -29 -53 -36 -4 -7
-25 -18 -45 -24 -21 -5 -48 -19 -60 -30 -11 -11 -27 -20 -35 -20 -7 0 -17 -4
-22 -9 -6 -5 -39 -18 -75 -31 -36 -12 -73 -30 -82 -40 -10 -10 -33 -24 -53
-31 -19 -7 -35 -16 -35 -20 0 -7 -39 -22 -53 -20 -4 1 -15 -5 -23 -14 -9 -8
-12 -16 -7 -16 4 -1 -8 -4 -27 -8 -26 -4 -36 -12 -38 -27 -2 -15 -9 -20 -20
-17 -24 6 -75 -15 -67 -27 5 -8 11 -7 21 1 17 14 19 -2 2 -19 -9 -9 -9 -12 0
-12 7 0 15 7 18 15 7 17 34 21 34 5 0 -14 21 -12 39 4 9 7 41 21 71 32 30 10
64 26 76 36 11 10 26 18 33 18 7 0 22 5 34 12 12 6 30 12 41 13 10 1 26 12 35
24 12 15 31 23 71 28 41 5 64 14 91 37 20 17 57 37 81 44 24 7 59 26 77 41 18
15 55 34 82 41 27 8 57 22 66 32 9 10 20 18 26 18 5 0 38 20 74 45 35 25 79
51 97 59 18 7 45 26 62 41 33 31 115 83 185 117 26 12 55 35 65 50 11 15 33
35 50 43 16 8 42 25 57 39 14 13 45 35 69 48 23 12 53 35 66 51 13 15 29 27
35 27 7 0 35 20 62 45 28 25 66 53 85 62 19 9 39 23 43 30 5 8 27 25 50 40 23
14 60 43 82 64 108 103 137 128 153 133 32 11 244 230 293 304 27 41 49 80 49
87 0 8 4 17 10 20 17 11 63 119 61 143 -1 13 2 28 7 35 13 16 26 78 15 75 -4
-2 -10 2 -11 7 -2 6 -8 16 -14 22 -7 9 -6 15 6 19 21 8 20 24 -1 24 -12 0 -19
9 -20 28 -11 116 3 151 70 173 23 7 45 18 49 23 3 5 37 10 75 9 78 0 128 -21
182 -77 54 -55 78 -103 86 -172 3 -25 7 -50 10 -54 22 -35 -16 -427 -46 -483
-5 -9 -12 -39 -16 -65 -3 -26 -10 -52 -15 -59 -5 -6 -11 -24 -14 -40 -13 -83
-17 -101 -35 -137 -10 -22 -19 -53 -19 -69 0 -15 -5 -37 -10 -48 -6 -11 -13
-36 -16 -55 -2 -20 -11 -45 -19 -57 -8 -12 -15 -32 -15 -45 0 -13 -12 -49 -26
-80 -14 -31 -32 -70 -39 -87 -8 -16 -10 -31 -5 -33 5 -2 1 -18 -9 -35 -10 -18
-26 -54 -36 -82 -10 -27 -25 -58 -33 -67 -8 -10 -12 -18 -7 -18 4 0 2 -7 -5
-15 -7 -8 -10 -22 -6 -30 3 -8 1 -15 -4 -15 -5 0 -15 -19 -22 -42 -7 -24 -25
-62 -41 -86 -16 -23 -30 -48 -31 -55 -6 -25 -37 -83 -65 -122 -47 -63 -91
-141 -91 -160 0 -11 -5 -15 -14 -12 -10 4 -17 -4 -21 -24 -4 -16 -12 -32 -19
-36 -8 -5 -23 -27 -35 -50 -11 -23 -25 -44 -31 -48 -5 -3 -10 -15 -10 -25 0
-17 -81 -110 -95 -110 -3 0 -16 -11 -29 -25 -13 -14 -33 -25 -45 -25 -11 0
-21 -4 -21 -10 0 -15 -89 -102 -98 -96 -5 3 -18 -3 -28 -12 -15 -15 -35 -18
-94 -17 -41 1 -85 -2 -97 -6 -13 -5 -25 -4 -28 2 -4 5 -12 6 -18 2 -19 -12
-140 -14 -148 -2 -4 8 -14 7 -30 -3 -27 -15 -57 -17 -78 -3 -9 5 -16 5 -18 -1
-4 -13 -112 -9 -125 4 -6 6 -17 8 -24 5 -8 -3 -14 0 -14 5 0 7 -10 8 -30 2
-23 -7 -30 -5 -30 6 0 13 -7 16 -55 18 -13 1 -19 7 -17 19 3 21 -6 21 -32 2
-25 -19 -42 -19 -27 -1 9 11 8 15 -5 20 -9 3 -20 4 -25 1 -5 -4 -6 1 -3 9 3 9
1 16 -5 16 -6 0 -11 7 -11 15 0 8 5 15 10 15 6 0 10 5 10 10 0 6 -7 10 -16 8
-10 -2 -19 3 -21 10 -3 7 4 12 17 12 16 0 20 4 15 19 -10 32 21 53 68 47 24
-4 37 -2 31 3 -14 13 -60 22 -68 13 -10 -10 -30 -9 -37 1 -3 5 -21 10 -40 12
-19 1 -46 8 -61 14 -18 7 -28 7 -28 1 0 -6 -10 -8 -23 -5 -13 4 -43 -1 -67 -9
-45 -15 -50 -14 -88 22 -22 20 -41 14 -74 -24 -26 -30 -36 -35 -60 -30 -17 3
-28 1 -28 -5 0 -7 -11 -9 -29 -6 -19 4 -45 -2 -77 -17 -27 -13 -62 -27 -78
-30 -16 -4 -54 -32 -86 -62 -31 -29 -62 -54 -68 -54 -7 0 -12 -6 -12 -13 0 -8
-22 -26 -50 -41 -27 -15 -50 -31 -50 -35 0 -5 -13 -14 -30 -21 -16 -7 -43 -25
-60 -41 -16 -16 -34 -29 -40 -29 -5 0 -10 -7 -10 -15 0 -8 -7 -15 -17 -15 -9
0 -14 -3 -10 -6 3 -3 -32 -43 -79 -88 -101 -98 -111 -106 -122 -106 -5 0 -15
-11 -22 -25 -7 -14 -17 -25 -22 -25 -4 0 -8 -5 -8 -11 0 -13 -54 -67 -127
-127 -29 -24 -55 -52 -58 -62 -4 -11 -12 -20 -18 -20 -15 0 -67 -44 -67 -56 0
-13 -32 -39 -70 -59 -38 -20 -46 -15 -91 60 -18 30 -37 55 -41 55 -4 0 -8 7
-8 15 0 9 -13 29 -30 45 -17 16 -30 34 -30 39 0 20 -35 81 -47 81 -7 0 -17 9
-23 21 -7 11 -20 29 -31 40 -24 24 -41 67 -33 81 4 6 1 14 -7 18 -10 7 -10 11
0 24 11 13 11 16 -2 16 -8 0 -18 7 -21 16 -3 8 -11 12 -17 8 -8 -5 -10 1 -7
19 4 20 0 27 -16 31 -13 4 -17 9 -10 13 18 13 11 67 -9 75 -10 4 -17 16 -15
25 2 12 -3 18 -14 17 -10 -1 -17 1 -16 5 2 22 -4 32 -17 27 -11 -4 -15 1 -15
19 0 18 -8 27 -35 36 -21 8 -34 18 -31 25 3 8 -6 14 -22 16 -22 2 -27 8 -24
28 1 17 -1 21 -6 12 -7 -10 -16 -7 -40 15 -18 15 -32 33 -32 40 0 6 -10 13
-22 15 -22 3 -66 63 -89 121 -6 15 -14 27 -18 27 -11 0 -54 80 -47 87 3 4 -3
13 -14 20 -11 8 -18 19 -15 24 4 5 1 9 -6 9 -6 0 -9 8 -6 20 3 13 0 20 -9 20
-10 0 -13 14 -10 60 1 34 -2 64 -7 67 -6 3 -7 1 -3 -5 4 -7 1 -12 -8 -12 -10
0 -16 9 -16 24 0 20 4 22 26 18 24 -4 25 -3 13 16 -7 11 -17 18 -22 15 -5 -3
-14 1 -19 8 -8 11 -9 10 -4 -3 4 -14 0 -18 -18 -18 -19 0 -25 6 -28 31 -3 20
0 33 9 36 17 7 17 33 -1 33 -8 0 -16 -4 -18 -9 -1 -5 -15 -13 -30 -16 -23 -6
-29 -2 -42 23 -13 26 -14 31 -1 36 15 5 17 66 2 66 -4 0 -6 -12 -5 -27 2 -21
-2 -28 -25 -34 -21 -6 -32 -3 -45 10 -19 21 -77 42 -87 33 -3 -3 -8 4 -12 16
-5 19 -8 20 -21 10 -13 -11 -15 -10 -9 4 7 19 -8 34 -18 18 -8 -13 -45 -13
-45 1 0 5 -5 7 -10 4 -6 -4 -8 -11 -5 -16 4 -5 -3 -5 -18 0 -17 7 -28 6 -37
-2 -10 -9 -14 -9 -17 1 -4 10 -8 10 -19 1 -8 -7 -18 -8 -22 -4 -4 4 -2 10 5
12 10 4 10 7 0 18 -7 8 -14 9 -18 3 -4 -6 -22 -1 -45 11 -21 12 -46 21 -55 21
-9 0 -19 7 -23 15 -3 8 -10 15 -16 15 -13 0 -50 37 -50 50 0 6 -4 18 -10 28
-25 45 -49 107 -61 154 -7 29 -18 56 -23 60 -12 8 -16 49 -6 63 10 15 10 84
-1 91 -14 8 -11 34 4 34 8 0 14 6 14 14 0 8 -6 12 -14 9 -9 -4 -13 5 -12 33 2
32 3 34 6 11 3 -20 9 -27 21 -25 9 2 22 -3 29 -12 11 -13 12 -13 13 2 0 10 -9
22 -20 28 -19 10 -29 50 -12 50 4 0 12 10 17 22 6 12 17 24 25 26 11 4 10 -1
-4 -17 l-19 -21 34 0 34 -1 -30 -13 c-16 -7 -33 -11 -37 -9 -5 2 -8 0 -8 -6 0
-6 9 -15 20 -21 11 -6 20 -19 20 -29 0 -22 43 -34 59 -18 8 8 11 7 11 -1 0 -7
-5 -12 -11 -12 -15 0 -7 -53 10 -58 10 -3 11 2 6 19 l-6 24 19 -24 19 -24 6
23 c5 20 7 21 21 7 20 -20 20 -27 1 -27 -12 0 -13 -4 -5 -19 5 -11 10 -29 10
-40 0 -15 6 -21 21 -21 12 0 17 -4 14 -11 -4 -6 2 -17 14 -25 12 -8 21 -22 21
-30 0 -8 3 -13 8 -11 4 1 18 -8 32 -21 23 -21 25 -21 31 -5 6 17 7 17 14 1 4
-10 12 -18 17 -18 6 0 18 -8 27 -18 9 -9 29 -18 46 -19 19 -1 37 -11 52 -30
13 -15 28 -27 34 -25 6 1 6 -5 -1 -18 -6 -11 -7 -20 -1 -20 5 0 12 7 15 16 5
13 9 14 22 4 8 -7 12 -20 9 -28 -7 -19 31 -56 47 -46 7 5 26 8 43 9 27 0 31
-2 27 -22 -2 -13 -8 -23 -13 -23 -5 0 -6 6 -3 14 4 9 0 14 -10 12 -19 -3 -34
-16 -18 -16 16 0 15 -27 0 -33 -7 -2 7 -3 32 -1 80 6 101 -15 59 -57 -11 -11
-19 -26 -17 -34 2 -11 11 -10 43 5 35 16 42 17 56 4 10 -9 19 -10 25 -4 5 5
19 7 32 4 l22 -6 -23 -24 c-12 -13 -30 -24 -39 -24 -10 0 -18 -4 -18 -9 0 -5
-12 -14 -27 -20 -24 -10 -24 -10 -3 -5 14 4 37 7 53 7 15 0 27 4 27 10 0 5 7
6 16 3 9 -4 23 -1 30 5 11 9 14 6 14 -14 0 -14 8 -31 18 -36 16 -10 15 -11 -3
-12 -11 -1 -26 -2 -32 -2 -7 1 -13 -8 -13 -18 0 -10 4 -19 9 -19 5 0 17 -3 27
-7 14 -5 16 -3 11 12 -6 15 -5 16 8 5 13 -10 15 -9 15 10 l0 23 19 -22 c11
-13 25 -19 35 -15 15 6 18 2 20 -28 1 -13 61 -47 84 -48 7 0 15 -13 19 -30 5
-25 10 -30 36 -30 49 0 96 -21 99 -44 2 -15 10 -21 29 -21 15 0 35 -7 45 -16
21 -18 132 -59 158 -59 10 0 14 -5 10 -12 -5 -8 0 -9 16 -5 15 4 28 -1 44 -17
16 -18 29 -22 54 -19 18 3 38 1 45 -4 15 -13 69 -27 82 -23 24 7 85 7 85 0 0
-5 8 -7 18 -5 9 1 53 8 97 15 44 7 88 16 97 21 11 6 19 5 23 -2 10 -16 98 -8
112 10 18 23 16 31 -7 31 -11 0 -20 -4 -20 -10 0 -5 -7 -10 -15 -10 -18 0 -20
16 -2 23 6 3 -4 6 -23 7 -19 1 -50 3 -67 5 -20 2 -33 -2 -33 -9 0 -7 -3 -8 -8
-1 -7 11 -38 15 -104 15 -21 0 -38 4 -38 9 0 6 -12 10 -27 10 -44 -1 -124 22
-130 37 -3 8 -16 14 -29 14 -15 0 -24 6 -24 16 0 8 -4 13 -10 9 -10 -6 -50 13
-62 30 -4 6 -6 16 -3 23 3 8 -3 16 -13 19 -19 4 -49 60 -38 70 3 4 6 1 6 -5 0
-7 4 -12 9 -12 6 0 6 12 -1 30 -5 17 -8 39 -5 50 3 11 0 18 -5 17 -6 -1 -13 4
-15 11 -3 6 3 12 12 12 16 0 45 22 45 34 0 3 -7 6 -15 6 -8 0 -15 -4 -15 -10
0 -5 -5 -10 -11 -10 -6 0 -9 7 -6 15 4 8 2 17 -4 21 -6 3 -4 11 6 18 15 11 15
13 1 25 -13 11 -19 11 -33 0 -14 -12 -16 -12 -8 0 13 22 14 72 1 68 -6 -2 -10
-12 -10 -21 2 -18 -11 -22 -21 -6 -3 6 1 17 10 26 15 15 14 19 -10 44 -26 27
-26 29 -7 39 28 15 36 41 16 56 -15 11 -15 12 6 18 13 3 19 10 15 17 -4 6 -13
9 -21 6 -7 -3 -16 -1 -19 4 -4 6 -1 10 4 10 6 0 11 7 11 15 0 18 20 20 20 3 0
-7 9 -2 19 11 l19 25 4 -25 c4 -32 40 -37 69 -8 17 17 23 19 30 8 8 -12 10
-12 18 0 6 9 11 10 15 2 4 -6 12 -8 18 -5 6 4 35 7 64 6 46 0 53 2 57 21 l4
22 8 -22 c4 -13 15 -23 24 -24 9 0 35 -2 59 -4 30 -2 45 1 48 10 5 11 12 11
46 -1 47 -16 78 -18 78 -4 0 15 16 12 34 -6 9 -8 16 -11 16 -5 0 6 20 9 53 7
28 -2 60 0 70 5 9 6 17 6 17 2 0 -16 49 -11 55 5 5 12 8 13 14 4 6 -10 21 -10
71 2 36 9 67 12 70 7 3 -5 14 -5 25 0 17 6 17 8 3 8 -10 1 -18 5 -18 10 0 14
94 21 102 8 5 -8 8 -6 8 6 0 19 12 22 38 8 14 -7 109 6 142 19 3 1 9 2 13 1 4
-1 10 6 13 14 4 8 10 15 16 15 5 0 6 -6 3 -12 -4 -7 0 -5 8 5 8 9 21 17 30 17
9 0 19 4 22 10 3 6 20 10 36 10 16 0 39 9 51 20 12 11 29 20 38 20 9 0 20 4
26 9 5 5 38 24 73 42 37 19 58 35 50 38 -8 2 -19 11 -26 20 -10 14 -12 14 -18
-1 -4 -10 -11 -16 -16 -13 -4 3 -13 -4 -19 -15 -6 -11 -15 -18 -20 -15 -5 3
-11 1 -15 -5 -3 -5 -1 -10 6 -10 7 0 10 -3 7 -6 -3 -3 -15 0 -26 7 -17 10 -23
10 -37 -4 -9 -10 -21 -14 -27 -11 -6 4 -13 2 -17 -4 -4 -6 -36 -19 -71 -28
-36 -9 -68 -21 -72 -27 -9 -14 -50 -15 -61 -2 -4 6 -11 3 -18 -8 -8 -13 -14
-15 -29 -7 -13 7 -21 7 -26 -2 -4 -7 -3 -8 4 -4 7 4 12 3 12 -3 0 -16 -34 -18
-57 -3 -20 12 -25 12 -38 -2 -9 -9 -28 -19 -43 -22 -15 -4 -31 -9 -35 -11 -13
-8 -174 -20 -377 -28 -163 -8 -172 -7 -215 15 -36 18 -40 19 -57 3 -17 -15
-18 -15 -18 0 0 11 -8 17 -22 17 -13 0 -45 7 -73 15 -27 9 -55 13 -63 10 -7
-3 -10 0 -6 6 3 6 -1 10 -12 9 -33 -4 -44 0 -41 12 1 8 -8 12 -24 10 -17 -2
-29 3 -33 13 -3 9 -11 15 -18 14 -21 -3 -48 12 -48 27 0 16 -26 19 -35 4 -10
-16 -22 -12 -50 19 -20 20 -34 27 -49 23 -18 -5 -19 -3 -8 11 10 12 11 21 3
34 -6 10 -11 12 -11 6 0 -20 -20 -15 -21 5 0 9 -3 12 -5 5 -7 -16 -34 -5 -34
14 0 8 5 11 11 7 7 -4 10 -1 7 7 -3 8 -12 13 -20 11 -14 -2 -44 44 -39 62 1 5
-5 6 -13 3 -8 -3 -16 2 -19 13 -3 14 -1 17 11 13 10 -4 8 1 -6 15 -12 12 -27
22 -32 22 -16 0 -12 21 8 37 9 8 12 12 5 9 -6 -3 -19 -3 -28 0 -13 6 -14 9 -3
16 10 7 8 12 -9 27 -23 19 -32 38 -13 26 6 -3 10 0 10 9 0 26 -12 46 -29 47
-10 0 -11 2 -3 6 23 9 12 23 -20 23 -25 0 -29 3 -18 10 12 7 12 12 2 22 -9 9
-12 9 -12 -1 0 -7 -4 -10 -9 -7 -5 3 -7 15 -4 26 3 11 9 17 14 14 5 -3 9 -1 9
4 0 6 -7 13 -16 16 -8 3 -12 2 -9 -3 3 -5 1 -12 -5 -16 -5 -3 -10 3 -10 13 0
28 -28 92 -40 92 -7 0 -7 6 0 19 14 28 12 36 -5 21 -12 -10 -15 -10 -15 1 0 8
-3 24 -6 37 -5 17 -2 22 12 23 11 0 14 3 6 6 -7 3 -19 0 -26 -7 -19 -15 -25
-2 -22 43 3 30 0 37 -15 37 -15 0 -19 8 -19 36 0 21 -8 47 -20 61 -11 14 -20
35 -20 46 0 24 -27 57 -47 57 -8 0 -12 4 -9 9 3 5 -4 11 -15 14 -18 5 -19 9
-9 27 9 17 8 27 -6 47 l-17 26 -11 -28 c-11 -26 -13 -27 -19 -11 -4 10 -5 28
-1 39 4 14 3 17 -7 12 -9 -6 -11 -3 -6 9 5 11 -2 25 -18 40 -14 13 -25 28 -25
35 0 6 -4 11 -10 11 -5 0 -10 7 -10 15 0 8 5 15 11 15 8 0 7 5 -2 16 -10 13
-10 17 1 24 8 5 11 12 8 16 -4 3 -18 -6 -32 -21 -19 -20 -26 -23 -26 -12 0 9
4 19 10 22 16 10 -36 59 -54 52 -9 -4 -16 -1 -16 5 0 20 -31 47 -48 42 -14 -5
-14 -4 1 6 22 14 22 34 0 26 -23 -9 -53 26 -46 55 5 18 3 21 -11 16 -23 -9
-52 19 -38 36 14 16 -1 42 -25 43 -47 3 -54 5 -49 13 3 5 15 7 25 4 16 -4 19
-1 14 16 -4 15 -11 20 -23 16 -10 -3 -21 -1 -25 5 -3 5 -1 10 5 10 6 0 8 5 5
10 -3 6 -1 10 4 10 6 0 11 5 11 11 0 6 -7 8 -15 5 -10 -3 -18 1 -21 12 -3 9
-11 28 -17 42 -6 14 -10 28 -9 31 0 3 -10 12 -23 19 -14 7 -25 22 -25 32 0 10
-5 18 -11 18 -6 0 -9 7 -6 15 4 8 2 17 -4 21 -5 3 -7 14 -4 24 3 11 0 20 -10
24 -8 3 -15 15 -15 26 0 12 -4 19 -9 16 -10 -7 -21 17 -21 47 0 11 -8 29 -17
39 -9 11 -17 35 -17 53 0 23 -5 35 -13 35 -10 0 -11 5 -4 18 7 12 4 24 -10 41
-10 13 -19 31 -19 40 0 14 2 14 10 1 6 -9 10 -10 10 -3 0 7 -9 21 -21 32 -20
18 -20 20 -2 31 16 9 15 10 -7 4 -22 -6 -23 -5 -12 9 9 10 10 17 2 22 -16 10
-12 25 8 25 15 1 15 2 -2 12 -15 9 -22 7 -33 -7 -7 -10 -16 -16 -19 -12 -4 4
-2 12 3 19 7 9 5 21 -3 38 -8 14 -14 19 -14 10 0 -13 -2 -13 -9 -1 -5 8 -7 20
-4 28 3 8 -3 13 -19 13 -24 0 -62 33 -51 44 4 3 2 6 -4 6 -6 0 -14 7 -17 16
-4 12 -1 14 14 9 11 -4 20 -2 20 4 0 6 -3 10 -7 10 -25 -4 -43 3 -43 16 0 8
-4 15 -10 15 -5 0 -10 7 -10 15 0 8 -4 15 -10 15 -5 0 -10 -7 -10 -15 0 -8 -5
-15 -11 -15 -6 0 -9 7 -5 15 3 9 0 15 -10 15 -19 0 -44 24 -44 41 0 7 -3 9 -7
6 -7 -8 -33 11 -33 25 0 5 8 8 18 6 11 -2 17 3 17 17 0 14 -6 19 -19 18 -11
-1 -26 6 -35 15 -15 15 -15 15 2 9 20 -8 22 6 6 53 -9 26 -9 34 2 41 11 6 7
14 -18 36 -23 21 -29 33 -23 43 6 9 5 17 -3 22 -8 5 -6 8 6 8 24 0 21 12 -8
34 -26 20 -24 41 4 31 9 -3 4 5 -11 18 -22 19 -25 26 -15 37 9 10 9 14 0 17
-7 2 -9 11 -6 20 3 8 0 19 -7 23 -10 6 -10 23 -3 73 5 38 6 73 1 82 -5 8 -6
20 -2 27 11 17 13 69 4 92 -9 25 28 65 63 68 35 2 41 3 52 9 6 4 37 7 70 7 62
0 84 3 200 22 141 23 284 60 310 81 6 4 20 8 30 7 29 -1 46 5 67 25 10 9 28
17 40 17 13 0 36 11 52 25 31 26 41 31 31 15 -3 -6 1 -7 10 -4 9 4 14 9 11 11
-3 3 11 23 31 44 28 31 39 36 50 28 7 -7 14 -10 16 -8 1 2 7 13 13 23 20 37
34 31 29 -13 -4 -28 -1 -41 7 -41 9 0 9 -3 1 -11 -11 -11 -2 -40 17 -59 3 -3
5 -21 6 -40 1 -75 9 -120 21 -120 7 0 17 -18 23 -40 6 -21 15 -42 20 -45 6 -3
10 -19 10 -35 0 -16 5 -32 12 -36 7 -5 3 -11 -13 -18 -24 -10 -23 -10 9 -14
20 -2 32 -9 32 -18 0 -20 25 -45 35 -36 5 4 5 1 1 -6 -4 -7 -12 -10 -17 -7 -5
4 -9 -4 -10 -17 0 -13 -3 -17 -6 -10 -7 17 -23 5 -23 -18 0 -13 5 -17 14 -14
8 3 17 1 21 -5 3 -6 -1 -11 -9 -11 -19 0 -20 -9 -6 -44 7 -20 6 -26 -4 -26 -9
0 -12 -9 -9 -27 4 -26 3 -26 -10 -10 -8 9 -20 17 -27 17 -7 0 -1 -11 13 -24
l27 -25 -23 -18 c-33 -26 -40 -41 -19 -39 12 1 18 -8 20 -33 2 -21 0 -31 -7
-26 -7 3 -11 -2 -11 -14 0 -12 -7 -21 -16 -21 -8 0 -12 -5 -8 -11 3 -6 14 -9
24 -6 11 3 21 -1 24 -9 4 -10 -4 -12 -34 -9 -43 4 -55 -9 -17 -19 18 -5 19 -8
7 -15 -12 -8 -12 -13 4 -30 11 -12 14 -21 8 -21 -7 0 -12 5 -12 10 0 6 -17 10
-39 8 l-40 -2 15 -27 c17 -34 18 -42 2 -33 -8 5 -9 2 -5 -10 5 -14 3 -17 -8
-13 -8 4 -17 2 -21 -4 -9 -16 -48 -28 -55 -17 -3 5 -12 2 -19 -7 -10 -13 -9
-15 8 -15 11 0 22 -6 25 -14 4 -11 -1 -13 -19 -10 -29 5 -33 -11 -4 -19 24 -6
27 -42 4 -51 -19 -7 -34 1 -34 18 0 8 -7 20 -16 27 -15 12 -16 11 -10 -9 5
-13 3 -22 -3 -22 -6 0 -11 -4 -11 -10 0 -5 8 -10 18 -10 9 0 24 -5 32 -11 12
-9 10 -10 -8 -6 -17 4 -22 2 -18 -8 3 -8 0 -15 -6 -17 -5 -2 8 -4 31 -5 23 -1
41 3 41 8 0 6 -5 7 -11 4 -6 -4 -5 2 2 13 l13 21 16 -22 c9 -15 22 -21 35 -19
16 3 18 1 8 -9 -23 -23 -15 -47 17 -54 25 -5 28 -10 20 -24 -14 -26 -3 -31 31
-14 17 8 33 12 36 9 3 -3 -2 -8 -11 -11 -9 -3 -23 -7 -31 -10 -8 -2 -15 -16
-15 -30 0 -14 -5 -25 -11 -25 -5 0 -7 5 -4 10 3 6 1 10 -4 10 -16 0 -13 -21 6
-42 15 -17 15 -18 0 -18 -20 0 -24 -60 -4 -60 6 -1 2 -9 -10 -19 -28 -24 -29
-31 -3 -24 11 3 20 0 20 -6 0 -6 -6 -11 -13 -11 -21 0 -14 -37 12 -64 13 -14
20 -29 16 -35 -3 -6 -1 -11 5 -11 7 0 9 -7 6 -15 -3 -9 -2 -23 3 -33 14 -25
24 -54 28 -77 6 -39 9 -50 16 -62 4 -6 2 -13 -3 -15 -7 -2 -7 -15 2 -38 8 -19
13 -47 12 -62 0 -16 2 -28 6 -28 4 0 10 -13 14 -30 3 -20 12 -30 23 -30 15 0
16 -2 3 -10 -13 -8 -12 -10 3 -10 22 0 22 -26 0 -34 -13 -5 -14 -9 -5 -15 7
-4 12 -12 11 -17 -1 -5 -1 -17 0 -28 1 -15 4 -16 15 -7 9 7 17 8 20 2 3 -5 1
-11 -6 -13 -15 -5 -1 -28 17 -28 9 0 11 7 7 23 -5 19 -3 20 10 9 9 -7 14 -21
11 -32 -3 -11 0 -20 6 -20 6 0 11 9 11 20 0 24 6 25 28 4 14 -15 17 -15 27 0
11 14 14 14 30 -4 19 -21 45 -27 45 -10 0 21 20 9 21 -12 1 -18 2 -19 6 -5 3
13 11 16 26 13 12 -3 16 -3 10 0 -21 9 -15 19 11 19 16 0 22 -4 18 -14 -3 -9
-1 -12 6 -7 7 4 12 14 12 22 0 17 22 18 38 2 10 -10 17 -7 36 16 l23 29 22
-22 c12 -12 19 -26 16 -31 -4 -6 -2 -10 3 -10 19 0 22 45 4 59 -15 12 -12 13
26 8 24 -3 42 -1 42 5 0 5 5 6 11 3 6 -4 8 -14 5 -22 -6 -14 -4 -14 16 -1 18
12 29 13 47 4 20 -8 26 -7 41 12 16 19 18 20 22 4 3 -10 16 -18 31 -20 29 -2
34 7 15 27 -7 8 0 6 15 -4 23 -15 32 -16 53 -6 14 6 30 9 35 6 12 -8 11 -35
-2 -35 -5 0 -7 -5 -4 -10 4 -6 11 -8 16 -4 5 3 16 0 24 -6 12 -10 15 -9 15 3
0 9 9 18 19 22 10 3 21 15 24 25 3 11 10 20 17 20 6 0 8 -5 4 -12 -5 -8 -2 -9
10 -5 10 4 19 1 22 -8 4 -8 10 -15 16 -15 5 0 6 6 1 13 -4 6 -9 20 -10 30 -4
27 15 11 32 -26 8 -18 12 -22 9 -10 -4 18 -2 22 10 17 13 -5 13 -2 3 20 -7 14
-18 26 -26 26 -8 0 -11 7 -8 20 6 22 -8 28 -16 8 -3 -7 -6 -2 -6 11 -1 22 -4
23 -46 19 -25 -3 -45 -1 -45 4 0 5 -4 6 -10 3 -19 -12 -31 6 -15 21 15 16 20
34 9 34 -4 0 -17 -11 -29 -24 -25 -27 -65 -51 -65 -38 0 4 5 13 12 20 9 9 9
12 0 12 -7 0 -15 -7 -18 -15 -4 -8 -10 -15 -15 -15 -5 0 -1 17 10 39 14 26 29
40 46 43 14 3 25 1 25 -3 0 -5 5 -9 10 -9 6 0 10 11 10 24 0 14 -4 28 -10 31
-16 10 -12 35 5 29 8 -3 14 -9 14 -12 -3 -19 15 -52 27 -52 17 0 17 5 3 31 -8
16 -7 20 3 18 27 -3 36 1 41 21 6 24 37 17 37 -9 0 -10 8 -17 20 -17 11 0 20
3 20 6 0 3 23 6 51 8 39 2 49 0 44 -10 -3 -7 1 -4 9 6 13 16 31 20 88 23 82 3
102 8 93 23 -3 5 -1 10 4 10 6 0 11 -7 11 -16 0 -13 4 -13 30 3 17 9 30 21 30
25 0 4 14 5 30 3 17 -2 28 0 25 5 -3 4 2 13 10 20 19 16 49 5 41 -15 -4 -11 1
-15 17 -15 16 0 18 3 8 9 -17 11 -5 32 14 24 9 -3 15 1 15 10 0 8 14 20 31 26
27 9 30 9 24 -9 -4 -13 1 -24 20 -36 14 -9 25 -22 25 -30 0 -7 8 -17 18 -23
14 -8 15 -13 5 -30 -7 -12 -13 -26 -13 -34 0 -7 -18 -23 -39 -37 -22 -13 -45
-34 -52 -47 -15 -28 -31 -25 -40 8 -6 22 -7 23 -14 5 -8 -19 -9 -19 -16 0 -6
16 -8 15 -8 -8 -1 -15 6 -33 14 -41 10 -11 11 -17 3 -19 -13 -5 -2 -28 13 -28
6 0 8 4 4 9 -3 6 4 15 15 21 21 11 24 8 21 -22 -3 -22 25 -24 33 -2 5 13 9 14
21 4 11 -9 17 -9 28 2 7 7 14 17 14 23 1 5 7 11 14 14 7 2 9 -1 5 -8 -4 -6 0
-14 9 -18 10 -3 21 0 25 7 5 8 9 9 14 1 8 -12 27 -15 25 -3 -3 20 2 33 13 30
7 -3 40 6 72 19 33 13 68 23 79 23 18 0 72 32 92 56 16 18 76 26 92 12 12 -10
17 -9 24 5 6 9 18 17 27 17 14 0 15 2 2 10 -17 10 -14 15 18 24 16 6 22 3 22
-8 0 -9 5 -16 10 -16 6 0 10 4 10 10 0 5 14 16 30 25 32 17 41 38 13 29 -15
-5 -16 -4 -3 5 8 6 22 8 31 5 13 -3 18 4 23 31 4 19 12 35 17 35 6 0 8 9 4 20
-5 15 -3 18 9 14 12 -4 15 -2 11 9 -4 8 1 17 9 20 9 4 16 17 16 31 0 14 4 27
9 31 6 3 10 13 10 23 -1 26 12 116 17 121 2 2 4 -7 4 -20 1 -21 2 -22 11 -7 7
12 7 24 0 37 -8 14 -7 22 2 29 14 12 11 92 -4 92 -4 0 -6 7 -3 15 3 8 1 28 -4
44 -7 20 -7 31 0 33 7 3 6 18 -2 46 -8 31 -18 46 -38 55 -15 6 -30 15 -33 20
-3 4 -12 7 -20 5 -8 -2 -13 4 -13 15 1 9 -4 17 -12 17 -8 0 -14 5 -14 10 0 13
-11 13 -30 0 -13 -8 -13 -11 -1 -19 21 -14 4 -33 -19 -21 -26 14 -33 13 -56
-9 -47 -44 -91 -53 -123 -28 -12 10 -14 9 -8 -5 4 -12 2 -15 -9 -11 -8 3 -14
-1 -14 -8 0 -11 -2 -11 -10 1 -7 11 -12 12 -21 3 -7 -7 -21 -8 -38 -3 -18 5
-33 3 -45 -6 -14 -9 -24 -10 -38 -3 -20 11 -42 3 -33 -12 8 -12 -2 -11 -25 1
-13 7 -36 7 -67 1 -27 -5 -40 -9 -30 -10 9 0 17 -5 17 -11 0 -15 -38 -12 -43
3 -3 9 -7 9 -20 -2 -11 -8 -27 -11 -43 -7 -30 8 -44 -5 -44 -40 0 -25 24 -49
40 -39 9 5 9 10 1 18 -15 15 -14 30 1 21 6 -4 17 1 25 11 12 18 13 18 13 -1 0
-11 -5 -25 -12 -32 -9 -9 -8 -15 7 -26 11 -8 24 -12 30 -9 5 3 4 0 -3 -8 -11
-12 -14 -12 -21 0 -5 7 -14 10 -20 7 -19 -12 -12 -26 12 -26 20 0 24 -5 24
-30 0 -26 -3 -29 -20 -24 -12 4 -17 2 -13 -4 4 -7 -8 -14 -29 -18 -19 -3 -35
-10 -35 -14 0 -12 -77 -43 -89 -36 -6 4 -11 1 -11 -6 0 -10 -2 -10 -9 1 -6 8
-14 10 -22 5 -8 -5 -23 -10 -33 -11 -11 -2 -29 -11 -40 -21 -19 -16 -19 -16
-12 3 6 16 5 18 -5 8 -15 -15 -33 -17 -24 -3 3 6 -1 10 -9 10 -9 0 -16 -7 -16
-16 0 -10 -6 -14 -15 -10 -8 3 -15 1 -15 -4 0 -5 -9 -8 -20 -7 -13 1 -19 6
-15 15 4 11 -1 13 -19 8 -30 -7 -43 9 -19 23 29 16 6 25 -33 13 -30 -9 -35 -8
-30 4 6 17 -39 20 -49 3 -4 -6 -14 -8 -22 -4 -10 3 -22 -3 -30 -15 -8 -12 -21
-19 -28 -16 -8 3 -15 0 -18 -7 -2 -8 -9 -6 -21 5 -26 26 -50 11 -45 -29 0 -3
-6 -10 -15 -15 -8 -5 -13 -14 -10 -21 2 -7 -5 -18 -16 -25 -11 -7 -20 -8 -20
-3 0 5 4 11 10 13 6 2 6 8 -1 18 -8 13 -11 13 -19 -2 -9 -14 -15 -15 -56 -2
-40 12 -45 12 -40 -1 7 -19 2 -19 -35 1 -19 10 -35 12 -42 6 -18 -14 -58 -22
-51 -10 3 5 -2 9 -12 8 -11 -1 -22 -2 -26 -1 -5 0 -11 1 -15 2 -22 3 -42 21
-37 34 4 10 0 15 -11 15 -12 0 -16 -6 -12 -20 4 -16 0 -20 -20 -20 -13 0 -22
4 -19 9 4 5 -7 12 -24 16 -16 4 -30 11 -30 17 0 6 10 8 25 4 37 -9 75 3 75 24
0 22 20 37 29 22 7 -12 54 25 64 52 4 9 12 14 17 11 8 -5 8 -11 0 -20 -8 -10
-9 -19 -1 -32 10 -17 10 -17 11 0 0 10 6 17 12 15 7 -3 24 1 37 8 14 7 29 10
35 7 6 -3 5 0 -1 8 -20 20 -15 30 10 24 15 -4 28 -1 36 9 9 11 10 16 2 16 -6
0 -11 9 -11 20 0 11 -3 20 -8 20 -4 0 -12 10 -17 23 -9 20 -30 27 -30 10 -1
-18 -18 -34 -32 -29 -8 3 -22 -1 -30 -10 -13 -13 -18 -13 -25 -2 -8 10 -11 10
-15 1 -2 -7 -12 -13 -21 -13 -15 0 -15 2 -2 10 8 5 11 10 5 10 -5 0 -19 -10
-30 -23 -24 -28 -52 -40 -61 -26 -7 11 -44 -23 -44 -41 0 -15 -17 -12 -24 5
-3 8 -13 15 -23 14 -11 0 -13 -3 -5 -6 21 -8 13 -19 -15 -21 -22 -1 -24 0 -13
8 16 10 15 10 -32 14 -7 1 -19 8 -26 16 -12 13 -13 13 -8 -3 3 -10 6 -23 6
-28 0 -4 8 -5 17 -2 15 6 16 5 3 -9 -10 -10 -17 -12 -21 -5 -4 5 -14 7 -23 4
-9 -4 -16 -2 -16 3 0 6 7 10 15 10 13 0 14 4 5 20 -13 24 -30 26 -30 4 0 -18
-25 -46 -34 -37 -3 4 -6 1 -6 -5 0 -6 -6 -9 -14 -6 -8 3 -18 -7 -26 -26 -15
-36 -43 -37 -48 -2 -3 22 -22 32 -22 11 0 -5 -5 -7 -11 -3 -7 4 -20 -4 -31
-17 l-19 -24 7 24 c5 19 3 23 -10 18 -12 -5 -16 0 -16 18 0 14 5 25 10 25 6 0
10 5 10 10 0 6 -11 10 -25 10 -25 0 -30 11 -27 52 1 15 -2 16 -24 8 -14 -6
-31 -10 -37 -9 -7 0 0 5 16 11 15 5 27 17 27 25 0 13 -2 13 -17 2 -17 -15 -17
-12 7 35 13 25 12 29 -4 42 -17 12 -17 14 -2 29 18 19 20 31 6 40 -15 9 -12
42 4 48 7 3 25 4 39 3 14 -2 26 0 25 3 0 3 0 12 1 19 2 17 21 15 21 -3 0 -8 5
-15 10 -15 6 0 10 -10 10 -22 1 -22 1 -22 11 -4 8 13 8 20 -1 26 -6 4 -11 10
-11 14 3 20 -2 26 -24 32 -14 3 -25 10 -25 15 0 12 7 11 30 -1 14 -8 19 -5 23
11 3 11 11 18 18 17 7 -2 18 7 24 20 19 43 51 24 46 -28 -1 -10 1 -11 6 -4 10
14 74 13 70 -1 -1 -6 3 -10 8 -10 13 0 8 39 -5 43 -21 8 -8 19 21 19 25 0 30
-4 26 -19 -6 -23 9 -24 18 -1 3 10 1 19 -4 21 -15 5 -14 49 1 58 7 5 9 2 5 -8
-3 -9 1 -24 9 -35 15 -17 15 -17 11 5 -4 16 0 25 11 30 9 3 25 15 35 27 17 20
17 20 11 -7 -4 -18 -2 -28 5 -28 6 0 11 7 11 15 0 8 4 15 10 15 5 0 21 10 35
22 25 21 25 23 8 36 -13 10 -14 16 -5 19 6 3 12 9 12 15 0 6 -7 8 -15 4 -8 -3
-15 -1 -15 3 0 5 7 11 15 15 8 3 15 12 15 20 0 10 6 13 15 10 23 -9 18 13 -7
30 -12 9 -19 19 -15 22 4 4 13 1 22 -6 9 -8 15 -8 15 -2 0 6 -5 14 -11 17 -18
12 -31 57 -19 69 17 17 11 28 -10 21 -11 -3 -20 -3 -20 2 1 13 37 53 48 53 7
0 9 18 7 45 -4 36 -2 45 11 45 8 0 12 5 9 10 -9 14 9 12 23 -2 10 -10 15 -10
21 1 7 11 10 9 16 -8 8 -25 29 -17 22 9 -3 13 0 17 10 13 8 -3 12 -11 9 -18
-2 -7 1 -18 7 -24 13 -13 31 -15 22 -2 -3 5 -1 12 4 16 6 3 14 -3 20 -13 8
-15 20 -17 68 -15 88 5 106 11 100 33 -3 13 1 20 16 22 11 2 22 9 25 17 3 8 0
11 -6 7 -12 -7 -54 29 -44 38 3 3 0 6 -7 6 -7 0 -10 4 -6 9 3 5 1 12 -5 16 -5
3 -10 1 -10 -5 0 -20 -43 -28 -67 -12 -14 9 -23 10 -23 3 0 -6 -7 -8 -17 -4
-17 7 -53 39 -53 48 0 3 -21 27 -47 54 -108 111 -115 121 -103 137 8 9 9 14 2
14 -6 0 -13 -6 -15 -12 -10 -24 -27 15 -21 46 5 25 4 28 -11 22 -13 -5 -16 -2
-11 10 5 13 2 15 -14 11 -17 -4 -19 -3 -9 9 9 11 5 20 -19 46 -17 17 -29 34
-27 38 3 4 -7 31 -21 60 -17 36 -29 50 -39 46 -9 -3 -15 1 -15 9 0 9 6 12 18
8 14 -5 13 -3 -3 10 -11 8 -18 17 -15 19 3 2 19 13 37 26 18 12 42 22 54 22
18 0 19 3 9 14 -8 11 -9 20 -1 33 6 10 11 14 11 9 0 -5 7 -3 15 4 8 6 19 9 25
5 6 -3 10 3 10 16 0 18 2 20 16 9 12 -11 15 -11 12 0 -2 8 11 17 30 23 20 6
31 16 30 25 -3 17 44 34 68 25 8 -3 14 0 14 6 0 6 -7 11 -16 11 -8 0 -13 4 -9
10 8 13 35 1 35 -17 0 -11 7 -13 24 -9 15 4 26 1 29 -7 2 -6 15 -12 28 -13 68
-2 80 -5 73 -15 -4 -7 0 -9 14 -5 15 5 21 1 26 -19 5 -20 13 -25 36 -25 16 0
32 -4 35 -10 4 -6 -3 -9 -16 -7 -12 1 -24 -4 -26 -10 -3 -7 2 -13 10 -13 20 0
31 -31 15 -42 -10 -8 -10 -11 0 -15 14 -5 16 -23 3 -23 -5 0 -13 9 -16 21 -12
36 -15 14 -6 -34 5 -26 5 -44 0 -41 -5 3 -9 -2 -9 -11 0 -9 5 -13 10 -10 6 3
10 -1 10 -10 0 -9 -4 -13 -10 -10 -5 3 -10 1 -10 -4 0 -6 4 -11 9 -11 5 0 11
-10 14 -21 4 -15 11 -20 21 -16 9 4 16 3 16 -2 0 -5 -9 -11 -20 -14 -14 -3
-18 -10 -14 -21 4 -11 13 -14 26 -11 16 6 18 3 12 -22 -4 -15 -11 -33 -15 -39
-5 -6 -7 -13 -5 -15 2 -2 6 -16 10 -31 5 -24 3 -28 -14 -28 -11 0 -20 -4 -20
-10 0 -5 4 -10 10 -10 11 0 1 -32 -14 -42 -6 -4 -6 -11 2 -20 9 -11 7 -17 -8
-28 -11 -8 -20 -24 -20 -35 0 -11 -7 -31 -16 -43 -8 -12 -11 -22 -6 -22 6 0
15 -14 21 -31 6 -17 15 -28 21 -24 6 3 7 0 4 -9 -3 -9 -2 -16 4 -16 5 0 12 9
15 20 3 11 11 20 19 20 10 0 10 -2 -1 -9 -8 -5 -11 -16 -8 -24 4 -12 19 -15
56 -13 28 1 51 -2 51 -6 0 -4 6 -8 14 -8 8 0 17 -6 19 -12 3 -7 3 1 0 18 -5
29 -2 32 24 36 35 5 53 0 53 -14 0 -5 -9 -7 -20 -3 -11 3 -28 1 -37 -4 -14 -9
-7 -11 31 -9 33 1 55 8 65 20 8 10 19 14 25 9 21 -16 56 -20 56 -6 0 23 21 28
27 7 5 -19 6 -19 24 -4 19 16 69 25 69 12 0 -16 44 -3 57 17 9 13 20 20 30 16
12 -5 14 -1 8 16 -4 14 -2 23 8 27 8 3 18 24 22 47 5 23 9 45 10 50 1 4 3 16
4 28 0 11 5 17 11 14 7 -4 7 3 0 19 -6 17 -6 26 0 26 6 0 10 14 10 30 0 17 -5
30 -12 30 -6 0 -26 11 -44 25 -18 14 -35 25 -39 25 -3 0 -19 10 -34 21 -16 12
-34 18 -40 15 -6 -4 -14 0 -17 8 -3 9 -17 16 -30 16 -14 0 -27 7 -31 18 -9 23
-35 42 -51 37 -7 -3 -15 2 -18 10 -4 8 -13 15 -21 15 -17 0 -43 24 -43 39 0
17 14 13 33 -10 11 -13 24 -18 37 -14 30 10 70 -5 70 -26 0 -10 5 -19 10 -19
6 0 8 10 5 23 -6 22 -4 23 52 21 32 -1 59 -7 61 -13 3 -9 8 -9 18 0 8 6 31 13
52 15 20 1 38 8 40 14 3 7 10 1 16 -12 6 -12 24 -29 40 -37 15 -7 36 -21 46
-31 10 -10 30 -26 44 -35 14 -10 26 -27 26 -39 0 -11 9 -32 20 -46 13 -18 16
-28 8 -37 -6 -7 -8 -13 -4 -13 3 0 1 -11 -4 -24 -5 -15 -5 -27 3 -35 8 -8 7
-11 -6 -11 -10 0 -14 -5 -11 -15 4 -9 1 -15 -8 -15 -7 0 -19 -9 -26 -20 -7
-12 -17 -18 -22 -15 -6 3 -10 -1 -10 -11 0 -23 -47 -65 -65 -58 -9 4 -15 0
-15 -9 0 -8 -13 -21 -30 -29 -16 -7 -30 -18 -30 -25 0 -7 -7 -10 -15 -7 -11 5
-15 -1 -15 -25 0 -18 5 -31 13 -31 7 0 8 -3 2 -8 -10 -7 -16 -54 -6 -47 4 2
15 -4 26 -12 16 -13 16 -14 3 -10 -14 5 -17 1 -16 -18 2 -19 5 -22 20 -14 10
5 18 7 18 3 0 -3 11 1 25 10 14 9 25 12 25 7 0 -5 -4 -12 -9 -15 -12 -8 -2
-48 17 -63 8 -7 12 -19 8 -29 -6 -15 -4 -15 11 -3 11 9 14 10 9 2 -4 -8 -2
-13 5 -13 7 0 4 -7 -7 -15 -18 -13 -18 -14 5 -8 21 5 23 3 16 -18 -4 -13 -13
-28 -19 -32 -6 -5 -1 -5 12 -2 19 5 23 3 20 -11 -2 -11 4 -20 16 -22 13 -3 17
0 13 10 -8 21 5 37 33 40 17 2 25 -3 28 -17 6 -28 24 -46 22 -20 -4 33 -1 36
20 25 17 -9 20 -8 20 10 0 13 7 20 20 20 11 0 23 7 27 16 5 13 7 13 14 2 7
-11 11 -10 18 2 8 12 13 11 30 -9 25 -29 25 -31 6 -31 -8 0 -15 7 -15 15 0 23
-17 18 -25 -7 l-7 -23 -8 25 c-6 18 -9 20 -10 8 -4 -29 -5 -32 -13 -45 -5 -8
-4 -13 2 -13 6 0 11 5 11 10 0 6 5 10 10 10 6 0 9 -6 8 -12 -2 -7 4 -13 12
-13 9 0 14 7 12 19 -3 16 1 18 35 11 37 -7 37 -6 20 12 -23 26 -22 33 8 33 31
0 45 28 22 42 -9 4 -14 14 -11 21 2 7 -5 23 -16 35 -11 12 -18 22 -14 22 3 0
1 6 -5 13 -6 8 -9 16 -6 19 3 2 -9 3 -25 0 -31 -4 -70 19 -70 41 0 6 8 3 18
-6 25 -23 29 -22 34 12 3 23 1 27 -14 23 -23 -6 -23 7 -1 24 10 7 14 16 9 21
-5 4 -11 2 -13 -4 -9 -25 -23 -12 -23 21 0 21 -6 36 -15 40 -8 3 -12 12 -9 21
6 14 8 13 19 -2 11 -15 13 8 11 137 -2 85 -6 163 -10 173 -6 11 -4 17 5 17 12
0 12 2 0 9 -8 5 -12 18 -8 30 3 11 -1 25 -9 32 -8 6 -14 20 -14 30 0 10 -13
45 -30 77 -16 32 -32 77 -35 100 -4 39 -3 42 20 42 13 0 26 -4 30 -9 3 -5 18
-9 33 -9 15 0 63 -9 107 -20 103 -26 133 -31 230 -38 44 -3 90 -7 102 -9 12
-3 68 0 125 6 56 6 118 11 136 11 17 0 35 4 38 9 3 5 -6 9 -20 9 -14 0 -26 5
-26 10 0 6 -13 10 -29 10 -16 0 -43 3 -60 6 -26 6 -31 11 -31 35 0 27 -10 35
-35 29 -22 -6 -102 -5 -138 1 -20 4 -40 2 -43 -2 -3 -5 -10 -6 -16 -3 -6 4
-41 10 -77 14 -76 9 -200 43 -251 69 -19 10 -46 21 -60 25 -14 3 -53 33 -88
65 -34 33 -71 63 -81 66 -10 3 -21 19 -25 35 -4 23 -9 28 -23 23 -15 -5 -15
-3 2 10 14 11 16 16 6 17 -8 0 -20 8 -27 18 -12 15 -15 15 -23 2 -6 -8 -13
-11 -17 -7 -4 4 -3 12 3 18 15 15 5 39 -17 39 -23 0 -33 65 -13 82 15 12 18
42 3 33 -6 -4 -10 8 -10 30 0 22 6 38 15 41 19 8 21 80 3 87 -10 3 -10 9 0 26
9 15 9 27 3 40 -11 20 -64 35 -69 20 -6 -14 -32 -10 -38 6 -4 8 -10 12 -15 9
-5 -3 -18 14 -28 38 -16 39 -17 46 -3 75 17 36 44 51 89 47 18 -1 31 2 28 6
-3 4 2 13 9 19 11 10 15 9 18 -4 3 -15 7 -14 32 6 l29 23 -5 -27 c-4 -18 -1
-26 6 -24 6 2 11 9 11 15 0 15 4 15 29 6 12 -5 21 -3 24 4 6 18 20 14 18 -4 0
-9 6 -19 14 -21 13 -4 13 -3 0 7 -13 9 -12 11 5 9 36 -3 45 1 46 19 1 16 2 16
6 -1 3 -12 11 -15 27 -11 15 3 30 -3 48 -19 18 -17 30 -21 40 -15 10 7 10 11
1 15 -7 2 -13 16 -13 29 0 13 -5 24 -11 24 -6 0 -9 -7 -6 -15 9 -21 -9 -28
-26 -10 -9 8 -23 15 -32 15 -9 0 -13 5 -10 10 4 6 15 8 26 5 11 -4 19 -2 19 4
0 10 -6 12 -42 15 -7 1 -16 5 -19 10 -4 4 -15 3 -26 -3 -11 -5 -23 -8 -25 -5
-9 8 -112 32 -120 28 -5 -3 -8 2 -8 11 0 12 -8 14 -36 11 -35 -5 -84 10 -84
25 0 4 -6 9 -14 12 -10 4 -12 0 -8 -16 5 -18 3 -20 -9 -10 -11 9 -19 7 -37
-12 -13 -13 -31 -22 -41 -20 -14 2 -22 -7 -31 -35 -7 -22 -17 -37 -22 -34 -4
3 -5 10 -2 16 4 6 0 14 -7 19 -12 8 -12 10 0 18 9 6 10 11 2 15 -6 4 -11 15
-10 24 0 11 3 12 6 5 5 -14 33 -18 33 -5 -1 15 -26 39 -38 35 -7 -3 -10 1 -7
9 3 8 -6 31 -20 52 -25 37 -26 78 -3 92 5 3 1 12 -8 19 -16 11 -16 14 4 35 23
24 26 33 23 63 -1 9 3 17 9 17 7 0 10 6 7 14 -3 7 0 19 6 25 9 9 8 14 -3 21
-8 5 -10 10 -4 10 11 0 23 27 28 60 4 29 28 80 38 80 5 0 7 4 3 9 -3 5 -1 12
4 16 13 8 -30 51 -46 47 -7 -2 -13 6 -13 18 0 11 6 20 14 20 8 0 21 3 30 6 11
4 17 -4 22 -30 3 -20 8 -36 11 -36 2 0 15 13 29 29 14 17 38 31 59 35 22 5 35
13 35 23 0 11 6 14 25 9 19 -5 32 0 51 19 14 14 29 25 33 25 5 0 11 9 14 20 3
11 18 25 34 31 15 6 41 17 56 25 16 8 43 14 62 14 18 0 50 7 71 16 21 9 53 16
72 16 19 0 36 6 39 13 2 8 17 13 31 13 27 0 54 10 102 37 14 8 37 15 52 15 14
0 28 5 30 10 2 6 39 12 82 15 43 2 83 8 89 14 6 6 14 5 24 -5 8 -8 22 -14 32
-14z m-3783 -458 c23 -19 38 -50 35 -71 -1 -8 3 -18 11 -22 8 -5 13 -27 12
-58 0 -40 2 -48 15 -44 14 4 14 4 1 -6 -24 -17 -44 -13 -79 18 -21 19 -39 27
-50 23 -14 -5 -14 -3 -3 10 11 14 10 17 -9 20 -12 2 -25 10 -27 18 -5 13 -3
13 11 1 25 -20 20 1 -7 30 -32 35 -50 70 -39 79 7 7 35 13 93 18 8 1 24 -6 36
-16z m654 -175 c0 -5 6 -7 13 -4 23 9 131 -15 144 -32 9 -11 12 -12 13 -3 0 8
5 10 13 5 6 -4 22 -6 33 -5 24 3 37 -18 23 -39 -8 -12 -10 -12 -19 1 -8 12
-10 12 -10 1 0 -8 -8 -20 -17 -27 -21 -16 -37 -18 -28 -4 3 6 -3 10 -14 10
-12 0 -21 -4 -21 -10 0 -5 -11 -10 -25 -10 -14 0 -25 -5 -25 -11 0 -5 -8 -9
-17 -8 -10 2 -35 -5 -55 -13 -20 -9 -46 -14 -57 -11 -12 3 -28 0 -35 -7 -11
-8 -20 -8 -35 -1 -11 6 -44 9 -75 6 -45 -5 -56 -3 -56 9 0 11 -10 14 -35 12
-31 -2 -36 0 -33 18 2 13 12 22 26 24 24 4 30 30 10 50 -16 16 -4 25 37 26 19
1 33 6 31 11 -2 6 18 11 45 13 43 3 48 1 42 -15 -5 -15 -2 -14 16 4 17 18 31
22 66 21 25 -1 45 -6 45 -11z m438 -254 c-11 -14 -10 -15 10 -9 13 5 22 3 22
-3 0 -6 9 -11 19 -11 24 0 36 -16 19 -23 -7 -3 0 -10 17 -16 32 -13 45 -27 45
-50 0 -12 -3 -12 -12 -3 -17 17 -25 15 -31 -7 -6 -25 -47 -17 -54 11 -3 10
-10 18 -16 18 -5 0 -16 8 -23 17 -7 10 -16 15 -20 10 -4 -4 -3 -12 3 -18 12
-12 7 -39 -8 -39 -4 0 -6 7 -3 15 4 8 1 15 -5 15 -6 0 -11 7 -11 16 0 10 -6
14 -15 10 -23 -8 -37 27 -24 61 l11 28 22 -27 c12 -16 26 -28 31 -28 5 0 4 5
-3 12 -17 17 -15 39 3 32 8 -4 15 -1 15 6 0 6 5 8 10 5 8 -5 7 -12 -2 -22z
m-81 -146 c8 3 19 0 24 -8 7 -12 10 -12 18 -1 7 11 9 11 14 -2 4 -9 14 -16 22
-16 12 0 15 6 9 22 -6 20 -5 21 10 6 17 -18 31 -23 87 -32 33 -6 38 -11 47
-48 10 -40 9 -43 -19 -68 -16 -15 -26 -30 -22 -33 3 -4 -2 -7 -12 -7 -10 0
-27 -8 -37 -17 -25 -22 -85 -43 -125 -43 -17 0 -35 -5 -38 -10 -9 -15 -45 7
-45 28 0 10 -5 23 -12 30 -9 9 -8 12 6 12 10 0 14 5 10 11 -3 6 -7 40 -8 76
-2 51 2 70 17 90 13 16 23 21 30 14 5 -5 16 -7 24 -4z m-285 -480 c-8 -10 -1
-13 31 -13 23 -1 43 -6 44 -11 2 -6 15 -8 30 -5 18 3 24 1 19 -6 -5 -8 -2 -10
8 -6 9 3 16 12 16 18 0 10 12 10 50 2 28 -5 50 -14 50 -19 0 -5 -8 -22 -17
-38 -13 -22 -22 -27 -40 -23 -17 5 -23 2 -23 -10 0 -9 -6 -13 -14 -10 -8 3
-20 -3 -27 -14 -9 -12 -23 -18 -36 -16 -15 3 -23 -1 -23 -11 0 -17 -17 -20
-22 -4 -2 7 -13 5 -32 -5 -16 -8 -34 -12 -41 -10 -7 3 -16 1 -19 -4 -3 -5 -21
-8 -41 -6 -19 1 -37 -2 -40 -6 -3 -5 -16 -5 -30 0 -20 7 -25 6 -25 -5 0 -8 5
-15 10 -15 6 0 10 -4 10 -10 0 -5 -9 -10 -20 -10 -13 0 -20 7 -20 18 0 26 -28
60 -37 46 -5 -6 -17 -16 -29 -22 -23 -12 -44 0 -44 26 0 12 -3 12 -15 2 -8 -7
-15 -8 -15 -3 0 5 11 15 25 21 14 7 30 22 35 34 5 13 9 18 9 12 1 -16 51 -12
51 4 0 6 5 12 10 12 6 0 10 -7 10 -15 0 -8 4 -15 9 -15 5 0 7 9 4 20 -5 17 0
20 27 20 28 0 31 3 25 23 -5 18 -4 19 5 7 9 -12 12 -13 17 -1 4 11 7 11 13 1
6 -10 12 -10 25 3 9 10 13 17 8 17 -9 1 57 37 71 39 5 1 4 -5 -2 -12z m4868
-289 c0 -9 4 -8 10 2 8 13 10 13 10 -2 0 -14 4 -16 24 -8 19 7 26 5 30 -7 4
-9 14 -13 26 -10 12 3 24 -1 29 -11 5 -9 13 -14 16 -10 4 4 23 -2 42 -13 19
-11 38 -17 43 -14 5 3 11 -4 15 -15 3 -11 10 -20 15 -20 5 0 7 -7 4 -15 -4 -9
0 -15 9 -15 9 0 23 -23 37 -57 12 -32 26 -66 31 -75 5 -10 6 -24 3 -33 -3 -8
-1 -15 6 -15 6 0 10 -8 8 -17 -1 -10 1 -24 6 -31 8 -13 9 -22 20 -118 3 -28
10 -63 15 -77 6 -15 7 -28 3 -31 -4 -2 -9 -30 -10 -62 -1 -31 -6 -62 -9 -68
-10 -16 -11 -86 -1 -86 4 0 8 6 8 13 1 6 8 -1 16 -16 8 -15 19 -25 24 -22 6 4
10 -1 10 -9 0 -9 -4 -16 -10 -16 -5 0 -10 4 -10 9 0 5 -10 11 -22 15 -24 6
-43 -6 -43 -27 0 -7 -9 -11 -20 -10 -11 1 -33 -3 -48 -9 -21 -8 -34 -8 -52 2
-21 11 -24 19 -22 59 2 25 13 66 24 91 l22 45 -32 8 c-18 5 -35 14 -38 19 -4
6 -12 7 -18 3 -8 -5 -9 -11 -2 -19 8 -9 0 -12 -32 -11 -51 1 -93 -9 -90 -22 1
-5 -14 -10 -33 -10 -19 -1 -34 3 -34 8 0 4 -6 6 -14 3 -8 -3 -24 0 -36 6 -34
18 -52 6 -38 -25 10 -23 15 -24 62 -21 28 3 61 7 72 11 16 5 30 -1 52 -23 16
-16 37 -32 46 -35 9 -4 17 -18 18 -32 0 -14 2 -42 3 -62 2 -46 53 -132 78
-133 9 0 17 -5 17 -12 0 -6 10 -22 22 -36 21 -22 22 -24 5 -33 -9 -6 -17 -18
-17 -27 0 -10 -5 -23 -12 -30 -9 -9 -9 -12 0 -12 7 0 12 -7 12 -15 0 -8 4 -15
9 -15 15 0 22 32 10 46 -13 16 2 19 18 3 14 -14 51 8 60 36 3 11 16 34 29 51
13 17 24 34 24 38 0 4 7 14 15 22 11 11 12 21 4 41 -5 14 -7 28 -4 31 3 3 5 0
5 -6 0 -7 5 -12 10 -12 6 0 10 7 10 15 0 8 9 19 19 25 18 9 19 12 5 38 -17 32
-18 42 -4 42 6 0 10 -9 10 -20 0 -20 11 -26 23 -13 4 3 2 12 -4 20 -9 10 -8
13 5 13 10 0 16 9 16 24 0 13 3 32 7 42 5 13 3 16 -10 11 -9 -3 -17 -2 -17 4
0 5 7 12 15 15 8 4 15 17 15 31 0 30 30 85 45 80 5 -2 16 2 23 9 10 10 18 10
42 -4 16 -9 25 -18 20 -20 -6 -2 -10 -11 -10 -19 0 -14 2 -14 19 1 17 16 20
16 35 0 19 -18 18 -18 35 14 8 15 8 22 1 22 -6 0 -8 5 -5 10 12 19 24 10 31
-25 3 -20 12 -35 20 -35 19 0 56 38 44 45 -19 12 -10 22 18 19 15 -2 19 -1 10
2 -24 7 -23 24 2 24 11 0 20 -4 20 -8 0 -17 38 -53 42 -40 6 17 99 -38 105
-63 3 -11 10 -19 15 -19 6 0 7 -11 4 -24 -7 -28 2 -58 15 -50 5 3 9 0 9 -7 0
-7 8 -5 20 6 11 10 20 13 20 7 0 -6 -4 -14 -10 -17 -18 -11 -11 -33 9 -28 11
3 17 11 15 18 -4 9 3 11 21 7 15 -2 24 -10 22 -17 -3 -6 -1 -18 4 -26 7 -11 9
-9 9 8 0 16 5 20 19 16 10 -2 24 2 32 10 8 7 28 17 44 21 50 13 135 18 135 9
0 -6 20 -5 50 1 28 5 50 14 50 19 0 4 5 5 10 2 6 -4 18 -1 27 6 13 11 17 10
28 -4 13 -18 31 -24 20 -7 -9 15 4 12 22 -5 8 -8 19 -13 24 -10 5 4 9 -1 9 -9
0 -25 36 -19 54 9 9 14 22 25 28 25 6 0 3 -9 -7 -20 -19 -21 -13 -25 25 -20
12 1 13 -1 3 -11 -7 -7 -13 -20 -13 -29 1 -13 3 -12 14 3 18 23 25 22 18 -5
-4 -17 -2 -20 11 -15 11 4 17 1 17 -8 0 -8 6 -15 13 -16 10 0 10 -2 0 -6 -15
-6 -17 -33 -3 -33 6 0 10 -5 10 -11 0 -6 -6 -9 -13 -6 -8 3 -20 -3 -27 -13 -8
-11 -17 -17 -22 -14 -4 3 -5 -2 -1 -11 5 -13 7 -14 14 -3 7 11 11 10 19 -2 5
-8 10 -21 10 -27 0 -7 9 -13 20 -13 22 0 27 -15 8 -23 -8 -4 -7 -6 4 -6 16 -1
53 -59 43 -69 -2 -3 -12 1 -22 9 -11 9 -9 3 6 -17 15 -20 20 -39 17 -57 -6
-33 11 -36 24 -4 l9 22 0 -22 c1 -13 5 -23 10 -23 4 0 6 -10 4 -23 -3 -17 2
-26 21 -36 34 -19 68 -95 70 -156 1 -51 12 -71 31 -55 6 5 15 -1 22 -16 7 -14
7 -24 1 -24 -5 0 -3 -7 6 -15 8 -8 21 -15 28 -15 10 0 9 -3 -2 -10 -13 -8 -13
-11 -1 -19 8 -5 11 -16 7 -26 -9 -24 4 -86 16 -79 6 4 8 -2 3 -15 -5 -15 -2
-21 10 -21 12 0 14 -6 9 -26 -5 -19 -4 -25 5 -20 6 4 11 1 11 -8 0 -8 -5 -16
-11 -18 -12 -4 6 -46 25 -59 5 -4 9 -20 10 -36 1 -21 6 -28 21 -28 11 0 21 -3
22 -8 2 -4 9 -20 18 -36 13 -26 13 -30 -2 -35 -15 -6 -15 -8 0 -23 13 -13 19
-14 31 -4 10 8 16 9 21 1 3 -5 -1 -10 -9 -10 -25 0 -18 -20 7 -21 21 0 21 -1
-3 -11 l-25 -11 23 -4 c12 -3 20 -9 16 -14 -3 -5 -10 -7 -15 -4 -5 4 -12 -1
-15 -9 -3 -9 -13 -16 -22 -16 -13 0 -13 -3 -4 -12 10 -10 17 -10 32 0 10 6 22
8 25 3 9 -15 -7 -42 -21 -37 -20 8 -17 -11 4 -23 16 -9 16 -11 0 -27 -16 -17
-18 -16 -28 11 -6 15 -14 25 -17 21 -8 -8 26 -76 39 -76 4 0 8 -4 8 -10 0 -15
-16 -12 -34 5 -8 8 -17 11 -20 6 -4 -5 -1 -11 4 -13 6 -2 12 -13 13 -26 0 -12
5 -22 9 -22 4 0 8 -4 8 -10 0 -5 -7 -7 -15 -4 -23 9 -18 -6 10 -32 27 -25 37
-56 11 -35 -7 6 -20 9 -29 5 -16 -6 -34 13 -22 24 3 3 10 0 15 -8 6 -9 10 -10
10 -3 0 6 -7 19 -16 27 -8 9 -21 16 -27 16 -8 0 -7 -3 2 -9 11 -7 11 -12 2
-22 -6 -8 -20 -24 -30 -36 l-18 -23 -27 21 c-21 17 -26 18 -26 5 0 -9 -3 -16
-6 -16 -7 0 -76 41 -84 49 -3 4 -20 7 -39 8 -18 1 -39 7 -47 14 -7 6 -17 8
-22 5 -10 -6 -98 16 -127 32 -11 5 -33 11 -50 13 -16 2 -36 8 -43 13 -9 7 -16
6 -21 -3 -6 -8 -23 -11 -55 -7 -35 4 -46 2 -46 -8 0 -9 -15 -15 -40 -18 -22
-2 -40 -1 -40 3 0 3 -19 4 -42 2 -74 -7 -200 -9 -203 -2 -3 3 -32 2 -66 -3
-33 -4 -64 -6 -69 -3 -6 4 -130 6 -375 6 -32 0 -61 2 -64 4 -2 3 -10 0 -18 -6
-10 -9 -17 -8 -30 2 -12 10 -15 11 -9 1 6 -9 2 -11 -16 -7 -14 3 -41 -4 -70
-19 -29 -14 -50 -20 -56 -14 -6 6 -12 -6 -16 -32 -6 -37 -8 -40 -23 -29 -14
12 -15 11 -9 -9 6 -18 4 -22 -13 -22 -11 0 -26 -7 -34 -15 -8 -7 -27 -17 -42
-21 -20 -5 -25 -11 -22 -26 4 -14 1 -18 -8 -14 -7 2 -19 -2 -25 -10 -7 -8 -22
-13 -34 -13 -20 2 -20 2 2 6 22 4 32 23 11 23 -5 0 -7 5 -4 10 3 6 2 10 -3 10
-5 0 -26 16 -47 36 -27 25 -35 38 -27 46 6 6 8 17 5 24 -3 8 0 14 7 14 6 0 8
5 5 10 -4 6 -11 8 -16 5 -5 -4 -14 6 -19 22 -6 15 -15 36 -20 45 -6 10 -10 27
-10 38 0 11 -4 20 -9 20 -5 0 -14 20 -20 44 -6 24 -22 54 -36 67 -13 13 -25
30 -25 37 0 6 -7 12 -15 12 -23 0 -78 57 -69 71 4 8 3 9 -4 5 -8 -5 -12 5 -12
33 0 22 -5 43 -11 46 -6 4 -9 21 -7 38 3 27 0 32 -19 31 -12 0 -20 3 -17 8 3
4 13 8 22 8 12 0 21 13 28 44 5 25 6 43 2 40 -7 -5 -13 27 -9 49 1 4 -4 18
-11 30 -6 12 -11 34 -9 48 2 20 -3 28 -20 32 -26 7 -17 22 12 22 10 0 18 5 18
10 0 6 -8 9 -18 8 -13 -2 -18 5 -19 25 -2 68 -6 92 -15 92 -6 0 -6 5 1 13 5 6
7 27 5 45 -4 26 -9 31 -24 27 -11 -4 -19 -2 -19 4 0 6 5 11 12 11 21 0 -2 14
-30 18 -15 2 -28 7 -30 13 -2 5 -14 9 -26 9 -28 0 -73 45 -55 55 8 6 7 10 -4
17 -22 12 -15 166 10 228 5 14 8 53 7 88 -2 34 0 62 4 62 5 0 9 15 10 33 3 86
8 133 15 144 9 15 21 88 20 126 0 15 5 27 11 27 6 0 17 9 24 20 7 12 8 20 2
20 -16 0 -12 38 10 82 11 23 20 52 20 65 0 13 4 23 8 23 7 0 9 8 13 65 1 14 5
28 10 31 4 2 5 12 2 20 -4 10 2 17 16 21 11 3 21 9 21 13 0 5 9 12 20 15 11 3
20 14 20 23 0 14 2 14 9 3 5 -8 8 -22 6 -32 -2 -12 1 -16 10 -13 19 8 26 54 9
61 -11 4 -11 9 1 26 8 12 15 34 15 49 0 16 5 28 10 28 6 0 10 -6 10 -12z
m-4460 -84 c0 -14 2 -15 17 -3 13 11 17 11 20 2 3 -7 11 -13 19 -13 17 0 19
-20 2 -20 -8 0 -6 -5 4 -11 10 -5 15 -16 11 -25 -5 -12 -7 -13 -14 -3 -4 8
-11 10 -15 6 -4 -4 -2 -13 4 -19 15 -15 16 -38 2 -38 -5 0 -10 8 -10 18 -1 16
-1 16 -14 0 -7 -10 -19 -18 -25 -18 -8 0 -10 -8 -6 -20 5 -16 2 -20 -14 -20
-12 0 -21 -4 -21 -10 0 -5 4 -10 9 -10 4 0 6 -12 3 -26 -3 -18 -8 -22 -15 -15
-18 18 -29 12 -22 -10 7 -20 4 -21 -20 -15 -25 6 -26 6 -11 -9 20 -20 21 -29
2 -22 -7 3 -27 -3 -44 -13 -20 -13 -33 -15 -40 -8 -6 6 -16 7 -23 2 -9 -5 -5
-10 12 -17 13 -6 27 -9 32 -9 4 1 7 -2 7 -7 0 -12 -43 -10 -51 1 -7 10 -69
-13 -69 -27 0 -5 -5 -3 -10 5 -6 10 -10 11 -10 3 0 -18 -29 -16 -36 2 -8 20
-23 19 -46 -2 -23 -21 -36 -10 -14 12 18 18 21 35 6 35 -5 0 -10 7 -10 15 0
17 16 20 25 5 8 -13 25 -13 25 1 0 6 -9 13 -20 16 -11 3 -17 10 -14 15 3 5 17
7 30 4 14 -4 24 -2 24 4 0 6 4 9 10 5 5 -3 7 -13 4 -23 -4 -10 -3 -13 3 -6 4
6 17 14 27 18 15 5 17 9 8 18 -17 17 -15 25 8 31 22 6 28 -8 8 -16 -7 -3 1 -6
17 -6 32 0 73 23 56 33 -18 12 -70 13 -74 2 -2 -6 -8 -8 -12 -4 -11 11 4 28
26 28 10 0 19 5 19 10 0 9 -14 14 -32 11 -5 0 -8 3 -8 8 0 6 8 9 18 8 23 -1
82 23 82 34 0 5 8 5 17 2 13 -5 15 -2 10 11 -6 16 -3 17 19 12 21 -6 25 -4 21
8 -5 12 0 16 17 16 14 0 27 -6 30 -12 3 -7 4 2 3 20 -1 20 4 36 13 42 22 14
30 12 30 -6z m453 -581 c-21 -8 -15 -23 10 -23 17 0 19 -2 7 -10 -12 -8 -12
-10 3 -16 12 -4 16 -13 11 -26 -5 -17 -3 -19 15 -13 22 7 30 -10 9 -18 -8 -4
-4 -8 10 -12 12 -4 22 -15 23 -24 0 -10 2 -11 6 -3 2 6 9 10 14 6 5 -3 9 -1 9
4 0 6 8 13 18 17 14 5 15 4 5 -6 -20 -20 -15 -32 8 -26 27 7 49 -1 49 -19 0
-8 6 -11 15 -8 9 4 15 0 16 -7 0 -8 3 -23 6 -34 3 -11 5 -32 4 -47 0 -15 4
-30 9 -33 6 -4 10 1 10 9 0 9 4 16 10 16 5 0 7 -7 4 -15 -4 -8 -1 -22 6 -30
14 -16 -2 -38 -32 -43 -12 -2 -15 3 -11 18 3 11 1 20 -3 21 -5 0 -42 2 -81 3
-40 2 -79 9 -87 15 -8 7 -25 9 -42 5 -23 -6 -26 -4 -21 11 6 14 3 16 -19 11
-22 -6 -25 -4 -19 13 5 15 -1 21 -29 31 -29 9 -35 16 -39 48 -8 60 -7 85 5
100 7 8 12 26 13 40 0 19 5 27 18 26 9 -1 17 2 17 6 0 5 10 11 23 13 31 6 44
6 30 0z m-1199 -1302 c17 -18 17 -20 -1 -30 -17 -10 -16 -10 4 -11 12 0 23 -6
26 -12 4 -10 7 -10 18 0 11 10 10 12 -4 12 -9 0 -17 7 -17 15 0 18 5 19 29 3
15 -9 17 -17 10 -35 -6 -18 -5 -23 6 -23 8 0 15 7 15 15 0 8 4 15 9 15 14 0 8
-34 -9 -47 -12 -10 -10 -12 15 -10 27 2 31 -2 39 -35 5 -21 13 -38 18 -38 4 0
8 -9 8 -19 0 -11 9 -22 19 -26 25 -7 45 -57 39 -95 -3 -17 -1 -33 4 -36 4 -3
8 0 8 6 0 6 5 8 10 5 6 -3 10 -24 10 -47 0 -36 2 -40 20 -35 17 4 20 2 15 -14
-4 -10 -2 -19 4 -19 6 0 8 -7 5 -15 -4 -8 1 -17 9 -21 8 -3 20 -25 27 -50 7
-24 16 -44 20 -44 5 0 13 -13 19 -30 6 -20 7 -30 0 -30 -6 0 -7 -4 -4 -10 3
-5 1 -10 -4 -10 -6 0 -11 -7 -11 -15 0 -8 5 -15 10 -15 6 0 10 4 10 9 0 5 8 7
18 5 21 -6 24 -54 3 -54 -11 0 -10 -5 4 -20 10 -11 22 -20 27 -20 5 0 6 9 3
20 -3 11 -2 20 3 20 12 0 20 -78 9 -89 -9 -9 21 -72 41 -84 6 -4 12 -21 12
-37 0 -16 5 -32 11 -35 6 -4 8 -13 5 -21 -6 -15 29 -38 44 -29 6 3 10 1 10 -4
0 -6 -4 -11 -10 -11 -5 0 -10 -5 -10 -11 0 -6 9 -8 20 -4 23 7 28 -13 5 -21
-26 -10 -16 -27 13 -21 23 4 29 0 44 -28 15 -29 15 -35 2 -45 -8 -7 -14 -17
-14 -22 0 -6 7 -5 16 3 13 10 17 10 25 -2 5 -8 9 -10 9 -6 0 5 5 5 12 1 8 -5
2 -12 -17 -21 l-30 -13 33 6 c28 5 32 3 32 -15 0 -12 6 -21 15 -21 8 0 15 -7
15 -15 0 -8 -4 -15 -10 -15 -5 0 -9 -3 -9 -7 4 -22 -3 -32 -16 -27 -18 7 -19
0 -5 -27 6 -10 7 -19 3 -19 -12 0 -43 38 -43 52 0 7 -6 3 -14 -7 -8 -11 -12
-24 -9 -29 4 -5 1 -6 -5 -2 -7 4 -12 17 -12 29 0 18 -2 19 -10 7 -8 -13 -10
-13 -10 2 0 9 8 19 18 21 15 4 15 5 0 6 -9 0 -19 -3 -22 -8 -4 -5 -17 -4 -31
2 -19 9 -24 17 -20 33 4 17 -1 23 -21 28 -13 4 -29 4 -34 1 -6 -4 -10 -1 -10
4 0 6 -6 11 -14 11 -8 0 -18 5 -22 11 -4 8 1 9 16 4 19 -6 22 -4 17 10 -4 9
-7 24 -7 33 0 12 -3 13 -12 4 -17 -17 -28 -15 -28 4 0 13 -7 15 -28 11 -31 -6
-61 6 -44 17 6 4 9 13 6 20 -3 9 1 13 13 13 13 -2 17 4 15 17 -2 10 2 23 10
27 10 7 9 9 -4 9 -11 0 -18 -8 -18 -20 0 -11 -7 -20 -15 -20 -17 0 -20 17 -4
22 6 2 14 23 19 46 6 33 4 42 -6 42 -8 0 -14 -8 -14 -17 0 -15 -2 -16 -10 -3
-11 18 -16 13 -23 -27 -8 -38 4 -42 27 -10 9 12 14 15 10 7 -24 -51 -72 -63
-53 -13 14 36 11 47 -15 76 -14 15 -20 30 -16 37 6 9 10 6 15 -9 3 -11 11 -21
17 -21 5 0 8 6 6 12 -3 7 2 19 10 27 10 10 11 16 3 19 -6 2 -11 14 -11 27 0
13 -5 27 -11 31 -6 3 -8 17 -4 32 5 22 4 24 -9 13 -9 -8 -16 -21 -16 -30 0 -9
-8 -25 -16 -36 -18 -22 -18 -23 2 45 3 13 0 22 -10 26 -16 6 -18 42 -3 62 7 8
5 12 -7 12 -9 0 -16 -4 -16 -10 0 -5 -10 -10 -22 -10 -13 0 -18 4 -13 8 16 11
16 49 0 62 -8 6 -11 19 -8 28 6 15 4 15 -9 4 -13 -10 -18 -10 -24 -1 -4 7 -2
15 4 17 19 6 14 22 -8 22 -14 0 -18 5 -14 18 5 15 4 15 -10 -2 -8 -10 -20 -15
-26 -11 -9 6 -9 10 1 16 11 6 10 11 -3 26 -11 12 -14 23 -8 33 5 9 3 21 -6 34
-18 26 -20 56 -2 38 16 -16 28 -15 28 3 0 8 -7 15 -16 15 -12 0 -15 7 -12 25
3 14 2 28 -3 31 -4 2 -6 11 -3 18 3 9 -6 18 -25 24 -24 8 -28 15 -24 33 5 19
3 21 -20 17 -32 -6 -35 2 -6 20 12 7 19 16 16 18 -3 3 -18 -3 -33 -12 l-27
-18 6 37 c4 26 2 35 -5 31 -7 -5 -8 -2 -2 7 4 7 7 29 5 48 -2 20 3 37 11 42
10 7 9 9 -4 9 -9 0 -20 -4 -23 -10 -3 -5 -14 -10 -23 -10 -16 1 -16 1 1 11 9
5 17 17 17 24 0 8 6 15 13 16 10 0 10 2 0 6 -7 2 -13 11 -13 18 0 23 -20 28
-34 9 -12 -16 -13 -15 -13 9 0 38 14 43 43 16 13 -12 27 -19 31 -16 3 4 2 7
-3 7 -5 0 -10 9 -10 20 0 26 37 27 60 1z m7658 -262 c21 1 38 -3 38 -9 0 -5
-3 -10 -7 -10 -5 0 -17 -7 -27 -15 -16 -12 -17 -17 -6 -30 7 -8 17 -12 22 -9
13 8 60 -5 53 -15 -2 -5 2 -12 11 -15 8 -3 13 -10 10 -14 -3 -5 4 -16 15 -25
23 -20 24 -36 4 -43 -17 -7 -21 -54 -4 -54 6 0 8 -9 4 -21 -5 -13 -2 -25 6
-30 7 -4 10 -12 5 -16 -5 -4 -11 -2 -13 5 -3 6 -11 12 -19 12 -10 0 -6 -9 13
-29 15 -16 31 -24 34 -19 3 5 9 2 13 -8 4 -10 2 -20 -3 -22 -7 -2 -8 -10 -1
-21 16 -30 -2 -33 -22 -4 -12 20 -18 23 -18 11 0 -9 6 -18 13 -21 9 -3 9 -7 1
-18 -6 -8 -8 -24 -5 -35 5 -19 8 -20 19 -8 7 8 8 14 2 14 -5 0 -10 4 -10 10 0
5 6 7 14 4 10 -4 14 -16 11 -37 -2 -18 2 -42 11 -55 19 -29 13 -38 -15 -20
-14 9 -24 9 -31 2 -14 -14 -2 -44 16 -37 11 4 12 -1 2 -27 -8 -25 -8 -34 3
-40 10 -7 10 -12 -2 -26 -8 -10 -9 -15 -3 -11 8 4 11 -2 10 -18 0 -14 -6 -25
-12 -25 -7 0 -11 -24 -11 -65 0 -47 -5 -71 -17 -84 -9 -9 -16 -24 -16 -32 0
-8 -7 -25 -16 -37 -15 -22 -15 -23 1 -20 12 2 19 -5 21 -22 3 -21 2 -22 -7 -7
-5 9 -16 17 -23 17 -16 0 -29 -27 -17 -35 14 -8 2 -119 -13 -127 -8 -5 -12
-17 -9 -28 3 -11 1 -20 -5 -20 -6 0 -14 -16 -18 -35 -3 -19 -12 -39 -20 -46
-8 -6 -14 -17 -14 -23 0 -6 5 -4 10 4 8 12 10 11 10 -7 0 -12 -5 -25 -10 -28
-20 -12 -78 -108 -74 -120 6 -14 -41 -29 -58 -19 -8 5 -9 1 -4 -11 6 -17 5
-18 -11 -3 -19 17 -47 13 -36 -5 4 -7 0 -8 -12 -4 -9 4 -23 2 -31 -4 -10 -8
-16 -5 -26 10 -7 12 -23 21 -35 21 -15 0 -23 6 -23 17 0 9 -3 13 -6 10 -4 -4
-19 2 -33 13 -15 10 -38 22 -52 25 -32 8 -72 42 -64 55 3 6 -4 10 -17 10 -15
0 -43 20 -78 56 -30 31 -69 63 -87 70 -17 7 -38 21 -47 29 -9 9 -28 18 -43 20
-16 2 -29 4 -30 6 -2 1 -6 2 -10 3 -5 1 -14 5 -20 9 -8 5 -13 4 -13 -3 0 -7
-5 -6 -14 2 -7 7 -11 19 -9 25 3 7 1 13 -5 13 -6 0 -12 -5 -14 -11 -5 -15 -48
10 -48 28 0 7 -7 10 -16 6 -17 -6 -64 15 -64 29 0 5 4 7 9 4 5 -3 12 1 15 10
4 12 2 15 -9 10 -10 -4 -15 1 -15 14 0 21 -28 40 -49 32 -7 -2 -17 2 -22 9 -7
11 -9 10 -9 -3 0 -10 -5 -18 -11 -18 -5 0 -7 4 -4 10 3 5 -1 22 -9 37 -8 16
-15 22 -16 16 0 -18 -20 -16 -20 2 0 8 -9 23 -20 32 -20 18 -28 63 -10 63 5 0
14 -9 20 -20 14 -27 30 -26 23 1 -5 19 -3 21 20 15 20 -5 27 -3 27 8 0 9 7 12
19 9 13 -3 24 2 33 16 7 12 17 21 23 21 6 0 15 13 21 29 l11 28 -53 1 c-31 0
-54 -4 -54 -10 0 -6 -6 -6 -15 2 -10 8 -15 9 -15 2 0 -6 -7 -9 -16 -5 -13 5
-8 13 24 42 22 21 59 50 82 66 23 16 49 38 58 50 23 29 61 38 70 17 3 -9 12
-23 20 -31 7 -7 11 -20 8 -27 -3 -8 0 -14 6 -14 7 0 6 -5 -2 -15 -7 -8 -18
-15 -25 -15 -6 0 -20 -9 -30 -20 -9 -10 -22 -18 -28 -17 -7 1 -13 -7 -15 -19
-5 -31 15 -74 34 -74 16 0 16 1 0 19 -17 19 -17 19 28 16 34 -2 49 2 62 16 11
12 27 17 45 15 16 -2 32 1 35 5 3 5 10 6 16 3 6 -4 8 1 4 12 -8 25 31 53 40
29 4 -9 17 -15 33 -14 17 1 20 3 9 6 -19 5 -25 23 -7 23 21 0 50 -22 46 -34
-3 -8 9 -11 42 -10 25 1 52 -4 59 -9 9 -8 16 -7 20 0 4 6 20 9 36 8 26 -3 28
-1 24 26 -3 20 0 29 9 29 8 0 11 5 8 10 -3 6 -3 10 2 10 4 0 13 16 19 35 10
32 10 35 -7 30 -12 -4 -19 -1 -19 7 0 17 20 47 20 31 0 -7 7 -13 16 -13 10 0
14 6 10 15 -3 8 -1 15 4 15 6 0 9 10 9 23 -1 16 -2 18 -6 5 -5 -22 -23 -24
-23 -3 0 8 -8 15 -17 15 -14 0 -15 -2 -4 -9 21 -13 5 -29 -24 -23 -29 5 -34
-12 -7 -27 15 -9 14 -10 -6 -11 -12 0 -25 7 -28 15 -7 17 -44 21 -44 5 0 -5
-7 -10 -16 -10 -11 0 -14 6 -9 20 8 24 -18 38 -38 21 -10 -8 -19 -6 -35 5 -20
14 -22 14 -22 0 0 -9 -7 -16 -15 -16 -8 0 -15 7 -15 16 0 10 -6 14 -15 10 -8
-3 -14 0 -12 7 1 7 -7 11 -20 9 -12 -2 -24 2 -28 8 -3 5 -15 10 -26 10 -10 0
-19 5 -19 10 0 6 -6 10 -12 9 -42 -5 -72 4 -95 29 -19 19 -24 22 -19 8 5 -16
4 -17 -9 -6 -8 7 -15 9 -15 4 0 -4 -5 -3 -12 4 -8 8 -17 8 -30 1 -16 -9 -20
-7 -25 10 -3 12 -13 21 -23 21 -10 0 -29 6 -43 13 -22 12 -23 15 -11 32 14 18
14 18 14 -1 0 -26 31 -28 38 -2 2 10 9 18 14 18 5 0 6 5 3 10 -4 6 -3 10 2 9
21 -4 33 2 33 17 0 10 6 14 15 11 8 -4 17 -2 21 4 3 6 13 8 22 4 8 -3 18 -1
22 5 7 11 136 18 146 7 4 -4 1 -7 -7 -7 -12 0 -12 -2 1 -10 9 -5 19 -5 27 2
10 8 17 7 26 -5 10 -14 16 -15 37 -4 21 11 27 10 45 -8 11 -11 19 -24 17 -28
-1 -5 3 -7 10 -4 7 2 12 10 10 16 -1 6 5 11 13 11 8 0 15 -4 15 -10 0 -5 9
-10 20 -10 11 0 20 5 20 10 0 6 5 10 10 10 6 0 9 -6 8 -12 -2 -7 4 -13 13 -13
9 0 23 -6 31 -13 8 -6 17 -10 20 -7 3 3 11 -1 18 -10 7 -8 19 -15 26 -15 8 0
14 -5 14 -11 0 -6 9 -9 20 -6 10 3 24 -1 31 -9 17 -21 31 -17 24 6 -9 27 1 25
31 -7 17 -19 27 -24 31 -15 2 6 10 9 16 5 6 -4 8 0 4 11 -4 10 1 24 13 36 11
11 20 27 20 35 0 8 4 15 10 15 5 0 7 7 4 15 -6 15 9 20 49 17 35 -3 53 14 51
52 -1 20 2 36 6 36 4 0 10 11 12 24 6 30 -15 41 -34 19 -11 -15 -11 -16 5 -10
22 8 22 1 -2 -24 -19 -21 -39 -11 -25 12 4 8 0 8 -15 0 -18 -10 -21 -9 -21 9
0 28 33 62 52 55 19 -7 32 10 34 45 2 32 2 32 16 24 7 -4 29 -7 50 -5z m-1357
-448 c1 -32 9 -75 19 -95 20 -42 80 -101 129 -125 37 -19 43 -45 10 -47 -13
-1 -23 2 -23 5 0 11 -64 31 -97 31 -17 0 -33 6 -36 14 -3 8 -24 17 -46 21 -23
4 -41 11 -41 16 0 5 -16 19 -35 30 -27 16 -33 24 -25 34 8 9 7 14 -2 17 -11 4
-11 8 0 21 8 9 20 13 28 10 10 -3 12 0 8 10 -3 8 0 18 6 22 9 6 9 9 0 15 -9 6
-6 10 9 15 11 3 21 13 21 20 0 8 6 12 14 9 9 -3 22 5 32 21 9 14 19 23 22 20
3 -3 6 -32 7 -64z m1745 -342 c0 -6 7 -9 15 -5 8 3 15 0 15 -5 0 -7 11 -9 25
-7 20 4 23 2 15 -12 -6 -11 -4 -26 5 -43 13 -25 13 -26 -5 -17 -13 7 -21 7
-25 -1 -4 -6 2 -13 14 -16 12 -3 21 -8 21 -12 -1 -14 -28 -40 -35 -33 -5 4 -5
2 -1 -5 4 -7 13 -10 21 -6 20 7 19 -7 -2 -24 -17 -13 -16 -14 5 -10 14 4 25 0
28 -8 3 -8 12 -11 20 -8 8 3 14 0 14 -6 0 -6 -5 -11 -11 -11 -6 0 -9 -6 -6
-12 5 -16 -20 -68 -34 -68 -6 0 -7 -5 -3 -12 4 -6 3 -8 -3 -5 -6 4 -16 0 -23
-8 -7 -9 -28 -23 -46 -31 -19 -9 -31 -20 -28 -25 3 -5 -4 -9 -16 -9 -11 0 -29
-5 -39 -12 -26 -16 -122 5 -138 30 -6 10 -9 37 -8 60 4 46 78 212 95 212 5 0
10 7 10 15 0 23 48 39 68 23 13 -11 14 -10 8 9 -5 16 -2 25 14 33 17 9 19 14
9 26 -9 11 -8 14 5 14 9 0 16 -5 16 -11z m50 -481 c24 -26 25 -32 5 -48 -9 -7
-15 -20 -14 -29 4 -29 -12 -81 -26 -81 -7 0 -18 -7 -25 -15 -15 -18 -46 -20
-53 -2 -2 6 -1 21 4 32 4 11 8 46 8 77 1 31 4 63 7 72 9 24 69 21 94 -6z
m-7301 -367 c3 -1 -4 -7 -14 -15 -18 -13 -17 -14 11 -20 27 -6 30 -10 26 -38
-4 -23 -1 -29 9 -26 8 3 14 15 14 28 0 13 6 25 13 28 9 3 12 -6 10 -28 -2 -32
-23 -51 -46 -43 -7 3 -10 -1 -6 -11 4 -11 11 -13 22 -7 10 4 31 7 47 5 17 -1
35 -3 41 -3 6 -1 9 -12 7 -25 -4 -18 -10 -22 -25 -18 -18 4 -19 3 -7 -16 10
-16 16 -18 26 -10 8 6 17 8 21 4 4 -4 -1 -14 -11 -21 -15 -11 -17 -17 -8 -32
6 -10 11 -12 11 -5 0 6 4 12 10 12 5 0 7 -14 4 -32 l-5 -33 20 40 c12 22 19
33 17 24 -4 -17 11 -109 20 -118 3 -3 9 1 14 8 5 9 14 11 26 6 11 -5 21 -8 24
-7 3 0 5 -20 5 -46 0 -53 -19 -67 -45 -32 -11 15 -20 19 -24 12 -4 -6 2 -17
14 -24 27 -17 25 -28 -5 -26 -16 2 -25 8 -25 19 0 12 -6 16 -20 12 -14 -4 -20
0 -20 11 0 10 -5 14 -10 11 -6 -4 -8 -11 -5 -16 4 -5 2 -9 -4 -9 -5 0 -13 5
-16 11 -4 5 -19 9 -33 7 -24 -3 -28 1 -38 42 -10 44 -34 64 -49 40 -11 -17 3
-24 19 -11 12 10 15 8 14 -17 -1 -16 3 -35 7 -42 5 -9 4 -11 -3 -6 -7 4 -12
13 -12 21 0 7 -11 16 -25 19 -33 8 -48 46 -34 86 7 20 18 30 31 30 17 0 18 3
8 15 -7 8 -23 15 -35 15 -25 0 -61 45 -45 55 6 3 10 15 10 26 0 10 6 19 14 19
21 0 30 20 17 33 -8 8 -11 6 -11 -6 0 -9 -5 -17 -11 -17 -6 0 -9 10 -7 23 2
12 9 21 16 20 6 -2 12 6 12 18 0 11 -4 18 -9 14 -5 -3 -12 -1 -16 5 -3 5 2 11
12 11 17 1 17 2 1 6 -10 2 -18 8 -18 13 0 5 -8 10 -17 13 -14 3 70 1 86 -2z"/>
</g>
</svg>
