<?xml version="1.0" standalone="no"?>
<!DOCTYPE svg PUBLIC "-//W3C//DTD SVG 20010904//EN"
 "http://www.w3.org/TR/2001/REC-SVG-20010904/DTD/svg10.dtd">
<svg version="1.0" xmlns="http://www.w3.org/2000/svg"
 width="720.000000pt" height="960.000000pt" viewBox="0 0 720.000000 960.000000"
 preserveAspectRatio="xMidYMid meet">
<metadata>
Created by potrace 1.16, written by Peter Selinger 2001-2019
</metadata>
<g transform="translate(0.000000,960.000000) scale(0.100000,-0.100000)"
fill="#000000" stroke="none">
<path d="M991 9563 c42 -37 270 -246 335 -308 86 -82 140 -125 160 -125 6 0
24 11 40 25 28 25 111 68 264 138 41 19 99 51 129 71 29 20 64 36 77 36 13 0
24 5 24 10 0 6 -36 51 -81 100 l-80 90 -456 0 -457 0 45 -37z"/>
<path d="M5727 9574 c129 -101 389 -339 528 -481 118 -122 140 -136 175 -113
12 8 4 21 -45 70 -33 34 -72 67 -87 73 -14 7 -70 53 -124 102 -53 50 -105 97
-114 105 -10 8 -57 52 -106 96 -182 165 -193 174 -227 174 l-32 0 32 -26z"/>
<path d="M2293 9523 c-13 -2 -23 -9 -23 -14 0 -18 208 -238 225 -239 6 0 16 9
23 21 11 17 11 24 -1 42 -26 39 -182 197 -192 196 -5 -1 -20 -4 -32 -6z"/>
<path d="M2098 9049 c-37 -67 -106 -87 -185 -54 -19 8 -40 15 -44 15 -5 0 -46
-36 -91 -80 -56 -54 -97 -85 -128 -97 -67 -24 -121 -59 -223 -145 -50 -43 -97
-78 -104 -78 -12 0 -45 -13 -113 -45 -19 -9 -54 -31 -78 -50 -75 -60 -121 -65
-302 -31 -87 16 -186 19 -230 7 -14 -4 -30 -18 -37 -31 l-13 -25 0 28 c0 15
-3 27 -8 27 -4 0 -22 27 -40 60 -28 50 -38 60 -60 60 -15 0 -117 -14 -227 -30
-110 -16 -203 -30 -207 -30 -5 0 -8 -488 -8 -1083 l0 -1084 129 5 c102 4 139
1 177 -12 26 -9 51 -16 56 -16 4 0 8 42 8 94 0 52 4 97 9 100 4 3 11 24 15 46
3 22 10 40 15 40 4 0 15 18 24 41 26 65 40 46 59 -82 15 -100 15 -118 2 -143
-8 -16 -14 -43 -14 -60 0 -28 51 -180 64 -194 9 -8 65 48 83 82 12 22 17 26
24 15 7 -12 14 -11 44 5 47 25 58 11 50 -59 -14 -120 -42 -165 -101 -165 -34
0 -64 21 -64 45 0 25 -19 26 -67 2 l-47 -24 29 -6 c17 -4 46 -9 66 -13 20 -3
36 -11 36 -17 -1 -7 3 -30 7 -51 8 -36 6 -42 -18 -62 -36 -32 -89 -41 -120
-20 -33 21 -46 98 -24 137 15 26 15 27 -22 43 -33 15 -103 96 -83 96 5 0 1 5
-8 10 -15 9 -206 -2 -296 -16 -36 -5 -44 -20 -15 -27 16 -4 16 -5 0 -6 -17 -1
-18 -30 -18 -457 l0 -456 32 5 c18 4 80 11 138 17 58 6 141 20 185 32 44 11
91 23 105 25 14 3 81 16 150 30 271 54 539 70 644 38 74 -23 132 -64 152 -108
10 -22 31 -51 46 -65 15 -15 28 -32 28 -39 0 -19 37 -36 43 -20 3 7 6 5 6 -5
1 -11 9 -18 20 -18 10 0 22 -7 25 -16 4 -9 13 -14 22 -10 8 3 12 2 9 -4 -3 -5
3 -14 14 -19 10 -6 36 -34 57 -63 21 -29 64 -79 96 -111 32 -32 66 -70 74 -83
9 -13 22 -24 30 -24 7 0 17 -7 22 -16 18 -32 138 -65 261 -70 70 -3 134 -11
161 -21 78 -28 178 -95 244 -163 224 -230 292 -303 305 -325 9 -14 19 -25 23
-25 5 0 8 -6 8 -14 0 -8 3 -16 8 -18 14 -6 52 -67 56 -90 2 -17 9 -23 27 -21
13 1 61 2 107 3 80 2 85 1 185 -48 56 -28 129 -69 163 -91 34 -22 135 -79 225
-127 90 -48 183 -100 206 -116 23 -15 44 -28 48 -28 12 0 92 56 139 97 26 24
52 43 57 43 5 0 9 12 9 26 0 37 12 55 74 104 40 32 54 50 50 62 -4 13 7 23 45
43 28 14 56 25 63 25 7 0 26 16 41 35 15 19 41 42 58 51 43 22 319 39 400 24
32 -6 64 -8 69 -5 6 4 51 3 101 -1 90 -7 90 -7 103 -39 8 -19 36 -49 69 -71
39 -28 60 -52 77 -88 12 -27 18 -51 14 -55 -5 -3 -13 -13 -19 -22 -27 -43 -65
-96 -84 -118 -12 -13 -19 -31 -17 -40 3 -9 8 -28 12 -43 3 -16 10 -28 15 -28
5 0 54 22 109 50 163 82 441 175 765 255 121 31 247 64 280 74 33 11 114 29
180 41 102 19 141 21 257 16 76 -3 196 -15 269 -26 72 -11 133 -20 135 -20 2
0 4 412 4 915 l0 915 -29 0 c-16 0 -42 5 -58 11 -24 9 -30 7 -46 -13 -9 -13
-54 -68 -100 -123 -153 -186 -212 -274 -298 -445 -35 -69 -61 -106 -94 -133
-24 -21 -56 -58 -71 -82 -14 -25 -30 -45 -35 -45 -5 0 -9 -4 -9 -10 0 -14
-130 -175 -142 -175 -5 0 -13 -7 -18 -15 -6 -9 -10 -10 -10 -3 0 25 -31 -1
-70 -58 -22 -32 -40 -63 -40 -69 0 -5 -4 -10 -10 -10 -5 0 -10 -8 -10 -18 0
-10 -3 -21 -6 -25 -4 -3 -8 -25 -10 -49 -2 -37 -9 -48 -50 -83 -108 -92 -341
-333 -397 -411 -45 -63 -154 -164 -176 -164 -25 0 -24 39 2 75 12 16 30 47 41
67 10 20 26 45 35 55 66 73 240 350 233 371 -2 7 13 30 34 52 21 21 58 73 83
114 26 42 89 146 141 232 131 216 164 272 193 324 14 25 34 61 46 80 11 19 26
46 33 60 7 14 35 63 63 110 29 47 60 104 70 128 10 23 22 42 26 42 3 0 16 26
27 58 48 133 52 236 11 281 -27 28 -78 53 -174 84 -88 28 -344 93 -500 127
-55 12 -127 28 -161 36 -70 16 -84 17 -84 6 0 -9 31 -20 120 -42 78 -20 164
-46 194 -59 16 -6 35 -10 42 -7 8 3 16 1 19 -3 3 -5 -2 -12 -11 -15 -27 -10
-82 -7 -86 6 -2 6 -10 8 -17 4 -9 -6 -9 -11 0 -23 11 -13 7 -14 -32 -9 -24 3
-71 8 -104 11 -33 4 -73 8 -90 11 -93 13 -352 78 -475 119 -41 14 -144 38
-229 55 -85 17 -160 35 -166 40 -5 5 -28 10 -49 12 -42 3 -72 32 -48 47 10 6
8 13 -8 33 -45 58 -37 113 31 205 51 69 129 96 129 45 0 -23 72 -44 265 -77
355 -60 837 -159 1150 -235 22 -5 144 -35 270 -66 236 -57 239 -58 378 -42 9
1 17 9 17 17 0 8 12 30 28 50 31 41 52 79 52 94 0 5 7 15 16 21 10 8 19 38 25
91 4 43 13 83 18 88 5 5 8 15 7 21 -2 6 -1 8 1 4 8 -13 23 -9 23 6 0 8 20 38
45 67 l45 53 0 170 c-1 144 -3 168 -14 154 -16 -22 -26 -23 -26 -2 0 9 9 18
20 21 19 5 20 14 20 238 l0 232 -167 7 c-93 3 -197 11 -233 16 -36 5 -126 10
-200 10 -74 0 -175 5 -225 10 -49 6 -153 13 -230 16 -77 3 -142 8 -144 10 -2
2 46 4 108 4 72 0 110 4 106 10 -9 14 74 13 128 -2 33 -8 55 -8 88 0 24 6 46
7 49 3 3 -5 84 -11 180 -15 96 -3 193 -8 215 -10 22 -2 104 -7 183 -11 l142
-6 0 24 c0 23 -2 23 -172 36 -95 6 -204 16 -243 21 -38 5 -160 14 -270 20
-110 6 -229 13 -265 16 -154 12 -336 24 -485 33 -142 9 -323 32 -470 61 -27 5
-84 14 -125 19 -41 6 -136 26 -210 45 -74 19 -155 37 -180 41 -25 4 -76 17
-115 29 -38 13 -95 28 -125 35 -72 17 -182 52 -197 64 -11 8 -31 14 -104 31
-9 3 -46 16 -81 30 -36 14 -74 26 -85 26 -11 0 -22 3 -26 6 -22 22 -313 104
-434 123 -106 16 -416 14 -482 -4 -64 -17 -104 -5 -140 41 -13 16 -52 62 -88
102 -36 40 -75 85 -86 100 -17 22 -57 62 -61 62 -1 0 -1 -46 -2 -103 0 -60 -7
-132 -18 -177 -74 -318 -109 -417 -174 -491 -26 -30 -66 -79 -89 -109 -101
-133 -156 -190 -183 -190 -15 0 -20 10 -26 45 -8 58 0 107 37 230 74 246 74
245 72 445 -1 216 -25 456 -53 547 -11 36 -20 76 -20 89 0 55 -103 192 -157
208 -17 6 -25 0 -45 -35z m-271 -510 c28 -24 8 -158 -28 -191 -24 -24 -74 -23
-98 1 -40 40 -40 161 -1 193 23 19 102 17 127 -3z m-280 -408 c-4 -33 -17 -83
-31 -113 -13 -29 -27 -63 -30 -75 -4 -12 -20 -32 -37 -43 -39 -28 -38 -59 3
-85 70 -44 106 -58 178 -71 41 -7 95 -20 120 -29 34 -12 65 -15 130 -10 99 7
125 -3 154 -57 19 -33 19 -37 3 -61 -32 -49 -131 -48 -167 2 -34 49 -92 73
-215 90 -68 10 -90 5 -140 -32 -46 -34 -90 -57 -119 -62 -42 -8 -81 -47 -98
-99 -10 -31 -20 -41 -48 -50 -27 -9 -40 -22 -59 -61 -13 -27 -23 -59 -22 -71
1 -11 -5 -27 -13 -34 -9 -7 -16 -18 -16 -25 0 -7 -17 -26 -37 -41 -34 -26 -46
-29 -109 -29 -65 0 -72 -2 -97 -29 -15 -16 -27 -24 -27 -18 0 6 -10 21 -23 34
-27 27 -55 106 -41 116 17 13 64 110 64 133 0 12 3 19 7 16 6 -7 14 6 61 98
14 28 50 73 81 102 31 29 61 57 66 63 6 6 32 33 60 60 45 45 63 56 117 74 26
8 62 73 82 146 10 36 27 76 37 89 11 13 19 30 19 37 0 21 59 82 83 87 69 13
70 12 64 -52z m-700 15 c27 -23 28 -28 26 -108 -1 -45 0 -77 3 -70 3 6 9 12
12 12 8 0 8 -88 0 -110 -3 -8 -11 -35 -18 -60 -14 -51 -42 -96 -79 -125 -14
-11 -37 -32 -53 -47 -15 -16 -34 -28 -42 -28 -18 0 -30 -17 -17 -24 5 -4 15
-30 21 -60 12 -58 3 -97 -30 -128 -10 -9 -21 -39 -25 -67 -10 -75 -23 -86 -92
-85 -81 1 -178 44 -192 85 -8 24 -31 39 -143 92 -73 35 -139 71 -146 80 -16
19 0 91 26 120 17 19 101 47 142 47 19 0 26 5 27 22 2 24 16 35 53 44 24 6
103 61 145 101 24 22 76 47 129 62 65 17 76 34 76 118 0 71 8 96 45 140 5 7
31 12 57 13 36 0 54 -6 75 -24z m4387 -666 c5 -5 9 -42 9 -82 0 -95 -21 -139
-140 -296 -51 -67 -93 -126 -93 -130 0 -14 -88 -102 -101 -102 -11 0 -11 3 1
10 9 6 10 10 3 10 -6 0 -18 -7 -27 -15 -8 -8 -23 -15 -32 -15 -26 0 -74 50
-74 77 0 13 -8 30 -17 38 -48 42 -81 64 -87 58 -15 -15 -128 -14 -152 2 -35
23 -74 10 -74 -24 -1 -37 -35 -107 -59 -120 -27 -15 -127 -3 -151 18 -28 24
-33 55 -13 77 32 34 50 44 108 59 31 8 62 21 68 28 23 24 57 76 57 86 0 6 6
14 13 18 7 4 20 20 29 34 9 15 39 49 65 77 52 54 102 75 163 67 19 -3 43 1 55
9 11 7 37 18 58 25 20 7 37 16 37 21 0 4 46 22 103 40 56 17 111 36 122 41 23
10 115 2 129 -11z m-2541 -262 c18 -12 49 -39 69 -60 20 -21 40 -38 45 -39 11
0 51 -52 53 -69 5 -34 -2 -49 -41 -88 -44 -45 -68 -55 -120 -50 -34 3 -34 3
-48 78 -7 41 -20 89 -27 107 -18 41 -18 65 3 108 20 41 25 42 66 13z m420
-122 c14 -13 29 -35 32 -48 3 -13 19 -29 35 -36 39 -18 48 -57 19 -88 -30 -32
-42 -30 -86 9 -49 43 -116 87 -131 87 -17 0 -52 37 -52 55 0 23 50 44 106 45
40 0 56 -5 77 -24z m443 -265 c5 -14 7 -13 14 4 9 20 9 20 9 0 1 -12 5 -25 9
-30 13 -15 32 -85 36 -132 5 -54 10 -60 53 -72 43 -12 78 2 69 27 -15 47 -46
165 -44 166 2 0 23 11 48 24 l45 23 20 -25 c12 -15 38 -29 65 -35 24 -5 50
-18 57 -27 25 -34 10 -155 -17 -139 -5 3 -12 1 -15 -5 -9 -15 13 -40 30 -34 7
3 16 1 20 -5 17 -29 145 7 159 44 4 11 12 14 26 10 18 -6 20 -3 15 18 -4 14
-1 30 7 38 7 8 25 39 40 70 41 87 91 88 92 2 1 -48 1 -48 -33 -51 -39 -4 -95
-45 -96 -71 -1 -9 -2 -43 -3 -77 -2 -72 -23 -102 -89 -123 -38 -13 -45 -12
-61 2 -10 10 -22 14 -25 10 -4 -3 -12 8 -18 25 -9 25 -18 33 -47 37 -21 4 -64
15 -96 26 -33 10 -87 19 -121 19 -56 0 -66 4 -113 39 -29 21 -62 51 -75 67
-21 27 -45 111 -46 164 -1 24 3 26 39 26 26 0 41 -5 46 -15z m2344 -6 c17 -9
33 -16 37 -18 11 -3 3 -49 -13 -74 -14 -23 -63 -37 -105 -31 -22 3 -24 8 -24
55 1 77 40 102 105 68z m475 -117 c28 -5 72 -9 100 -8 72 2 143 -10 160 -27
21 -21 19 -80 -2 -92 -12 -5 -54 -4 -118 5 -55 8 -136 19 -180 25 -101 14
-205 44 -205 61 0 3 7 13 15 22 8 8 15 19 15 25 0 12 135 5 215 -11z m-5673
-65 c27 -31 50 -117 39 -146 -30 -78 -166 -14 -185 88 -8 43 -6 46 42 61 55
17 87 16 104 -3z m4238 -659 c103 -6 245 -46 260 -74 12 -23 4 -47 -21 -60
-51 -28 -269 10 -301 53 -9 12 -27 34 -38 50 -12 15 -30 27 -41 27 -10 0 -19
5 -19 11 0 8 12 9 38 4 20 -4 75 -9 122 -11z m-703 -159 c68 -24 128 -25 163
-4 40 25 81 24 127 -2 21 -12 74 -28 118 -36 102 -17 167 -38 231 -74 97 -55
110 -96 25 -85 -67 10 -152 37 -184 59 -43 30 -103 34 -130 10 -44 -41 -83
-37 -199 16 -63 30 -183 71 -204 71 -11 0 -26 4 -34 10 -12 7 -12 12 4 29 23
25 28 25 83 6z m1167 -297 c89 -34 130 -63 107 -77 -7 -5 -25 -5 -40 0 -14 5
-72 22 -127 39 -100 29 -132 49 -119 71 11 16 83 3 179 -33z m-202 -67 c63
-21 308 -116 429 -164 124 -51 185 -67 251 -67 53 0 58 -2 60 -22 4 -59 -5
-73 -62 -103 -27 -14 -50 -17 -114 -13 -70 5 -112 17 -316 93 -302 112 -304
114 -335 176 -16 31 -39 58 -60 71 -34 19 -43 37 -27 52 11 11 114 -2 174 -23z
m-599 -256 c34 -24 37 -29 37 -76 0 -35 -4 -51 -15 -55 -8 -4 -15 -17 -15 -30
0 -37 -30 -31 -156 31 -132 64 -151 85 -96 101 20 5 52 7 70 3 27 -6 37 -2 63
22 38 36 63 36 112 4z m686 -336 c45 -7 104 -30 200 -78 274 -138 317 -164
324 -200 12 -64 -12 -65 -129 -7 -49 24 -107 52 -129 61 -245 110 -395 195
-395 222 0 16 42 17 129 2z m-74 -292 c16 -18 37 -42 46 -53 19 -25 49 -99 49
-123 0 -27 -73 -81 -110 -81 -26 0 -33 6 -46 35 -7 19 -14 54 -14 78 0 33 -6
49 -24 66 -14 13 -30 36 -37 52 -10 25 -9 32 7 50 29 32 90 20 129 -24z
m-1786 -131 c7 -8 15 -39 18 -68 6 -57 -10 -88 -43 -88 -23 0 -61 47 -66 80
-9 61 58 116 91 76z"/>
<path d="M7046 8584 l-19 -46 37 -72 c20 -39 36 -81 36 -93 0 -12 14 -59 31
-105 17 -46 38 -105 47 -133 l17 -50 3 204 c2 175 0 206 -13 213 -8 5 -15 14
-15 21 -1 15 -50 70 -82 91 -23 15 -24 14 -42 -30z"/>
<path d="M1583 4981 c4 -17 1 -21 -17 -21 -12 0 -28 6 -34 12 -9 9 -15 10 -20
2 -4 -7 -16 -13 -27 -15 -15 -3 -21 -13 -23 -42 -2 -20 -7 -37 -13 -37 -5 0
-9 -11 -9 -24 0 -17 -9 -27 -30 -36 -16 -7 -30 -16 -30 -21 0 -5 -12 -12 -27
-15 -44 -10 -113 -44 -113 -54 0 -6 -9 -10 -20 -10 -11 0 -20 -4 -20 -9 0 -5
-23 -11 -50 -13 -35 -4 -57 -12 -71 -27 -11 -11 -25 -21 -31 -21 -6 0 -8 -11
-5 -26 4 -22 -1 -27 -34 -41 -32 -12 -36 -17 -25 -28 22 -22 118 -9 186 26 32
16 96 36 142 45 45 8 112 24 148 34 36 11 99 25 140 31 41 7 93 21 115 33 53
27 51 26 36 36 -12 7 -11 11 2 25 10 9 17 22 16 28 0 9 -2 8 -6 0 -2 -7 -13
-13 -24 -13 -15 0 -19 7 -19 33 0 17 -9 43 -20 57 -11 14 -20 28 -20 33 0 14
-55 64 -79 72 -21 6 -23 5 -18 -14z"/>
<path d="M0 2010 l0 -2010 2162 0 c1701 0 2164 3 2176 13 12 9 16 9 19 0 7
-20 139 -18 147 2 3 8 10 15 17 15 6 0 9 -7 5 -15 -5 -13 12 -15 118 -15 90 0
126 3 129 13 4 9 6 9 6 0 1 -18 241 -19 241 -1 0 6 3 8 7 5 3 -4 15 1 26 10
19 17 19 17 13 -4 -9 -28 9 -31 36 -6 18 16 18 16 12 0 -6 -15 5 -17 116 -17
69 0 130 5 142 11 15 8 19 8 14 0 -12 -18 55 -13 76 6 18 16 18 16 12 -1 -6
-16 -2 -15 29 5 20 13 37 28 37 32 0 5 -4 5 -10 2 -24 -15 -7 16 19 34 40 29
59 27 59 -5 0 -14 -3 -22 -7 -17 -9 14 -41 12 -41 -2 0 -6 -9 -21 -20 -33 -11
-12 -20 -24 -20 -27 0 -3 99 -4 221 -3 212 2 222 3 229 23 8 19 9 19 9 -3 1
-16 6 -22 19 -20 9 2 19 5 22 8 3 3 16 11 28 18 22 12 23 12 18 -6 -7 -20 -1
-20 214 -20 l221 1 -5 23 c-4 14 -2 24 4 24 5 0 10 -11 10 -25 0 -26 24 -35
33 -12 4 8 6 9 6 0 1 -9 51 -12 186 -13 162 0 185 2 185 15 0 9 -5 13 -11 10
-5 -4 -3 9 5 29 14 32 13 37 -2 45 -14 8 -15 12 -4 22 9 10 12 10 12 1 0 -7 5
-12 11 -12 5 0 7 4 4 10 -3 6 1 7 9 4 19 -7 19 -9 4 -35 -10 -17 -10 -23 0
-26 14 -5 17 -33 3 -33 -5 0 -12 -7 -15 -16 -5 -13 7 -15 97 -13 58 1 106 7
110 13 6 8 10 7 14 -1 2 -7 13 -13 24 -13 16 0 19 7 19 50 0 38 -4 50 -15 50
-19 0 -19 14 -1 29 8 7 14 31 14 60 1 44 -1 48 -19 44 -14 -4 -19 0 -19 16 0
15 6 21 20 21 20 0 21 5 19 85 -2 47 -4 85 -5 85 -2 0 -9 -19 -15 -42 -8 -27
-14 -36 -16 -25 -5 19 -18 23 -28 7 -7 -12 -25 -13 -25 -2 0 5 12 15 28 22 36
18 62 50 61 75 0 11 -3 14 -6 7 -2 -6 -9 -9 -14 -6 -6 3 -5 12 3 21 11 14 10
15 -11 8 -17 -5 -22 -4 -19 6 3 8 15 13 27 12 17 -2 21 3 21 27 0 30 0 30 -25
14 l-26 -17 13 29 c17 40 18 40 28 24 7 -10 10 3 10 42 0 31 -4 60 -10 63 -5
3 -7 0 -4 -8 3 -8 -2 -14 -11 -14 -22 0 -18 28 5 34 12 3 20 14 20 27 0 18 -2
19 -11 6 -9 -12 -9 -11 -3 5 20 52 15 160 -5 126 -11 -17 -32 -5 -25 14 3 7
14 12 25 10 17 -3 19 2 19 57 0 60 0 60 -26 54 -19 -5 -25 -3 -22 6 3 7 9 13
14 13 14 0 34 15 34 26 0 5 -7 9 -15 9 -8 0 -15 5 -15 10 0 6 4 10 9 10 5 0 9
13 9 30 -1 25 -3 28 -20 19 -25 -13 -43 -2 -27 18 8 9 21 12 35 9 23 -6 23 -4
23 74 0 53 -4 78 -11 74 -6 -4 -6 1 1 14 6 11 11 44 11 72 l0 52 -26 -31 c-14
-17 -32 -31 -40 -31 -13 0 -19 -18 -15 -47 2 -16 -19 -28 -51 -28 -35 0 -36
19 -3 41 24 16 41 48 37 71 -2 6 2 14 8 18 6 3 7 0 4 -9 -3 -9 -1 -16 5 -16 7
0 14 6 17 14 3 8 19 20 35 26 28 12 29 15 29 73 0 44 -4 63 -17 72 -17 13 -53
9 -53 -6 0 -5 -11 -9 -24 -9 -15 0 -26 -7 -29 -19 -2 -10 -17 -21 -33 -24 -37
-7 -56 10 -20 19 30 7 32 12 12 28 -31 23 -23 40 17 37 21 -1 45 3 53 9 11 10
14 10 14 1 0 -14 42 -11 52 4 12 16 9 25 -6 25 -8 0 -17 4 -20 9 -9 13 5 72
15 66 4 -3 6 -12 3 -19 -7 -18 12 -30 23 -14 14 22 12 127 -3 139 -11 9 -14 8
-14 -5 0 -10 5 -14 11 -10 7 4 9 -2 7 -17 -2 -13 -9 -23 -16 -21 -6 1 -12 -2
-12 -6 0 -5 -7 -9 -15 -9 -16 0 -18 7 -9 32 6 13 9 14 16 3 7 -9 8 -7 5 8 -6
28 10 55 28 48 11 -5 14 9 13 75 l-1 81 -23 -25 c-13 -14 -28 -25 -34 -25 -13
0 -13 47 1 55 6 4 8 22 4 46 -9 54 0 77 30 73 l25 -2 -1 99 c0 82 -3 99 -16
99 -9 0 -13 -6 -9 -15 6 -18 -27 -55 -49 -55 -9 0 -19 -8 -23 -18 -19 -43 -48
-82 -63 -82 -9 0 -24 -9 -34 -20 -33 -36 -47 -26 -43 30 2 35 -1 50 -9 50 -7
0 -13 7 -13 15 0 31 38 3 55 -40 l7 -20 8 20 c17 39 11 64 -17 78 -16 7 -35
12 -45 10 -9 -2 -19 1 -23 6 -3 6 0 11 8 11 7 0 19 11 25 25 15 33 15 38 -2
32 -21 -8 -35 14 -25 40 5 14 17 23 29 23 11 0 24 8 27 18 13 35 43 37 43 3 0
-10 7 -24 15 -31 8 -7 15 -21 15 -32 0 -10 7 -21 15 -24 22 -9 18 -34 -5 -34
-11 0 -20 7 -20 16 0 8 -4 13 -9 10 -5 -4 -18 6 -29 21 l-19 26 2 -24 c1 -13
7 -38 13 -55 11 -25 18 -30 47 -31 25 -1 36 4 40 18 4 12 16 19 31 19 20 0 24
4 19 19 -8 26 20 48 40 31 13 -11 15 -10 12 6 -11 54 -20 72 -33 67 -8 -3 -14
0 -14 6 0 7 -6 11 -13 9 -7 -2 -13 2 -13 7 0 6 6 9 12 7 18 -4 64 42 64 64 0
11 -9 25 -20 32 -17 10 -18 16 -10 32 13 23 -2 27 -20 5 -10 -12 -9 -20 3 -39
13 -19 14 -27 3 -41 -19 -27 -51 -15 -51 19 0 16 -6 31 -12 33 -8 3 -13 -4
-13 -16 0 -12 -4 -21 -9 -21 -14 0 -22 49 -12 69 10 18 -2 41 -22 41 -5 0 -15
6 -23 14 -14 15 -54 11 -54 -5 0 -5 9 -9 20 -9 11 0 20 -7 20 -15 0 -8 9 -23
20 -32 14 -13 17 -20 8 -30 -7 -9 -7 -13 1 -13 6 0 11 -4 11 -10 0 -5 -5 -10
-11 -10 -6 0 -20 -12 -31 -26 -12 -14 -31 -30 -45 -35 -13 -5 -26 -17 -30 -26
-16 -44 -63 -31 -63 16 0 32 -22 56 -44 48 -10 -4 -25 12 -45 49 -32 55 -60
74 -46 32 4 -13 9 -39 12 -58 7 -46 31 -74 50 -59 10 9 13 6 13 -14 0 -18 -4
-25 -13 -21 -20 7 -40 -21 -32 -46 3 -11 11 -20 16 -20 16 0 10 -39 -8 -49
-10 -5 -18 -23 -19 -40 -1 -27 2 -31 25 -31 18 0 29 7 36 23 6 12 20 23 31 25
12 2 24 12 27 23 4 13 12 19 24 17 27 -5 28 -35 1 -44 -13 -4 -29 -16 -37 -26
-7 -11 -24 -23 -37 -28 -23 -9 -34 -40 -14 -40 5 0 7 7 4 15 -4 8 -1 15 4 15
11 0 15 -18 27 -102 4 -35 -7 -59 -19 -40 -3 5 -16 9 -28 8 -19 -1 -22 -6 -20
-28 4 -33 -14 -45 -36 -24 -19 16 -45 8 -40 -14 7 -28 -21 -19 -42 15 -25 40
-50 46 -50 12 0 -29 -36 -54 -42 -29 -8 32 3 50 38 67 19 9 34 21 34 28 1 7 8
-1 16 -16 17 -31 40 -33 58 -5 8 14 7 20 -8 31 -14 10 -17 21 -13 39 6 21 3
27 -16 32 -47 12 -58 8 -51 -21 6 -24 5 -26 -17 -20 -13 4 -27 7 -31 7 -5 0
-8 9 -8 20 0 11 -4 20 -10 20 -5 0 -7 7 -5 15 16 51 14 49 39 26 l24 -23 -5
42 c-6 40 -5 41 20 35 25 -7 26 -6 17 25 -5 18 -7 37 -3 43 3 6 1 7 -6 3 -6
-4 -19 -2 -27 5 -11 9 -18 8 -32 -5 -26 -22 -65 -22 -58 1 2 10 8 37 11 61 7
43 20 55 28 25 4 -15 5 -15 6 2 0 11 10 26 21 33 11 7 20 21 20 31 0 27 13 33
43 18 28 -13 29 -30 1 -74 -13 -20 -13 -23 1 -23 8 0 15 -7 15 -15 0 -8 -5
-15 -11 -15 -23 0 -1 -25 27 -30 19 -4 28 -11 26 -21 -1 -9 4 -22 13 -29 12
-10 16 -9 21 5 4 9 2 20 -3 24 -6 3 -11 39 -12 79 -1 68 -3 74 -33 101 -18 16
-28 33 -25 42 4 10 7 8 12 -8 10 -31 32 -18 40 23 5 29 9 33 20 24 10 -8 16
-7 23 7 6 10 19 18 29 18 12 0 18 7 17 23 -1 26 11 29 24 6 5 -9 18 -14 28
-12 22 4 31 43 14 63 -7 8 -9 23 -5 32 4 13 -2 10 -22 -8 -37 -35 -73 -43
-103 -22 -23 16 -23 16 -17 -19 3 -19 2 -40 -3 -47 -8 -14 -15 -8 -45 34 -7
11 -17 16 -22 12 -4 -5 1 -15 11 -23 16 -12 18 -18 8 -39 -15 -32 -38 -32 -46
0 -4 14 -11 25 -17 25 -19 0 -21 -31 -4 -50 17 -19 17 -20 -6 -39 -26 -21 -39
-13 -39 25 0 25 -30 87 -30 64 -1 -18 -50 39 -50 58 0 6 -7 12 -16 12 -14 0
-16 -7 -11 -40 3 -22 1 -40 -4 -40 -5 0 -9 5 -9 10 0 6 -6 10 -14 10 -15 0
-76 56 -76 69 0 4 11 14 25 21 14 7 25 17 25 22 0 13 -35 9 -66 -7 -16 -8 -41
-15 -57 -15 -20 0 -30 -7 -37 -25 -6 -17 -17 -25 -33 -25 -16 0 -28 -9 -35
-25 -9 -20 -9 -23 3 -18 8 3 18 -2 21 -11 9 -23 24 -20 24 5 0 31 22 49 45 37
14 -9 22 -6 36 13 l17 24 7 -27 c4 -15 4 -31 1 -36 -3 -5 1 -15 9 -22 12 -10
16 -9 21 4 8 21 30 21 38 0 12 -31 6 -37 -28 -31 -30 5 -35 3 -39 -18 -2 -14
0 -22 5 -19 5 4 16 -3 24 -15 8 -12 21 -21 28 -21 8 0 16 -6 19 -14 3 -8 20
-17 37 -21 17 -4 34 -14 37 -23 4 -10 11 -21 17 -25 6 -5 0 -5 -14 -2 -14 4
-29 11 -35 16 -21 20 -27 7 -21 -43 l6 -53 -25 30 c-27 33 -32 64 -12 84 10
11 9 13 -5 8 -10 -3 -20 -2 -24 4 -9 16 -29 4 -29 -17 0 -26 -44 -21 -67 7
-10 11 -22 18 -28 14 -6 -4 -13 7 -16 25 -5 22 -11 29 -22 25 -8 -3 -20 -1
-27 5 -7 6 -34 9 -61 7 -39 -4 -50 -9 -61 -31 -17 -32 -53 -36 -53 -5 0 12 8
27 17 34 14 11 15 16 4 43 -7 17 -10 35 -7 41 4 5 2 12 -4 16 -5 3 -10 15 -10
25 0 17 3 18 25 8 23 -10 29 -8 52 14 24 24 25 28 12 57 -11 24 -22 32 -49 37
-19 4 -43 16 -52 28 -15 18 -19 19 -27 6 -6 -8 -6 -17 -1 -20 4 -3 7 -24 6
-48 -1 -24 1 -45 6 -48 4 -3 8 -16 8 -30 0 -27 -25 -43 -42 -26 -8 8 -15 7
-25 -6 -7 -9 -12 -12 -11 -7 9 41 -50 165 -79 165 -7 0 -13 5 -13 11 0 6 -5 9
-12 7 -7 -3 -17 -27 -24 -54 -6 -27 -12 -39 -13 -26 -1 24 -20 29 -39 10 -23
-23 -34 5 -19 48 9 24 11 50 6 67 -6 21 -3 32 13 47 13 12 18 25 14 36 -5 13
-2 15 13 11 24 -6 57 16 47 31 -9 15 -82 16 -91 2 -3 -5 -16 -10 -29 -10 -12
0 -28 -6 -34 -12 -9 -9 -17 -10 -30 -1 -15 9 -21 7 -31 -9 -10 -16 -15 -17
-27 -7 -11 9 -20 9 -37 1 -12 -7 -35 -17 -52 -23 l-30 -11 28 -23 c27 -24 35
-49 17 -60 -5 -3 -15 6 -23 21 l-13 26 -32 -27 c-27 -23 -33 -24 -38 -11 -8
20 -34 21 -34 2 0 -8 -13 -17 -30 -21 -16 -4 -32 -11 -35 -16 -12 -19 -41 -8
-54 21 -10 25 -16 29 -27 19 -8 -7 -16 -10 -17 -8 -2 2 -13 17 -25 33 -25 33
-21 46 13 46 13 0 28 7 33 16 13 22 48 3 56 -31 5 -18 13 -25 29 -24 12 0 16
3 10 6 -12 4 -19 53 -8 53 2 0 15 -5 29 -11 14 -7 32 -9 40 -6 25 10 7 37 -24
37 -19 0 -39 12 -65 39 -25 25 -44 37 -54 33 -14 -5 -14 -4 1 11 23 24 55 21
63 -4 6 -17 13 -20 36 -15 15 3 31 1 34 -4 3 -6 16 -5 30 2 24 11 34 28 16 28
-5 0 -11 8 -13 18 -4 15 -12 18 -37 14 -17 -2 -31 0 -31 6 0 15 26 22 81 22
46 0 49 2 49 25 0 18 -5 25 -20 25 -14 0 -20 7 -20 21 0 19 -4 21 -32 15 -30
-6 -31 -6 -14 13 10 11 28 21 39 23 12 2 28 16 36 33 8 17 18 38 22 47 11 21
2 27 -36 22 -16 -2 -35 2 -42 8 -7 6 -13 7 -13 3 0 -5 -9 0 -19 9 -11 10 -25
15 -30 11 -16 -9 -14 -25 3 -25 8 0 24 -9 37 -19 19 -15 21 -22 12 -32 -10
-10 -15 -9 -28 1 -12 10 -19 10 -27 2 -16 -16 -28 -15 -28 3 0 8 -3 15 -7 15
-14 -1 -38 -24 -39 -37 -2 -29 -5 -33 -19 -33 -18 0 -20 -16 -2 -23 16 -7 -13
-29 -29 -23 -15 6 -34 -36 -34 -73 0 -15 -7 -36 -15 -47 -8 -10 -15 -31 -15
-45 0 -15 -10 -39 -22 -54 -22 -28 -22 -28 -2 -44 20 -16 20 -16 -8 -39 -15
-13 -28 -31 -28 -40 0 -9 -7 -35 -16 -59 -15 -39 -15 -43 1 -60 17 -16 17 -18
-4 -27 -29 -13 -22 -40 11 -44 19 -2 28 2 33 16 3 11 12 23 20 26 17 6 21 36
5 36 -5 0 -10 9 -10 20 0 18 5 19 50 16 78 -7 88 -22 45 -62 -28 -26 -32 -44
-10 -44 20 0 34 -30 28 -60 -4 -23 -8 -25 -46 -21 -26 2 -47 11 -58 25 l-17
21 -24 -22 c-33 -31 -68 -31 -68 1 0 13 6 26 12 29 23 8 0 20 -26 13 -14 -3
-28 -16 -31 -29 -4 -12 -19 -34 -32 -49 -19 -20 -24 -33 -19 -52 5 -20 2 -25
-16 -28 -12 -2 -35 -23 -54 -53 -19 -27 -45 -65 -58 -83 -23 -31 -24 -35 -10
-67 12 -31 12 -38 -10 -87 -24 -51 -76 -117 -97 -119 -5 -1 -12 -2 -16 -4 -21
-5 -323 -319 -323 -335 0 -19 -19 -30 -53 -30 -13 0 -30 -12 -42 -30 -11 -16
-27 -30 -35 -30 -8 0 -42 -13 -75 -29 -41 -20 -53 -30 -38 -30 16 -1 25 -9 29
-27 8 -33 -1 -167 -15 -214 -10 -33 -62 -95 -126 -151 -17 -14 -68 -66 -115
-115 -47 -50 -109 -105 -138 -124 -39 -25 -65 -53 -102 -112 -57 -90 -136
-193 -196 -258 -23 -25 -53 -59 -67 -76 -35 -41 -103 -88 -117 -79 -6 4 -10
23 -9 44 2 29 -3 42 -29 68 l-32 31 3 111 2 111 50 26 c86 47 138 85 213 158
92 89 117 127 154 235 16 47 34 91 39 98 14 16 14 207 0 276 -6 32 -20 74 -31
95 -11 20 -20 42 -20 48 0 7 -13 26 -30 44 -17 18 -30 36 -30 41 0 5 -4 9 -8
9 -5 0 -23 21 -40 48 -26 40 -58 75 -142 156 -25 24 -121 133 -144 164 -11 16
-74 82 -139 146 -64 65 -115 122 -112 127 4 5 2 9 -4 9 -14 0 -80 67 -74 74 3
3 -2 8 -11 12 -9 3 -16 12 -16 20 0 8 -6 14 -13 14 -7 0 -21 10 -32 23 -10 12
-17 22 -15 22 2 0 -5 11 -15 24 -35 42 -66 71 -75 71 -6 0 -10 6 -10 13 0 8
-11 20 -25 27 -13 7 -22 17 -19 22 4 5 -3 16 -15 24 -12 8 -21 21 -21 29 0 7
-9 17 -20 20 -11 3 -20 15 -20 26 0 15 -7 19 -32 19 -25 0 -29 3 -20 12 17 17
15 28 -4 28 -10 0 -14 6 -11 14 4 10 -2 16 -16 18 -15 2 -21 9 -19 21 2 12 -4
17 -19 17 -18 0 -20 2 -9 16 11 13 10 16 -8 20 -12 4 -19 11 -15 20 3 10 -2
14 -18 14 -19 0 -21 2 -9 10 12 8 12 10 -3 16 -9 3 -14 10 -11 15 3 5 -1 12
-10 15 -8 3 -12 12 -9 20 4 10 -3 14 -28 14 -30 0 -31 1 -14 14 17 12 16 13
-10 20 -20 5 -25 10 -16 15 10 7 10 14 -4 35 -10 14 -22 26 -28 26 -6 0 -7 3
-4 6 9 9 -29 62 -67 96 -27 24 -28 28 -11 28 14 0 10 5 -15 18 -19 10 -34 23
-32 30 1 7 -3 12 -10 12 -6 0 -8 3 -5 6 3 4 -10 19 -31 34 -20 15 -46 37 -57
49 -16 19 -17 24 -5 31 12 8 12 10 1 10 -16 0 -106 -65 -124 -90 -38 -55 -304
-322 -377 -379 -104 -81 -135 -98 -197 -112 -26 -5 -65 -14 -85 -18 -20 -4
-43 -4 -50 0 -7 5 -36 9 -65 9 -28 0 -53 5 -55 10 -3 9 -37 11 -168 8 -14 0
-69 3 -123 7 -86 6 -100 10 -112 29 -22 33 -42 158 -59 368 -13 157 -20 199
-45 265 -42 113 -82 186 -111 200 -17 9 -85 13 -222 13 l-198 0 0 -2010z
m1075 974 c14 -15 25 -38 25 -50 0 -24 -9 -34 -176 -196 l-69 -68 -85 -4 c-47
-2 -121 -5 -164 -5 -78 -1 -79 -1 -61 -21 9 -10 33 -25 53 -31 37 -12 81 -54
82 -77 0 -8 -13 -26 -28 -42 -16 -16 -34 -41 -41 -57 -12 -28 -67 -73 -90 -73
-20 0 -37 22 -81 110 -31 62 -43 97 -43 131 l-1 48 -45 11 c-54 14 -71 26 -71
51 0 24 69 74 132 97 40 14 50 22 59 52 17 53 57 107 92 123 23 11 71 16 171
16 77 1 142 4 145 6 2 3 42 5 88 5 78 0 86 -2 108 -26z m6067 -779 c4 -16 3
-34 -2 -41 -6 -6 -11 -29 -13 -52 -1 -22 -5 -38 -9 -35 -7 3 -9 -17 -10 -77
-1 -3 2 -17 6 -32 4 -18 2 -28 -5 -28 -14 0 -94 -79 -102 -101 -3 -9 0 -22 6
-28 8 -8 8 -14 -1 -23 -9 -9 -12 -9 -13 0 -1 7 -2 17 -3 22 -1 12 -27 30 -36
25 -3 -2 -4 14 -2 36 4 35 6 38 17 22 10 -14 16 -15 28 -5 17 15 30 81 18 96
-10 13 4 56 18 56 5 0 13 -5 16 -10 8 -13 25 -3 25 16 0 8 -9 14 -20 14 -23 0
-24 6 -6 39 l13 23 7 -23 c7 -23 8 -23 16 -4 5 14 3 24 -6 31 -17 14 -18 48
-3 77 24 45 49 46 61 2z m-745 -93 c-4 -60 -18 -97 -39 -104 -7 -3 -1 -14 14
-29 15 -13 28 -32 30 -42 1 -10 7 -17 11 -15 5 2 13 -5 19 -15 7 -14 13 -16
24 -6 12 9 14 6 14 -23 0 -19 -7 -43 -16 -54 -15 -18 -15 -18 -10 11 3 17 3
24 0 18 -8 -19 -24 -16 -25 5 0 11 -2 12 -6 4 -4 -10 -8 -10 -21 0 -8 7 -18
12 -21 11 -3 -1 -5 11 -4 27 2 17 -3 30 -12 34 -8 3 -15 12 -15 21 0 8 -4 15
-10 15 -5 0 -10 -8 -10 -17 0 -9 -3 -13 -7 -9 -4 4 -9 40 -10 79 -2 40 -6 87
-9 105 -4 20 -2 32 5 32 6 0 11 -16 11 -36 0 -19 4 -33 9 -29 5 3 12 -4 16
-15 7 -22 34 -28 36 -7 1 6 3 19 4 27 2 23 17 70 21 70 3 0 3 -26 1 -58z m525
-229 c3 -25 0 -41 -8 -46 -8 -5 -11 -19 -7 -43 5 -31 3 -35 -13 -32 -15 2 -20
-4 -22 -33 -2 -27 -8 -38 -23 -42 -11 -3 -23 -15 -26 -26 -6 -24 -11 -25 -47
-11 -25 9 -26 8 -26 -26 0 -22 -6 -37 -16 -41 -28 -10 -36 11 -23 61 11 43 10
51 -10 87 -12 22 -20 47 -18 57 3 12 5 10 6 -7 1 -18 5 -22 21 -18 15 4 22 -1
27 -21 8 -36 29 -66 37 -54 3 6 14 8 25 5 15 -4 20 3 25 31 5 26 12 36 26 36
24 0 29 8 36 67 8 71 13 93 23 93 5 0 11 -17 13 -37z m-1183 -793 c10 0 12 -8
8 -30 -4 -16 -2 -32 3 -35 6 -3 10 2 10 12 0 10 4 24 9 32 8 12 12 12 25 2 23
-19 20 -29 -18 -67 -40 -40 -66 -44 -66 -10 0 13 -7 29 -15 36 -18 15 -20 9
-30 -62 -4 -32 -11 -48 -20 -48 -21 0 -37 -37 -37 -82 1 -21 -4 -38 -10 -38
-5 0 -7 7 -4 16 3 8 2 12 -4 9 -6 -3 -13 1 -16 9 -11 28 6 66 31 76 14 5 25
15 26 22 0 7 2 27 3 44 3 25 0 30 -17 30 -27 -1 -35 31 -11 41 11 4 22 -1 30
-12 8 -10 14 -13 14 -7 0 7 6 12 14 12 17 0 30 35 20 51 -5 9 0 10 17 6 13 -4
30 -7 38 -7z"/>
<path d="M4240 3406 c0 -14 -11 -15 -87 -9 -61 4 -84 3 -79 -5 4 -6 -3 -12
-16 -14 -20 -3 -23 -8 -21 -41 2 -37 49 -137 63 -137 4 0 6 -14 5 -31 -2 -34
8 -47 60 -79 28 -17 34 -26 29 -45 -3 -13 2 -37 11 -54 13 -27 20 -30 43 -25
40 10 45 15 26 28 -12 9 -16 26 -16 61 1 27 -4 55 -10 62 -8 10 -7 18 6 31 9
10 16 26 16 35 0 10 8 17 19 17 26 0 31 9 38 68 5 47 4 49 -26 62 -24 10 -31
19 -31 40 0 15 -7 33 -15 40 -12 10 -15 10 -15 -4z"/>
<path d="M3920 3340 c0 -5 4 -10 8 -10 4 0 8 -16 9 -35 1 -20 6 -41 11 -48 6
-7 12 -39 15 -72 3 -49 35 -162 37 -132 0 5 12 -1 26 -12 15 -12 33 -21 40
-21 8 0 14 -4 14 -10 0 -5 7 -10 16 -10 11 0 14 6 8 23 -3 12 -12 24 -18 26
-6 2 -23 17 -38 32 -25 24 -27 33 -24 78 4 44 2 51 -14 51 -23 0 -30 19 -21
61 7 33 -3 66 -24 81 -15 11 -45 10 -45 -2z"/>
<path d="M4354 2955 c-4 -8 -4 -21 -1 -29 3 -7 0 -19 -6 -25 -20 -20 41 -67
98 -75 60 -9 75 7 39 42 -29 29 -30 40 -6 58 16 12 15 13 -8 14 -14 0 -36 7
-50 15 -33 19 -59 19 -66 0z"/>
<path d="M6076 2955 c-15 -8 -34 -15 -41 -15 -7 0 -15 -7 -19 -15 -6 -17 2
-45 14 -45 4 0 13 7 20 15 17 21 42 19 38 -3 -5 -29 29 -72 57 -72 13 0 28 -7
33 -16 7 -12 11 -13 16 -5 4 7 2 19 -5 27 -16 19 -6 28 25 20 35 -9 41 -5 41
24 1 21 6 26 33 28 28 3 31 6 21 18 -16 20 -69 19 -69 -2 0 -14 -7 -15 -40
-10 -33 5 -38 4 -34 -9 5 -13 2 -13 -23 2 -22 12 -29 22 -25 37 3 12 10 24 16
28 21 14 -29 8 -58 -7z"/>
</g>
</svg>
